<?xml version="1.0" encoding="UTF-8"?> <svg xmlns="http://www.w3.org/2000/svg" width="20" height="20" viewBox="0 0 20 20" fill="none"><rect width="20" height="20" rx="5.6" fill="#094A8A"></rect><g clip-path="url(#clip0_117_69)"><path d="M14.4001 10.7051L10.4001 14.6667L6.40007 10.7051C6.13623 10.4483 5.92841 10.1397 5.7897 9.79875C5.65098 9.45775 5.58437 9.09172 5.59406 8.72371C5.60376 8.3557 5.68954 7.99368 5.84602 7.66045C6.0025 7.32723 6.22628 7.03001 6.50326 6.78752C6.78025 6.54502 7.10445 6.36251 7.45544 6.25147C7.80643 6.14042 8.17661 6.10325 8.54267 6.1423C8.90873 6.18135 9.26274 6.29577 9.5824 6.47836C9.90207 6.66095 10.1805 6.90774 10.4001 7.20321C10.6206 6.90989 10.8993 6.66525 11.2188 6.4846C11.5382 6.30395 11.8915 6.19118 12.2566 6.15335C12.6216 6.11552 12.9905 6.15345 13.3402 6.26475C13.6899 6.37605 14.0129 6.55834 14.2889 6.8002C14.5649 7.04206 14.788 7.33829 14.9443 7.67035C15.1006 8.00241 15.1866 8.36315 15.197 8.72999C15.2075 9.09683 15.1421 9.46187 15.0049 9.80228C14.8678 10.1427 14.6619 10.4511 14.4001 10.7083" stroke="white" stroke-width="0.8" stroke-linecap="round" stroke-linejoin="round"></path><path d="M10.4 7.20001L8.6437 8.95628C8.54372 9.05629 8.48755 9.19192 8.48755 9.33335C8.48755 9.47477 8.54372 9.6104 8.6437 9.71041L8.9333 10C9.3013 10.368 9.89864 10.368 10.2666 10L10.8 9.46668C11.1182 9.14842 11.5499 8.96963 12 8.96963C12.4501 8.96963 12.8817 9.14842 13.2 9.46668L14.4 10.6667" stroke="white" stroke-width="0.8" stroke-linecap="round" stroke-linejoin="round"></path><path d="M10.6666 12.2667L11.7333 13.3334" stroke="white" stroke-width="0.8" stroke-linecap="round" stroke-linejoin="round"></path><path d="M12 10.9333L13.0667 12" stroke="white" stroke-width="0.8" stroke-linecap="round" stroke-linejoin="round"></path></g><defs><clipPath id="clip0_117_69"><rect width="12.8" height="12.8" fill="white" transform="translate(4 4)"></rect></clipPath></defs></svg> 