<?xml version="1.0" encoding="UTF-8"?> <svg xmlns="http://www.w3.org/2000/svg" width="35" height="35" viewBox="0 0 35 35" fill="none"><rect width="35" height="35" rx="8.4" fill="#094A8A"></rect><g clip-path="url(#clip0_124_1992)"><path d="M9.33331 14.1666C9.33331 13.9124 9.43428 13.6687 9.614 13.4889C9.79372 13.3092 10.0375 13.2083 10.2916 13.2083H23.7083C23.9625 13.2083 24.2062 13.3092 24.386 13.4889C24.5657 13.6687 24.6666 13.9124 24.6666 14.1666V20.8749C24.6666 21.1291 24.5657 21.3728 24.386 21.5526C24.2062 21.7323 23.9625 21.8333 23.7083 21.8333H10.2916C10.0375 21.8333 9.79372 21.7323 9.614 21.5526C9.43428 21.3728 9.33331 21.1291 9.33331 20.8749V14.1666Z" stroke="white" stroke-width="1.4375" stroke-linecap="round" stroke-linejoin="round"></path><path d="M12.2083 21.8333V25.6666" stroke="white" stroke-width="1.4375" stroke-linecap="round" stroke-linejoin="round"></path><path d="M12.6875 21.8333L21.3125 13.2083" stroke="white" stroke-width="1.4375" stroke-linecap="round" stroke-linejoin="round"></path><path d="M18.4375 21.8334L24.6667 15.6042" stroke="white" stroke-width="1.4375" stroke-linecap="round" stroke-linejoin="round"></path><path d="M9.33331 19.4374L15.5625 13.2083" stroke="white" stroke-width="1.4375" stroke-linecap="round" stroke-linejoin="round"></path><path d="M21.7917 21.8333V25.6666" stroke="white" stroke-width="1.4375" stroke-linecap="round" stroke-linejoin="round"></path><path d="M10.2917 25.6667H14.125" stroke="white" stroke-width="1.4375" stroke-linecap="round" stroke-linejoin="round"></path><path d="M19.875 25.6667H23.7083" stroke="white" stroke-width="1.4375" stroke-linecap="round" stroke-linejoin="round"></path><path d="M21.7917 13.2084V11.2917" stroke="white" stroke-width="1.4375" stroke-linecap="round" stroke-linejoin="round"></path><path d="M12.2083 13.2084V11.2917" stroke="white" stroke-width="1.4375" stroke-linecap="round" stroke-linejoin="round"></path></g><defs><clipPath id="clip0_124_1992"><rect width="23" height="23" fill="white" transform="translate(5.5 6.5)"></rect></clipPath></defs></svg> 