<?xml version="1.0" encoding="UTF-8"?> <svg xmlns="http://www.w3.org/2000/svg" width="20" height="21" viewBox="0 0 20 21" fill="none"><rect y="0.443359" width="20" height="20" rx="4.44444" fill="white"></rect><g clip-path="url(#clip0_100_390)"><path d="M13.8507 6.54252C13.3464 6.03355 12.7458 5.63003 12.084 5.35548C11.4222 5.08094 10.7124 4.94085 9.99587 4.94339C6.99356 4.94339 4.54675 7.38952 4.544 10.3925C4.544 11.3543 4.79563 12.29 5.27069 13.1185L4.5 15.9434L7.39025 15.1858C8.18982 15.6209 9.08558 15.849 9.99587 15.8492H9.99863C13.0016 15.8492 15.4478 13.4031 15.4505 10.3973C15.4512 9.68099 15.3101 8.97158 15.0354 8.31C14.7607 7.64841 14.3579 7.04771 13.85 6.54252H13.8507ZM9.99587 14.9266C9.18394 14.9269 8.38692 14.7084 7.68863 14.2941L7.52362 14.1951L5.809 14.6447L6.26687 12.972L6.15963 12.7995C5.70574 12.0778 5.46569 11.2423 5.46731 10.3898C5.46731 7.89689 7.50025 5.86327 9.99863 5.86327C10.5938 5.8622 11.1833 5.97896 11.7332 6.20681C12.2831 6.43466 12.7824 6.76909 13.2024 7.19083C13.6238 7.61093 13.9579 8.11031 14.1854 8.66018C14.4129 9.21004 14.5293 9.79951 14.5279 10.3946C14.5251 12.8964 12.4922 14.9266 9.99587 14.9266ZM12.4812 11.5345C12.3458 11.4664 11.6768 11.1371 11.551 11.0903C11.4259 11.0456 11.3344 11.0223 11.2451 11.1584C11.1536 11.2938 10.8924 11.6025 10.814 11.6912C10.7356 11.7826 10.6545 11.793 10.5184 11.7256C10.3829 11.6568 9.94362 11.5138 9.42388 11.0484C9.01825 10.6875 8.74669 10.2406 8.66556 10.1051C8.58719 9.96902 8.658 9.89614 8.72606 9.82808C8.78587 9.76758 8.8615 9.66858 8.92956 9.59021C8.99831 9.51183 9.021 9.45408 9.06569 9.36333C9.11037 9.27121 9.08906 9.19283 9.05538 9.12477C9.021 9.05671 8.74944 8.38502 8.63462 8.11414C8.52462 7.84671 8.41256 7.88383 8.32869 7.88039C8.25031 7.87558 8.15887 7.87558 8.06744 7.87558C7.99839 7.8773 7.93044 7.89327 7.86785 7.92249C7.80527 7.95171 7.7494 7.99356 7.70375 8.04539C7.57862 8.18152 7.22869 8.51083 7.22869 9.18252C7.22869 9.85421 7.71681 10.4998 7.78556 10.5912C7.85294 10.6826 8.74394 12.057 10.1114 12.6482C10.4345 12.7891 10.6889 12.8723 10.8876 12.9356C11.2141 13.0401 11.5091 13.0243 11.7442 12.9906C12.0054 12.9507 12.5492 12.6606 12.6641 12.3423C12.7768 12.0233 12.7768 11.751 12.7424 11.694C12.7087 11.6362 12.6173 11.6025 12.4812 11.5345Z" fill="#094A8A"></path></g><defs><clipPath id="clip0_100_390"><rect width="11" height="11" fill="white" transform="translate(4.5 4.94336)"></rect></clipPath></defs></svg> 