<?xml version="1.0" encoding="UTF-8"?> <svg xmlns="http://www.w3.org/2000/svg" width="1600" height="900" viewBox="0 0 1600 900" fill="none"><rect width="1600" height="900" fill="#094A8A"></rect><path d="M332.33 430H318.23V354.58H278.09V430H263.99V343.6H332.33V430ZM375.004 367.84C379.524 367.84 383.604 368.58 387.244 370.06C390.924 371.54 394.044 373.64 396.604 376.36C399.204 379.08 401.204 382.38 402.604 386.26C404.004 390.14 404.704 394.5 404.704 399.34C404.704 404.18 404.004 408.54 402.604 412.42C401.204 416.3 399.204 419.62 396.604 422.38C394.044 425.1 390.924 427.2 387.244 428.68C383.604 430.16 379.524 430.9 375.004 430.9C370.444 430.9 366.324 430.16 362.644 428.68C359.004 427.2 355.884 425.1 353.284 422.38C350.684 419.62 348.684 416.3 347.284 412.42C345.884 408.54 345.184 404.18 345.184 399.34C345.184 394.5 345.884 390.14 347.284 386.26C348.684 382.38 350.684 379.08 353.284 376.36C355.884 373.64 359.004 371.54 362.644 370.06C366.324 368.58 370.444 367.84 375.004 367.84ZM375.004 420.82C380.524 420.82 384.624 418.98 387.304 415.3C390.024 411.58 391.384 406.28 391.384 399.4C391.384 392.52 390.024 387.22 387.304 383.5C384.624 379.74 380.524 377.86 375.004 377.86C369.404 377.86 365.244 379.74 362.524 383.5C359.804 387.22 358.444 392.52 358.444 399.4C358.444 406.28 359.804 411.58 362.524 415.3C365.244 418.98 369.404 420.82 375.004 420.82ZM460.358 380.8C459.958 381.32 459.578 381.72 459.218 382C458.858 382.28 458.338 382.42 457.658 382.42C456.978 382.42 456.258 382.18 455.498 381.7C454.778 381.22 453.898 380.7 452.858 380.14C451.858 379.54 450.638 379 449.198 378.52C447.758 378.04 445.958 377.8 443.798 377.8C440.998 377.8 438.538 378.3 436.418 379.3C434.338 380.3 432.578 381.74 431.138 383.62C429.738 385.46 428.678 387.72 427.958 390.4C427.278 393.04 426.938 396.02 426.938 399.34C426.938 402.78 427.318 405.84 428.078 408.52C428.838 411.2 429.918 413.46 431.318 415.3C432.758 417.14 434.478 418.54 436.478 419.5C438.518 420.46 440.798 420.94 443.318 420.94C445.798 420.94 447.818 420.64 449.378 420.04C450.938 419.44 452.238 418.78 453.278 418.06C454.318 417.34 455.198 416.68 455.918 416.08C456.678 415.48 457.478 415.18 458.318 415.18C459.358 415.18 460.158 415.58 460.718 416.38L464.378 421.12C462.898 422.92 461.258 424.44 459.458 425.68C457.658 426.92 455.758 427.94 453.758 428.74C451.758 429.5 449.678 430.04 447.518 430.36C445.358 430.72 443.178 430.9 440.978 430.9C437.178 430.9 433.618 430.2 430.298 428.8C427.018 427.36 424.138 425.3 421.658 422.62C419.218 419.9 417.278 416.6 415.838 412.72C414.438 408.8 413.738 404.34 413.738 399.34C413.738 394.82 414.378 390.64 415.658 386.8C416.938 382.92 418.798 379.58 421.238 376.78C423.718 373.98 426.778 371.8 430.418 370.24C434.058 368.64 438.258 367.84 443.018 367.84C447.458 367.84 451.358 368.56 454.718 370C458.118 371.44 461.138 373.48 463.778 376.12L460.358 380.8ZM513.84 392.5C513.84 390.34 513.52 388.34 512.88 386.5C512.28 384.62 511.38 383 510.18 381.64C508.98 380.24 507.48 379.16 505.68 378.4C503.92 377.6 501.88 377.2 499.56 377.2C494.88 377.2 491.2 378.54 488.52 381.22C485.84 383.9 484.14 387.66 483.42 392.5H513.84ZM483.06 400.42C483.22 403.9 483.76 406.92 484.68 409.48C485.6 412 486.82 414.1 488.34 415.78C489.9 417.46 491.74 418.72 493.86 419.56C496.02 420.36 498.42 420.76 501.06 420.76C503.58 420.76 505.76 420.48 507.6 419.92C509.44 419.32 511.04 418.68 512.4 418C513.76 417.28 514.92 416.64 515.88 416.08C516.84 415.48 517.72 415.18 518.52 415.18C519.56 415.18 520.36 415.58 520.92 416.38L524.58 421.12C523.06 422.92 521.34 424.44 519.42 425.68C517.5 426.92 515.46 427.94 513.3 428.74C511.14 429.5 508.92 430.04 506.64 430.36C504.36 430.72 502.14 430.9 499.98 430.9C495.74 430.9 491.8 430.2 488.16 428.8C484.56 427.36 481.42 425.26 478.74 422.5C476.1 419.74 474.02 416.32 472.5 412.24C471.02 408.16 470.28 403.46 470.28 398.14C470.28 393.9 470.94 389.94 472.26 386.26C473.62 382.58 475.54 379.38 478.02 376.66C480.54 373.94 483.58 371.8 487.14 370.24C490.74 368.64 494.8 367.84 499.32 367.84C503.08 367.84 506.56 368.46 509.76 369.7C512.96 370.9 515.72 372.68 518.04 375.04C520.36 377.4 522.16 380.3 523.44 383.74C524.76 387.14 525.42 391.02 525.42 395.38C525.42 397.38 525.2 398.72 524.76 399.4C524.32 400.08 523.52 400.42 522.36 400.42H483.06ZM632.25 420.28V446.86C632.25 448.06 631.89 449 631.17 449.68C630.49 450.4 629.61 450.76 628.53 450.76H620.55V430H537.45V368.8H550.35V420.28H572.79V368.8H585.69V420.28H608.13V368.8H620.97V430H621.03V420.28H632.25ZM681.301 392.5C681.301 390.34 680.981 388.34 680.341 386.5C679.741 384.62 678.841 383 677.641 381.64C676.441 380.24 674.941 379.16 673.141 378.4C671.381 377.6 669.341 377.2 667.021 377.2C662.341 377.2 658.661 378.54 655.981 381.22C653.301 383.9 651.601 387.66 650.881 392.5H681.301ZM650.521 400.42C650.681 403.9 651.221 406.92 652.141 409.48C653.061 412 654.281 414.1 655.801 415.78C657.361 417.46 659.201 418.72 661.321 419.56C663.481 420.36 665.881 420.76 668.521 420.76C671.041 420.76 673.221 420.48 675.061 419.92C676.901 419.32 678.501 418.68 679.861 418C681.221 417.28 682.381 416.64 683.341 416.08C684.301 415.48 685.181 415.18 685.981 415.18C687.021 415.18 687.821 415.58 688.381 416.38L692.041 421.12C690.521 422.92 688.801 424.44 686.881 425.68C684.961 426.92 682.921 427.94 680.761 428.74C678.601 429.5 676.381 430.04 674.101 430.36C671.821 430.72 669.601 430.9 667.441 430.9C663.201 430.9 659.261 430.2 655.621 428.8C652.021 427.36 648.881 425.26 646.201 422.5C643.561 419.74 641.481 416.32 639.961 412.24C638.481 408.16 637.741 403.46 637.741 398.14C637.741 393.9 638.401 389.94 639.721 386.26C641.081 382.58 643.001 379.38 645.481 376.66C648.001 373.94 651.041 371.8 654.601 370.24C658.201 368.64 662.261 367.84 666.781 367.84C670.541 367.84 674.021 368.46 677.221 369.7C680.421 370.9 683.181 372.68 685.501 375.04C687.821 377.4 689.621 380.3 690.901 383.74C692.221 387.14 692.881 391.02 692.881 395.38C692.881 397.38 692.661 398.72 692.221 399.4C691.781 400.08 690.981 400.42 689.821 400.42H650.521ZM757.111 368.8V430H744.271V402.22H717.811V430H704.911V368.8H717.811V392.5H744.271V368.8H757.111ZM826.7 368.8V430H813.8V391.66C813.8 390.82 813.84 389.9 813.92 388.9C814 387.9 814.12 386.88 814.28 385.84C813.88 386.72 813.48 387.54 813.08 388.3C812.72 389.02 812.32 389.68 811.88 390.28L785.3 426.82C784.82 427.58 784.18 428.32 783.38 429.04C782.58 429.72 781.68 430.06 780.68 430.06H772.88V368.8H785.78V407.14C785.78 407.98 785.72 408.92 785.6 409.96C785.52 411 785.4 412.04 785.24 413.08C786.04 411.24 786.86 409.72 787.7 408.52L814.28 372.04C814.76 371.24 815.4 370.5 816.2 369.82C817 369.14 817.9 368.8 818.9 368.8H826.7ZM882.512 392.5C882.512 390.34 882.192 388.34 881.552 386.5C880.952 384.62 880.052 383 878.852 381.64C877.652 380.24 876.152 379.16 874.352 378.4C872.592 377.6 870.552 377.2 868.232 377.2C863.552 377.2 859.872 378.54 857.192 381.22C854.512 383.9 852.812 387.66 852.092 392.5H882.512ZM851.732 400.42C851.892 403.9 852.432 406.92 853.352 409.48C854.272 412 855.492 414.1 857.012 415.78C858.572 417.46 860.412 418.72 862.532 419.56C864.692 420.36 867.092 420.76 869.732 420.76C872.252 420.76 874.432 420.48 876.272 419.92C878.112 419.32 879.712 418.68 881.072 418C882.432 417.28 883.592 416.64 884.552 416.08C885.512 415.48 886.392 415.18 887.192 415.18C888.232 415.18 889.032 415.58 889.592 416.38L893.252 421.12C891.732 422.92 890.012 424.44 888.092 425.68C886.172 426.92 884.132 427.94 881.972 428.74C879.812 429.5 877.592 430.04 875.312 430.36C873.032 430.72 870.812 430.9 868.652 430.9C864.412 430.9 860.472 430.2 856.832 428.8C853.232 427.36 850.092 425.26 847.412 422.5C844.772 419.74 842.692 416.32 841.172 412.24C839.692 408.16 838.952 403.46 838.952 398.14C838.952 393.9 839.612 389.94 840.932 386.26C842.292 382.58 844.212 379.38 846.692 376.66C849.212 373.94 852.252 371.8 855.812 370.24C859.412 368.64 863.472 367.84 867.992 367.84C871.752 367.84 875.232 368.46 878.432 369.7C881.632 370.9 884.392 372.68 886.712 375.04C889.032 377.4 890.832 380.3 892.112 383.74C893.432 387.14 894.092 391.02 894.092 395.38C894.092 397.38 893.872 398.72 893.432 399.4C892.992 400.08 892.192 400.42 891.032 400.42H851.732ZM976.925 421.18C983.445 420.74 988.445 418.64 991.925 414.88C995.445 411.12 997.205 405.96 997.205 399.4C997.205 392.84 995.445 387.68 991.925 383.92C988.445 380.12 983.445 378 976.925 377.56V421.18ZM965.645 377.56C959.125 378 954.105 380.12 950.585 383.92C947.105 387.68 945.365 392.84 945.365 399.4C945.365 405.96 947.105 411.12 950.585 414.88C954.105 418.64 959.125 420.74 965.645 421.18V377.56ZM977.285 367.9C982.245 368.14 986.745 369.04 990.785 370.6C994.825 372.16 998.265 374.3 1001.1 377.02C1003.94 379.74 1006.14 382.98 1007.7 386.74C1009.26 390.5 1010.04 394.7 1010.04 399.34C1010.04 403.98 1009.26 408.18 1007.7 411.94C1006.14 415.7 1003.94 418.94 1001.1 421.66C998.265 424.38 994.825 426.54 990.785 428.14C986.745 429.7 982.245 430.6 977.285 430.84V450.76H965.225V430.84C960.265 430.6 955.765 429.7 951.725 428.14C947.685 426.54 944.245 424.38 941.405 421.66C938.565 418.94 936.365 415.7 934.805 411.94C933.245 408.18 932.465 403.98 932.465 399.34C932.465 394.74 933.245 390.56 934.805 386.8C936.365 383.04 938.565 379.8 941.405 377.08C944.245 374.36 947.685 372.22 951.725 370.66C955.765 369.06 960.265 368.14 965.225 367.9V343.6H977.285V367.9ZM1054.95 403.24C1050.35 403.4 1046.47 403.78 1043.31 404.38C1040.15 404.94 1037.59 405.68 1035.63 406.6C1033.67 407.48 1032.25 408.54 1031.37 409.78C1030.53 411.02 1030.11 412.38 1030.11 413.86C1030.11 415.3 1030.33 416.54 1030.77 417.58C1031.25 418.58 1031.89 419.42 1032.69 420.1C1033.53 420.74 1034.49 421.22 1035.57 421.54C1036.69 421.82 1037.91 421.96 1039.23 421.96C1042.59 421.96 1045.47 421.34 1047.87 420.1C1050.31 418.82 1052.67 416.98 1054.95 414.58V403.24ZM1020.75 377.32C1027.67 370.88 1035.91 367.66 1045.47 367.66C1048.99 367.66 1052.11 368.24 1054.83 369.4C1057.59 370.52 1059.89 372.12 1061.73 374.2C1063.61 376.28 1065.03 378.76 1065.99 381.64C1066.99 384.48 1067.49 387.64 1067.49 391.12V430H1061.73C1060.49 430 1059.55 429.82 1058.91 429.46C1058.27 429.06 1057.73 428.28 1057.29 427.12L1056.03 422.14C1054.47 423.54 1052.93 424.8 1051.41 425.92C1049.89 427 1048.31 427.92 1046.67 428.68C1045.07 429.44 1043.33 430 1041.45 430.36C1039.61 430.76 1037.57 430.96 1035.33 430.96C1032.85 430.96 1030.53 430.62 1028.37 429.94C1026.25 429.26 1024.41 428.24 1022.85 426.88C1021.29 425.48 1020.05 423.76 1019.13 421.72C1018.25 419.68 1017.81 417.28 1017.81 414.52C1017.81 412.16 1018.43 409.86 1019.67 407.62C1020.95 405.38 1023.03 403.38 1025.91 401.62C1028.83 399.82 1032.65 398.34 1037.37 397.18C1042.13 396.02 1047.99 395.36 1054.95 395.2V391.12C1054.95 386.72 1054.01 383.44 1052.13 381.28C1050.25 379.12 1047.49 378.04 1043.85 378.04C1041.37 378.04 1039.29 378.36 1037.61 379C1035.93 379.6 1034.47 380.26 1033.23 380.98C1031.99 381.7 1030.89 382.38 1029.93 383.02C1028.97 383.62 1027.95 383.92 1026.87 383.92C1025.99 383.92 1025.23 383.7 1024.59 383.26C1023.99 382.78 1023.49 382.2 1023.09 381.52L1020.75 377.32ZM1110.81 421.36C1116.37 421.36 1120.53 419.62 1123.29 416.14C1126.05 412.62 1127.43 407.56 1127.43 400.96C1127.43 394.44 1126.09 389.42 1123.41 385.9C1120.73 382.34 1116.67 380.56 1111.23 380.56C1105.87 380.56 1101.71 382.2 1098.75 385.48C1095.83 388.76 1094.37 393.56 1094.37 399.88C1094.37 406.76 1095.73 412.06 1098.45 415.78C1101.21 419.5 1105.33 421.36 1110.81 421.36ZM1115.07 356.26C1111.19 356.54 1107.85 357.34 1105.05 358.66C1102.29 359.98 1099.99 361.76 1098.15 364C1096.35 366.24 1094.97 368.92 1094.01 372.04C1093.09 375.16 1092.55 378.64 1092.39 382.48C1094.39 379 1097.29 376.22 1101.09 374.14C1104.89 372.06 1109.33 371.02 1114.41 371.02C1118.49 371.02 1122.15 371.74 1125.39 373.18C1128.63 374.62 1131.37 376.64 1133.61 379.24C1135.89 381.84 1137.63 384.98 1138.83 388.66C1140.07 392.34 1140.69 396.42 1140.69 400.9C1140.69 405.46 1139.97 409.6 1138.53 413.32C1137.13 417 1135.13 420.16 1132.53 422.8C1129.93 425.4 1126.79 427.4 1123.11 428.8C1119.43 430.2 1115.33 430.9 1110.81 430.9C1106.53 430.9 1102.57 430.2 1098.93 428.8C1095.29 427.36 1092.13 425.06 1089.45 421.9C1086.77 418.7 1084.67 414.52 1083.15 409.36C1081.67 404.2 1080.93 397.88 1080.93 390.4C1080.93 384.08 1081.51 378.24 1082.67 372.88C1083.83 367.52 1085.71 362.84 1088.31 358.84C1090.91 354.8 1094.31 351.56 1098.51 349.12C1102.75 346.64 1107.91 345.16 1113.99 344.68L1135.77 342.88L1136.49 349.6C1136.65 351.08 1136.43 352.32 1135.83 353.32C1135.27 354.32 1134.27 354.86 1132.83 354.94L1115.07 356.26ZM1166.05 414.64C1167.85 416.96 1169.81 418.6 1171.93 419.56C1174.09 420.48 1176.47 420.94 1179.07 420.94C1184.11 420.94 1188.03 419.1 1190.83 415.42C1193.67 411.74 1195.09 406.26 1195.09 398.98C1195.09 395.22 1194.77 392.02 1194.13 389.38C1193.49 386.7 1192.57 384.52 1191.37 382.84C1190.17 381.16 1188.71 379.94 1186.99 379.18C1185.27 378.42 1183.33 378.04 1181.17 378.04C1177.89 378.04 1175.05 378.76 1172.65 380.2C1170.29 381.6 1168.09 383.62 1166.05 386.26V414.64ZM1165.39 377.68C1167.95 374.68 1170.85 372.26 1174.09 370.42C1177.37 368.58 1181.17 367.66 1185.49 367.66C1188.93 367.66 1192.05 368.36 1194.85 369.76C1197.65 371.12 1200.05 373.12 1202.05 375.76C1204.05 378.4 1205.59 381.68 1206.67 385.6C1207.79 389.48 1208.35 393.94 1208.35 398.98C1208.35 403.5 1207.73 407.72 1206.49 411.64C1205.29 415.52 1203.55 418.9 1201.27 421.78C1198.99 424.62 1196.23 426.86 1192.99 428.5C1189.75 430.1 1186.09 430.9 1182.01 430.9C1178.41 430.9 1175.35 430.32 1172.83 429.16C1170.35 428 1168.09 426.4 1166.05 424.36V450.34H1153.15V368.8H1160.95C1162.71 368.8 1163.83 369.62 1164.31 371.26L1165.39 377.68ZM1274.71 368.8V430H1261.81V391.66C1261.81 390.82 1261.85 389.9 1261.93 388.9C1262.01 387.9 1262.13 386.88 1262.29 385.84C1261.89 386.72 1261.49 387.54 1261.09 388.3C1260.73 389.02 1260.33 389.68 1259.89 390.28L1233.31 426.82C1232.83 427.58 1232.19 428.32 1231.39 429.04C1230.59 429.72 1229.69 430.06 1228.69 430.06H1220.89V368.8H1233.79V407.14C1233.79 407.98 1233.73 408.92 1233.61 409.96C1233.53 411 1233.41 412.04 1233.25 413.08C1234.05 411.24 1234.87 409.72 1235.71 408.52L1262.29 372.04C1262.77 371.24 1263.41 370.5 1264.21 369.82C1265.01 369.14 1265.91 368.8 1266.91 368.8H1274.71ZM1327.22 372.28C1327.86 371.24 1328.72 370.4 1329.8 369.76C1330.92 369.12 1332.08 368.8 1333.28 368.8H1343.36L1328.3 391.78C1327.34 393.34 1326.34 394.6 1325.3 395.56C1324.26 396.52 1322.98 397.26 1321.46 397.78C1323.42 398.34 1325.04 399.2 1326.32 400.36C1327.64 401.48 1328.82 402.94 1329.86 404.74L1345.04 430H1336.16C1333.88 430 1332.1 429.62 1330.82 428.86C1329.58 428.1 1328.52 426.98 1327.64 425.5L1317.26 407.62C1316.42 406.1 1315.32 404.98 1313.96 404.26C1312.6 403.54 1311.06 403.18 1309.34 403.18H1303.28V430.06H1290.38V368.8H1303.28V394.54H1308.5C1310.18 394.54 1311.58 394.22 1312.7 393.58C1313.82 392.94 1314.78 391.96 1315.58 390.64L1327.22 372.28ZM458.496 500.8V562H445.596V523.66C445.596 522.82 445.636 521.9 445.716 520.9C445.796 519.9 445.916 518.88 446.076 517.84C445.676 518.72 445.276 519.54 444.876 520.3C444.516 521.02 444.116 521.68 443.676 522.28L417.096 558.82C416.616 559.58 415.976 560.32 415.176 561.04C414.376 561.72 413.476 562.06 412.476 562.06H404.676V500.8H417.576V539.14C417.576 539.98 417.516 540.92 417.396 541.96C417.316 543 417.196 544.04 417.036 545.08C417.836 543.24 418.656 541.72 419.496 540.52L446.076 504.04C446.556 503.24 447.196 502.5 447.996 501.82C448.796 501.14 449.696 500.8 450.696 500.8H458.496ZM556.251 562H543.411V510.52H516.951V562H504.051V500.8H556.251V562ZM584.92 546.64C586.72 548.96 588.68 550.6 590.8 551.56C592.96 552.48 595.34 552.94 597.94 552.94C602.98 552.94 606.9 551.1 609.7 547.42C612.54 543.74 613.96 538.26 613.96 530.98C613.96 527.22 613.64 524.02 613 521.38C612.36 518.7 611.44 516.52 610.24 514.84C609.04 513.16 607.58 511.94 605.86 511.18C604.14 510.42 602.2 510.04 600.04 510.04C596.76 510.04 593.92 510.76 591.52 512.2C589.16 513.6 586.96 515.62 584.92 518.26V546.64ZM584.26 509.68C586.82 506.68 589.72 504.26 592.96 502.42C596.24 500.58 600.04 499.66 604.36 499.66C607.8 499.66 610.92 500.36 613.72 501.76C616.52 503.12 618.92 505.12 620.92 507.76C622.92 510.4 624.46 513.68 625.54 517.6C626.66 521.48 627.22 525.94 627.22 530.98C627.22 535.5 626.6 539.72 625.36 543.64C624.16 547.52 622.42 550.9 620.14 553.78C617.86 556.62 615.1 558.86 611.86 560.5C608.62 562.1 604.96 562.9 600.88 562.9C597.28 562.9 594.22 562.32 591.7 561.16C589.22 560 586.96 558.4 584.92 556.36V582.34H572.02V500.8H579.82C581.58 500.8 582.7 501.62 583.18 503.26L584.26 509.68ZM666.215 499.84C670.735 499.84 674.815 500.58 678.455 502.06C682.135 503.54 685.255 505.64 687.815 508.36C690.415 511.08 692.415 514.38 693.815 518.26C695.215 522.14 695.915 526.5 695.915 531.34C695.915 536.18 695.215 540.54 693.815 544.42C692.415 548.3 690.415 551.62 687.815 554.38C685.255 557.1 682.135 559.2 678.455 560.68C674.815 562.16 670.735 562.9 666.215 562.9C661.655 562.9 657.535 562.16 653.855 560.68C650.215 559.2 647.095 557.1 644.495 554.38C641.895 551.62 639.895 548.3 638.495 544.42C637.095 540.54 636.395 536.18 636.395 531.34C636.395 526.5 637.095 522.14 638.495 518.26C639.895 514.38 641.895 511.08 644.495 508.36C647.095 505.64 650.215 503.54 653.855 502.06C657.535 500.58 661.655 499.84 666.215 499.84ZM666.215 552.82C671.735 552.82 675.835 550.98 678.515 547.3C681.235 543.58 682.595 538.28 682.595 531.4C682.595 524.52 681.235 519.22 678.515 515.5C675.835 511.74 671.735 509.86 666.215 509.86C660.615 509.86 656.455 511.74 653.735 515.5C651.015 519.22 649.655 524.52 649.655 531.4C649.655 538.28 651.015 543.58 653.735 547.3C656.455 550.98 660.615 552.82 666.215 552.82ZM762.129 500.8V562H749.229V523.66C749.229 522.82 749.269 521.9 749.349 520.9C749.429 519.9 749.549 518.88 749.709 517.84C749.309 518.72 748.909 519.54 748.509 520.3C748.149 521.02 747.749 521.68 747.309 522.28L720.729 558.82C720.249 559.58 719.609 560.32 718.809 561.04C718.009 561.72 717.109 562.06 716.109 562.06H708.309V500.8H721.209V539.14C721.209 539.98 721.149 540.92 721.029 541.96C720.949 543 720.829 544.04 720.669 545.08C721.469 543.24 722.289 541.72 723.129 540.52L749.709 504.04C750.189 503.24 750.829 502.5 751.629 501.82C752.429 501.14 753.329 500.8 754.329 500.8H762.129ZM774.081 507.28C776.401 505.08 779.241 503.3 782.601 501.94C785.961 500.54 789.981 499.84 794.661 499.84C798.421 499.84 801.741 500.3 804.621 501.22C807.501 502.1 809.921 503.3 811.881 504.82C813.841 506.3 815.321 508.02 816.321 509.98C817.361 511.94 817.881 513.98 817.881 516.1C817.881 517.3 817.701 518.54 817.341 519.82C816.981 521.06 816.381 522.28 815.541 523.48C814.741 524.68 813.661 525.8 812.301 526.84C810.981 527.88 809.341 528.74 807.381 529.42C811.021 530.62 813.901 532.48 816.021 535C818.141 537.48 819.201 540.58 819.201 544.3C819.201 547.22 818.521 549.84 817.161 552.16C815.841 554.44 814.061 556.38 811.821 557.98C809.621 559.58 807.061 560.8 804.141 561.64C801.261 562.48 798.261 562.9 795.141 562.9C793.261 562.9 791.301 562.72 789.261 562.36C787.261 562.04 785.261 561.5 783.261 560.74C781.301 559.94 779.401 558.92 777.561 557.68C775.721 556.44 774.061 554.92 772.581 553.12L776.301 548.38C776.781 547.58 777.581 547.18 778.701 547.18C779.501 547.18 780.321 547.48 781.161 548.08C782.001 548.68 782.981 549.34 784.101 550.06C785.261 550.78 786.641 551.44 788.241 552.04C789.881 552.64 791.901 552.94 794.301 552.94C796.301 552.94 798.081 552.7 799.641 552.22C801.201 551.74 802.521 551.06 803.601 550.18C804.681 549.3 805.501 548.28 806.061 547.12C806.621 545.92 806.901 544.62 806.901 543.22C806.901 540.5 805.781 538.36 803.541 536.8C801.341 535.2 797.861 534.4 793.101 534.4H786.201V525.88H793.101C797.261 525.88 800.481 525.12 802.761 523.6C805.041 522.08 806.181 520.1 806.181 517.66C806.181 515.46 805.181 513.6 803.181 512.08C801.221 510.56 798.261 509.8 794.301 509.8C792.061 509.8 790.141 510.04 788.541 510.52C786.981 510.96 785.661 511.46 784.581 512.02C783.501 512.54 782.581 513.02 781.821 513.46C781.101 513.9 780.461 514.12 779.901 514.12C779.301 514.12 778.781 514 778.341 513.76C777.941 513.52 777.501 513.02 777.021 512.26L774.081 507.28ZM856.008 553.06C859.528 553.06 862.308 552.22 864.348 550.54C866.428 548.82 867.468 546.52 867.468 543.64C867.468 542.4 867.288 541.24 866.928 540.16C866.568 539.08 865.948 538.16 865.068 537.4C864.188 536.6 863.008 535.98 861.528 535.54C860.088 535.1 858.268 534.88 856.068 534.88H844.008V553.06H856.008ZM844.008 509.32V526.78H854.628C856.228 526.78 857.688 526.56 859.008 526.12C860.368 525.64 861.528 525 862.488 524.2C863.488 523.36 864.248 522.38 864.768 521.26C865.328 520.1 865.608 518.82 865.608 517.42C865.608 516.42 865.428 515.44 865.068 514.48C864.708 513.48 864.088 512.6 863.208 511.84C862.368 511.08 861.248 510.48 859.848 510.04C858.448 509.56 856.708 509.32 854.628 509.32H844.008ZM855.048 500.8C858.848 500.8 862.128 501.18 864.888 501.94C867.648 502.66 869.908 503.68 871.668 505C873.468 506.32 874.788 507.88 875.628 509.68C876.468 511.48 876.888 513.42 876.888 515.5C876.888 516.82 876.708 518.2 876.348 519.64C875.988 521.08 875.368 522.46 874.488 523.78C873.608 525.06 872.408 526.24 870.888 527.32C869.408 528.4 867.508 529.24 865.188 529.84C869.548 530.64 872.988 532.24 875.508 534.64C878.068 537 879.348 540.16 879.348 544.12C879.348 547.16 878.728 549.8 877.488 552.04C876.248 554.28 874.548 556.14 872.388 557.62C870.268 559.1 867.788 560.2 864.948 560.92C862.148 561.64 859.188 562 856.068 562H831.708V500.8H855.048ZM918.05 499.84C922.57 499.84 926.65 500.58 930.29 502.06C933.97 503.54 937.09 505.64 939.65 508.36C942.25 511.08 944.25 514.38 945.65 518.26C947.05 522.14 947.75 526.5 947.75 531.34C947.75 536.18 947.05 540.54 945.65 544.42C944.25 548.3 942.25 551.62 939.65 554.38C937.09 557.1 933.97 559.2 930.29 560.68C926.65 562.16 922.57 562.9 918.05 562.9C913.49 562.9 909.37 562.16 905.69 560.68C902.05 559.2 898.93 557.1 896.33 554.38C893.73 551.62 891.73 548.3 890.33 544.42C888.93 540.54 888.23 536.18 888.23 531.34C888.23 526.5 888.93 522.14 890.33 518.26C891.73 514.38 893.73 511.08 896.33 508.36C898.93 505.64 902.05 503.54 905.69 502.06C909.37 500.58 913.49 499.84 918.05 499.84ZM918.05 552.82C923.57 552.82 927.67 550.98 930.35 547.3C933.07 543.58 934.43 538.28 934.43 531.4C934.43 524.52 933.07 519.22 930.35 515.5C927.67 511.74 923.57 509.86 918.05 509.86C912.45 509.86 908.29 511.74 905.57 515.5C902.85 519.22 901.49 524.52 901.49 531.4C901.49 538.28 902.85 543.58 905.57 547.3C908.29 550.98 912.45 552.82 918.05 552.82ZM999.613 552.7V510.82H982.453C982.093 516.42 981.573 521.44 980.893 525.88C980.253 530.32 979.493 534.26 978.613 537.7C977.773 541.1 976.833 544.04 975.793 546.52C974.753 548.96 973.673 551.02 972.553 552.7H999.613ZM1023.31 552.28V578.86C1023.31 580.06 1022.95 581 1022.23 581.68C1021.55 582.4 1020.67 582.76 1019.59 582.76H1011.61V562H963.193V579.1C963.193 580.02 962.893 580.86 962.293 581.62C961.733 582.38 960.853 582.76 959.653 582.76H951.493V552.7H953.353C954.753 552.7 956.133 552.5 957.493 552.1C958.853 551.66 960.153 550.8 961.393 549.52C962.633 548.24 963.813 546.44 964.933 544.12C966.053 541.76 967.053 538.66 967.933 534.82C968.853 530.98 969.653 526.28 970.333 520.72C971.013 515.16 971.553 508.52 971.953 500.8H1012.09V552.28H1023.31ZM1075.59 512.8C1075.19 513.32 1074.81 513.72 1074.45 514C1074.09 514.28 1073.57 514.42 1072.89 514.42C1072.21 514.42 1071.49 514.18 1070.73 513.7C1070.01 513.22 1069.13 512.7 1068.09 512.14C1067.09 511.54 1065.87 511 1064.43 510.52C1062.99 510.04 1061.19 509.8 1059.03 509.8C1056.23 509.8 1053.77 510.3 1051.65 511.3C1049.57 512.3 1047.81 513.74 1046.37 515.62C1044.97 517.46 1043.91 519.72 1043.19 522.4C1042.51 525.04 1042.17 528.02 1042.17 531.34C1042.17 534.78 1042.55 537.84 1043.31 540.52C1044.07 543.2 1045.15 545.46 1046.55 547.3C1047.99 549.14 1049.71 550.54 1051.71 551.5C1053.75 552.46 1056.03 552.94 1058.55 552.94C1061.03 552.94 1063.05 552.64 1064.61 552.04C1066.17 551.44 1067.47 550.78 1068.51 550.06C1069.55 549.34 1070.43 548.68 1071.15 548.08C1071.91 547.48 1072.71 547.18 1073.55 547.18C1074.59 547.18 1075.39 547.58 1075.95 548.38L1079.61 553.12C1078.13 554.92 1076.49 556.44 1074.69 557.68C1072.89 558.92 1070.99 559.94 1068.99 560.74C1066.99 561.5 1064.91 562.04 1062.75 562.36C1060.59 562.72 1058.41 562.9 1056.21 562.9C1052.41 562.9 1048.85 562.2 1045.53 560.8C1042.25 559.36 1039.37 557.3 1036.89 554.62C1034.45 551.9 1032.51 548.6 1031.07 544.72C1029.67 540.8 1028.97 536.34 1028.97 531.34C1028.97 526.82 1029.61 522.64 1030.89 518.8C1032.17 514.92 1034.03 511.58 1036.47 508.78C1038.95 505.98 1042.01 503.8 1045.65 502.24C1049.29 500.64 1053.49 499.84 1058.25 499.84C1062.69 499.84 1066.59 500.56 1069.95 502C1073.35 503.44 1076.37 505.48 1079.01 508.12L1075.59 512.8ZM1141.71 510.52H1119.15V562H1106.25V510.52H1083.63V500.8H1141.71V510.52ZM1175.46 553.06C1178.98 553.06 1181.76 552.22 1183.8 550.54C1185.88 548.82 1186.92 546.52 1186.92 543.64C1186.92 542.4 1186.74 541.24 1186.38 540.16C1186.02 539.08 1185.4 538.16 1184.52 537.4C1183.64 536.6 1182.46 535.98 1180.98 535.54C1179.54 535.1 1177.72 534.88 1175.52 534.88H1163.46V553.06H1175.46ZM1163.46 509.32V526.78H1174.08C1175.68 526.78 1177.14 526.56 1178.46 526.12C1179.82 525.64 1180.98 525 1181.94 524.2C1182.94 523.36 1183.7 522.38 1184.22 521.26C1184.78 520.1 1185.06 518.82 1185.06 517.42C1185.06 516.42 1184.88 515.44 1184.52 514.48C1184.16 513.48 1183.54 512.6 1182.66 511.84C1181.82 511.08 1180.7 510.48 1179.3 510.04C1177.9 509.56 1176.16 509.32 1174.08 509.32H1163.46ZM1174.5 500.8C1178.3 500.8 1181.58 501.18 1184.34 501.94C1187.1 502.66 1189.36 503.68 1191.12 505C1192.92 506.32 1194.24 507.88 1195.08 509.68C1195.92 511.48 1196.34 513.42 1196.34 515.5C1196.34 516.82 1196.16 518.2 1195.8 519.64C1195.44 521.08 1194.82 522.46 1193.94 523.78C1193.06 525.06 1191.86 526.24 1190.34 527.32C1188.86 528.4 1186.96 529.24 1184.64 529.84C1189 530.64 1192.44 532.24 1194.96 534.64C1197.52 537 1198.8 540.16 1198.8 544.12C1198.8 547.16 1198.18 549.8 1196.94 552.04C1195.7 554.28 1194 556.14 1191.84 557.62C1189.72 559.1 1187.24 560.2 1184.4 560.92C1181.6 561.64 1178.64 562 1175.52 562H1151.16V500.8H1174.5Z" fill="white"></path></svg> 