<?xml version="1.0" encoding="UTF-8"?> <svg xmlns="http://www.w3.org/2000/svg" width="1600" height="900" viewBox="0 0 1600 900" fill="none"><rect width="1600" height="900" fill="#094A8A"></rect><path d="M327.76 496H313.66V420.58H273.52V496H259.42V409.6H327.76V496ZM370.433 433.84C374.953 433.84 379.033 434.58 382.673 436.06C386.353 437.54 389.473 439.64 392.033 442.36C394.633 445.08 396.633 448.38 398.033 452.26C399.433 456.14 400.133 460.5 400.133 465.34C400.133 470.18 399.433 474.54 398.033 478.42C396.633 482.3 394.633 485.62 392.033 488.38C389.473 491.1 386.353 493.2 382.673 494.68C379.033 496.16 374.953 496.9 370.433 496.9C365.873 496.9 361.753 496.16 358.073 494.68C354.433 493.2 351.313 491.1 348.713 488.38C346.113 485.62 344.113 482.3 342.713 478.42C341.313 474.54 340.613 470.18 340.613 465.34C340.613 460.5 341.313 456.14 342.713 452.26C344.113 448.38 346.113 445.08 348.713 442.36C351.313 439.64 354.433 437.54 358.073 436.06C361.753 434.58 365.873 433.84 370.433 433.84ZM370.433 486.82C375.953 486.82 380.053 484.98 382.733 481.3C385.453 477.58 386.813 472.28 386.813 465.4C386.813 458.52 385.453 453.22 382.733 449.5C380.053 445.74 375.953 443.86 370.433 443.86C364.833 443.86 360.673 445.74 357.953 449.5C355.233 453.22 353.873 458.52 353.873 465.4C353.873 472.28 355.233 477.58 357.953 481.3C360.673 484.98 364.833 486.82 370.433 486.82ZM453.148 444.52H425.428V496H412.528V434.8H453.148V444.52ZM475.467 480.64C477.267 482.96 479.227 484.6 481.347 485.56C483.507 486.48 485.887 486.94 488.487 486.94C493.527 486.94 497.447 485.1 500.247 481.42C503.087 477.74 504.507 472.26 504.507 464.98C504.507 461.22 504.187 458.02 503.547 455.38C502.907 452.7 501.987 450.52 500.787 448.84C499.587 447.16 498.127 445.94 496.407 445.18C494.687 444.42 492.747 444.04 490.587 444.04C487.307 444.04 484.467 444.76 482.067 446.2C479.707 447.6 477.507 449.62 475.467 452.26V480.64ZM474.807 443.68C477.367 440.68 480.267 438.26 483.507 436.42C486.787 434.58 490.587 433.66 494.907 433.66C498.347 433.66 501.467 434.36 504.267 435.76C507.067 437.12 509.467 439.12 511.467 441.76C513.467 444.4 515.007 447.68 516.087 451.6C517.207 455.48 517.767 459.94 517.767 464.98C517.767 469.5 517.147 473.72 515.907 477.64C514.707 481.52 512.967 484.9 510.687 487.78C508.407 490.62 505.647 492.86 502.407 494.5C499.167 496.1 495.507 496.9 491.427 496.9C487.827 496.9 484.767 496.32 482.247 495.16C479.767 494 477.507 492.4 475.467 490.36V516.34H462.567V434.8H470.367C472.127 434.8 473.247 435.62 473.727 437.26L474.807 443.68ZM582.961 434.8L549.241 513.4C548.801 514.32 548.261 515.04 547.621 515.56C547.021 516.08 546.081 516.34 544.801 516.34H535.261L546.541 491.86L521.581 434.8H532.801C533.881 434.8 534.701 435.06 535.261 435.58C535.861 436.06 536.301 436.64 536.581 437.32L551.161 472.06C551.521 473.06 551.841 474.06 552.121 475.06C552.441 476.02 552.741 477.02 553.021 478.06C553.341 477.02 553.661 476 553.981 475C554.301 474 554.661 473 555.061 472L569.041 437.32C569.321 436.6 569.781 436 570.421 435.52C571.101 435.04 571.841 434.8 572.641 434.8H582.961ZM587.05 441.28C589.37 439.08 592.21 437.3 595.57 435.94C598.93 434.54 602.95 433.84 607.63 433.84C611.39 433.84 614.71 434.3 617.59 435.22C620.47 436.1 622.89 437.3 624.85 438.82C626.81 440.3 628.29 442.02 629.29 443.98C630.33 445.94 630.85 447.98 630.85 450.1C630.85 451.3 630.67 452.54 630.31 453.82C629.95 455.06 629.35 456.28 628.51 457.48C627.71 458.68 626.63 459.8 625.27 460.84C623.95 461.88 622.31 462.74 620.35 463.42C623.99 464.62 626.87 466.48 628.99 469C631.11 471.48 632.17 474.58 632.17 478.3C632.17 481.22 631.49 483.84 630.13 486.16C628.81 488.44 627.03 490.38 624.79 491.98C622.59 493.58 620.03 494.8 617.11 495.64C614.23 496.48 611.23 496.9 608.11 496.9C606.23 496.9 604.27 496.72 602.23 496.36C600.23 496.04 598.23 495.5 596.23 494.74C594.27 493.94 592.37 492.92 590.53 491.68C588.69 490.44 587.03 488.92 585.55 487.12L589.27 482.38C589.75 481.58 590.55 481.18 591.67 481.18C592.47 481.18 593.29 481.48 594.13 482.08C594.97 482.68 595.95 483.34 597.07 484.06C598.23 484.78 599.61 485.44 601.21 486.04C602.85 486.64 604.87 486.94 607.27 486.94C609.27 486.94 611.05 486.7 612.61 486.22C614.17 485.74 615.49 485.06 616.57 484.18C617.65 483.3 618.47 482.28 619.03 481.12C619.59 479.92 619.87 478.62 619.87 477.22C619.87 474.5 618.75 472.36 616.51 470.8C614.31 469.2 610.83 468.4 606.07 468.4H599.17V459.88H606.07C610.23 459.88 613.45 459.12 615.73 457.6C618.01 456.08 619.15 454.1 619.15 451.66C619.15 449.46 618.15 447.6 616.15 446.08C614.19 444.56 611.23 443.8 607.27 443.8C605.03 443.8 603.11 444.04 601.51 444.52C599.95 444.96 598.63 445.46 597.55 446.02C596.47 446.54 595.55 447.02 594.79 447.46C594.07 447.9 593.43 448.12 592.87 448.12C592.27 448.12 591.75 448 591.31 447.76C590.91 447.52 590.47 447.02 589.99 446.26L587.05 441.28ZM681.516 438.28C682.156 437.24 683.016 436.4 684.096 435.76C685.216 435.12 686.376 434.8 687.576 434.8H697.656L682.596 457.78C681.636 459.34 680.636 460.6 679.596 461.56C678.556 462.52 677.276 463.26 675.756 463.78C677.716 464.34 679.336 465.2 680.616 466.36C681.936 467.48 683.116 468.94 684.156 470.74L699.336 496H690.456C688.176 496 686.396 495.62 685.116 494.86C683.876 494.1 682.816 492.98 681.936 491.5L671.556 473.62C670.716 472.1 669.616 470.98 668.256 470.26C666.896 469.54 665.356 469.18 663.636 469.18H657.576V496.06H644.676V434.8H657.576V460.54H662.796C664.476 460.54 665.876 460.22 666.996 459.58C668.116 458.94 669.076 457.96 669.876 456.64L681.516 438.28ZM741.126 469.24C736.526 469.4 732.646 469.78 729.486 470.38C726.326 470.94 723.766 471.68 721.806 472.6C719.846 473.48 718.426 474.54 717.546 475.78C716.706 477.02 716.286 478.38 716.286 479.86C716.286 481.3 716.506 482.54 716.946 483.58C717.426 484.58 718.066 485.42 718.866 486.1C719.706 486.74 720.666 487.22 721.746 487.54C722.866 487.82 724.086 487.96 725.406 487.96C728.766 487.96 731.646 487.34 734.046 486.1C736.486 484.82 738.846 482.98 741.126 480.58V469.24ZM706.926 443.32C713.846 436.88 722.086 433.66 731.646 433.66C735.166 433.66 738.286 434.24 741.006 435.4C743.766 436.52 746.066 438.12 747.906 440.2C749.786 442.28 751.206 444.76 752.166 447.64C753.166 450.48 753.666 453.64 753.666 457.12V496H747.906C746.666 496 745.726 495.82 745.086 495.46C744.446 495.06 743.906 494.28 743.466 493.12L742.206 488.14C740.646 489.54 739.106 490.8 737.586 491.92C736.066 493 734.486 493.92 732.846 494.68C731.246 495.44 729.506 496 727.626 496.36C725.786 496.76 723.746 496.96 721.506 496.96C719.026 496.96 716.706 496.62 714.546 495.94C712.426 495.26 710.586 494.24 709.026 492.88C707.466 491.48 706.226 489.76 705.306 487.72C704.426 485.68 703.986 483.28 703.986 480.52C703.986 478.16 704.606 475.86 705.846 473.62C707.126 471.38 709.206 469.38 712.086 467.62C715.006 465.82 718.826 464.34 723.546 463.18C728.306 462.02 734.166 461.36 741.126 461.2V457.12C741.126 452.72 740.186 449.44 738.306 447.28C736.426 445.12 733.666 444.04 730.026 444.04C727.546 444.04 725.466 444.36 723.786 445C722.106 445.6 720.646 446.26 719.406 446.98C718.166 447.7 717.066 448.38 716.106 449.02C715.146 449.62 714.126 449.92 713.046 449.92C712.166 449.92 711.406 449.7 710.766 449.26C710.166 448.78 709.666 448.2 709.266 447.52L706.926 443.32ZM776.998 496.66C776.398 498.3 775.438 499.52 774.118 500.32C772.798 501.16 771.458 501.58 770.098 501.58H764.638L800.158 411.82C800.718 410.34 801.578 409.2 802.738 408.4C803.938 407.6 805.298 407.2 806.818 407.2H812.278L776.998 496.66ZM833.358 480.64C835.158 482.96 837.118 484.6 839.238 485.56C841.398 486.48 843.778 486.94 846.378 486.94C851.418 486.94 855.338 485.1 858.138 481.42C860.978 477.74 862.398 472.26 862.398 464.98C862.398 461.22 862.078 458.02 861.438 455.38C860.798 452.7 859.878 450.52 858.678 448.84C857.478 447.16 856.018 445.94 854.298 445.18C852.578 444.42 850.638 444.04 848.478 444.04C845.198 444.04 842.358 444.76 839.958 446.2C837.598 447.6 835.398 449.62 833.358 452.26V480.64ZM832.698 443.68C835.258 440.68 838.158 438.26 841.398 436.42C844.678 434.58 848.478 433.66 852.798 433.66C856.238 433.66 859.358 434.36 862.158 435.76C864.958 437.12 867.358 439.12 869.358 441.76C871.358 444.4 872.898 447.68 873.978 451.6C875.098 455.48 875.658 459.94 875.658 464.98C875.658 469.5 875.038 473.72 873.798 477.64C872.598 481.52 870.858 484.9 868.578 487.78C866.298 490.62 863.538 492.86 860.298 494.5C857.058 496.1 853.398 496.9 849.318 496.9C845.718 496.9 842.658 496.32 840.138 495.16C837.658 494 835.398 492.4 833.358 490.36V516.34H820.458V434.8H828.258C830.018 434.8 831.138 435.62 831.618 437.26L832.698 443.68ZM920.892 469.24C916.292 469.4 912.412 469.78 909.252 470.38C906.092 470.94 903.532 471.68 901.572 472.6C899.612 473.48 898.192 474.54 897.312 475.78C896.472 477.02 896.052 478.38 896.052 479.86C896.052 481.3 896.272 482.54 896.712 483.58C897.192 484.58 897.832 485.42 898.632 486.1C899.472 486.74 900.432 487.22 901.512 487.54C902.632 487.82 903.852 487.96 905.172 487.96C908.532 487.96 911.412 487.34 913.812 486.1C916.252 484.82 918.612 482.98 920.892 480.58V469.24ZM886.692 443.32C893.612 436.88 901.852 433.66 911.412 433.66C914.932 433.66 918.052 434.24 920.772 435.4C923.532 436.52 925.832 438.12 927.672 440.2C929.552 442.28 930.972 444.76 931.932 447.64C932.932 450.48 933.432 453.64 933.432 457.12V496H927.672C926.432 496 925.492 495.82 924.852 495.46C924.212 495.06 923.672 494.28 923.232 493.12L921.972 488.14C920.412 489.54 918.872 490.8 917.352 491.92C915.832 493 914.252 493.92 912.612 494.68C911.012 495.44 909.272 496 907.392 496.36C905.552 496.76 903.512 496.96 901.272 496.96C898.792 496.96 896.472 496.62 894.312 495.94C892.192 495.26 890.352 494.24 888.792 492.88C887.232 491.48 885.992 489.76 885.072 487.72C884.192 485.68 883.752 483.28 883.752 480.52C883.752 478.16 884.372 475.86 885.612 473.62C886.892 471.38 888.972 469.38 891.852 467.62C894.772 465.82 898.592 464.34 903.312 463.18C908.072 462.02 913.932 461.36 920.892 461.2V457.12C920.892 452.72 919.952 449.44 918.072 447.28C916.192 445.12 913.432 444.04 909.792 444.04C907.312 444.04 905.232 444.36 903.552 445C901.872 445.6 900.412 446.26 899.172 446.98C897.932 447.7 896.832 448.38 895.872 449.02C894.912 449.62 893.892 449.92 892.812 449.92C891.932 449.92 891.172 449.7 890.532 449.26C889.932 448.78 889.432 448.2 889.032 447.52L886.692 443.32ZM944.824 441.28C947.144 439.08 949.984 437.3 953.344 435.94C956.704 434.54 960.724 433.84 965.404 433.84C969.164 433.84 972.484 434.3 975.364 435.22C978.244 436.1 980.664 437.3 982.624 438.82C984.584 440.3 986.064 442.02 987.064 443.98C988.104 445.94 988.624 447.98 988.624 450.1C988.624 451.3 988.444 452.54 988.084 453.82C987.724 455.06 987.124 456.28 986.284 457.48C985.484 458.68 984.404 459.8 983.044 460.84C981.724 461.88 980.084 462.74 978.124 463.42C981.764 464.62 984.644 466.48 986.764 469C988.884 471.48 989.944 474.58 989.944 478.3C989.944 481.22 989.264 483.84 987.904 486.16C986.584 488.44 984.804 490.38 982.564 491.98C980.364 493.58 977.804 494.8 974.884 495.64C972.004 496.48 969.004 496.9 965.884 496.9C964.004 496.9 962.044 496.72 960.004 496.36C958.004 496.04 956.004 495.5 954.004 494.74C952.044 493.94 950.144 492.92 948.304 491.68C946.464 490.44 944.804 488.92 943.324 487.12L947.044 482.38C947.524 481.58 948.324 481.18 949.444 481.18C950.244 481.18 951.064 481.48 951.904 482.08C952.744 482.68 953.724 483.34 954.844 484.06C956.004 484.78 957.384 485.44 958.984 486.04C960.624 486.64 962.644 486.94 965.044 486.94C967.044 486.94 968.824 486.7 970.384 486.22C971.944 485.74 973.264 485.06 974.344 484.18C975.424 483.3 976.244 482.28 976.804 481.12C977.364 479.92 977.644 478.62 977.644 477.22C977.644 474.5 976.524 472.36 974.284 470.8C972.084 469.2 968.604 468.4 963.844 468.4H956.944V459.88H963.844C968.004 459.88 971.224 459.12 973.504 457.6C975.784 456.08 976.924 454.1 976.924 451.66C976.924 449.46 975.924 447.6 973.924 446.08C971.964 444.56 969.004 443.8 965.044 443.8C962.804 443.8 960.884 444.04 959.284 444.52C957.724 444.96 956.404 445.46 955.324 446.02C954.244 446.54 953.324 447.02 952.564 447.46C951.844 447.9 951.204 448.12 950.644 448.12C950.044 448.12 949.524 448 949.084 447.76C948.684 447.52 948.244 447.02 947.764 446.26L944.824 441.28ZM1043.07 444.52H1015.35V496H1002.45V434.8H1043.07V444.52ZM1065.39 480.64C1067.19 482.96 1069.15 484.6 1071.27 485.56C1073.43 486.48 1075.81 486.94 1078.41 486.94C1083.45 486.94 1087.37 485.1 1090.17 481.42C1093.01 477.74 1094.43 472.26 1094.43 464.98C1094.43 461.22 1094.11 458.02 1093.47 455.38C1092.83 452.7 1091.91 450.52 1090.71 448.84C1089.51 447.16 1088.05 445.94 1086.33 445.18C1084.61 444.42 1082.67 444.04 1080.51 444.04C1077.23 444.04 1074.39 444.76 1071.99 446.2C1069.63 447.6 1067.43 449.62 1065.39 452.26V480.64ZM1064.73 443.68C1067.29 440.68 1070.19 438.26 1073.43 436.42C1076.71 434.58 1080.51 433.66 1084.83 433.66C1088.27 433.66 1091.39 434.36 1094.19 435.76C1096.99 437.12 1099.39 439.12 1101.39 441.76C1103.39 444.4 1104.93 447.68 1106.01 451.6C1107.13 455.48 1107.69 459.94 1107.69 464.98C1107.69 469.5 1107.07 473.72 1105.83 477.64C1104.63 481.52 1102.89 484.9 1100.61 487.78C1098.33 490.62 1095.57 492.86 1092.33 494.5C1089.09 496.1 1085.43 496.9 1081.35 496.9C1077.75 496.9 1074.69 496.32 1072.17 495.16C1069.69 494 1067.43 492.4 1065.39 490.36V516.34H1052.49V434.8H1060.29C1062.05 434.8 1063.17 435.62 1063.65 437.26L1064.73 443.68ZM1172.88 434.8L1139.16 513.4C1138.72 514.32 1138.18 515.04 1137.54 515.56C1136.94 516.08 1136 516.34 1134.72 516.34H1125.18L1136.46 491.86L1111.5 434.8H1122.72C1123.8 434.8 1124.62 435.06 1125.18 435.58C1125.78 436.06 1126.22 436.64 1126.5 437.32L1141.08 472.06C1141.44 473.06 1141.76 474.06 1142.04 475.06C1142.36 476.02 1142.66 477.02 1142.94 478.06C1143.26 477.02 1143.58 476 1143.9 475C1144.22 474 1144.58 473 1144.98 472L1158.96 437.32C1159.24 436.6 1159.7 436 1160.34 435.52C1161.02 435.04 1161.76 434.8 1162.56 434.8H1172.88ZM1176.97 441.28C1179.29 439.08 1182.13 437.3 1185.49 435.94C1188.85 434.54 1192.87 433.84 1197.55 433.84C1201.31 433.84 1204.63 434.3 1207.51 435.22C1210.39 436.1 1212.81 437.3 1214.77 438.82C1216.73 440.3 1218.21 442.02 1219.21 443.98C1220.25 445.94 1220.77 447.98 1220.77 450.1C1220.77 451.3 1220.59 452.54 1220.23 453.82C1219.87 455.06 1219.27 456.28 1218.43 457.48C1217.63 458.68 1216.55 459.8 1215.19 460.84C1213.87 461.88 1212.23 462.74 1210.27 463.42C1213.91 464.62 1216.79 466.48 1218.91 469C1221.03 471.48 1222.09 474.58 1222.09 478.3C1222.09 481.22 1221.41 483.84 1220.05 486.16C1218.73 488.44 1216.95 490.38 1214.71 491.98C1212.51 493.58 1209.95 494.8 1207.03 495.64C1204.15 496.48 1201.15 496.9 1198.03 496.9C1196.15 496.9 1194.19 496.72 1192.15 496.36C1190.15 496.04 1188.15 495.5 1186.15 494.74C1184.19 493.94 1182.29 492.92 1180.45 491.68C1178.61 490.44 1176.95 488.92 1175.47 487.12L1179.19 482.38C1179.67 481.58 1180.47 481.18 1181.59 481.18C1182.39 481.18 1183.21 481.48 1184.05 482.08C1184.89 482.68 1185.87 483.34 1186.99 484.06C1188.15 484.78 1189.53 485.44 1191.13 486.04C1192.77 486.64 1194.79 486.94 1197.19 486.94C1199.19 486.94 1200.97 486.7 1202.53 486.22C1204.09 485.74 1205.41 485.06 1206.49 484.18C1207.57 483.3 1208.39 482.28 1208.95 481.12C1209.51 479.92 1209.79 478.62 1209.79 477.22C1209.79 474.5 1208.67 472.36 1206.43 470.8C1204.23 469.2 1200.75 468.4 1195.99 468.4H1189.09V459.88H1195.99C1200.15 459.88 1203.37 459.12 1205.65 457.6C1207.93 456.08 1209.07 454.1 1209.07 451.66C1209.07 449.46 1208.07 447.6 1206.07 446.08C1204.11 444.56 1201.15 443.8 1197.19 443.8C1194.95 443.8 1193.03 444.04 1191.43 444.52C1189.87 444.96 1188.55 445.46 1187.47 446.02C1186.39 446.54 1185.47 447.02 1184.71 447.46C1183.99 447.9 1183.35 448.12 1182.79 448.12C1182.19 448.12 1181.67 448 1181.23 447.76C1180.83 447.52 1180.39 447.02 1179.91 446.26L1176.97 441.28ZM1271.44 438.28C1272.08 437.24 1272.94 436.4 1274.02 435.76C1275.14 435.12 1276.3 434.8 1277.5 434.8H1287.58L1272.52 457.78C1271.56 459.34 1270.56 460.6 1269.52 461.56C1268.48 462.52 1267.2 463.26 1265.68 463.78C1267.64 464.34 1269.26 465.2 1270.54 466.36C1271.86 467.48 1273.04 468.94 1274.08 470.74L1289.26 496H1280.38C1278.1 496 1276.32 495.62 1275.04 494.86C1273.8 494.1 1272.74 492.98 1271.86 491.5L1261.48 473.62C1260.64 472.1 1259.54 470.98 1258.18 470.26C1256.82 469.54 1255.28 469.18 1253.56 469.18H1247.5V496.06H1234.6V434.8H1247.5V460.54H1252.72C1254.4 460.54 1255.8 460.22 1256.92 459.58C1258.04 458.94 1259 457.96 1259.8 456.64L1271.44 438.28ZM1331.05 469.24C1326.45 469.4 1322.57 469.78 1319.41 470.38C1316.25 470.94 1313.69 471.68 1311.73 472.6C1309.77 473.48 1308.35 474.54 1307.47 475.78C1306.63 477.02 1306.21 478.38 1306.21 479.86C1306.21 481.3 1306.43 482.54 1306.87 483.58C1307.35 484.58 1307.99 485.42 1308.79 486.1C1309.63 486.74 1310.59 487.22 1311.67 487.54C1312.79 487.82 1314.01 487.96 1315.33 487.96C1318.69 487.96 1321.57 487.34 1323.97 486.1C1326.41 484.82 1328.77 482.98 1331.05 480.58V469.24ZM1296.85 443.32C1303.77 436.88 1312.01 433.66 1321.57 433.66C1325.09 433.66 1328.21 434.24 1330.93 435.4C1333.69 436.52 1335.99 438.12 1337.83 440.2C1339.71 442.28 1341.13 444.76 1342.09 447.64C1343.09 450.48 1343.59 453.64 1343.59 457.12V496H1337.83C1336.59 496 1335.65 495.82 1335.01 495.46C1334.37 495.06 1333.83 494.28 1333.39 493.12L1332.13 488.14C1330.57 489.54 1329.03 490.8 1327.51 491.92C1325.99 493 1324.41 493.92 1322.77 494.68C1321.17 495.44 1319.43 496 1317.55 496.36C1315.71 496.76 1313.67 496.96 1311.43 496.96C1308.95 496.96 1306.63 496.62 1304.47 495.94C1302.35 495.26 1300.51 494.24 1298.95 492.88C1297.39 491.48 1296.15 489.76 1295.23 487.72C1294.35 485.68 1293.91 483.28 1293.91 480.52C1293.91 478.16 1294.53 475.86 1295.77 473.62C1297.05 471.38 1299.13 469.38 1302.01 467.62C1304.93 465.82 1308.75 464.34 1313.47 463.18C1318.23 462.02 1324.09 461.36 1331.05 461.2V457.12C1331.05 452.72 1330.11 449.44 1328.23 447.28C1326.35 445.12 1323.59 444.04 1319.95 444.04C1317.47 444.04 1315.39 444.36 1313.71 445C1312.03 445.6 1310.57 446.26 1309.33 446.98C1308.09 447.7 1306.99 448.38 1306.03 449.02C1305.07 449.62 1304.05 449.92 1302.97 449.92C1302.09 449.92 1301.33 449.7 1300.69 449.26C1300.09 448.78 1299.59 448.2 1299.19 447.52L1296.85 443.32Z" fill="white"></path></svg> 