<?xml version="1.0" encoding="UTF-8"?> <svg xmlns="http://www.w3.org/2000/svg" width="1200" height="630" fill="none"><path fill="#fff" d="M0 0h1200v630H0z"></path><path fill="#000" d="M567.556 258.789q-.352.572-.738.857-.384.254-.962.254-.61 0-1.379-.508a20 20 0 0 0-1.861-1.112q-1.091-.635-2.599-1.143-1.508-.54-3.593-.54-1.925 0-3.4.477-1.444.476-2.439 1.334a5.6 5.6 0 0 0-1.507 2.032q-.482 1.143-.482 2.509 0 1.746.931 2.922.93 1.143 2.438 1.969 1.54.825 3.497 1.46 1.956.604 3.978 1.303 2.053.698 4.01 1.587a13.4 13.4 0 0 1 3.465 2.255q1.54 1.366 2.47 3.335t.93 4.795q0 3.049-1.058 5.717a13.5 13.5 0 0 1-3.08 4.668q-1.989 1.97-4.941 3.112-2.919 1.144-6.673 1.144-2.213 0-4.33-.445a23 23 0 0 1-4.011-1.175 21.2 21.2 0 0 1-3.561-1.905 18 18 0 0 1-2.983-2.478l2.181-3.556q.29-.445.738-.699.45-.255.995-.254.738 0 1.636.698.898.668 2.149 1.493 1.284.794 3.08 1.493 1.797.666 4.299.667 4.074 0 6.288-1.969 2.246-1.97 2.246-5.431 0-1.937-.931-3.144-.93-1.239-2.47-2.064-1.508-.827-3.465-1.398-1.956-.572-3.978-1.206a45 45 0 0 1-3.978-1.525 13.5 13.5 0 0 1-3.497-2.286q-1.508-1.43-2.438-3.494-.93-2.095-.93-5.208 0-2.477.962-4.795a12.4 12.4 0 0 1 2.855-4.097q1.893-1.81 4.652-2.89 2.758-1.08 6.288-1.08 3.979 0 7.282 1.239 3.337 1.238 5.743 3.525zM576.641 296.708v-47.002h6.897v18.451a17.1 17.1 0 0 1 4.427-3.144q2.406-1.207 5.615-1.207 2.694 0 4.715.89 2.053.889 3.433 2.508 1.412 1.62 2.117 3.907.706 2.255.706 4.986v20.611h-6.865v-20.611q0-3.271-1.54-5.082-1.507-1.81-4.62-1.81-2.31 0-4.298 1.048-1.957 1.049-3.69 2.858v23.597zM633.716 296.708q-.995 0-1.508-.286-.513-.318-.866-1.239l-.674-2.636a25 25 0 0 1-2.47 2.001 16 16 0 0 1-2.534 1.461 11.6 11.6 0 0 1-2.791.889q-1.476.318-3.273.318-1.989 0-3.721-.54-1.7-.54-2.952-1.62a8.1 8.1 0 0 1-1.989-2.731q-.705-1.62-.705-3.811 0-1.874.994-3.652 1.027-1.778 3.337-3.176 2.341-1.43 6.127-2.35 3.817-.92 9.4-1.048v-2.16q0-3.493-1.508-5.208t-4.427-1.715q-1.989 0-3.337.508-1.347.477-2.342 1.048a34 34 0 0 0-1.764 1.08 3.05 3.05 0 0 1-1.636.476q-.706 0-1.219-.349a3.3 3.3 0 0 1-.802-.921l-1.251-2.223q5.55-5.113 13.217-5.113 2.823 0 5.005.921 2.213.89 3.689 2.541 1.507 1.651 2.278 3.938.802 2.254.802 5.017v20.58zm-12.03-4.256q2.694 0 4.619-.985 1.957-1.015 3.786-2.89v-6.033q-3.69.158-6.224.603t-4.106 1.175-2.278 1.715a3.6 3.6 0 0 0-.674 2.128q0 1.143.353 1.969a4 4 0 0 0 1.027 1.333q.673.508 1.54.763a8.1 8.1 0 0 0 1.957.222M644.876 296.708v-32.394h4.17q1.411 0 1.797 1.303l.481 3.017a21 21 0 0 1 2.149-1.969 14.6 14.6 0 0 1 2.439-1.525 13 13 0 0 1 2.726-.984q1.476-.35 3.176-.35 2.696 0 4.716.89 2.053.889 3.433 2.508 1.412 1.62 2.117 3.907.706 2.255.706 4.986v20.611h-6.865v-20.611q0-3.271-1.54-5.082-1.508-1.81-4.62-1.81-2.31 0-4.299 1.048-1.956 1.049-3.689 2.858v23.597zM704.453 296.708q-1.38 0-1.764-1.303l-.61-3.493a21 21 0 0 1-2.181 2.16 14 14 0 0 1-2.503 1.651q-1.316.699-2.823 1.08a13.2 13.2 0 0 1-3.24.381q-2.758 0-5.005-1.08-2.245-1.112-3.849-3.207-1.605-2.096-2.503-5.177-.866-3.112-.866-7.114 0-3.62.963-6.701.995-3.08 2.823-5.335a12.8 12.8 0 0 1 4.427-3.557q2.631-1.302 5.871-1.302 2.888 0 4.908.921a11.7 11.7 0 0 1 3.625 2.509v-17.435h6.898v47.002zm-10.811-5.018q2.63 0 4.523-1.112 1.893-1.111 3.561-3.207v-15.085q-1.475-1.81-3.208-2.541-1.7-.762-3.721-.762-4.043 0-6.32 2.953-2.278 2.922-2.278 8.67 0 2.986.513 5.113.514 2.097 1.476 3.43t2.342 1.937 3.112.604M724.244 264.314v32.394h-6.897v-32.394zm1.155-9.781q0 .92-.385 1.747a4.6 4.6 0 0 1-.994 1.461 5.3 5.3 0 0 1-1.508.984 4.6 4.6 0 0 1-1.797.349q-.93 0-1.764-.349a5.1 5.1 0 0 1-1.412-.984 5.4 5.4 0 0 1-.994-1.461 4.4 4.4 0 0 1-.353-1.747q0-.953.353-1.778a4.9 4.9 0 0 1 .994-1.429 4.3 4.3 0 0 1 1.412-.985 4.2 4.2 0 0 1 1.764-.381q.963 0 1.797.381.866.35 1.508.985.641.603.994 1.429.385.825.385 1.778M732.911 296.708v-32.394h4.17q1.411 0 1.797 1.303l.481 3.017a21 21 0 0 1 2.149-1.969 14.7 14.7 0 0 1 2.438-1.525 13 13 0 0 1 2.727-.984q1.476-.35 3.176-.35 2.696 0 4.716.89 2.053.889 3.433 2.508 1.412 1.62 2.117 3.907.706 2.255.706 4.986v20.611h-6.865v-20.611q0-3.271-1.54-5.082-1.508-1.81-4.62-1.81-2.31 0-4.299 1.048-1.956 1.049-3.689 2.858v23.597zM780.554 263.743q2.118 0 3.946.476 1.86.445 3.401 1.271h9.175v2.54q0 1.27-1.54 1.556l-3.272.54q.834 1.905.834 4.097 0 2.382-.963 4.319a9.6 9.6 0 0 1-2.598 3.303q-1.668 1.365-3.978 2.096-2.31.73-5.005.73a21 21 0 0 1-2.021-.095 27 27 0 0 1-1.893-.318q-.93.54-1.379 1.144-.45.603-.45 1.238 0 1.049.931 1.556.93.509 2.438.731a32 32 0 0 0 3.497.286q1.956.063 3.978.222a35 35 0 0 1 3.978.54q1.957.35 3.465 1.207a6.64 6.64 0 0 1 2.47 2.254q.93 1.43.93 3.716 0 2.096-1.058 4.097-1.06 2-3.08 3.557-1.99 1.556-4.877 2.477-2.887.953-6.576.953-3.657 0-6.384-.699-2.695-.699-4.524-1.906-1.796-1.174-2.694-2.731-.867-1.556-.867-3.239 0-2.286 1.444-3.906 1.476-1.62 3.978-2.541-1.347-.635-2.181-1.747-.803-1.111-.803-2.921 0-.699.257-1.461a5.9 5.9 0 0 1 .77-1.493 8.3 8.3 0 0 1 1.315-1.429 10 10 0 0 1 1.861-1.207q-2.438-1.333-3.85-3.557-1.379-2.223-1.379-5.176 0-2.413.93-4.351a9.8 9.8 0 0 1 2.663-3.303q1.7-1.365 4.01-2.096 2.342-.73 5.101-.73m9.592 34.552q0-1.047-.641-1.683-.61-.666-1.669-1.048-1.058-.381-2.502-.54a59 59 0 0 0-2.983-.254 152 152 0 0 0-3.241-.159 37 37 0 0 1-3.208-.317q-1.539.793-2.502 1.905a3.8 3.8 0 0 0-.963 2.573q0 .953.482 1.778.513.826 1.54 1.429 1.058.604 2.662.953 1.637.35 3.914.349 4.556 0 6.833-1.397t2.278-3.589m-9.592-18.07q3.208 0 4.812-1.619 1.604-1.62 1.604-4.224 0-2.669-1.604-4.224t-4.812-1.556q-3.175 0-4.812 1.556-1.605 1.555-1.604 4.224 0 1.27.417 2.35t1.219 1.874q.803.762 1.989 1.206 1.22.413 2.791.413"></path><path fill="#1900D4" d="M521.025 297.584 475.116 238l-26.676 34.623-13.606-17.655L402 297.584h27.208l19.232-24.961 19.228 24.961z"></path><path fill="#000" d="M432.489 341.918v2.314h-5.326V359h-2.764v-14.768h-5.338v-2.314zM439.532 359q-.368 0-.557-.107-.19-.118-.32-.462l-.249-.985a9 9 0 0 1-.914.747 6 6 0 0 1-.937.546q-.474.225-1.032.332a5.7 5.7 0 0 1-1.21.119q-.735 0-1.376-.202a3.05 3.05 0 0 1-1.091-.605 3 3 0 0 1-.736-1.02q-.261-.605-.261-1.423 0-.7.368-1.365.38-.664 1.234-1.186.865-.534 2.265-.878 1.412-.343 3.476-.391v-.807q0-1.305-.558-1.945-.557-.64-1.637-.641-.735 0-1.233.19a5 5 0 0 0-.866.392q-.368.213-.653.403a1.1 1.1 0 0 1-.605.178.78.78 0 0 1-.45-.131 1.2 1.2 0 0 1-.297-.344l-.462-.83q2.052-1.91 4.887-1.91 1.044 0 1.85.344a3.6 3.6 0 0 1 1.364.949q.558.617.843 1.471.296.842.296 1.874V359zm-4.448-1.59q.996 0 1.708-.367.724-.38 1.4-1.08v-2.254q-1.364.06-2.301.226t-1.519.439q-.58.273-.842.64a1.36 1.36 0 0 0-.249.795q0 .427.131.736.142.296.379.498.249.19.57.284.332.083.723.083m14.909-4.341q.166.309.297.664.142.356.273.712.13-.356.272-.712.142-.355.309-.664l3.238-5.623q.178-.356.439-.462.261-.12.522-.119h2.076V359h-2.289v-7.319q0-.38.047-.854.048-.486.119-.902l-3.856 6.928a1 1 0 0 1-.308.344.8.8 0 0 1-.427.119h-.273q-.237 0-.427-.119a1.05 1.05 0 0 1-.296-.344l-3.927-6.951q.072.415.119.913.059.486.059.866V359h-2.301v-12.135h2.088q.261 0 .51.119.261.118.45.462zm10.14 4.282q0-.308.107-.581.119-.273.32-.475.214-.201.499-.308.296-.119.64-.119.403 0 .712.155.309.142.51.403.213.25.308.593.108.332.107.712 0 .546-.166 1.15a5.3 5.3 0 0 1-.474 1.198 6.7 6.7 0 0 1-.771 1.175 7 7 0 0 1-1.032 1.044l-.439-.404a.8.8 0 0 1-.143-.178.6.6 0 0 1-.035-.213q0-.202.201-.38l.297-.356a4 4 0 0 0 .38-.486 5 5 0 0 0 .355-.605q.166-.32.238-.688h-.06q-.344 0-.628-.118a1.7 1.7 0 0 1-.499-.344 1.8 1.8 0 0 1-.32-.522 1.9 1.9 0 0 1-.107-.653m19.822-10.45v1.921h-5.48V359h-2.551v-12.099zm11.09 0v10.177h2.218v5.255q0 .356-.213.558a.69.69 0 0 1-.522.213h-1.578V359h-9.573v3.381a.78.78 0 0 1-.178.498q-.166.225-.522.225h-1.613v-5.943h.486a2.5 2.5 0 0 0 .795-.154q.392-.155.747-.546.356-.402.677-1.103.32-.711.581-1.838.26-1.14.451-2.764.19-1.626.308-3.855zm-5.86 1.981a42 42 0 0 1-.309 2.989q-.189 1.305-.45 2.325a12 12 0 0 1-.558 1.744 7.5 7.5 0 0 1-.64 1.221h5.35v-8.279zm14.926-2.171q1.116 0 2.064.367a4.5 4.5 0 0 1 1.637 1.056q.689.7 1.068 1.72.392 1.009.392 2.302 0 .593-.131.794-.13.202-.474.202h-7.77q.047 1.032.32 1.791.273.747.724 1.246.462.498 1.091.747.641.237 1.423.237.749 0 1.293-.166.546-.178.949-.379.404-.214.688-.38.285-.178.522-.178.309 0 .475.237l.723.937q-.45.534-1.02.902a6.2 6.2 0 0 1-1.21.605q-.64.225-1.316.32-.676.107-1.317.107a6.5 6.5 0 0 1-2.337-.415 5.3 5.3 0 0 1-1.862-1.246q-.783-.818-1.234-2.028-.44-1.21-.439-2.788 0-1.257.392-2.349a5.7 5.7 0 0 1 1.138-1.898q.749-.805 1.803-1.269 1.068-.474 2.408-.474m.048 1.85q-1.388 0-2.183.795t-1.008 2.23h6.014q0-.64-.19-1.186a2.6 2.6 0 0 0-.533-.961 2.4 2.4 0 0 0-.89-.641q-.522-.237-1.21-.237m21.43-1.66v1.921h-5.481V359h-2.55v-12.099zm1.862 16.12v-16.12h1.542q.522 0 .664.486l.202 1.269q.38-.438.806-.806.428-.368.914-.629a4.8 4.8 0 0 1 1.056-.403 5 5 0 0 1 1.209-.143 4.1 4.1 0 0 1 1.851.415 3.9 3.9 0 0 1 1.423 1.187q.593.782.914 1.945.332 1.15.332 2.645 0 1.34-.368 2.503a6.1 6.1 0 0 1-1.032 2.005 4.9 4.9 0 0 1-1.637 1.328q-.96.475-2.171.475-1.067 0-1.814-.332a4.5 4.5 0 0 1-1.341-.949v5.124zm5.539-14.294q-.984 0-1.684.427-.7.416-1.305 1.198v5.611q.534.688 1.163.973.64.273 1.411.273 1.495 0 2.325-1.092.842-1.09.842-3.25 0-1.115-.189-1.898-.19-.795-.546-1.293a2.1 2.1 0 0 0-.866-.723 2.8 2.8 0 0 0-1.151-.226M544.647 359q-.368 0-.557-.107-.19-.118-.32-.462l-.25-.985a9 9 0 0 1-.913.747 6 6 0 0 1-.937.546q-.474.225-1.032.332a5.7 5.7 0 0 1-1.21.119q-.735 0-1.376-.202a3.05 3.05 0 0 1-1.091-.605 3 3 0 0 1-.736-1.02q-.261-.605-.261-1.423 0-.7.368-1.365.38-.664 1.234-1.186.865-.534 2.265-.878 1.412-.343 3.476-.391v-.807q0-1.305-.558-1.945-.557-.64-1.637-.641-.735 0-1.233.19a5 5 0 0 0-.866.392q-.368.213-.653.403a1.1 1.1 0 0 1-.605.178.77.77 0 0 1-.45-.131 1.2 1.2 0 0 1-.297-.344l-.462-.83q2.052-1.91 4.887-1.91 1.044 0 1.85.344a3.6 3.6 0 0 1 1.364.949q.558.617.843 1.471.296.842.296 1.874V359zm-4.448-1.59q.997 0 1.708-.367.724-.38 1.4-1.08v-2.254q-1.364.06-2.301.226t-1.519.439q-.58.273-.842.64a1.36 1.36 0 0 0-.249.795q0 .427.131.736.142.296.379.498.25.19.569.284.333.083.724.083m18.895-10.509V359h-2.539v-5.492h-5.231V359h-2.55v-12.099h2.55v4.685h5.231v-4.685zm3.117 12.111v-12.111h2.551v7.579q0 .261-.036.57a8 8 0 0 1-.071.605 5.2 5.2 0 0 1 .736-1.246q.237-.32.604-.83.38-.51.843-1.151.474-.652.961-1.328l2.597-3.559q.143-.237.38-.439a.8.8 0 0 1 .534-.201h1.542V359h-2.551v-7.58q0-.237.024-.534.024-.296.071-.605a10 10 0 0 1-.237.487 4 4 0 0 1-.237.379 8 8 0 0 0-.261.356q-.225.32-.605.83l-.842 1.163q-.475.64-.961 1.317a1442 1442 0 0 0-2.586 3.558 2 2 0 0 1-.38.439.8.8 0 0 1-.533.202zm13.739-12.111h2.551v10.177h5.231v-10.177h2.538v10.177h2.219v5.255q0 .356-.202.558a.69.69 0 0 1-.522.213h-1.578V359H575.95zm16.947 0v4.602h2.348q1.259 0 2.124.308.866.297 1.4.807t.771 1.186q.237.665.237 1.388 0 .843-.297 1.542-.296.688-.878 1.198-.569.51-1.411.795-.83.273-1.91.273h-4.804v-12.099zm11.838 0V359h-2.55v-12.099zm-11.838 6.441v3.807h2.384q.558 0 .973-.142.427-.154.7-.403a1.56 1.56 0 0 0 .415-.617q.142-.356.142-.783 0-.38-.13-.712a1.4 1.4 0 0 0-.392-.593 1.7 1.7 0 0 0-.688-.403q-.426-.154-1.044-.154zm20.129-5.16a5.3 5.3 0 0 1 1.684-1.056q.996-.415 2.384-.415 1.115 0 1.97.273.853.261 1.435.711.58.44.878 1.02a2.56 2.56 0 0 1 .201 1.946 2.4 2.4 0 0 1-.356.723 2.8 2.8 0 0 1-.64.665 3.3 3.3 0 0 1-.973.51q1.08.356 1.708 1.103.629.747.629 1.839 0 .865-.403 1.554-.392.675-1.056 1.15a4.8 4.8 0 0 1-1.518.724 6.3 6.3 0 0 1-1.78.249q-.557 0-1.162-.107a6 6 0 0 1-1.186-.32 6.2 6.2 0 0 1-1.127-.605 4.6 4.6 0 0 1-.985-.902l.736-.937q.142-.237.474-.237.237 0 .486.178t.582.391q.344.214.818.392.486.178 1.198.178.594 0 1.056-.143.462-.142.783-.403.32-.26.486-.605.166-.356.166-.771 0-.807-.664-1.269-.652-.474-2.064-.475h-1.364v-1.684h1.364q1.233 0 1.91-.451.676-.45.676-1.174 0-.653-.593-1.103-.582-.451-1.756-.451-.664 0-1.139.142a4 4 0 0 0-.782.297 8 8 0 0 0-.546.284.75.75 0 0 1-.38.131.64.64 0 0 1-.308-.071q-.119-.072-.261-.297zM632.224 359q-.368 0-.558-.107-.19-.118-.32-.462l-.249-.985a9 9 0 0 1-.913.747 6 6 0 0 1-.938.546q-.474.225-1.032.332a5.7 5.7 0 0 1-1.209.119q-.736 0-1.376-.202a3.1 3.1 0 0 1-1.092-.605 3 3 0 0 1-.735-1.02q-.261-.605-.261-1.423 0-.7.367-1.365.38-.664 1.234-1.186.866-.534 2.266-.878 1.411-.343 3.475-.391v-.807q0-1.305-.557-1.945-.558-.64-1.637-.641-.736 0-1.234.19a5 5 0 0 0-.866.392q-.367.213-.652.403-.285.178-.605.178a.78.78 0 0 1-.451-.131 1.2 1.2 0 0 1-.296-.344l-.463-.83q2.052-1.91 4.887-1.91 1.044 0 1.851.344.818.333 1.364.949.558.617.842 1.471.297.842.297 1.874V359zm-4.448-1.59q.996 0 1.708-.367a5.5 5.5 0 0 0 1.399-1.08v-2.254q-1.363.06-2.301.226-.937.166-1.518.439-.582.273-.842.64a1.36 1.36 0 0 0-.249.795q0 .427.13.736.142.296.38.498.249.19.569.284.332.083.724.083m15.858-9.821a1.46 1.46 0 0 1 .51-.499q.332-.189.688-.189h1.993l-2.978 4.543q-.284.462-.593.747t-.759.439q.581.166.961.51.391.332.7.866l3.001 4.994h-1.756q-.676 0-1.056-.225a1.9 1.9 0 0 1-.628-.665l-2.052-3.535a1.6 1.6 0 0 0-.653-.664 1.9 1.9 0 0 0-.913-.213h-1.198v5.314h-2.551v-12.111h2.551v5.088h1.032q.498 0 .83-.189.332-.19.569-.582zM656.759 359q-.368 0-.557-.107-.19-.118-.321-.462l-.249-.985a9 9 0 0 1-.913.747 6 6 0 0 1-.937.546q-.476.225-1.032.332a5.7 5.7 0 0 1-1.21.119q-.735 0-1.376-.202a3.05 3.05 0 0 1-1.091-.605 3 3 0 0 1-.736-1.02q-.261-.605-.261-1.423 0-.7.368-1.365.38-.664 1.233-1.186.867-.534 2.266-.878 1.412-.343 3.476-.391v-.807q0-1.305-.558-1.945-.557-.64-1.637-.641-.735 0-1.233.19a5 5 0 0 0-.866.392q-.368.213-.653.403-.284.178-.605.178a.77.77 0 0 1-.45-.131 1.2 1.2 0 0 1-.297-.344l-.463-.83q2.053-1.91 4.888-1.91 1.043 0 1.85.344a3.6 3.6 0 0 1 1.364.949q.558.617.842 1.471.297.842.297 1.874V359zm-4.448-1.59q.997 0 1.708-.367a5.6 5.6 0 0 0 1.4-1.08v-2.254q-1.365.06-2.301.226t-1.519.439q-.58.273-.842.64a1.36 1.36 0 0 0-.249.795q0 .427.13.736.143.296.38.498.25.19.569.284.333.083.724.083m18.895-10.509V359h-2.539v-5.492h-5.231V359h-2.55v-12.099h2.55v4.685h5.231v-4.685zM683.576 359h-2.539v-4.923a16 16 0 0 1-2.918.475q-1.34.07-2.337-.273a3.07 3.07 0 0 1-1.554-1.163q-.569-.818-.569-2.206v-4.009h2.538v3.618q0 .794.297 1.281.297.474.89.676.604.19 1.506.142.914-.059 2.147-.332v-5.385h2.539zm3.119.012v-12.111h2.551v7.579q0 .261-.036.57-.024.296-.071.605.237-.545.486-.902.012-.023.249-.344t.605-.83q.38-.51.842-1.151.475-.652.961-1.328l2.598-3.559q.143-.237.38-.439a.8.8 0 0 1 .534-.201h1.542V359h-2.551v-7.58q0-.237.024-.534.024-.296.071-.605a10 10 0 0 1-.237.487 4 4 0 0 1-.237.379 8 8 0 0 0-.261.356q-.226.32-.605.83-.368.51-.843 1.163-.474.64-.96 1.317a1442 1442 0 0 0-2.586 3.558 2.1 2.1 0 0 1-.38.439.8.8 0 0 1-.534.202zm13.739-12.111h4.614q1.127 0 1.946.225.818.213 1.34.605.534.391.783.925t.249 1.151q0 .392-.106.818a2.6 2.6 0 0 1-.368.819 2.9 2.9 0 0 1-.712.7q-.439.32-1.127.498 1.281.237 2.04.949.76.711.76 1.874 0 .901-.368 1.566-.367.664-1.008 1.103-.63.44-1.471.652a7 7 0 0 1-1.756.214h-4.816zm2.432 6.737v3.595h2.372q1.044 0 1.649-.499.617-.51.617-1.364a2.2 2.2 0 0 0-.107-.688 1.23 1.23 0 0 0-.368-.546 1.8 1.8 0 0 0-.699-.367q-.427-.13-1.08-.131zm0-1.601h2.099q.475 0 .866-.131.404-.142.688-.379.297-.25.451-.581a1.72 1.72 0 0 0 .059-1.341 1.23 1.23 0 0 0-.367-.522 1.8 1.8 0 0 0-.665-.356q-.414-.142-1.032-.142h-2.099zM720.078 359q-.368 0-.557-.107-.19-.118-.32-.462l-.25-.985a9 9 0 0 1-.913.747 6 6 0 0 1-.937.546q-.474.225-1.032.332a5.7 5.7 0 0 1-1.21.119q-.735 0-1.376-.202a3.05 3.05 0 0 1-1.091-.605 3 3 0 0 1-.736-1.02q-.261-.605-.261-1.423 0-.7.368-1.365.38-.664 1.234-1.186.865-.534 2.265-.878 1.412-.343 3.476-.391v-.807q0-1.305-.558-1.945-.557-.64-1.637-.641-.735 0-1.233.19a5 5 0 0 0-.866.392q-.368.213-.653.403a1.1 1.1 0 0 1-.605.178.77.77 0 0 1-.45-.131 1.2 1.2 0 0 1-.297-.344l-.462-.83q2.052-1.91 4.887-1.91 1.044 0 1.85.344a3.6 3.6 0 0 1 1.364.949q.558.617.843 1.471.296.842.296 1.874V359zm-4.448-1.59q.997 0 1.708-.367.724-.38 1.4-1.08v-2.254q-1.364.06-2.301.226t-1.519.439q-.58.273-.842.64a1.36 1.36 0 0 0-.249.795q0 .427.131.736.141.296.379.498.25.19.569.284.333.083.724.083m11.125-10.509v5.053h2.645a7.1 7.1 0 0 1 .57-2.183 5.2 5.2 0 0 1 1.15-1.649 4.8 4.8 0 0 1 1.673-1.044q.961-.367 2.135-.367 1.293 0 2.337.439a5 5 0 0 1 1.779 1.245q.736.807 1.127 1.957.404 1.152.404 2.586 0 1.435-.416 2.586a5.6 5.6 0 0 1-1.15 1.969 5.1 5.1 0 0 1-1.791 1.246q-1.032.44-2.29.439-1.221 0-2.206-.368a4.9 4.9 0 0 1-1.685-1.079 5.3 5.3 0 0 1-1.126-1.697q-.416-.996-.522-2.242h-2.634V359h-2.55v-12.099zm8.173 10.284q1.53 0 2.266-1.091.747-1.104.747-3.144t-.747-3.143q-.735-1.116-2.266-1.115-1.542 0-2.289 1.115-.736 1.103-.736 3.143t.736 3.144q.747 1.09 2.289 1.091m6.415-10.284h11.483v1.921h-4.46V359h-2.551v-10.178h-4.472zm21.487 2.372a1.3 1.3 0 0 1-.225.237.5.5 0 0 1-.309.083.8.8 0 0 1-.427-.142 6 6 0 0 0-.522-.308 3.6 3.6 0 0 0-.723-.321q-.428-.142-1.068-.142-.83 0-1.459.296a2.9 2.9 0 0 0-1.044.855q-.415.545-.629 1.34a7 7 0 0 0-.201 1.767q0 1.02.225 1.815t.641 1.341q.426.545 1.02.83.605.285 1.352.285.736 0 1.198-.178.464-.178.771-.392.309-.213.522-.391a.75.75 0 0 1 .475-.178q.308 0 .474.237l.724.937a4.8 4.8 0 0 1-.973.902 5.7 5.7 0 0 1-1.127.605 6 6 0 0 1-1.233.32 8 8 0 0 1-1.293.107 5.4 5.4 0 0 1-2.112-.415 5.1 5.1 0 0 1-1.708-1.222q-.723-.807-1.151-1.957-.415-1.162-.415-2.646 0-1.34.38-2.479a5.7 5.7 0 0 1 1.103-1.981 5.04 5.04 0 0 1 1.815-1.293q1.079-.474 2.491-.474 1.317 0 2.313.427a5.6 5.6 0 0 1 1.791 1.21zM774.442 359h-2.431v-4.958h-.7q-.344 0-.57.059t-.391.166a1.5 1.5 0 0 0-.285.261 4 4 0 0 0-.237.344l-2.266 3.238q-.249.451-.593.676-.332.214-1.008.214h-1.756l3.262-4.401q.451-.783 1.258-1.067-.878-.131-1.495-.451a3.4 3.4 0 0 1-.996-.748 2.8 2.8 0 0 1-.558-.925 3.2 3.2 0 0 1-.166-1.008q0-.653.249-1.281.261-.629.819-1.115.557-.498 1.435-.795.89-.309 2.135-.308h4.294zm-6.381-8.481q0 .89.628 1.399.641.51 1.72.51h1.602v-3.843h-1.792q-.616 0-1.032.178a1.8 1.8 0 0 0-.664.463 1.6 1.6 0 0 0-.356.616q-.106.344-.106.677m9.085 6.832q0-.308.107-.581.119-.273.32-.475.214-.201.499-.308.296-.119.64-.119.403 0 .712.155.309.142.51.403.213.25.308.593.107.332.107.712 0 .546-.166 1.15a5.3 5.3 0 0 1-.474 1.198 6.7 6.7 0 0 1-.771 1.175 7 7 0 0 1-1.032 1.044l-.439-.404a.8.8 0 0 1-.143-.178.6.6 0 0 1-.035-.213q0-.202.201-.38l.297-.356a4 4 0 0 0 .38-.486 5 5 0 0 0 .355-.605q.166-.32.238-.688h-.06q-.344 0-.628-.118a1.7 1.7 0 0 1-.499-.344 1.8 1.8 0 0 1-.32-.522 1.9 1.9 0 0 1-.107-.653m-278.383 17.55V387h-2.538v-5.492h-5.231V387h-2.551v-12.099h2.551v4.685h5.231v-4.685zM509.686 387q-.368 0-.557-.107-.19-.118-.32-.462l-.25-.985a9 9 0 0 1-.913.747 6 6 0 0 1-.937.546q-.474.225-1.032.332a5.7 5.7 0 0 1-1.21.119q-.735 0-1.376-.202a3.05 3.05 0 0 1-1.091-.605 3 3 0 0 1-.736-1.02q-.261-.605-.261-1.423 0-.7.368-1.365.38-.664 1.234-1.186.865-.534 2.265-.878 1.412-.343 3.476-.391v-.807q0-1.305-.558-1.945-.557-.64-1.637-.641-.735 0-1.233.19a5 5 0 0 0-.866.392q-.368.213-.653.403a1.1 1.1 0 0 1-.605.178.77.77 0 0 1-.45-.131 1.2 1.2 0 0 1-.297-.344l-.463-.83q2.053-1.91 4.888-1.91 1.043 0 1.85.344a3.6 3.6 0 0 1 1.364.949q.558.617.843 1.471.296.842.296 1.874V387zm-4.448-1.59q.996 0 1.708-.367.724-.38 1.4-1.08v-2.254q-1.365.06-2.301.226t-1.519.439q-.58.273-.842.64a1.36 1.36 0 0 0-.249.795q0 .427.13.736.143.296.38.498.25.19.569.284.333.083.724.083m17.827 1.59h-2.538v-4.923a16.3 16.3 0 0 1-2.918.475q-1.341.07-2.337-.273a3.07 3.07 0 0 1-1.554-1.163q-.57-.818-.57-2.206v-4.009h2.539v3.618q0 .794.296 1.281.297.474.89.676.605.19 1.507.142.913-.059 2.147-.332v-5.385h2.538zm3.12.012v-12.111h2.55v7.579q0 .261-.036.57a8 8 0 0 1-.071.605q.238-.545.487-.902.011-.023.249-.344.237-.32.605-.83.379-.51.842-1.151.474-.652.961-1.328l2.598-3.559q.142-.237.379-.439a.8.8 0 0 1 .534-.201h1.542V387h-2.55v-7.58q0-.237.023-.534.024-.296.072-.605-.12.26-.238.487a4 4 0 0 1-.237.379 8 8 0 0 0-.261.356q-.225.32-.605.83l-.842 1.163q-.475.64-.961 1.317a1442 1442 0 0 0-2.586 3.558 2 2 0 0 1-.38.439.8.8 0 0 1-.533.202zm24.059-12.111V387h-2.539v-5.492h-5.231V387h-2.551v-12.099h2.551v4.685h5.231v-4.685zM561.166 387q-.368 0-.557-.107-.19-.118-.32-.462l-.249-.985a9 9 0 0 1-.914.747 6 6 0 0 1-.937.546q-.474.225-1.032.332a5.7 5.7 0 0 1-1.21.119q-.735 0-1.376-.202a3.05 3.05 0 0 1-1.091-.605 3 3 0 0 1-.736-1.02q-.261-.605-.261-1.423 0-.7.368-1.365.38-.664 1.234-1.186.866-.534 2.265-.878 1.412-.343 3.476-.391v-.807q0-1.305-.557-1.945-.558-.64-1.637-.641-.736 0-1.234.19a5 5 0 0 0-.866.392q-.368.213-.653.403a1.1 1.1 0 0 1-.604.178.78.78 0 0 1-.451-.131 1.2 1.2 0 0 1-.297-.344l-.462-.83q2.052-1.91 4.887-1.91 1.044 0 1.85.344a3.6 3.6 0 0 1 1.364.949q.558.617.843 1.471.296.842.296 1.874V387zm-4.448-1.59q.997 0 1.708-.367.724-.38 1.4-1.08v-2.254q-1.364.06-2.301.226t-1.519.439q-.58.273-.842.64a1.36 1.36 0 0 0-.249.795q0 .427.131.736.142.296.379.498.249.19.57.284.332.083.723.083m13.64-10.699a5.7 5.7 0 0 1 2.064.367q.949.357 1.637 1.056t1.068 1.72q.391 1.009.391 2.302 0 .593-.13.794-.131.202-.475.202h-7.77q.048 1.032.321 1.791.273.747.723 1.246a2.96 2.96 0 0 0 1.092.747q.64.237 1.423.237.747 0 1.293-.166.546-.178.949-.379.403-.214.688-.38.285-.178.522-.178.309 0 .474.237l.724.937a4.6 4.6 0 0 1-1.02.902 6.2 6.2 0 0 1-1.21.605q-.64.225-1.317.32a8.5 8.5 0 0 1-1.317.107 6.4 6.4 0 0 1-2.336-.415 5.3 5.3 0 0 1-1.863-1.246q-.783-.818-1.233-2.028-.44-1.21-.439-2.788 0-1.257.391-2.349a5.8 5.8 0 0 1 1.139-1.898 5.4 5.4 0 0 1 1.803-1.269q1.067-.474 2.408-.474m.047 1.85q-1.387 0-2.182.795t-1.008 2.23h6.014q0-.64-.19-1.186a2.7 2.7 0 0 0-.534-.961 2.4 2.4 0 0 0-.89-.641q-.522-.237-1.21-.237m6.026-1.66h11.482v1.921h-4.46V387h-2.55v-10.178h-4.472zm21.486 2.372a1.3 1.3 0 0 1-.225.237.5.5 0 0 1-.308.083.8.8 0 0 1-.427-.142 7 7 0 0 0-.522-.308 3.7 3.7 0 0 0-.724-.321q-.427-.142-1.068-.142-.83 0-1.459.296a2.86 2.86 0 0 0-1.043.855q-.416.545-.629 1.34a7 7 0 0 0-.202 1.767q0 1.02.226 1.815.225.795.64 1.341.428.545 1.02.83.605.285 1.353.285.735 0 1.198-.178t.771-.392a8 8 0 0 0 .522-.391.75.75 0 0 1 .474-.178q.309 0 .475.237l.723.937a4.7 4.7 0 0 1-.972.902 5.8 5.8 0 0 1-1.127.605q-.594.225-1.234.32a8 8 0 0 1-1.293.107 5.4 5.4 0 0 1-2.112-.415 5.1 5.1 0 0 1-1.708-1.222q-.724-.807-1.15-1.957-.415-1.162-.415-2.646 0-1.34.379-2.479a5.7 5.7 0 0 1 1.103-1.981 5.1 5.1 0 0 1 1.815-1.293q1.08-.474 2.491-.474 1.317 0 2.313.427 1.01.426 1.792 1.21zM609.53 387h-2.432v-4.958h-.7q-.344 0-.569.059t-.392.166a1.5 1.5 0 0 0-.284.261 4 4 0 0 0-.238.344l-2.265 3.238q-.25.451-.593.676-.333.214-1.009.214h-1.755l3.262-4.401q.45-.783 1.257-1.067-.877-.131-1.494-.451a3.4 3.4 0 0 1-.997-.748 2.8 2.8 0 0 1-.557-.925 3.2 3.2 0 0 1-.166-1.008q0-.653.249-1.281.26-.629.818-1.115.558-.498 1.435-.795.89-.309 2.136-.308h4.294zm-6.382-8.481q0 .89.629 1.399.64.51 1.72.51h1.601v-3.843h-1.791q-.617 0-1.032.178a1.8 1.8 0 0 0-.664.463 1.6 1.6 0 0 0-.356.616q-.107.344-.107.677m24.816-5.682a1.1 1.1 0 0 1-.273.32.63.63 0 0 1-.356.095q-.225 0-.51-.19a7 7 0 0 0-.688-.415 5 5 0 0 0-.961-.427q-.557-.202-1.328-.202-.712 0-1.258.178a2.6 2.6 0 0 0-.901.498 2.1 2.1 0 0 0-.558.759 2.4 2.4 0 0 0-.178.937q0 .653.344 1.092.344.427.902.735.568.309 1.293.546.723.225 1.471.486.759.261 1.482.593.724.333 1.281.843.57.51.914 1.245t.344 1.791q0 1.139-.392 2.136a5.05 5.05 0 0 1-1.138 1.743q-.736.736-1.827 1.163-1.08.426-2.468.427a7.8 7.8 0 0 1-1.601-.166 8.5 8.5 0 0 1-1.483-.439 8 8 0 0 1-1.316-.712 6.7 6.7 0 0 1-1.104-.925l.807-1.329a.8.8 0 0 1 .273-.261.73.73 0 0 1 .368-.095q.273 0 .605.261.332.249.794.558.475.296 1.139.557.664.25 1.59.25 1.506 0 2.325-.736.83-.735.83-2.028 0-.724-.344-1.175a2.76 2.76 0 0 0-.913-.771 6.5 6.5 0 0 0-1.281-.522 72 72 0 0 1-1.471-.45 17 17 0 0 1-1.471-.57 5 5 0 0 1-1.293-.854 4.1 4.1 0 0 1-.902-1.305q-.344-.783-.344-1.945 0-.925.356-1.791a4.6 4.6 0 0 1 1.056-1.531q.7-.675 1.72-1.079t2.325-.403q1.47 0 2.693.462 1.233.464 2.123 1.317zM631.323 387v-17.556h2.55v6.892a6.3 6.3 0 0 1 1.637-1.174q.89-.451 2.076-.451.996 0 1.744.332a3.4 3.4 0 0 1 1.269.937q.522.605.783 1.459.261.843.261 1.862V387h-2.539v-7.699q0-1.221-.569-1.898-.558-.675-1.708-.676-.854 0-1.59.392a5.5 5.5 0 0 0-1.364 1.067V387zm21.104 0q-.368 0-.558-.107-.19-.118-.32-.462l-.249-.985a9 9 0 0 1-.914.747q-.45.321-.937.546-.474.225-1.032.332a5.7 5.7 0 0 1-1.21.119q-.735 0-1.376-.202a3.05 3.05 0 0 1-1.091-.605 3 3 0 0 1-.735-1.02q-.261-.605-.261-1.423 0-.7.367-1.365.38-.664 1.234-1.186.866-.534 2.266-.878 1.411-.343 3.475-.391v-.807q0-1.305-.557-1.945-.558-.64-1.637-.641-.736 0-1.234.19a5 5 0 0 0-.866.392q-.367.213-.652.403-.285.178-.605.178a.78.78 0 0 1-.451-.131 1.3 1.3 0 0 1-.297-.344l-.462-.83q2.052-1.91 4.887-1.91 1.044 0 1.851.344.818.333 1.364.949.557.617.842 1.471.297.842.297 1.874V387zm-4.449-1.59q.997 0 1.709-.367a5.5 5.5 0 0 0 1.399-1.08v-2.254q-1.363.06-2.301.226-.937.166-1.518.439-.582.273-.843.64a1.36 1.36 0 0 0-.249.795q0 .427.131.736.142.296.379.498.249.19.57.284.331.083.723.083m8.575 1.59v-12.099h1.542q.523 0 .664.486l.178 1.127q.38-.403.795-.736.427-.332.902-.569a4.8 4.8 0 0 1 1.008-.368 5 5 0 0 1 1.174-.13q.997 0 1.744.332a3.4 3.4 0 0 1 1.269.937q.522.605.783 1.459.261.843.261 1.862V387h-2.538v-7.699q0-1.221-.57-1.898-.557-.675-1.708-.676a3.3 3.3 0 0 0-1.589.392 5.5 5.5 0 0 0-1.365 1.067V387zm22.029 0q-.51 0-.652-.486l-.225-1.305a8 8 0 0 1-.807.806 5.2 5.2 0 0 1-.925.617 4.64 4.64 0 0 1-2.242.546q-1.02 0-1.851-.403a4.05 4.05 0 0 1-1.423-1.198q-.593-.783-.926-1.934-.32-1.163-.32-2.657 0-1.353.356-2.503a6.1 6.1 0 0 1 1.044-1.993 4.74 4.74 0 0 1 1.637-1.328q.972-.487 2.171-.487 1.067 0 1.815.344.747.333 1.34.937v-6.512h2.55V387zm-3.997-1.874q.972 0 1.672-.415.7-.416 1.317-1.198v-5.635q-.546-.676-1.186-.949a3.3 3.3 0 0 0-1.376-.285q-1.495 0-2.337 1.103-.842 1.092-.842 3.239 0 1.115.19 1.91.19.783.545 1.281a2.1 2.1 0 0 0 .866.723q.51.226 1.151.226m11.315-10.225V387h-2.55v-12.099zm.427-3.654q0 .344-.142.652-.13.309-.368.546-.237.225-.557.368-.309.13-.665.13-.343 0-.652-.13a1.9 1.9 0 0 1-.522-.368 2 2 0 0 1-.368-.546 1.7 1.7 0 0 1-.13-.652q0-.356.13-.664.143-.309.368-.534.225-.237.522-.368.309-.142.652-.142.356 0 .665.142.32.13.557.368.237.225.368.534.142.308.142.664M689.105 387v-12.099h1.542q.522 0 .664.486l.178 1.127q.38-.403.795-.736.426-.332.901-.569a4.8 4.8 0 0 1 1.009-.368q.545-.13 1.174-.13.996 0 1.744.332a3.4 3.4 0 0 1 1.269.937q.522.605.783 1.459.261.843.261 1.862V387h-2.539v-7.699q0-1.221-.569-1.898-.558-.675-1.708-.676-.854 0-1.59.392a5.5 5.5 0 0 0-1.364 1.067V387zm17.616-12.313q.783 0 1.459.178a5.2 5.2 0 0 1 1.258.474h3.392v.949q0 .475-.569.582l-1.21.201q.309.712.308 1.531 0 .889-.356 1.613a3.6 3.6 0 0 1-.96 1.233 4.3 4.3 0 0 1-1.471.783 6 6 0 0 1-1.851.273q-.38 0-.747-.035a10 10 0 0 1-.7-.119 1.7 1.7 0 0 0-.51.427.77.77 0 0 0-.166.463q0 .391.344.581t.901.273q.57.083 1.293.107.724.023 1.471.083.748.059 1.471.201.725.13 1.281.451.57.308.914.842t.344 1.388a3.26 3.26 0 0 1-.392 1.53q-.391.748-1.139 1.329-.735.581-1.803.925-1.067.356-2.431.356-1.353 0-2.361-.261-.997-.26-1.672-.712-.664-.438-.997-1.02a2.5 2.5 0 0 1-.32-1.21q0-.854.534-1.459.545-.605 1.471-.949a2.1 2.1 0 0 1-.807-.652q-.297-.416-.297-1.092 0-.26.095-.545a2.2 2.2 0 0 1 .285-.558q.201-.285.486-.534.297-.249.688-.45a3.84 3.84 0 0 1-1.423-1.329q-.51-.83-.51-1.933 0-.901.344-1.626.356-.723.984-1.233.629-.51 1.483-.783a6.2 6.2 0 0 1 1.886-.273m3.547 12.906q0-.391-.237-.629a1.5 1.5 0 0 0-.617-.391 4 4 0 0 0-.925-.202 22 22 0 0 0-1.104-.095 58 58 0 0 0-1.198-.059 14 14 0 0 1-1.186-.119 3.1 3.1 0 0 0-.925.712 1.43 1.43 0 0 0-.356.961q0 .356.178.664.19.309.569.534.392.225.985.356.605.13 1.447.13 1.684 0 2.527-.521.842-.522.842-1.341m-3.547-6.749q1.186 0 1.78-.605.593-.606.593-1.578 0-.996-.593-1.578-.594-.58-1.78-.581-1.175 0-1.779.581-.594.582-.593 1.578 0 .474.154.878.154.403.451.7.296.284.735.45a3.2 3.2 0 0 0 1.032.155"></path></svg> 