<?xml version="1.0" encoding="UTF-8"?> <svg xmlns="http://www.w3.org/2000/svg" width="20" height="20" viewBox="0 0 20 20" fill="none"><rect x="0.4" y="0.4" width="19.2" height="19.2" rx="4.4" stroke="#094A8A" stroke-width="0.8"></rect><path d="M7.07407 12.1904C5.66559 12.1904 4.5238 11.0913 4.5238 9.73542C4.5238 8.38006 5.66559 7.28099 7.07407 7.28099C7.28928 6.31609 8.05649 5.52861 9.08656 5.21482C10.1161 4.90159 11.2529 5.10913 12.0678 5.76244C12.8827 6.41411 13.2518 7.40913 13.0371 8.37404H13.5792C14.6268 8.37404 15.4762 9.22832 15.4762 10.283C15.4762 11.3383 14.6268 12.1926 13.5787 12.1926H7.07407" stroke="#094A8A" stroke-width="0.857143" stroke-linecap="round" stroke-linejoin="round"></path><path d="M10 12.1906V14.9286" stroke="#094A8A" stroke-width="0.857143" stroke-linecap="round" stroke-linejoin="round"></path><path d="M12.1905 12.1906V14.381C12.1905 14.5263 12.2482 14.6656 12.3509 14.7683C12.4536 14.871 12.5929 14.9286 12.7381 14.9286H14.9286" stroke="#094A8A" stroke-width="0.857143" stroke-linecap="round" stroke-linejoin="round"></path><path d="M7.80951 12.1906V14.381C7.80951 14.5263 7.75181 14.6656 7.64911 14.7683C7.54641 14.871 7.40712 14.9286 7.26189 14.9286H5.07141" stroke="#094A8A" stroke-width="0.857143" stroke-linecap="round" stroke-linejoin="round"></path></svg> 