<?xml version="1.0" encoding="UTF-8"?> <svg xmlns="http://www.w3.org/2000/svg" width="15" height="15" viewBox="0 0 15 15" fill="none"><rect width="15" height="15" rx="4.2" fill="#094A8A"></rect><path d="M6 6.5L7.5 7.5V5M3 7.5C3 8.09095 3.1164 8.67611 3.34254 9.22208C3.56869 9.76804 3.90016 10.2641 4.31802 10.682C4.73588 11.0998 5.23196 11.4313 5.77792 11.6575C6.32389 11.8836 6.90905 12 7.5 12C8.09095 12 8.67611 11.8836 9.22208 11.6575C9.76804 11.4313 10.2641 11.0998 10.682 10.682C11.0998 10.2641 11.4313 9.76804 11.6575 9.22208C11.8836 8.67611 12 8.09095 12 7.5C12 6.90905 11.8836 6.32389 11.6575 5.77792C11.4313 5.23196 11.0998 4.73588 10.682 4.31802C10.2641 3.90016 9.76804 3.56869 9.22208 3.34254C8.67611 3.1164 8.09095 3 7.5 3C6.90905 3 6.32389 3.1164 5.77792 3.34254C5.23196 3.56869 4.73588 3.90016 4.31802 4.31802C3.90016 4.73588 3.56869 5.23196 3.34254 5.77792C3.1164 6.32389 3 6.90905 3 7.5Z" stroke="white" stroke-width="0.9" stroke-linecap="round" stroke-linejoin="round"></path></svg> 