<?xml version="1.0" encoding="UTF-8"?> <svg xmlns="http://www.w3.org/2000/svg" width="20" height="20" viewBox="0 0 20 20" fill="none"><rect x="0.4" y="0.4" width="19.2" height="19.2" rx="4.4" stroke="#094A8A" stroke-width="0.8"></rect><g clip-path="url(#clip0_124_2230)"><path d="M10.5479 5.07153V7.26201C10.5477 7.33398 10.5617 7.40529 10.5892 7.47183C10.6166 7.53837 10.6569 7.59882 10.7078 7.64972C10.7587 7.70061 10.8192 7.74094 10.8857 7.76839C10.9523 7.79583 11.0236 7.80985 11.0955 7.80963H13.286" stroke="#094A8A" stroke-width="0.857143" stroke-linecap="round" stroke-linejoin="round"></path><path d="M9.4526 14.9287H6.7145C6.42403 14.9287 6.14545 14.8133 5.94005 14.6079C5.73465 14.4025 5.61926 14.1239 5.61926 13.8334V6.16677C5.61926 5.8763 5.73465 5.59772 5.94005 5.39232C6.14545 5.18692 6.42403 5.07153 6.7145 5.07153H10.5478L13.2859 7.80963V9.72629" stroke="#094A8A" stroke-width="0.857143" stroke-linecap="round" stroke-linejoin="round"></path><path d="M7.80969 8.3573H8.35731" stroke="#094A8A" stroke-width="0.857143" stroke-linecap="round" stroke-linejoin="round"></path><path d="M7.80969 10.5446H9.45255" stroke="#094A8A" stroke-width="0.857143" stroke-linecap="round" stroke-linejoin="round"></path><path d="M7.80969 12.7366H8.90493" stroke="#094A8A" stroke-width="0.857143" stroke-linecap="round" stroke-linejoin="round"></path><path d="M14.9288 12.1873C14.9288 14.3777 13.5597 15.473 13.0121 15.473C12.4645 15.473 11.0955 14.3777 11.0955 12.1873C11.6431 12.1873 12.4645 11.9135 13.0121 11.3658C13.5597 11.9135 14.3812 12.1873 14.9288 12.1873Z" stroke="#094A8A" stroke-width="0.857143" stroke-linecap="round" stroke-linejoin="round"></path></g><defs><clipPath id="clip0_124_2230"><rect width="13.1429" height="13.1429" fill="white" transform="translate(3.42859 3.42859)"></rect></clipPath></defs></svg> 