<?xml version="1.0" encoding="UTF-8"?> <svg xmlns="http://www.w3.org/2000/svg" width="195" height="35" fill="none"><path fill="#fff" d="M81.715 10.36a1.5 1.5 0 0 1-.365.427.84.84 0 0 1-.475.126q-.3 0-.68-.253a10 10 0 0 0-.919-.554 7 7 0 0 0-1.282-.57q-.745-.269-1.774-.269-.95 0-1.678.238-.713.238-1.204.664a2.8 2.8 0 0 0-.744 1.013q-.237.57-.238 1.25 0 .87.46 1.457.459.57 1.203.98a10.5 10.5 0 0 0 1.726.729q.966.3 1.963.649 1.014.348 1.98.79t1.71 1.125a5.1 5.1 0 0 1 1.22 1.661q.458.98.458 2.39a7.7 7.7 0 0 1-.522 2.848 6.7 6.7 0 0 1-1.52 2.327q-.983.98-2.439 1.55-1.44.57-3.293.57a10.3 10.3 0 0 1-2.138-.221 11.3 11.3 0 0 1-1.98-.586 10.4 10.4 0 0 1-1.757-.95 9 9 0 0 1-1.473-1.234l1.077-1.772q.143-.222.364-.348a1 1 0 0 1 .491-.127q.364 0 .808.348.443.333 1.06.744.635.396 1.52.744.888.332 2.123.332 2.01 0 3.103-.98 1.11-.982 1.109-2.707 0-.966-.46-1.567a3.7 3.7 0 0 0-1.219-1.029 8.5 8.5 0 0 0-1.71-.696q-.966-.285-1.963-.601a22 22 0 0 1-1.964-.76 6.6 6.6 0 0 1-1.726-1.14 5.5 5.5 0 0 1-1.203-1.74q-.46-1.045-.46-2.595 0-1.235.476-2.39a6.2 6.2 0 0 1 1.409-2.042q.934-.902 2.296-1.44t3.103-.538q1.964 0 3.595.617 1.647.618 2.834 1.757zM86.199 29.255V5.833h3.404v9.195a8.4 8.4 0 0 1 2.185-1.567q1.188-.6 2.771-.601 1.33 0 2.328.443a4.6 4.6 0 0 1 1.694 1.25q.697.807 1.045 1.947.349 1.123.349 2.484v10.271h-3.39v-10.27q.001-1.63-.76-2.533-.743-.902-2.28-.902-1.14 0-2.121.523a7.3 7.3 0 0 0-1.821 1.424v11.758zM114.369 29.255q-.49 0-.744-.142-.253-.159-.427-.617l-.333-1.314a12 12 0 0 1-1.219.997 8 8 0 0 1-1.251.728q-.633.3-1.378.443a7.6 7.6 0 0 1-1.615.159q-.981 0-1.836-.27a4.1 4.1 0 0 1-1.457-.807 4 4 0 0 1-.982-1.36q-.348-.808-.348-1.9 0-.933.491-1.82.506-.886 1.646-1.582 1.156-.712 3.025-1.171 1.884-.459 4.639-.523V19q0-1.74-.744-2.595-.745-.855-2.185-.855-.983 0-1.647.253a7 7 0 0 0-1.156.523q-.49.285-.871.538a1.5 1.5 0 0 1-.807.237q-.349 0-.602-.174a1.7 1.7 0 0 1-.396-.459l-.617-1.108q2.739-2.548 6.523-2.548 1.394 0 2.471.46a4.8 4.8 0 0 1 1.82 1.265 5.5 5.5 0 0 1 1.125 1.963q.396 1.123.396 2.5v10.255zm-5.937-2.12q1.329 0 2.28-.491.966-.507 1.868-1.44v-3.007q-1.821.08-3.072.3-1.25.223-2.027.586-.776.364-1.124.855a1.8 1.8 0 0 0-.332 1.06q0 .57.174.981.19.396.507.665.332.253.76.38.443.11.966.11M119.878 29.255V13.113h2.058q.697 0 .887.649l.237 1.503a10 10 0 0 1 1.061-.98 7 7 0 0 1 1.204-.76 6.4 6.4 0 0 1 1.346-.491 6.7 6.7 0 0 1 1.567-.174q1.33 0 2.328.443 1.013.443 1.694 1.25.697.807 1.045 1.947.349 1.123.349 2.484v10.271h-3.389v-10.27q0-1.63-.76-2.533-.744-.902-2.28-.902a4.45 4.45 0 0 0-2.122.523 7.3 7.3 0 0 0-1.821 1.424v11.758zM149.284 29.255q-.682 0-.871-.649l-.301-1.74q-.507.585-1.077 1.076a7 7 0 0 1-1.235.823 6.2 6.2 0 0 1-1.393.538q-.744.19-1.6.19-1.361 0-2.47-.538a5.4 5.4 0 0 1-1.9-1.599q-.791-1.044-1.235-2.58-.428-1.55-.428-3.544 0-1.804.476-3.34.49-1.535 1.393-2.658a6.3 6.3 0 0 1 2.185-1.773q1.299-.649 2.898-.649 1.425 0 2.422.46a5.8 5.8 0 0 1 1.79 1.25V5.833h3.404v23.422zm-5.336-2.5q1.298 0 2.232-.554t1.758-1.599v-7.517q-.729-.902-1.584-1.266a4.4 4.4 0 0 0-1.836-.38q-1.996 0-3.12 1.472-1.124 1.456-1.124 4.32 0 1.488.253 2.549.254 1.044.729 1.709t1.156.965 1.536.3M159.052 13.113v16.142h-3.404V13.113zm.57-4.874q0 .459-.19.87-.174.411-.491.728-.317.3-.744.49-.411.175-.887.175-.459 0-.871-.174a2.5 2.5 0 0 1-.696-.49 2.7 2.7 0 0 1-.491-.729 2.2 2.2 0 0 1-.174-.87q0-.475.174-.886.19-.412.491-.713.3-.315.696-.49.412-.19.871-.19.476 0 .887.19.427.175.744.49.317.3.491.713.19.412.19.886M163.33 29.255V13.113h2.058q.697 0 .887.649l.237 1.503a10 10 0 0 1 1.061-.98 7 7 0 0 1 1.204-.76 6.4 6.4 0 0 1 1.346-.491 6.7 6.7 0 0 1 1.567-.174q1.33 0 2.328.443 1.013.443 1.694 1.25.697.807 1.045 1.947.349 1.123.349 2.484v10.271h-3.389v-10.27q0-1.63-.76-2.533-.744-.902-2.28-.902-1.14 0-2.122.523a7.3 7.3 0 0 0-1.821 1.424v11.758zM186.845 12.828q1.045 0 1.948.238a7 7 0 0 1 1.678.633H195v1.266q0 .633-.76.775l-1.615.27q.411.949.412 2.04 0 1.188-.475 2.153a4.8 4.8 0 0 1-1.283 1.646q-.823.68-1.964 1.044a8 8 0 0 1-2.47.364q-.507 0-.997-.047a13 13 0 0 1-.935-.158q-.46.268-.68.57-.222.3-.222.616a.83.83 0 0 0 .459.776q.459.253 1.204.364.76.11 1.725.142t1.964.111q.997.08 1.963.27a5.3 5.3 0 0 1 1.711.6 3.3 3.3 0 0 1 1.219 1.124q.459.712.459 1.852 0 1.045-.523 2.041-.522.997-1.52 1.773-.981.775-2.406 1.234-1.426.475-3.247.475-1.804 0-3.151-.348-1.33-.348-2.232-.95-.887-.586-1.33-1.36a3.3 3.3 0 0 1-.428-1.615q0-1.14.713-1.947.728-.807 1.963-1.266a2.84 2.84 0 0 1-1.077-.87q-.395-.555-.395-1.456 0-.348.126-.728.127-.38.38-.744.27-.38.649-.712.396-.332.919-.601a5.1 5.1 0 0 1-1.9-1.773q-.681-1.107-.681-2.58 0-1.202.459-2.167a4.9 4.9 0 0 1 1.314-1.646 6 6 0 0 1 1.98-1.045 8.3 8.3 0 0 1 2.517-.364m4.735 17.219q0-.523-.317-.84-.3-.331-.823-.521a5.4 5.4 0 0 0-1.235-.27 29 29 0 0 0-1.473-.126 70 70 0 0 0-1.599-.08 18 18 0 0 1-1.584-.158 4.1 4.1 0 0 0-1.235.95q-.475.555-.475 1.282 0 .474.238.886.253.412.76.712.522.3 1.314.475.807.174 1.932.174 2.248 0 3.373-.696t1.124-1.788m-4.735-9.005q1.584 0 2.375-.807.792-.807.792-2.105 0-1.33-.792-2.105-.79-.775-2.375-.775-1.568 0-2.375.775-.792.776-.792 2.105 0 .633.206 1.17.206.539.602.935.396.38.982.601.602.206 1.377.206M58.748 29.692 36.088 0 22.923 17.254l-6.716-8.798L0 29.692h13.43l9.492-12.439 9.49 12.439z"></path></svg> 