<?xml version="1.0" encoding="UTF-8"?> <svg xmlns="http://www.w3.org/2000/svg" width="80" height="20" fill="none"><path fill="#D5D9EF" d="M7.32 13.14h11.84v2.18H7.32zm6.24-5.88h5.16v2.1h-5.16zm-.98-3.76h2.38v10.72h-2.38zM8.72 6.26h2.24v8.16H8.72zm8.56-5.22 1.62 1.94q-1.12.32-2.42.58t-2.68.48q-1.38.2-2.78.34-1.38.14-2.7.26a4.1 4.1 0 0 0-.24-1 8 8 0 0 0-.4-.98q1.28-.12 2.58-.28 1.32-.16 2.58-.36 1.28-.22 2.4-.46 1.14-.24 2.04-.52M.66 2.12h4.32v2.1H.66zm3.82 0h.3l.38-.1 1.66.5Q6.3 3.7 5.64 5.1T4.28 7.92q-.7 1.4-1.38 2.68L.7 9.98Q1.22 9.04 1.76 8q.54-1.06 1.06-2.1t.94-1.96l.72-1.58zM2.8 7.86h3.24v2.1h-3.3zm2.34 0h.46L6 7.8l1.42.34Q7 12.7 5.68 15.6q-1.3 2.88-3.44 4.32a4 4 0 0 0-.52-.58q-.32-.32-.66-.62a3 3 0 0 0-.62-.44q2.04-1.26 3.2-3.7 1.18-2.46 1.5-6.3zm-2.18 3.12q.6 1.96 1.58 3.16t2.26 1.84q1.3.64 2.86.86t3.34.22h3.98q.8-.02 1.48-.02.7-.02 1.14-.04-.2.26-.38.68t-.32.86q-.14.46-.22.8h-5.76q-2.18 0-4-.3a10.7 10.7 0 0 1-3.32-1.1q-1.48-.82-2.62-2.34-1.12-1.52-1.9-3.96zM31.5 1.1h2.36v18.68H31.5zm-5 3.06h12.52v10.88h-2.36v-8.7h-7.92v8.9H26.5zm1.56 3.98h9.68v2.08h-9.68zm.06 3.9h9.7v2.18h-9.7zM24.74 1.08 27 1.8a34.2 34.2 0 0 1-3.42 6.64 19.3 19.3 0 0 1-2.12 2.66 5.5 5.5 0 0 0-.34-.76q-.22-.48-.48-.96a10 10 0 0 0-.46-.78q.9-.92 1.74-2.12.86-1.2 1.58-2.58.74-1.38 1.24-2.82m-1.92 5.54 2.28-2.28v15.42h-2.28zM42.76 1.7h4.5v2.22h-4.5zm0 4.54h4.58v2.22h-4.58zm7.82 2.46h7v2.18h-7zm-7.84 2.2h4.52v2.26h-4.52zm-.92-9.2h2.16V9q0 1.2-.06 2.62a36 36 0 0 1-.2 2.88q-.16 1.46-.48 2.84t-.82 2.48a4 4 0 0 0-.56-.4 13 13 0 0 0-.74-.42 6 6 0 0 0-.64-.28q.48-1.02.74-2.24.26-1.24.4-2.54t.16-2.56q.04-1.28.04-2.38zm4.1 0h2.22v15.48q0 .82-.16 1.34t-.64.82-1.16.38-1.66.08a5 5 0 0 0-.12-.76 10 10 0 0 0-.24-.84q-.12-.42-.28-.72.56.02 1.04.02h.68q.18 0 .24-.08.08-.08.08-.28zm10.28.02h2.3V5.6q0 .8-.22 1.26-.2.44-.82.68-.6.22-1.48.28-.86.04-2 .04a4.3 4.3 0 0 0-.28-1.04 8 8 0 0 0-.42-.98l1.02.04q.52.02.92.02.42-.02.56-.02.24-.02.32-.08.1-.06.1-.24zm.72 6.98h.4l.38-.08 1.42.46q-.44 2.6-1.32 4.66-.86 2.04-2.14 3.54t-2.92 2.48a7.4 7.4 0 0 0-.64-.94 6 6 0 0 0-.74-.82q1.4-.74 2.54-2.06t1.9-3.08a15.8 15.8 0 0 0 1.12-3.76zm-3.46 1.46a15.4 15.4 0 0 0 1.4 3.22q.9 1.5 2.1 2.7a9.8 9.8 0 0 0 2.74 1.88q-.38.3-.82.86t-.68.98a10.8 10.8 0 0 1-2.88-2.22 16 16 0 0 1-2.18-3.12 23 23 0 0 1-1.56-3.8zm-4.2-8.44h7.52v2.22h-5.26V19.8h-2.26zm13.08 10.42h13.82v2.06H62.34zm13.06 0h2.38l-.02.18q-.02.16-.04.4a2.5 2.5 0 0 1-.06.38q-.22 1.72-.46 2.86t-.54 1.82-.7 1.02q-.42.42-.92.56a5.7 5.7 0 0 1-1.2.18q-.56.04-1.46.02-.9 0-1.88-.04-.02-.46-.24-1.06a4.4 4.4 0 0 0-.52-1q.66.06 1.32.1.66.02 1.2.04h.84q.32 0 .54-.04.24-.04.42-.18.28-.2.52-.78.24-.6.44-1.62t.36-2.52zm-7.04-1.7 2.48.2q-.46 2.62-1.52 4.42a8.8 8.8 0 0 1-2.74 2.92q-1.7 1.12-4.16 1.78a4.6 4.6 0 0 0-.38-.64q-.24-.36-.52-.74a3.5 3.5 0 0 0-.5-.6q2.26-.46 3.78-1.34 1.54-.9 2.4-2.36.88-1.48 1.16-3.64M66.3 2.92h10v2h-10zm9.42 0h.44l.38-.1 1.48.94a11.5 11.5 0 0 1-2.88 2.92q-1.72 1.24-3.9 2.12a32 32 0 0 1-4.58 1.42q-2.4.54-4.88.84a5.6 5.6 0 0 0-.38-1.08 5.5 5.5 0 0 0-.54-1.02q2.34-.2 4.62-.64a30 30 0 0 0 4.28-1.14q2.02-.72 3.54-1.7 1.54-1 2.42-2.28zm-9.08 2.04q1.14 1.22 3.04 2.02 1.9.78 4.38 1.2a49 49 0 0 0 5.38.54q-.24.24-.5.62-.24.38-.46.78-.22.38-.38.7-2.96-.22-5.5-.78-2.52-.58-4.52-1.62a11.7 11.7 0 0 1-3.4-2.66zM67.2.98l2.44.5a16.3 16.3 0 0 1-2.72 3.34q-1.62 1.56-4.06 2.82-.12-.3-.38-.64a7 7 0 0 0-.52-.68 3.4 3.4 0 0 0-.5-.54Q62.9 5.14 64 4.36a13 13 0 0 0 1.9-1.66A9.7 9.7 0 0 0 67.2.98"></path></svg> 