<?xml version="1.0" encoding="UTF-8"?> <svg xmlns="http://www.w3.org/2000/svg" width="100" height="52" fill="none"><g fill="#B4AAFF" opacity=".27"><path d="M18.061 0h6.674v44.49h-6.674zM0 12.289h6.568v38.915H0zm36.759-.114h6.62v38.858h-6.62zM3.23 40.394h36.494v6.998H3.23zM70.445.626h28.972v5.917H70.445zM81.25 3.755l6.939.853a177 177 0 0 1-1.748 5.234 79 79 0 0 1-1.642 4.324l-5.244-1.024q.53-2.048 1.006-4.665.477-2.674.689-4.722m.636 15.93h6.197v10.468q0 2.73-.742 5.69-.689 2.901-2.436 5.802-1.749 2.845-4.873 5.462-3.072 2.617-7.892 4.665-.37-.739-1.06-1.763a35 35 0 0 0-1.483-1.935 23 23 0 0 0-1.377-1.65q4.767-1.592 7.522-3.584 2.806-1.991 4.078-4.153 1.324-2.22 1.695-4.38.37-2.22.37-4.268zm3.39 23.042 3.972-4.552q1.748 1.252 3.76 2.788a71 71 0 0 1 3.92 3.129q1.906 1.536 3.072 2.845L95.71 52q-1.06-1.308-2.86-2.958a92 92 0 0 0-3.814-3.3 55 55 0 0 0-3.76-3.015M72.51 10.696h25v27.308h-6.197v-21.05H78.39v21.278h-5.88zM49.947 2.048h19.439V8.42H49.947zm7.574 3.869h6.303v36.696q0 2.617-.53 4.153-.53 1.593-2.065 2.39-1.484.853-3.708 1.137-2.172.285-5.138.228a19 19 0 0 0-.53-2.219 23 23 0 0 0-.794-2.503 15 15 0 0 0-1.006-2.162q2.066.057 3.867.114 1.8 0 2.489-.057.636-.057.847-.285.265-.227.265-.796z"></path></g></svg> 