<?xml version="1.0" encoding="UTF-8"?> <svg xmlns="http://www.w3.org/2000/svg" width="32" height="17" viewBox="0 0 32 17" fill="none"><path d="M7.08736 3.57325H14.9147V5.54034H7.08736V3.57325ZM6.77492 8.06688H15.3916V10.0159H6.77492V8.06688ZM9.80062 5.25159H11.8068V7.90446C11.8068 8.55414 11.7575 9.26398 11.6588 10.034C11.5601 10.804 11.3628 11.598 11.0668 12.4161C10.7818 13.2222 10.3488 14.0163 9.76773 14.7983C9.19767 15.5803 8.43577 16.3142 7.48201 17C7.32854 16.7714 7.10928 16.5067 6.82425 16.2059C6.53923 15.9052 6.27064 15.6585 6.0185 15.466C6.90648 14.9006 7.6026 14.281 8.10689 13.6072C8.62213 12.9335 9.00034 12.2537 9.24152 11.5679C9.4827 10.8822 9.63618 10.2265 9.70195 9.60085C9.76773 8.9632 9.80062 8.3857 9.80062 7.86836V5.25159ZM11.6259 9.87155C11.9657 11.0265 12.47 12.0552 13.1387 12.9575C13.8075 13.8599 14.6461 14.5336 15.6547 14.9788C15.5012 15.1111 15.3422 15.2795 15.1778 15.4841C15.0134 15.7006 14.8599 15.9232 14.7174 16.1518C14.5749 16.3804 14.4543 16.5909 14.3556 16.7834C13.2374 16.1819 12.322 15.3217 11.6095 14.2028C10.9078 13.0718 10.3597 11.7604 9.96506 10.2686L11.6259 9.87155ZM12.4974 0.16242L14.4872 0.721868C14.1912 1.37155 13.8787 2.0092 13.5498 2.63482C13.221 3.26044 12.9085 3.79582 12.6125 4.24098L11.0175 3.69957C11.1929 3.37473 11.3738 3.00778 11.5601 2.59873C11.7465 2.18967 11.9219 1.77459 12.0863 1.3535C12.2508 0.920382 12.3878 0.523354 12.4974 0.16242ZM7.35046 0.956475L8.92909 0.126326C9.25797 0.523354 9.57588 0.968506 9.88284 1.46178C10.1898 1.95506 10.4145 2.3942 10.557 2.77919L8.91264 3.75372C8.77013 3.35669 8.55087 2.8995 8.25488 2.38217C7.96985 1.8528 7.66838 1.37757 7.35046 0.956475ZM0.213772 0.523354H6.62693V2.45435H0.213772V0.523354ZM1.98972 4.3673H4.94964V6.13588H1.98972V4.3673ZM1.98972 8.04883H4.94964V9.81741H1.98972V8.04883ZM0.920863 1.55202H2.64748V12.8854H0.920863V1.55202ZM4.35766 1.55202H6.0185V16.8015H4.35766V1.55202ZM0 12.4342C0.613909 12.35 1.31004 12.2477 2.08839 12.1274C2.8777 11.995 3.70538 11.8507 4.57143 11.6943C5.44844 11.5379 6.31449 11.3875 7.16958 11.2431L7.30113 13.1019C6.09524 13.3425 4.87838 13.5832 3.65057 13.8238C2.43371 14.0524 1.34841 14.2569 0.394656 14.4374L0 12.4342Z" fill="#B4AAFF"></path><path d="M20.0288 11.8928L22.0843 12.741C21.7335 13.1982 21.3333 13.6674 20.8839 14.1486C20.4454 14.6178 19.9904 15.057 19.519 15.466C19.0476 15.8871 18.5981 16.2481 18.1706 16.5488C18.0391 16.4045 17.8637 16.236 17.6444 16.0435C17.4361 15.8631 17.2169 15.6766 16.9866 15.4841C16.7564 15.3036 16.5591 15.1592 16.3947 15.051C16.8441 14.7983 17.2936 14.5035 17.7431 14.1667C18.1925 13.8178 18.6146 13.4508 19.0092 13.0658C19.4039 12.6688 19.7437 12.2778 20.0288 11.8928ZM26.1624 13.0297L27.8068 11.8025C28.2453 12.1033 28.7112 12.4522 29.2045 12.8493C29.7088 13.2343 30.1857 13.6253 30.6351 14.0223C31.0846 14.4193 31.4519 14.7863 31.7369 15.1231L29.9609 16.5127C29.7088 16.1759 29.369 15.8029 28.9414 15.3938C28.5139 14.9848 28.0534 14.5757 27.5601 14.1667C27.0778 13.7456 26.6119 13.3666 26.1624 13.0297ZM17.9568 5.57643L19.3217 4.18684C19.7821 4.47558 20.2645 4.80644 20.7688 5.17941C21.284 5.55237 21.7773 5.93135 22.2487 6.31635C22.7201 6.70134 23.0983 7.06228 23.3834 7.39915L21.9198 8.96921C21.6567 8.63234 21.3004 8.26539 20.851 7.86836C20.4015 7.45931 19.9192 7.05626 19.4039 6.65924C18.8996 6.25018 18.4173 5.88924 17.9568 5.57643ZM26.4913 7.83227L28.1192 6.69533C28.5687 7.10439 29.0401 7.56157 29.5334 8.06688C30.0377 8.57219 30.5091 9.07749 30.9476 9.5828C31.3861 10.0761 31.7369 10.5333 32 10.9544L30.2405 12.2537C29.9993 11.8447 29.6704 11.3815 29.2539 10.8641C28.8373 10.3468 28.3878 9.82343 27.9054 9.29405C27.4231 8.75265 26.9517 8.26539 26.4913 7.83227ZM23.1038 10.2686H25.2251V16.8015H23.1038V10.2686ZM16.74 9.29405C17.5731 9.28202 18.5105 9.26398 19.5519 9.23992C20.6043 9.21585 21.7115 9.19781 22.8736 9.18577C24.0466 9.16171 25.2415 9.13765 26.4584 9.11359C27.6752 9.07749 28.8756 9.0414 30.0596 9.00531L29.9609 10.9724C28.4152 11.0446 26.853 11.1108 25.2744 11.1709C23.6958 11.2311 22.1884 11.2852 20.7523 11.3333C19.3272 11.3815 18.05 11.4236 16.9209 11.4597L16.74 9.29405ZM26.557 2.99575L28.481 4.1327C27.9329 4.72222 27.3573 5.32378 26.7544 5.93737C26.1514 6.53892 25.532 7.12845 24.8962 7.70594C24.2713 8.28344 23.6465 8.83086 23.0216 9.3482C22.4077 9.8535 21.8212 10.3047 21.2621 10.7017L19.7163 9.60085C20.2754 9.17976 20.8619 8.71055 21.4758 8.19321C22.1007 7.66384 22.7146 7.10439 23.3176 6.51486C23.9315 5.92534 24.5125 5.32979 25.0606 4.72824C25.6197 4.12668 26.1185 3.54919 26.557 2.99575ZM22.3967 1.75053L24.3371 2.79724C23.9973 3.23036 23.6355 3.6695 23.2518 4.11465C22.8681 4.5598 22.4844 4.98089 22.1007 5.37792C21.728 5.76292 21.3772 6.1058 21.0483 6.40658L19.4532 5.43206C19.7712 5.11925 20.111 4.75832 20.4728 4.34926C20.8345 3.92817 21.1853 3.48903 21.5252 3.03185C21.865 2.57466 22.1555 2.14756 22.3967 1.75053ZM29.2539 0L30.6516 1.84076C29.7417 2.04529 28.7605 2.22576 27.7081 2.38217C26.6557 2.52654 25.5594 2.65287 24.4193 2.76115C23.2792 2.8574 22.1391 2.92958 20.999 2.97771C19.8698 3.02583 18.7681 3.05591 17.6937 3.06794C17.6828 2.79122 17.628 2.46638 17.5293 2.09342C17.4306 1.70842 17.332 1.3896 17.2333 1.13694C18.2967 1.10085 19.3765 1.05874 20.4728 1.01062C21.58 0.95046 22.6653 0.872257 23.7287 0.776008C24.7921 0.679759 25.7951 0.571479 26.7379 0.451167C27.6807 0.318825 28.5194 0.168436 29.2539 0Z" fill="#B4AAFF"></path></svg> 