<?xml version="1.0" encoding="UTF-8"?> <svg xmlns="http://www.w3.org/2000/svg" width="15" height="15" viewBox="0 0 15 15" fill="none"><rect width="15" height="15" rx="4.2" fill="#094A8A"></rect><path d="M5.76976 4.76861C5.76976 5.23768 5.95206 5.68753 6.27655 6.01921C6.60105 6.35089 7.04115 6.53723 7.50005 6.53723C7.95896 6.53723 8.39906 6.35089 8.72356 6.01921C9.04805 5.68753 9.23035 5.23768 9.23035 4.76861C9.23035 4.29955 9.04805 3.84969 8.72356 3.51802C8.39906 3.18634 7.95896 3 7.50005 3C7.04115 3 6.60105 3.18634 6.27655 3.51802C5.95206 3.84969 5.76976 4.29955 5.76976 4.76861Z" stroke="white" stroke-linecap="round" stroke-linejoin="round"></path><path d="M4.52101 6.53723H10.479C10.6141 6.53721 10.7449 6.58565 10.8486 6.6741C10.9523 6.76255 11.0223 6.8854 11.0465 7.02124L11.9907 11.3049C12.0058 11.3899 12.0025 11.4772 11.9809 11.5607C11.9594 11.6443 11.9202 11.7219 11.866 11.7882C11.8119 11.8545 11.7442 11.9079 11.6676 11.9445C11.5911 11.9811 11.5076 12 11.4231 12H3.57685C3.49236 12 3.40889 11.9811 3.33236 11.9445C3.25583 11.9079 3.1881 11.8545 3.13396 11.7882C3.07982 11.7219 3.04059 11.6443 3.01905 11.5607C2.99752 11.4772 2.99419 11.3899 3.00932 11.3049L3.95348 7.02124C3.97766 6.8854 4.04771 6.76255 4.15143 6.6741C4.25514 6.58565 4.38594 6.53721 4.52101 6.53723Z" stroke="white" stroke-linecap="round" stroke-linejoin="round"></path></svg> 