<?xml version="1.0" encoding="UTF-8"?> <svg xmlns="http://www.w3.org/2000/svg" width="20" height="20" viewBox="0 0 20 20" fill="none"><rect width="20" height="20" rx="5.6" fill="#094A8A"></rect><g clip-path="url(#clip0_117_59)"><path d="M8.71545 6.39996C9.32288 6.38699 9.91189 6.60572 10.3649 7.01031H10.3658L10.5299 7.16364L10.5397 7.17145C10.9529 7.5335 11.4834 7.73384 12.0328 7.73395C12.5824 7.73395 13.1136 7.5336 13.527 7.17145L13.5328 7.16656L13.6315 7.07672C13.6411 7.06981 13.6492 7.06685 13.6569 7.06598C13.6668 7.06486 13.6799 7.06632 13.693 7.07184C13.706 7.07737 13.7161 7.08537 13.7223 7.09332C13.7274 7.09993 13.7304 7.10867 13.7321 7.12164L13.733 7.13336V11.3336C13.733 11.3423 13.7315 11.3509 13.7281 11.3589C13.7248 11.367 13.7197 11.3743 13.7135 11.3804C13.2776 11.8078 12.6949 12.0529 12.0846 12.066C11.4743 12.0791 10.8812 11.859 10.4274 11.4507L10.2701 11.3033L10.2604 11.2945L10.1051 11.1705C9.73186 10.8973 9.28258 10.7433 8.81702 10.733C8.28496 10.7212 7.76569 10.8975 7.35022 11.23L7.19983 11.3502V14.6002C7.19964 14.6168 7.19359 14.6329 7.18225 14.6451C7.17062 14.6574 7.15423 14.6646 7.13733 14.6656C7.12044 14.6666 7.10346 14.6618 7.09045 14.6509C7.07784 14.6404 7.06935 14.6252 7.06702 14.6089V7.13336C7.06702 7.12463 7.06857 7.11604 7.0719 7.10797C7.07533 7.0998 7.08022 7.09172 7.08655 7.08551C7.52248 6.6582 8.10516 6.41304 8.71545 6.39996Z" stroke="white" stroke-width="0.8"></path></g><defs><clipPath id="clip0_117_59"><rect width="11.2" height="11.2" fill="white" transform="translate(4.79999 4.79999)"></rect></clipPath></defs></svg> 