<?xml version="1.0" encoding="UTF-8"?> <svg xmlns="http://www.w3.org/2000/svg" width="35" height="35" viewBox="0 0 35 35" fill="none"><rect width="35" height="35" rx="8.4" fill="#094A8A"></rect><g clip-path="url(#clip0_124_1981)"><path d="M8.375 15.125C8.375 14.6167 8.57693 14.1292 8.93638 13.7698C9.29582 13.4103 9.78334 13.2084 10.2917 13.2084H23.7083C24.2167 13.2084 24.7042 13.4103 25.0636 13.7698C25.4231 14.1292 25.625 14.6167 25.625 15.125V23.75C25.625 24.2584 25.4231 24.7459 25.0636 25.1053C24.7042 25.4648 24.2167 25.6667 23.7083 25.6667H10.2917C9.78334 25.6667 9.29582 25.4648 8.93638 25.1053C8.57693 24.7459 8.375 24.2584 8.375 23.75V15.125Z" stroke="white" stroke-width="1.4375" stroke-linecap="round" stroke-linejoin="round"></path><path d="M13.1667 13.2083V11.2917C13.1667 10.7833 13.3686 10.2958 13.7281 9.93638C14.0875 9.57693 14.575 9.375 15.0834 9.375H18.9167C19.425 9.375 19.9125 9.57693 20.272 9.93638C20.6314 10.2958 20.8334 10.7833 20.8334 11.2917V13.2083" stroke="white" stroke-width="1.4375" stroke-linecap="round" stroke-linejoin="round"></path><path d="M17 18V18.01" stroke="white" stroke-width="1.4375" stroke-linecap="round" stroke-linejoin="round"></path><path d="M8.375 18.9583C11.0503 20.3063 14.0043 21.0085 17 21.0085C19.9957 21.0085 22.9497 20.3063 25.625 18.9583" stroke="white" stroke-width="1.4375" stroke-linecap="round" stroke-linejoin="round"></path></g><defs><clipPath id="clip0_124_1981"><rect width="23" height="23" fill="white" transform="translate(5.5 6.5)"></rect></clipPath></defs></svg> 