<?xml version="1.0" encoding="UTF-8"?> <svg xmlns="http://www.w3.org/2000/svg" width="20" height="21" viewBox="0 0 20 21" fill="none"><rect y="0.443359" width="20" height="20" rx="4.44444" fill="white"></rect><path d="M4.5 7.38775C4.5 7.0636 4.62877 6.75272 4.85798 6.52351C5.08719 6.2943 5.39807 6.16553 5.72222 6.16553H14.2778C14.6019 6.16553 14.9128 6.2943 15.142 6.52351C15.3712 6.75272 15.5 7.0636 15.5 7.38775M4.5 7.38775V13.4989C4.5 13.823 4.62877 14.1339 4.85798 14.3631C5.08719 14.5923 5.39807 14.7211 5.72222 14.7211H14.2778C14.6019 14.7211 14.9128 14.5923 15.142 14.3631C15.3712 14.1339 15.5 13.823 15.5 13.4989V7.38775M4.5 7.38775L10 11.0544L15.5 7.38775" stroke="#094A8A" stroke-linecap="round" stroke-linejoin="round"></path></svg> 