<?xml version="1.0" encoding="UTF-8"?> <svg xmlns="http://www.w3.org/2000/svg" width="35" height="35" viewBox="0 0 35 35" fill="none"><rect width="35" height="35" rx="8.4" fill="#094A8A"></rect><g clip-path="url(#clip0_124_2029)"><path d="M10.2917 22.7917C10.2917 23.3 10.4936 23.7875 10.8531 24.147C11.2125 24.5064 11.7 24.7083 12.2083 24.7083C12.7167 24.7083 13.2042 24.5064 13.5636 24.147C13.9231 23.7875 14.125 23.3 14.125 22.7917C14.125 22.2833 13.9231 21.7958 13.5636 21.4364C13.2042 21.0769 12.7167 20.875 12.2083 20.875C11.7 20.875 11.2125 21.0769 10.8531 21.4364C10.4936 21.7958 10.2917 22.2833 10.2917 22.7917Z" stroke="white" stroke-width="1.4375" stroke-linecap="round" stroke-linejoin="round"></path><path d="M19.875 22.7917C19.875 23.3 20.0769 23.7875 20.4364 24.147C20.7958 24.5064 21.2833 24.7083 21.7917 24.7083C22.3 24.7083 22.7875 24.5064 23.147 24.147C23.5064 23.7875 23.7083 23.3 23.7083 22.7917C23.7083 22.2833 23.5064 21.7958 23.147 21.4364C22.7875 21.0769 22.3 20.875 21.7917 20.875C21.2833 20.875 20.7958 21.0769 20.4364 21.4364C20.0769 21.7958 19.875 22.2833 19.875 22.7917Z" stroke="white" stroke-width="1.4375" stroke-linecap="round" stroke-linejoin="round"></path><path d="M10.2917 22.7917H8.375V12.2501C8.375 11.9959 8.47597 11.7522 8.65569 11.5724C8.83541 11.3927 9.07917 11.2917 9.33333 11.2917H17.9583V22.7917M14.125 22.7917H19.875M23.7083 22.7917H25.625V17.0417M25.625 17.0417H17.9583M25.625 17.0417L22.75 12.2501H17.9583" stroke="white" stroke-width="1.4375" stroke-linecap="round" stroke-linejoin="round"></path></g><defs><clipPath id="clip0_124_2029"><rect width="23" height="23" fill="white" transform="translate(5.5 6.5)"></rect></clipPath></defs></svg> 