<?xml version="1.0" encoding="UTF-8"?> <svg xmlns="http://www.w3.org/2000/svg" width="35" height="35" viewBox="0 0 35 35" fill="none"><rect width="35" height="35" rx="8.4" fill="#094A8A"></rect><g clip-path="url(#clip0_124_2009)"><path d="M24.1875 18.5483L17 25.6668L9.8125 18.5483C9.33842 18.0869 8.96499 17.5325 8.71574 16.9197C8.46648 16.307 8.34679 15.6493 8.36421 14.988C8.38163 14.3267 8.53578 13.6762 8.81695 13.0775C9.09812 12.4787 9.50022 11.9446 9.99793 11.5089C10.4956 11.0732 11.0782 10.7452 11.7089 10.5457C12.3395 10.3462 13.0047 10.2794 13.6625 10.3495C14.3202 10.4197 14.9564 10.6253 15.5308 10.9534C16.1052 11.2815 16.6054 11.7249 17 12.2559C17.3963 11.7288 17.8971 11.2892 18.4711 10.9646C19.0451 10.64 19.68 10.4374 20.3359 10.3694C20.9918 10.3014 21.6547 10.3696 22.2831 10.5696C22.9114 10.7696 23.4918 11.0971 23.9877 11.5317C24.4837 11.9663 24.8846 12.4986 25.1654 13.0953C25.4462 13.6919 25.6008 14.3401 25.6195 14.9993C25.6383 15.6585 25.5208 16.3144 25.2744 16.9261C25.028 17.5377 24.658 18.0919 24.1875 18.554" stroke="white" stroke-width="1.4375" stroke-linecap="round" stroke-linejoin="round"></path><path d="M17 12.25L13.8442 15.4058C13.6645 15.5855 13.5636 15.8292 13.5636 16.0833C13.5636 16.3374 13.6645 16.5812 13.8442 16.7609L14.3646 17.2812C15.0258 17.9425 16.0991 17.9425 16.7604 17.2812L17.7187 16.3229C18.2906 15.751 19.0662 15.4298 19.875 15.4298C20.6837 15.4298 21.4594 15.751 22.0312 16.3229L24.1875 18.4792" stroke="white" stroke-width="1.4375" stroke-linecap="round" stroke-linejoin="round"></path><path d="M17.4792 21.3542L19.3959 23.2709" stroke="white" stroke-width="1.4375" stroke-linecap="round" stroke-linejoin="round"></path><path d="M19.875 18.9583L21.7917 20.8749" stroke="white" stroke-width="1.4375" stroke-linecap="round" stroke-linejoin="round"></path></g><defs><clipPath id="clip0_124_2009"><rect width="23" height="23" fill="white" transform="translate(5.5 6.5)"></rect></clipPath></defs></svg> 