<?xml version="1.0" encoding="UTF-8"?> <svg xmlns="http://www.w3.org/2000/svg" width="40" height="40" viewBox="0 0 40 40" fill="none"><rect x="0.4" y="0.4" width="39.2" height="39.2" rx="7.6" fill="white"></rect><rect x="0.4" y="0.4" width="39.2" height="39.2" rx="7.6" stroke="#094A8A" stroke-width="0.8"></rect><path d="M26.1677 14.4229C25.4036 13.6517 24.4937 13.0403 23.4909 12.6244C22.4882 12.2084 21.4127 11.9961 20.3271 12C15.7781 12 12.0708 15.7062 12.0667 20.2562C12.0667 21.7135 12.4479 23.1312 13.1677 24.3864L12 28.6667L16.3792 27.5187C17.5906 28.178 18.9478 28.5236 20.3271 28.524H20.3313C24.8812 28.524 28.5875 24.8177 28.5917 20.2635C28.5927 19.1782 28.379 18.1033 27.9628 17.1009C27.5466 16.0985 26.9362 15.1884 26.1667 14.4229H26.1677ZM20.3271 27.126C19.0969 27.1264 17.8893 26.7954 16.8312 26.1677L16.5812 26.0177L13.9833 26.6989L14.6771 24.1646L14.5146 23.9031C13.8269 22.8097 13.4632 21.5438 13.4656 20.2521C13.4656 16.475 16.5458 13.3937 20.3313 13.3937C21.2331 13.3921 22.1263 13.569 22.9594 13.9143C23.7925 14.2595 24.5491 14.7662 25.1854 15.4052C25.824 16.0417 26.3302 16.7984 26.6749 17.6315C27.0196 18.4646 27.1959 19.3577 27.1937 20.2594C27.1896 24.05 24.1094 27.126 20.3271 27.126ZM24.0927 21.9864C23.8875 21.8833 22.874 21.3844 22.6833 21.3135C22.4937 21.2458 22.3552 21.2104 22.2198 21.4167C22.0812 21.6219 21.6854 22.0896 21.5667 22.2239C21.4479 22.3625 21.325 22.3781 21.1187 22.276C20.9135 22.1719 20.2479 21.9552 19.4604 21.25C18.8458 20.7031 18.4344 20.026 18.3115 19.8208C18.1927 19.6146 18.3 19.5042 18.4031 19.401C18.4937 19.3094 18.6083 19.1594 18.7115 19.0406C18.8156 18.9219 18.85 18.8344 18.9177 18.6969C18.9854 18.5573 18.9531 18.4385 18.9021 18.3354C18.85 18.2323 18.4385 17.2146 18.2646 16.8042C18.0979 16.3989 17.9281 16.4552 17.801 16.45C17.6823 16.4427 17.5437 16.4427 17.4052 16.4427C17.3006 16.4453 17.1976 16.4695 17.1028 16.5138C17.008 16.558 16.9233 16.6214 16.8542 16.7C16.6646 16.9062 16.1344 17.4052 16.1344 18.4229C16.1344 19.4406 16.874 20.4187 16.9781 20.5573C17.0802 20.6958 18.4302 22.7781 20.5021 23.6739C20.9917 23.8875 21.3771 24.0135 21.6781 24.1094C22.1729 24.2677 22.6198 24.2437 22.976 24.1927C23.3719 24.1323 24.1958 23.6927 24.3698 23.2104C24.5406 22.7271 24.5406 22.3146 24.4885 22.2281C24.4375 22.1406 24.299 22.0896 24.0927 21.9864Z" fill="#094A8A"></path></svg> 