<?xml version="1.0" encoding="UTF-8"?> <svg xmlns="http://www.w3.org/2000/svg" width="20" height="20" viewBox="0 0 20 20" fill="none"><rect x="0.4" y="0.4" width="19.2" height="19.2" rx="4.4" stroke="#094A8A" stroke-width="0.8"></rect><g clip-path="url(#clip0_124_2213)"><path d="M5.07141 8.3572C5.07141 8.06673 5.1868 7.78815 5.3922 7.58275C5.5976 7.37735 5.87617 7.26196 6.16665 7.26196H13.8333C14.1238 7.26196 14.4024 7.37735 14.6078 7.58275C14.8132 7.78815 14.9286 8.06673 14.9286 8.3572V13.2858C14.9286 13.5762 14.8132 13.8548 14.6078 14.0602C14.4024 14.2656 14.1238 14.381 13.8333 14.381H6.16665C5.87617 14.381 5.5976 14.2656 5.3922 14.0602C5.1868 13.8548 5.07141 13.5762 5.07141 13.2858V8.3572Z" stroke="#094A8A" stroke-width="0.821429" stroke-linecap="round" stroke-linejoin="round"></path><path d="M7.80951 7.26189V6.16665C7.80951 5.87617 7.9249 5.5976 8.1303 5.3922C8.33569 5.1868 8.61427 5.07141 8.90475 5.07141H11.0952C11.3857 5.07141 11.6643 5.1868 11.8697 5.3922C12.0751 5.5976 12.1905 5.87617 12.1905 6.16665V7.26189" stroke="#094A8A" stroke-width="0.821429" stroke-linecap="round" stroke-linejoin="round"></path><path d="M10 10V10.0057" stroke="#094A8A" stroke-width="0.821429" stroke-linecap="round" stroke-linejoin="round"></path><path d="M5.07141 10.5476C6.60013 11.3179 8.28814 11.7192 9.99998 11.7192C11.7118 11.7192 13.3998 11.3179 14.9286 10.5476" stroke="#094A8A" stroke-width="0.821429" stroke-linecap="round" stroke-linejoin="round"></path></g><defs><clipPath id="clip0_124_2213"><rect width="13.1429" height="13.1429" fill="white" transform="translate(3.42859 3.42859)"></rect></clipPath></defs></svg> 