<?xml version="1.0" encoding="UTF-8"?> <svg xmlns="http://www.w3.org/2000/svg" width="20" height="21" viewBox="0 0 20 21" fill="none"><rect y="0.443359" width="20" height="20" rx="4.44444" fill="white"></rect><path d="M13.0938 7.34961V7.35648M4.5 7.69336C4.5 6.96401 4.78973 6.26454 5.30546 5.74882C5.82118 5.23309 6.52065 4.94336 7.25 4.94336H12.75C13.4793 4.94336 14.1788 5.23309 14.6945 5.74882C15.2103 6.26454 15.5 6.96401 15.5 7.69336V13.1934C15.5 13.9227 15.2103 14.6222 14.6945 15.1379C14.1788 15.6536 13.4793 15.9434 12.75 15.9434H7.25C6.52065 15.9434 5.82118 15.6536 5.30546 15.1379C4.78973 14.6222 4.5 13.9227 4.5 13.1934V7.69336ZM7.9375 10.4434C7.9375 10.9904 8.1548 11.515 8.54159 11.9018C8.92839 12.2886 9.45299 12.5059 10 12.5059C10.547 12.5059 11.0716 12.2886 11.4584 11.9018C11.8452 11.515 12.0625 10.9904 12.0625 10.4434C12.0625 9.89635 11.8452 9.37175 11.4584 8.98495C11.0716 8.59816 10.547 8.38086 10 8.38086C9.45299 8.38086 8.92839 8.59816 8.54159 8.98495C8.1548 9.37175 7.9375 9.89635 7.9375 10.4434Z" stroke="#094A8A" stroke-linecap="round" stroke-linejoin="round"></path></svg> 