<?xml version="1.0" encoding="UTF-8"?> <svg xmlns="http://www.w3.org/2000/svg" width="1600" height="900" viewBox="0 0 1600 900" fill="none"><rect width="1600" height="900" fill="#094A8A"></rect><path d="M358.663 453.64C361.783 453.64 364.523 453.24 366.883 452.44C369.283 451.64 371.263 450.52 372.823 449.08C374.423 447.6 375.623 445.82 376.423 443.74C377.223 441.66 377.623 439.34 377.623 436.78C377.623 434.26 377.223 432 376.423 430C375.663 428 374.503 426.3 372.943 424.9C371.383 423.5 369.403 422.44 367.003 421.72C364.643 420.96 361.863 420.58 358.663 420.58H345.823V453.64H358.663ZM358.663 409.6C364.303 409.6 369.183 410.26 373.303 411.58C377.463 412.9 380.883 414.76 383.563 417.16C386.283 419.52 388.303 422.38 389.623 425.74C390.943 429.06 391.603 432.74 391.603 436.78C391.603 440.9 390.903 444.68 389.503 448.12C388.103 451.52 386.023 454.46 383.263 456.94C380.503 459.38 377.063 461.3 372.943 462.7C368.863 464.06 364.103 464.74 358.663 464.74H345.823V496H331.783V409.6H358.663ZM433.451 469.24C428.851 469.4 424.971 469.78 421.811 470.38C418.651 470.94 416.091 471.68 414.131 472.6C412.171 473.48 410.751 474.54 409.871 475.78C409.031 477.02 408.611 478.38 408.611 479.86C408.611 481.3 408.831 482.54 409.271 483.58C409.751 484.58 410.391 485.42 411.191 486.1C412.031 486.74 412.991 487.22 414.071 487.54C415.191 487.82 416.411 487.96 417.731 487.96C421.091 487.96 423.971 487.34 426.371 486.1C428.811 484.82 431.171 482.98 433.451 480.58V469.24ZM399.251 443.32C406.171 436.88 414.411 433.66 423.971 433.66C427.491 433.66 430.611 434.24 433.331 435.4C436.091 436.52 438.391 438.12 440.231 440.2C442.111 442.28 443.531 444.76 444.491 447.64C445.491 450.48 445.991 453.64 445.991 457.12V496H440.231C438.991 496 438.051 495.82 437.411 495.46C436.771 495.06 436.231 494.28 435.791 493.12L434.531 488.14C432.971 489.54 431.431 490.8 429.911 491.92C428.391 493 426.811 493.92 425.171 494.68C423.571 495.44 421.831 496 419.951 496.36C418.111 496.76 416.071 496.96 413.831 496.96C411.351 496.96 409.031 496.62 406.871 495.94C404.751 495.26 402.911 494.24 401.351 492.88C399.791 491.48 398.551 489.76 397.631 487.72C396.751 485.68 396.311 483.28 396.311 480.52C396.311 478.16 396.931 475.86 398.171 473.62C399.451 471.38 401.531 469.38 404.411 467.62C407.331 465.82 411.151 464.34 415.871 463.18C420.631 462.02 426.491 461.36 433.451 461.2V457.12C433.451 452.72 432.511 449.44 430.631 447.28C428.751 445.12 425.991 444.04 422.351 444.04C419.871 444.04 417.791 444.36 416.111 445C414.431 445.6 412.971 446.26 411.731 446.98C410.491 447.7 409.391 448.38 408.431 449.02C407.471 449.62 406.451 449.92 405.371 449.92C404.491 449.92 403.731 449.7 403.091 449.26C402.491 448.78 401.991 448.2 401.591 447.52L399.251 443.32ZM489.302 487.36C494.862 487.36 499.022 485.62 501.782 482.14C504.542 478.62 505.922 473.56 505.922 466.96C505.922 460.44 504.582 455.42 501.902 451.9C499.222 448.34 495.162 446.56 489.722 446.56C484.362 446.56 480.202 448.2 477.242 451.48C474.322 454.76 472.862 459.56 472.862 465.88C472.862 472.76 474.222 478.06 476.942 481.78C479.702 485.5 483.822 487.36 489.302 487.36ZM493.562 422.26C489.682 422.54 486.342 423.34 483.542 424.66C480.782 425.98 478.482 427.76 476.642 430C474.842 432.24 473.462 434.92 472.502 438.04C471.582 441.16 471.042 444.64 470.882 448.48C472.882 445 475.782 442.22 479.582 440.14C483.382 438.06 487.822 437.02 492.902 437.02C496.982 437.02 500.642 437.74 503.882 439.18C507.122 440.62 509.862 442.64 512.102 445.24C514.382 447.84 516.122 450.98 517.322 454.66C518.562 458.34 519.182 462.42 519.182 466.9C519.182 471.46 518.462 475.6 517.022 479.32C515.622 483 513.622 486.16 511.022 488.8C508.422 491.4 505.282 493.4 501.602 494.8C497.922 496.2 493.822 496.9 489.302 496.9C485.022 496.9 481.062 496.2 477.422 494.8C473.782 493.36 470.622 491.06 467.942 487.9C465.262 484.7 463.162 480.52 461.642 475.36C460.162 470.2 459.422 463.88 459.422 456.4C459.422 450.08 460.002 444.24 461.162 438.88C462.322 433.52 464.202 428.84 466.802 424.84C469.402 420.8 472.802 417.56 477.002 415.12C481.242 412.64 486.402 411.16 492.482 410.68L514.262 408.88L514.982 415.6C515.142 417.08 514.922 418.32 514.322 419.32C513.762 420.32 512.762 420.86 511.322 420.94L493.562 422.26ZM558.109 433.84C562.629 433.84 566.709 434.58 570.349 436.06C574.029 437.54 577.149 439.64 579.709 442.36C582.309 445.08 584.309 448.38 585.709 452.26C587.109 456.14 587.809 460.5 587.809 465.34C587.809 470.18 587.109 474.54 585.709 478.42C584.309 482.3 582.309 485.62 579.709 488.38C577.149 491.1 574.029 493.2 570.349 494.68C566.709 496.16 562.629 496.9 558.109 496.9C553.549 496.9 549.429 496.16 545.749 494.68C542.109 493.2 538.989 491.1 536.389 488.38C533.789 485.62 531.789 482.3 530.389 478.42C528.989 474.54 528.289 470.18 528.289 465.34C528.289 460.5 528.989 456.14 530.389 452.26C531.789 448.38 533.789 445.08 536.389 442.36C538.989 439.64 542.109 437.54 545.749 436.06C549.429 434.58 553.549 433.84 558.109 433.84ZM558.109 486.82C563.629 486.82 567.729 484.98 570.409 481.3C573.129 477.58 574.489 472.28 574.489 465.4C574.489 458.52 573.129 453.22 570.409 449.5C567.729 445.74 563.629 443.86 558.109 443.86C552.509 443.86 548.349 445.74 545.629 449.5C542.909 453.22 541.549 458.52 541.549 465.4C541.549 472.28 542.909 477.58 545.629 481.3C548.349 484.98 552.509 486.82 558.109 486.82ZM647.004 434.8V496H634.164V471.1C628.924 472.42 624.024 473.22 619.464 473.5C614.944 473.74 611.004 473.28 607.644 472.12C604.284 470.96 601.644 469 599.724 466.24C597.804 463.48 596.844 459.76 596.844 455.08V434.8H609.684V453.1C609.684 455.78 610.184 457.94 611.184 459.58C612.184 461.18 613.684 462.32 615.684 463C617.724 463.64 620.264 463.86 623.304 463.66C626.384 463.46 630.004 462.9 634.164 461.98V434.8H647.004ZM716.602 434.8V496H703.702V457.66C703.702 456.82 703.742 455.9 703.822 454.9C703.902 453.9 704.022 452.88 704.182 451.84C703.782 452.72 703.382 453.54 702.982 454.3C702.622 455.02 702.222 455.68 701.782 456.28L675.202 492.82C674.722 493.58 674.082 494.32 673.282 495.04C672.482 495.72 671.582 496.06 670.582 496.06H662.782V434.8H675.682V473.14C675.682 473.98 675.622 474.92 675.502 475.96C675.422 477 675.302 478.04 675.142 479.08C675.942 477.24 676.762 475.72 677.602 474.52L704.182 438.04C704.662 437.24 705.302 436.5 706.102 435.82C706.902 435.14 707.802 434.8 708.802 434.8H716.602ZM786.094 434.8V496H773.194V457.66C773.194 456.82 773.234 455.9 773.314 454.9C773.394 453.9 773.514 452.88 773.674 451.84C773.274 452.72 772.874 453.54 772.474 454.3C772.114 455.02 771.714 455.68 771.274 456.28L744.694 492.82C744.214 493.58 743.574 494.32 742.774 495.04C741.974 495.72 741.074 496.06 740.074 496.06H732.274V434.8H745.174V473.14C745.174 473.98 745.114 474.92 744.994 475.96C744.914 477 744.794 478.04 744.634 479.08C745.434 477.24 746.254 475.72 747.094 474.52L773.674 438.04C774.154 437.24 774.794 436.5 775.594 435.82C776.394 435.14 777.294 434.8 778.294 434.8H786.094ZM759.934 419.56C761.494 419.56 762.794 419.4 763.834 419.08C764.914 418.72 765.774 418.16 766.414 417.4C767.054 416.6 767.514 415.58 767.794 414.34C768.074 413.06 768.214 411.48 768.214 409.6H775.774C776.694 409.6 777.374 410 777.814 410.8C778.254 411.56 778.474 412.4 778.474 413.32C778.474 415.36 778.034 417.2 777.154 418.84C776.314 420.44 775.094 421.82 773.494 422.98C771.894 424.1 769.934 424.98 767.614 425.62C765.334 426.22 762.774 426.52 759.934 426.52C757.094 426.52 754.514 426.22 752.194 425.62C749.914 424.98 747.974 424.1 746.374 422.98C744.774 421.82 743.534 420.44 742.654 418.84C741.814 417.2 741.394 415.36 741.394 413.32C741.394 412.4 741.614 411.56 742.054 410.8C742.494 410 743.174 409.6 744.094 409.6H751.654C751.654 411.48 751.794 413.06 752.074 414.34C752.354 415.58 752.814 416.6 753.454 417.4C754.094 418.16 754.934 418.72 755.974 419.08C757.054 419.4 758.374 419.56 759.934 419.56ZM883.849 496H871.009V444.52H844.549V496H831.649V434.8H883.849V496ZM912.518 480.64C914.318 482.96 916.278 484.6 918.398 485.56C920.558 486.48 922.938 486.94 925.538 486.94C930.578 486.94 934.498 485.1 937.298 481.42C940.138 477.74 941.558 472.26 941.558 464.98C941.558 461.22 941.238 458.02 940.598 455.38C939.958 452.7 939.038 450.52 937.838 448.84C936.638 447.16 935.178 445.94 933.458 445.18C931.738 444.42 929.798 444.04 927.638 444.04C924.358 444.04 921.518 444.76 919.118 446.2C916.758 447.6 914.558 449.62 912.518 452.26V480.64ZM911.858 443.68C914.418 440.68 917.318 438.26 920.558 436.42C923.838 434.58 927.638 433.66 931.958 433.66C935.398 433.66 938.518 434.36 941.318 435.76C944.118 437.12 946.518 439.12 948.518 441.76C950.518 444.4 952.058 447.68 953.138 451.6C954.258 455.48 954.818 459.94 954.818 464.98C954.818 469.5 954.198 473.72 952.958 477.64C951.758 481.52 950.018 484.9 947.738 487.78C945.458 490.62 942.698 492.86 939.458 494.5C936.218 496.1 932.558 496.9 928.478 496.9C924.878 496.9 921.818 496.32 919.298 495.16C916.818 494 914.558 492.4 912.518 490.36V516.34H899.618V434.8H907.418C909.178 434.8 910.298 435.62 910.778 437.26L911.858 443.68ZM993.812 433.84C998.332 433.84 1002.41 434.58 1006.05 436.06C1009.73 437.54 1012.85 439.64 1015.41 442.36C1018.01 445.08 1020.01 448.38 1021.41 452.26C1022.81 456.14 1023.51 460.5 1023.51 465.34C1023.51 470.18 1022.81 474.54 1021.41 478.42C1020.01 482.3 1018.01 485.62 1015.41 488.38C1012.85 491.1 1009.73 493.2 1006.05 494.68C1002.41 496.16 998.332 496.9 993.812 496.9C989.252 496.9 985.132 496.16 981.452 494.68C977.812 493.2 974.692 491.1 972.092 488.38C969.492 485.62 967.492 482.3 966.092 478.42C964.692 474.54 963.992 470.18 963.992 465.34C963.992 460.5 964.692 456.14 966.092 452.26C967.492 448.38 969.492 445.08 972.092 442.36C974.692 439.64 977.812 437.54 981.452 436.06C985.132 434.58 989.252 433.84 993.812 433.84ZM993.812 486.82C999.332 486.82 1003.43 484.98 1006.11 481.3C1008.83 477.58 1010.19 472.28 1010.19 465.4C1010.19 458.52 1008.83 453.22 1006.11 449.5C1003.43 445.74 999.332 443.86 993.812 443.86C988.212 443.86 984.052 445.74 981.332 449.5C978.612 453.22 977.252 458.52 977.252 465.4C977.252 472.28 978.612 477.58 981.332 481.3C984.052 484.98 988.212 486.82 993.812 486.82ZM1099.33 486.28V512.86C1099.33 514.06 1098.99 515 1098.31 515.68C1097.63 516.4 1096.75 516.76 1095.67 516.76H1087.69V496H1035.91V434.8H1048.81V486.28H1075.27V434.8H1088.11V486.28H1099.33ZM1148.47 458.5C1148.47 456.34 1148.15 454.34 1147.51 452.5C1146.91 450.62 1146.01 449 1144.81 447.64C1143.61 446.24 1142.11 445.16 1140.31 444.4C1138.55 443.6 1136.51 443.2 1134.19 443.2C1129.51 443.2 1125.83 444.54 1123.15 447.22C1120.47 449.9 1118.77 453.66 1118.05 458.5H1148.47ZM1117.69 466.42C1117.85 469.9 1118.39 472.92 1119.31 475.48C1120.23 478 1121.45 480.1 1122.97 481.78C1124.53 483.46 1126.37 484.72 1128.49 485.56C1130.65 486.36 1133.05 486.76 1135.69 486.76C1138.21 486.76 1140.39 486.48 1142.23 485.92C1144.07 485.32 1145.67 484.68 1147.03 484C1148.39 483.28 1149.55 482.64 1150.51 482.08C1151.47 481.48 1152.35 481.18 1153.15 481.18C1154.19 481.18 1154.99 481.58 1155.55 482.38L1159.21 487.12C1157.69 488.92 1155.97 490.44 1154.05 491.68C1152.13 492.92 1150.09 493.94 1147.93 494.74C1145.77 495.5 1143.55 496.04 1141.27 496.36C1138.99 496.72 1136.77 496.9 1134.61 496.9C1130.37 496.9 1126.43 496.2 1122.79 494.8C1119.19 493.36 1116.05 491.26 1113.37 488.5C1110.73 485.74 1108.65 482.32 1107.13 478.24C1105.65 474.16 1104.91 469.46 1104.91 464.14C1104.91 459.9 1105.57 455.94 1106.89 452.26C1108.25 448.58 1110.17 445.38 1112.65 442.66C1115.17 439.94 1118.21 437.8 1121.77 436.24C1125.37 434.64 1129.43 433.84 1133.95 433.84C1137.71 433.84 1141.19 434.46 1144.39 435.7C1147.59 436.9 1150.35 438.68 1152.67 441.04C1154.99 443.4 1156.79 446.3 1158.07 449.74C1159.39 453.14 1160.05 457.02 1160.05 461.38C1160.05 463.38 1159.83 464.72 1159.39 465.4C1158.95 466.08 1158.15 466.42 1156.99 466.42H1117.69ZM1215.34 446.8C1214.94 447.32 1214.56 447.72 1214.2 448C1213.84 448.28 1213.32 448.42 1212.64 448.42C1211.96 448.42 1211.24 448.18 1210.48 447.7C1209.76 447.22 1208.88 446.7 1207.84 446.14C1206.84 445.54 1205.62 445 1204.18 444.52C1202.74 444.04 1200.94 443.8 1198.78 443.8C1195.98 443.8 1193.52 444.3 1191.4 445.3C1189.32 446.3 1187.56 447.74 1186.12 449.62C1184.72 451.46 1183.66 453.72 1182.94 456.4C1182.26 459.04 1181.92 462.02 1181.92 465.34C1181.92 468.78 1182.3 471.84 1183.06 474.52C1183.82 477.2 1184.9 479.46 1186.3 481.3C1187.74 483.14 1189.46 484.54 1191.46 485.5C1193.5 486.46 1195.78 486.94 1198.3 486.94C1200.78 486.94 1202.8 486.64 1204.36 486.04C1205.92 485.44 1207.22 484.78 1208.26 484.06C1209.3 483.34 1210.18 482.68 1210.9 482.08C1211.66 481.48 1212.46 481.18 1213.3 481.18C1214.34 481.18 1215.14 481.58 1215.7 482.38L1219.36 487.12C1217.88 488.92 1216.24 490.44 1214.44 491.68C1212.64 492.92 1210.74 493.94 1208.74 494.74C1206.74 495.5 1204.66 496.04 1202.5 496.36C1200.34 496.72 1198.16 496.9 1195.96 496.9C1192.16 496.9 1188.6 496.2 1185.28 494.8C1182 493.36 1179.12 491.3 1176.64 488.62C1174.2 485.9 1172.26 482.6 1170.82 478.72C1169.42 474.8 1168.72 470.34 1168.72 465.34C1168.72 460.82 1169.36 456.64 1170.64 452.8C1171.92 448.92 1173.78 445.58 1176.22 442.78C1178.7 439.98 1181.76 437.8 1185.4 436.24C1189.04 434.64 1193.24 433.84 1198 433.84C1202.44 433.84 1206.34 434.56 1209.7 436C1213.1 437.44 1216.12 439.48 1218.76 442.12L1215.34 446.8ZM1271.94 446.8C1271.54 447.32 1271.16 447.72 1270.8 448C1270.44 448.28 1269.92 448.42 1269.24 448.42C1268.56 448.42 1267.84 448.18 1267.08 447.7C1266.36 447.22 1265.48 446.7 1264.44 446.14C1263.44 445.54 1262.22 445 1260.78 444.52C1259.34 444.04 1257.54 443.8 1255.38 443.8C1252.58 443.8 1250.12 444.3 1248 445.3C1245.92 446.3 1244.16 447.74 1242.72 449.62C1241.32 451.46 1240.26 453.72 1239.54 456.4C1238.86 459.04 1238.52 462.02 1238.52 465.34C1238.52 468.78 1238.9 471.84 1239.66 474.52C1240.42 477.2 1241.5 479.46 1242.9 481.3C1244.34 483.14 1246.06 484.54 1248.06 485.5C1250.1 486.46 1252.38 486.94 1254.9 486.94C1257.38 486.94 1259.4 486.64 1260.96 486.04C1262.52 485.44 1263.82 484.78 1264.86 484.06C1265.9 483.34 1266.78 482.68 1267.5 482.08C1268.26 481.48 1269.06 481.18 1269.9 481.18C1270.94 481.18 1271.74 481.58 1272.3 482.38L1275.96 487.12C1274.48 488.92 1272.84 490.44 1271.04 491.68C1269.24 492.92 1267.34 493.94 1265.34 494.74C1263.34 495.5 1261.26 496.04 1259.1 496.36C1256.94 496.72 1254.76 496.9 1252.56 496.9C1248.76 496.9 1245.2 496.2 1241.88 494.8C1238.6 493.36 1235.72 491.3 1233.24 488.62C1230.8 485.9 1228.86 482.6 1227.42 478.72C1226.02 474.8 1225.32 470.34 1225.32 465.34C1225.32 460.82 1225.96 456.64 1227.24 452.8C1228.52 448.92 1230.38 445.58 1232.82 442.78C1235.3 439.98 1238.36 437.8 1242 436.24C1245.64 434.64 1249.84 433.84 1254.6 433.84C1259.04 433.84 1262.94 434.56 1266.3 436C1269.7 437.44 1272.72 439.48 1275.36 442.12L1271.94 446.8Z" fill="white"></path></svg> 