<?xml version="1.0" encoding="UTF-8"?> <svg xmlns="http://www.w3.org/2000/svg" width="35" height="35" viewBox="0 0 35 35" fill="none"><rect width="35" height="35" rx="8.4" fill="#094A8A"></rect><g clip-path="url(#clip0_124_2020)"><path d="M17 9.375C19.2385 11.3555 22.1601 12.3866 25.1458 12.25C25.5805 13.7287 25.7135 15.2797 25.537 16.8109C25.3604 18.342 24.8778 19.822 24.1179 21.163C23.3581 22.504 22.3364 23.6785 21.1136 24.6168C19.8908 25.5551 18.4919 26.238 17 26.625C15.5081 26.238 14.1092 25.5551 12.8864 24.6168C11.6636 23.6785 10.642 22.504 9.88207 21.163C9.1222 19.822 8.63963 18.342 8.46305 16.8109C8.28647 15.2797 8.41948 13.7287 8.85417 12.25C11.8399 12.3866 14.7615 11.3555 17 9.375Z" stroke="white" stroke-width="1.4375" stroke-linecap="round" stroke-linejoin="round"></path><path d="M14.125 17.9999L16.0417 19.9166L19.875 16.0833" stroke="white" stroke-width="1.4375" stroke-linecap="round" stroke-linejoin="round"></path></g><defs><clipPath id="clip0_124_2020"><rect width="23" height="23" fill="white" transform="translate(5.5 6.5)"></rect></clipPath></defs></svg> 