<?xml version="1.0" encoding="UTF-8"?> <svg xmlns="http://www.w3.org/2000/svg" width="1600" height="900" viewBox="0 0 1600 900" fill="none"><rect width="1600" height="900" fill="#094A8A"></rect><path d="M577.794 418.9C580.954 418.9 583.614 418.54 585.774 417.82C587.974 417.06 589.754 416.04 591.114 414.76C592.514 413.48 593.514 411.98 594.114 410.26C594.754 408.5 595.074 406.62 595.074 404.62C595.074 400.54 593.674 397.34 590.874 395.02C588.114 392.66 583.734 391.48 577.734 391.48H560.394V418.9H577.794ZM560.394 354.58V381.58H574.434C580.434 381.58 584.914 380.42 587.874 378.1C590.834 375.78 592.314 372.44 592.314 368.08C592.314 363.32 590.914 359.88 588.114 357.76C585.354 355.64 581.014 354.58 575.094 354.58H560.394ZM575.094 343.6C580.614 343.6 585.334 344.14 589.254 345.22C593.174 346.26 596.394 347.76 598.914 349.72C601.434 351.68 603.274 354.08 604.434 356.92C605.634 359.72 606.234 362.88 606.234 366.4C606.234 368.44 605.914 370.42 605.274 372.34C604.674 374.22 603.714 376 602.394 377.68C601.114 379.32 599.494 380.8 597.534 382.12C595.574 383.44 593.254 384.54 590.574 385.42C602.814 388.02 608.934 394.52 608.934 404.92C608.934 408.6 608.234 411.98 606.834 415.06C605.474 418.1 603.474 420.74 600.834 422.98C598.234 425.18 595.014 426.9 591.174 428.14C587.334 429.38 582.954 430 578.034 430H546.354V343.6H575.094ZM645.48 420.64C647.36 420.64 649 420.4 650.4 419.92C651.84 419.4 653.02 418.72 653.94 417.88C654.9 417 655.6 415.96 656.04 414.76C656.52 413.56 656.76 412.24 656.76 410.8C656.76 409.52 656.54 408.32 656.1 407.2C655.7 406.04 655.04 405.04 654.12 404.2C653.24 403.32 652.08 402.64 650.64 402.16C649.2 401.64 647.44 401.38 645.36 401.38H633.42V420.64H645.48ZM645.3 392.08C649.54 392.08 653.12 392.6 656.04 393.64C658.96 394.64 661.32 396 663.12 397.72C664.92 399.44 666.22 401.44 667.02 403.72C667.82 405.96 668.22 408.3 668.22 410.74C668.22 413.58 667.72 416.18 666.72 418.54C665.72 420.86 664.24 422.88 662.28 424.6C660.36 426.32 657.98 427.66 655.14 428.62C652.34 429.54 649.12 430 645.48 430H621.18V368.8H633.42V392.08H645.3ZM693.3 368.8V430H680.4V368.8H693.3ZM752.331 380.8C751.931 381.32 751.551 381.72 751.191 382C750.831 382.28 750.311 382.42 749.631 382.42C748.951 382.42 748.231 382.18 747.471 381.7C746.751 381.22 745.871 380.7 744.831 380.14C743.831 379.54 742.611 379 741.171 378.52C739.731 378.04 737.931 377.8 735.771 377.8C732.971 377.8 730.511 378.3 728.391 379.3C726.311 380.3 724.551 381.74 723.111 383.62C721.711 385.46 720.651 387.72 719.931 390.4C719.251 393.04 718.911 396.02 718.911 399.34C718.911 402.78 719.291 405.84 720.051 408.52C720.811 411.2 721.891 413.46 723.291 415.3C724.731 417.14 726.451 418.54 728.451 419.5C730.491 420.46 732.771 420.94 735.291 420.94C737.771 420.94 739.791 420.64 741.351 420.04C742.911 419.44 744.211 418.78 745.251 418.06C746.291 417.34 747.171 416.68 747.891 416.08C748.651 415.48 749.451 415.18 750.291 415.18C751.331 415.18 752.131 415.58 752.691 416.38L756.351 421.12C754.871 422.92 753.231 424.44 751.431 425.68C749.631 426.92 747.731 427.94 745.731 428.74C743.731 429.5 741.651 430.04 739.491 430.36C737.331 430.72 735.151 430.9 732.951 430.9C729.151 430.9 725.591 430.2 722.271 428.8C718.991 427.36 716.111 425.3 713.631 422.62C711.191 419.9 709.251 416.6 707.811 412.72C706.411 408.8 705.711 404.34 705.711 399.34C705.711 394.82 706.351 390.64 707.631 386.8C708.911 382.92 710.771 379.58 713.211 376.78C715.691 373.98 718.751 371.8 722.391 370.24C726.031 368.64 730.231 367.84 734.991 367.84C739.431 367.84 743.331 368.56 746.691 370C750.091 371.44 753.111 373.48 755.751 376.12L752.331 380.8ZM818.447 378.52H795.887V430H782.987V378.52H760.367V368.8H818.447V378.52ZM860.13 403.24C855.53 403.4 851.65 403.78 848.49 404.38C845.33 404.94 842.77 405.68 840.81 406.6C838.85 407.48 837.43 408.54 836.55 409.78C835.71 411.02 835.29 412.38 835.29 413.86C835.29 415.3 835.51 416.54 835.95 417.58C836.43 418.58 837.07 419.42 837.87 420.1C838.71 420.74 839.67 421.22 840.75 421.54C841.87 421.82 843.09 421.96 844.41 421.96C847.77 421.96 850.65 421.34 853.05 420.1C855.49 418.82 857.85 416.98 860.13 414.58V403.24ZM825.93 377.32C832.85 370.88 841.09 367.66 850.65 367.66C854.17 367.66 857.29 368.24 860.01 369.4C862.77 370.52 865.07 372.12 866.91 374.2C868.79 376.28 870.21 378.76 871.17 381.64C872.17 384.48 872.67 387.64 872.67 391.12V430H866.91C865.67 430 864.73 429.82 864.09 429.46C863.45 429.06 862.91 428.28 862.47 427.12L861.21 422.14C859.65 423.54 858.11 424.8 856.59 425.92C855.07 427 853.49 427.92 851.85 428.68C850.25 429.44 848.51 430 846.63 430.36C844.79 430.76 842.75 430.96 840.51 430.96C838.03 430.96 835.71 430.62 833.55 429.94C831.43 429.26 829.59 428.24 828.03 426.88C826.47 425.48 825.23 423.76 824.31 421.72C823.43 419.68 822.99 417.28 822.99 414.52C822.99 412.16 823.61 409.86 824.85 407.62C826.13 405.38 828.21 403.38 831.09 401.62C834.01 399.82 837.83 398.34 842.55 397.18C847.31 396.02 853.17 395.36 860.13 395.2V391.12C860.13 386.72 859.19 383.44 857.31 381.28C855.43 379.12 852.67 378.04 849.03 378.04C846.55 378.04 844.47 378.36 842.79 379C841.11 379.6 839.65 380.26 838.41 380.98C837.17 381.7 836.07 382.38 835.11 383.02C834.15 383.62 833.13 383.92 832.05 383.92C831.17 383.92 830.41 383.7 829.77 383.26C829.17 382.78 828.67 382.2 828.27 381.52L825.93 377.32ZM912.082 421.06C915.602 421.06 918.382 420.22 920.422 418.54C922.502 416.82 923.542 414.52 923.542 411.64C923.542 410.4 923.362 409.24 923.002 408.16C922.642 407.08 922.022 406.16 921.142 405.4C920.262 404.6 919.082 403.98 917.602 403.54C916.162 403.1 914.342 402.88 912.142 402.88H900.082V421.06H912.082ZM900.082 377.32V394.78H910.702C912.302 394.78 913.762 394.56 915.082 394.12C916.442 393.64 917.602 393 918.562 392.2C919.562 391.36 920.322 390.38 920.842 389.26C921.402 388.1 921.682 386.82 921.682 385.42C921.682 384.42 921.502 383.44 921.142 382.48C920.782 381.48 920.162 380.6 919.282 379.84C918.442 379.08 917.322 378.48 915.922 378.04C914.522 377.56 912.782 377.32 910.702 377.32H900.082ZM911.122 368.8C914.922 368.8 918.202 369.18 920.962 369.94C923.722 370.66 925.982 371.68 927.742 373C929.542 374.32 930.862 375.88 931.702 377.68C932.542 379.48 932.962 381.42 932.962 383.5C932.962 384.82 932.782 386.2 932.422 387.64C932.062 389.08 931.442 390.46 930.562 391.78C929.682 393.06 928.482 394.24 926.962 395.32C925.482 396.4 923.582 397.24 921.262 397.84C925.622 398.64 929.062 400.24 931.582 402.64C934.142 405 935.422 408.16 935.422 412.12C935.422 415.16 934.802 417.8 933.562 420.04C932.322 422.28 930.622 424.14 928.462 425.62C926.342 427.1 923.862 428.2 921.022 428.92C918.222 429.64 915.262 430 912.142 430H887.782V368.8H911.122ZM984.505 372.28C985.145 371.24 986.005 370.4 987.085 369.76C988.205 369.12 989.365 368.8 990.565 368.8H1000.64L985.585 391.78C984.625 393.34 983.625 394.6 982.585 395.56C981.545 396.52 980.265 397.26 978.745 397.78C980.705 398.34 982.325 399.2 983.605 400.36C984.925 401.48 986.105 402.94 987.145 404.74L1002.32 430H993.445C991.165 430 989.385 429.62 988.105 428.86C986.865 428.1 985.805 426.98 984.925 425.5L974.545 407.62C973.705 406.1 972.605 404.98 971.245 404.26C969.885 403.54 968.345 403.18 966.625 403.18H960.565V430.06H947.665V368.8H960.565V394.54H965.785C967.465 394.54 968.865 394.22 969.985 393.58C971.105 392.94 972.065 391.96 972.865 390.64L984.505 372.28ZM1044.11 403.24C1039.51 403.4 1035.63 403.78 1032.47 404.38C1029.31 404.94 1026.75 405.68 1024.79 406.6C1022.83 407.48 1021.41 408.54 1020.53 409.78C1019.69 411.02 1019.27 412.38 1019.27 413.86C1019.27 415.3 1019.49 416.54 1019.93 417.58C1020.41 418.58 1021.05 419.42 1021.85 420.1C1022.69 420.74 1023.65 421.22 1024.73 421.54C1025.85 421.82 1027.07 421.96 1028.39 421.96C1031.75 421.96 1034.63 421.34 1037.03 420.1C1039.47 418.82 1041.83 416.98 1044.11 414.58V403.24ZM1009.91 377.32C1016.83 370.88 1025.07 367.66 1034.63 367.66C1038.15 367.66 1041.27 368.24 1043.99 369.4C1046.75 370.52 1049.05 372.12 1050.89 374.2C1052.77 376.28 1054.19 378.76 1055.15 381.64C1056.15 384.48 1056.65 387.64 1056.65 391.12V430H1050.89C1049.65 430 1048.71 429.82 1048.07 429.46C1047.43 429.06 1046.89 428.28 1046.45 427.12L1045.19 422.14C1043.63 423.54 1042.09 424.8 1040.57 425.92C1039.05 427 1037.47 427.92 1035.83 428.68C1034.23 429.44 1032.49 430 1030.61 430.36C1028.77 430.76 1026.73 430.96 1024.49 430.96C1022.01 430.96 1019.69 430.62 1017.53 429.94C1015.41 429.26 1013.57 428.24 1012.01 426.88C1010.45 425.48 1009.21 423.76 1008.29 421.72C1007.41 419.68 1006.97 417.28 1006.97 414.52C1006.97 412.16 1007.59 409.86 1008.83 407.62C1010.11 405.38 1012.19 403.38 1015.07 401.62C1017.99 399.82 1021.81 398.34 1026.53 397.18C1031.29 396.02 1037.15 395.36 1044.11 395.2V391.12C1044.11 386.72 1043.17 383.44 1041.29 381.28C1039.41 379.12 1036.65 378.04 1033.01 378.04C1030.53 378.04 1028.45 378.36 1026.77 379C1025.09 379.6 1023.63 380.26 1022.39 380.98C1021.15 381.7 1020.05 382.38 1019.09 383.02C1018.13 383.62 1017.11 383.92 1016.03 383.92C1015.15 383.92 1014.39 383.7 1013.75 383.26C1013.15 382.78 1012.65 382.2 1012.25 381.52L1009.91 377.32ZM342.786 487.3H315.846V562H301.866V487.3H274.866V475.6H342.786V487.3ZM351.935 512.14C353.855 508.26 356.175 505.22 358.895 503.02C361.615 500.78 364.875 499.66 368.675 499.66C369.995 499.66 371.235 499.82 372.395 500.14C373.555 500.42 374.595 500.86 375.515 501.46L374.615 511.18C374.455 511.86 374.195 512.34 373.835 512.62C373.515 512.86 373.075 512.98 372.515 512.98C371.915 512.98 371.055 512.88 369.935 512.68C368.815 512.44 367.635 512.32 366.395 512.32C364.595 512.32 362.995 512.58 361.595 513.1C360.235 513.62 358.995 514.38 357.875 515.38C356.795 516.38 355.835 517.6 354.995 519.04C354.155 520.48 353.375 522.12 352.655 523.96V562H339.755V500.8H347.255C348.615 500.8 349.555 501.06 350.075 501.58C350.595 502.06 350.955 502.92 351.155 504.16L351.935 512.14ZM415.814 535.24C411.214 535.4 407.334 535.78 404.174 536.38C401.014 536.94 398.454 537.68 396.494 538.6C394.534 539.48 393.114 540.54 392.234 541.78C391.394 543.02 390.974 544.38 390.974 545.86C390.974 547.3 391.194 548.54 391.634 549.58C392.114 550.58 392.754 551.42 393.554 552.1C394.394 552.74 395.354 553.22 396.434 553.54C397.554 553.82 398.774 553.96 400.094 553.96C403.454 553.96 406.334 553.34 408.734 552.1C411.174 550.82 413.534 548.98 415.814 546.58V535.24ZM381.614 509.32C388.534 502.88 396.774 499.66 406.334 499.66C409.854 499.66 412.974 500.24 415.694 501.4C418.454 502.52 420.754 504.12 422.594 506.2C424.474 508.28 425.894 510.76 426.854 513.64C427.854 516.48 428.354 519.64 428.354 523.12V562H422.594C421.354 562 420.414 561.82 419.774 561.46C419.134 561.06 418.594 560.28 418.154 559.12L416.894 554.14C415.334 555.54 413.794 556.8 412.274 557.92C410.754 559 409.174 559.92 407.534 560.68C405.934 561.44 404.194 562 402.314 562.36C400.474 562.76 398.434 562.96 396.194 562.96C393.714 562.96 391.394 562.62 389.234 561.94C387.114 561.26 385.274 560.24 383.714 558.88C382.154 557.48 380.914 555.76 379.994 553.72C379.114 551.68 378.674 549.28 378.674 546.52C378.674 544.16 379.294 541.86 380.534 539.62C381.814 537.38 383.894 535.38 386.774 533.62C389.694 531.82 393.514 530.34 398.234 529.18C402.994 528.02 408.854 527.36 415.814 527.2V523.12C415.814 518.72 414.874 515.44 412.994 513.28C411.114 511.12 408.354 510.04 404.714 510.04C402.234 510.04 400.154 510.36 398.474 511C396.794 511.6 395.334 512.26 394.094 512.98C392.854 513.7 391.754 514.38 390.794 515.02C389.834 515.62 388.814 515.92 387.734 515.92C386.854 515.92 386.094 515.7 385.454 515.26C384.854 514.78 384.354 514.2 383.954 513.52L381.614 509.32ZM455.525 508.9C456.845 507.54 458.205 506.32 459.605 505.24C461.045 504.12 462.565 503.16 464.165 502.36C465.765 501.56 467.465 500.94 469.265 500.5C471.065 500.06 473.025 499.84 475.145 499.84C478.505 499.84 481.445 500.4 483.965 501.52C486.525 502.64 488.665 504.22 490.385 506.26C492.145 508.3 493.465 510.76 494.345 513.64C495.225 516.48 495.665 519.62 495.665 523.06V562H482.825V523.06C482.825 518.94 481.865 515.74 479.945 513.46C478.065 511.18 475.185 510.04 471.305 510.04C468.425 510.04 465.745 510.7 463.265 512.02C460.825 513.34 458.525 515.14 456.365 517.42V562H443.465V500.8H451.265C453.025 500.8 454.145 501.62 454.625 503.26L455.525 508.9ZM547.271 511.9C546.951 512.46 546.591 512.86 546.191 513.1C545.791 513.34 545.291 513.46 544.691 513.46C544.011 513.46 543.271 513.26 542.471 512.86C541.671 512.42 540.731 511.94 539.651 511.42C538.571 510.9 537.291 510.44 535.811 510.04C534.371 509.6 532.671 509.38 530.711 509.38C529.111 509.38 527.651 509.58 526.331 509.98C525.051 510.34 523.951 510.88 523.031 511.6C522.151 512.28 521.471 513.1 520.991 514.06C520.511 514.98 520.271 515.98 520.271 517.06C520.271 518.5 520.711 519.7 521.591 520.66C522.471 521.62 523.631 522.46 525.071 523.18C526.511 523.86 528.151 524.48 529.991 525.04C531.831 525.6 533.711 526.2 535.631 526.84C537.551 527.48 539.431 528.22 541.271 529.06C543.111 529.9 544.751 530.94 546.191 532.18C547.631 533.38 548.791 534.86 549.671 536.62C550.551 538.34 550.991 540.44 550.991 542.92C550.991 545.8 550.471 548.46 549.431 550.9C548.391 553.34 546.871 555.46 544.871 557.26C542.871 559.06 540.371 560.46 537.371 561.46C534.411 562.46 531.011 562.96 527.171 562.96C525.051 562.96 522.991 562.76 520.991 562.36C519.031 562 517.151 561.5 515.351 560.86C513.591 560.18 511.931 559.38 510.371 558.46C508.851 557.54 507.491 556.54 506.291 555.46L509.291 550.54C509.651 549.94 510.091 549.48 510.611 549.16C511.171 548.8 511.851 548.62 512.651 548.62C513.491 548.62 514.311 548.9 515.111 549.46C515.951 549.98 516.911 550.56 517.991 551.2C519.111 551.84 520.451 552.44 522.011 553C523.571 553.52 525.511 553.78 527.831 553.78C529.751 553.78 531.411 553.56 532.811 553.12C534.211 552.64 535.371 552 536.291 551.2C537.211 550.4 537.891 549.5 538.331 548.5C538.771 547.46 538.991 546.36 538.991 545.2C538.991 543.64 538.551 542.36 537.671 541.36C536.791 540.36 535.611 539.5 534.131 538.78C532.691 538.06 531.031 537.42 529.151 536.86C527.311 536.3 525.431 535.7 523.511 535.06C521.591 534.42 519.691 533.68 517.811 532.84C515.971 532 514.311 530.94 512.831 529.66C511.391 528.34 510.231 526.76 509.351 524.92C508.471 523.04 508.031 520.76 508.031 518.08C508.031 515.64 508.511 513.32 509.471 511.12C510.471 508.92 511.911 506.98 513.791 505.3C515.711 503.62 518.051 502.3 520.811 501.34C523.611 500.34 526.831 499.84 530.471 499.84C534.591 499.84 538.331 500.5 541.691 501.82C545.051 503.14 547.871 504.94 550.151 507.22L547.271 511.9ZM613.793 550.24V562H563.873V475.6H577.913V550.24H613.793ZM646.175 499.84C650.695 499.84 654.775 500.58 658.415 502.06C662.095 503.54 665.215 505.64 667.775 508.36C670.375 511.08 672.375 514.38 673.775 518.26C675.175 522.14 675.875 526.5 675.875 531.34C675.875 536.18 675.175 540.54 673.775 544.42C672.375 548.3 670.375 551.62 667.775 554.38C665.215 557.1 662.095 559.2 658.415 560.68C654.775 562.16 650.695 562.9 646.175 562.9C641.615 562.9 637.495 562.16 633.815 560.68C630.175 559.2 627.055 557.1 624.455 554.38C621.855 551.62 619.855 548.3 618.455 544.42C617.055 540.54 616.355 536.18 616.355 531.34C616.355 526.5 617.055 522.14 618.455 518.26C619.855 514.38 621.855 511.08 624.455 508.36C627.055 505.64 630.175 503.54 633.815 502.06C637.495 500.58 641.615 499.84 646.175 499.84ZM646.175 552.82C651.695 552.82 655.795 550.98 658.475 547.3C661.195 543.58 662.555 538.28 662.555 531.4C662.555 524.52 661.195 519.22 658.475 515.5C655.795 511.74 651.695 509.86 646.175 509.86C640.575 509.86 636.415 511.74 633.695 515.5C630.975 519.22 629.615 524.52 629.615 531.4C629.615 538.28 630.975 543.58 633.695 547.3C636.415 550.98 640.575 552.82 646.175 552.82ZM709.641 530.86C713.641 530.86 716.641 529.84 718.641 527.8C720.641 525.76 721.641 523.1 721.641 519.82C721.641 516.46 720.641 513.8 718.641 511.84C716.641 509.88 713.641 508.9 709.641 508.9C705.681 508.9 702.681 509.88 700.641 511.84C698.641 513.8 697.641 516.46 697.641 519.82C697.641 521.42 697.901 522.9 698.421 524.26C698.941 525.62 699.701 526.8 700.701 527.8C701.701 528.76 702.941 529.52 704.421 530.08C705.941 530.6 707.681 530.86 709.641 530.86ZM727.581 565C727.581 563.64 727.181 562.56 726.381 561.76C725.621 560.92 724.581 560.28 723.261 559.84C721.941 559.36 720.401 559.02 718.641 558.82C716.881 558.58 715.001 558.42 713.001 558.34C711.041 558.22 709.021 558.12 706.941 558.04C704.901 557.92 702.921 557.72 701.001 557.44C699.081 558.44 697.501 559.64 696.261 561.04C695.061 562.44 694.461 564.06 694.461 565.9C694.461 567.1 694.761 568.22 695.361 569.26C696.001 570.3 696.961 571.2 698.241 571.96C699.561 572.72 701.221 573.32 703.221 573.76C705.261 574.2 707.701 574.42 710.541 574.42C716.221 574.42 720.481 573.54 723.321 571.78C726.161 570.02 727.581 567.76 727.581 565ZM740.541 503.02V507.82C740.541 509.42 739.581 510.4 737.661 510.76L731.541 511.78C732.581 514.1 733.101 516.68 733.101 519.52C733.101 522.52 732.501 525.24 731.301 527.68C730.141 530.12 728.521 532.2 726.441 533.92C724.361 535.64 721.881 536.96 719.001 537.88C716.121 538.8 713.001 539.26 709.641 539.26C708.361 539.26 707.101 539.2 705.861 539.08C704.661 538.92 703.481 538.72 702.321 538.48C701.161 539.16 700.301 539.88 699.741 540.64C699.181 541.4 698.901 542.18 698.901 542.98C698.901 544.3 699.481 545.28 700.641 545.92C701.801 546.56 703.321 547.02 705.201 547.3C707.121 547.58 709.301 547.76 711.741 547.84C714.181 547.92 716.661 548.06 719.181 548.26C721.701 548.46 724.181 548.8 726.621 549.28C729.061 549.72 731.221 550.48 733.101 551.56C735.021 552.6 736.561 554.02 737.721 555.82C738.881 557.62 739.461 559.96 739.461 562.84C739.461 565.48 738.801 568.06 737.481 570.58C736.161 573.1 734.241 575.34 731.721 577.3C729.241 579.26 726.201 580.82 722.601 581.98C719.001 583.18 714.901 583.78 710.301 583.78C705.741 583.78 701.761 583.34 698.361 582.46C695.001 581.58 692.181 580.38 689.901 578.86C687.661 577.38 685.981 575.66 684.861 573.7C683.781 571.74 683.241 569.7 683.241 567.58C683.241 564.7 684.141 562.24 685.941 560.2C687.781 558.16 690.261 556.56 693.381 555.4C691.701 554.6 690.341 553.5 689.301 552.1C688.301 550.7 687.801 548.86 687.801 546.58C687.801 544.78 688.461 542.9 689.781 540.94C691.101 538.98 693.081 537.32 695.721 535.96C692.681 534.28 690.281 532.06 688.521 529.3C686.761 526.5 685.881 523.24 685.881 519.52C685.881 516.48 686.461 513.74 687.621 511.3C688.821 508.86 690.481 506.78 692.601 505.06C694.721 503.34 697.221 502.02 700.101 501.1C703.021 500.18 706.201 499.72 709.641 499.72C714.921 499.72 719.521 500.82 723.441 503.02H740.541ZM764.171 500.8V562H751.271V500.8H764.171ZM766.331 482.32C766.331 483.48 766.091 484.58 765.611 485.62C765.171 486.66 764.551 487.58 763.751 488.38C762.951 489.14 762.011 489.76 760.931 490.24C759.891 490.68 758.771 490.9 757.571 490.9C756.411 490.9 755.311 490.68 754.271 490.24C753.271 489.76 752.391 489.14 751.631 488.38C750.871 487.58 750.251 486.66 749.771 485.62C749.331 484.58 749.111 483.48 749.111 482.32C749.111 481.12 749.331 480 749.771 478.96C750.251 477.92 750.871 477.02 751.631 476.26C752.391 475.46 753.271 474.84 754.271 474.4C755.311 473.92 756.411 473.68 757.571 473.68C758.771 473.68 759.891 473.92 760.931 474.4C762.011 474.84 762.951 475.46 763.751 476.26C764.551 477.02 765.171 477.92 765.611 478.96C766.091 480 766.331 481.12 766.331 482.32ZM816.92 511.9C816.6 512.46 816.24 512.86 815.84 513.1C815.44 513.34 814.94 513.46 814.34 513.46C813.66 513.46 812.92 513.26 812.12 512.86C811.32 512.42 810.38 511.94 809.3 511.42C808.22 510.9 806.94 510.44 805.46 510.04C804.02 509.6 802.32 509.38 800.36 509.38C798.76 509.38 797.3 509.58 795.98 509.98C794.7 510.34 793.6 510.88 792.68 511.6C791.8 512.28 791.12 513.1 790.64 514.06C790.16 514.98 789.92 515.98 789.92 517.06C789.92 518.5 790.36 519.7 791.24 520.66C792.12 521.62 793.28 522.46 794.72 523.18C796.16 523.86 797.8 524.48 799.64 525.04C801.48 525.6 803.36 526.2 805.28 526.84C807.2 527.48 809.08 528.22 810.92 529.06C812.76 529.9 814.4 530.94 815.84 532.18C817.28 533.38 818.44 534.86 819.32 536.62C820.2 538.34 820.64 540.44 820.64 542.92C820.64 545.8 820.12 548.46 819.08 550.9C818.04 553.34 816.52 555.46 814.52 557.26C812.52 559.06 810.02 560.46 807.02 561.46C804.06 562.46 800.66 562.96 796.82 562.96C794.7 562.96 792.64 562.76 790.64 562.36C788.68 562 786.8 561.5 785 560.86C783.24 560.18 781.58 559.38 780.02 558.46C778.5 557.54 777.14 556.54 775.94 555.46L778.94 550.54C779.3 549.94 779.74 549.48 780.26 549.16C780.82 548.8 781.5 548.62 782.3 548.62C783.14 548.62 783.96 548.9 784.76 549.46C785.6 549.98 786.56 550.56 787.64 551.2C788.76 551.84 790.1 552.44 791.66 553C793.22 553.52 795.16 553.78 797.48 553.78C799.4 553.78 801.06 553.56 802.46 553.12C803.86 552.64 805.02 552 805.94 551.2C806.86 550.4 807.54 549.5 807.98 548.5C808.42 547.46 808.64 546.36 808.64 545.2C808.64 543.64 808.2 542.36 807.32 541.36C806.44 540.36 805.26 539.5 803.78 538.78C802.34 538.06 800.68 537.42 798.8 536.86C796.96 536.3 795.08 535.7 793.16 535.06C791.24 534.42 789.34 533.68 787.46 532.84C785.62 532 783.96 530.94 782.48 529.66C781.04 528.34 779.88 526.76 779 524.92C778.12 523.04 777.68 520.76 777.68 518.08C777.68 515.64 778.16 513.32 779.12 511.12C780.12 508.92 781.56 506.98 783.44 505.3C785.36 503.62 787.7 502.3 790.46 501.34C793.26 500.34 796.48 499.84 800.12 499.84C804.24 499.84 807.98 500.5 811.34 501.82C814.7 503.14 817.52 504.94 819.8 507.22L816.92 511.9ZM892.162 562H879.262V510.94H849.442V545.68C849.442 547.88 849.982 549.56 851.062 550.72C852.142 551.88 853.582 552.46 855.382 552.46C856.382 552.46 857.242 552.34 857.962 552.1C858.682 551.82 859.302 551.54 859.822 551.26C860.342 550.94 860.782 550.66 861.142 550.42C861.542 550.14 861.922 550 862.282 550C863.002 550 863.582 550.4 864.022 551.2L867.862 557.5C865.862 559.26 863.502 560.62 860.782 561.58C858.062 562.5 855.262 562.96 852.382 562.96C847.302 562.96 843.382 561.54 840.622 558.7C837.902 555.82 836.542 551.78 836.542 546.58V510.94H829.822C829.102 510.94 828.482 510.72 827.962 510.28C827.442 509.8 827.182 509.1 827.182 508.18V502.96L837.082 501.52L839.902 483.82C840.102 483.14 840.442 482.6 840.922 482.2C841.402 481.76 842.042 481.54 842.842 481.54H849.442V501.64H892.162V562ZM894.802 482.02C894.802 483.18 894.562 484.28 894.082 485.32C893.642 486.32 893.022 487.22 892.222 488.02C891.422 488.78 890.482 489.4 889.402 489.88C888.362 490.32 887.262 490.54 886.102 490.54C884.942 490.54 883.842 490.32 882.802 489.88C881.802 489.4 880.902 488.78 880.102 488.02C879.342 487.22 878.722 486.32 878.242 485.32C877.802 484.28 877.582 483.18 877.582 482.02C877.582 480.82 877.802 479.7 878.242 478.66C878.722 477.58 879.342 476.66 880.102 475.9C880.902 475.1 881.802 474.48 882.802 474.04C883.842 473.56 884.942 473.32 886.102 473.32C887.262 473.32 888.362 473.56 889.402 474.04C890.482 474.48 891.422 475.1 892.222 475.9C893.022 476.66 893.642 477.58 894.082 478.66C894.562 479.7 894.802 480.82 894.802 482.02ZM951.725 512.8C951.325 513.32 950.945 513.72 950.585 514C950.225 514.28 949.705 514.42 949.025 514.42C948.345 514.42 947.625 514.18 946.865 513.7C946.145 513.22 945.265 512.7 944.225 512.14C943.225 511.54 942.005 511 940.565 510.52C939.125 510.04 937.325 509.8 935.165 509.8C932.365 509.8 929.905 510.3 927.785 511.3C925.705 512.3 923.945 513.74 922.505 515.62C921.105 517.46 920.045 519.72 919.325 522.4C918.645 525.04 918.305 528.02 918.305 531.34C918.305 534.78 918.685 537.84 919.445 540.52C920.205 543.2 921.285 545.46 922.685 547.3C924.125 549.14 925.845 550.54 927.845 551.5C929.885 552.46 932.165 552.94 934.685 552.94C937.165 552.94 939.185 552.64 940.745 552.04C942.305 551.44 943.605 550.78 944.645 550.06C945.685 549.34 946.565 548.68 947.285 548.08C948.045 547.48 948.845 547.18 949.685 547.18C950.725 547.18 951.525 547.58 952.085 548.38L955.745 553.12C954.265 554.92 952.625 556.44 950.825 557.68C949.025 558.92 947.125 559.94 945.125 560.74C943.125 561.5 941.045 562.04 938.885 562.36C936.725 562.72 934.545 562.9 932.345 562.9C928.545 562.9 924.985 562.2 921.665 560.8C918.385 559.36 915.505 557.3 913.025 554.62C910.585 551.9 908.645 548.6 907.205 544.72C905.805 540.8 905.105 536.34 905.105 531.34C905.105 526.82 905.745 522.64 907.025 518.8C908.305 514.92 910.165 511.58 912.605 508.78C915.085 505.98 918.145 503.8 921.785 502.24C925.425 500.64 929.625 499.84 934.385 499.84C938.825 499.84 942.725 500.56 946.085 502C949.485 503.44 952.505 505.48 955.145 508.12L951.725 512.8ZM998.822 535.24C994.222 535.4 990.342 535.78 987.182 536.38C984.022 536.94 981.462 537.68 979.502 538.6C977.542 539.48 976.122 540.54 975.242 541.78C974.402 543.02 973.982 544.38 973.982 545.86C973.982 547.3 974.202 548.54 974.642 549.58C975.122 550.58 975.762 551.42 976.562 552.1C977.402 552.74 978.362 553.22 979.442 553.54C980.562 553.82 981.782 553.96 983.102 553.96C986.462 553.96 989.342 553.34 991.742 552.1C994.182 550.82 996.542 548.98 998.822 546.58V535.24ZM964.622 509.32C971.542 502.88 979.782 499.66 989.342 499.66C992.862 499.66 995.982 500.24 998.702 501.4C1001.46 502.52 1003.76 504.12 1005.6 506.2C1007.48 508.28 1008.9 510.76 1009.86 513.64C1010.86 516.48 1011.36 519.64 1011.36 523.12V562H1005.6C1004.36 562 1003.42 561.82 1002.78 561.46C1002.14 561.06 1001.6 560.28 1001.16 559.12L999.902 554.14C998.342 555.54 996.802 556.8 995.282 557.92C993.762 559 992.182 559.92 990.542 560.68C988.942 561.44 987.202 562 985.322 562.36C983.482 562.76 981.442 562.96 979.202 562.96C976.722 562.96 974.402 562.62 972.242 561.94C970.122 561.26 968.282 560.24 966.722 558.88C965.162 557.48 963.922 555.76 963.002 553.72C962.122 551.68 961.682 549.28 961.682 546.52C961.682 544.16 962.302 541.86 963.542 539.62C964.822 537.38 966.902 535.38 969.782 533.62C972.702 531.82 976.522 530.34 981.242 529.18C986.002 528.02 991.862 527.36 998.822 527.2V523.12C998.822 518.72 997.882 515.44 996.002 513.28C994.122 511.12 991.362 510.04 987.722 510.04C985.242 510.04 983.162 510.36 981.482 511C979.802 511.6 978.342 512.26 977.102 512.98C975.862 513.7 974.762 514.38 973.802 515.02C972.842 515.62 971.822 515.92 970.742 515.92C969.862 515.92 969.102 515.7 968.462 515.26C967.862 514.78 967.362 514.2 966.962 513.52L964.622 509.32ZM1107.54 549.82C1108.94 549.82 1110.04 550.24 1110.84 551.08C1111.64 551.88 1112.04 552.92 1112.04 554.2V562H1053.6V557.62C1053.6 556.74 1053.78 555.82 1054.14 554.86C1054.5 553.9 1055.08 553.02 1055.88 552.22L1082.76 525.28C1085.04 523 1087.06 520.82 1088.82 518.74C1090.62 516.66 1092.14 514.58 1093.38 512.5C1094.66 510.42 1095.62 508.32 1096.26 506.2C1096.94 504.04 1097.28 501.78 1097.28 499.42C1097.28 497.14 1096.92 495.14 1096.2 493.42C1095.52 491.66 1094.56 490.22 1093.32 489.1C1092.12 487.94 1090.66 487.08 1088.94 486.52C1087.26 485.92 1085.4 485.62 1083.36 485.62C1081.4 485.62 1079.58 485.9 1077.9 486.46C1076.26 487.02 1074.78 487.8 1073.46 488.8C1072.18 489.8 1071.1 491 1070.22 492.4C1069.38 493.76 1068.76 495.26 1068.36 496.9C1067.76 498.54 1066.98 499.64 1066.02 500.2C1065.1 500.76 1063.74 500.88 1061.94 500.56L1055.16 499.36C1055.76 495.28 1056.88 491.7 1058.52 488.62C1060.2 485.54 1062.3 482.98 1064.82 480.94C1067.34 478.86 1070.22 477.3 1073.46 476.26C1076.74 475.18 1080.28 474.64 1084.08 474.64C1087.92 474.64 1091.44 475.22 1094.64 476.38C1097.88 477.5 1100.66 479.12 1102.98 481.24C1105.34 483.32 1107.18 485.86 1108.5 488.86C1109.82 491.86 1110.48 495.24 1110.48 499C1110.48 502.2 1110 505.16 1109.04 507.88C1108.12 510.6 1106.86 513.2 1105.26 515.68C1103.66 518.16 1101.78 520.58 1099.62 522.94C1097.5 525.26 1095.26 527.62 1092.9 530.02L1072.02 551.38C1073.74 550.9 1075.46 550.52 1077.18 550.24C1078.94 549.96 1080.6 549.82 1082.16 549.82H1107.54ZM1184.41 518.8C1184.41 526.36 1183.59 532.9 1181.95 538.42C1180.35 543.94 1178.13 548.52 1175.29 552.16C1172.45 555.8 1169.11 558.5 1165.27 560.26C1161.43 562.02 1157.29 562.9 1152.85 562.9C1148.41 562.9 1144.27 562.02 1140.43 560.26C1136.59 558.5 1133.25 555.8 1130.41 552.16C1127.61 548.52 1125.41 543.94 1123.81 538.42C1122.21 532.9 1121.41 526.36 1121.41 518.8C1121.41 511.24 1122.21 504.7 1123.81 499.18C1125.41 493.62 1127.61 489.04 1130.41 485.44C1133.25 481.8 1136.59 479.1 1140.43 477.34C1144.27 475.54 1148.41 474.64 1152.85 474.64C1157.29 474.64 1161.43 475.54 1165.27 477.34C1169.11 479.1 1172.45 481.8 1175.29 485.44C1178.13 489.04 1180.35 493.62 1181.95 499.18C1183.59 504.7 1184.41 511.24 1184.41 518.8ZM1171.09 518.8C1171.09 512.4 1170.57 507.08 1169.53 502.84C1168.53 498.56 1167.19 495.14 1165.51 492.58C1163.83 490.02 1161.89 488.2 1159.69 487.12C1157.49 486.04 1155.21 485.5 1152.85 485.5C1150.45 485.5 1148.15 486.04 1145.95 487.12C1143.79 488.2 1141.87 490.02 1140.19 492.58C1138.51 495.14 1137.17 498.56 1136.17 502.84C1135.17 507.08 1134.67 512.4 1134.67 518.8C1134.67 525.2 1135.17 530.54 1136.17 534.82C1137.17 539.06 1138.51 542.46 1140.19 545.02C1141.87 547.58 1143.79 549.4 1145.95 550.48C1148.15 551.56 1150.45 552.1 1152.85 552.1C1155.21 552.1 1157.49 551.56 1159.69 550.48C1161.89 549.4 1163.83 547.58 1165.51 545.02C1167.19 542.46 1168.53 539.06 1169.53 534.82C1170.57 530.54 1171.09 525.2 1171.09 518.8ZM1246.75 549.82C1248.15 549.82 1249.25 550.24 1250.05 551.08C1250.85 551.88 1251.25 552.92 1251.25 554.2V562H1192.81V557.62C1192.81 556.74 1192.99 555.82 1193.35 554.86C1193.71 553.9 1194.29 553.02 1195.09 552.22L1221.97 525.28C1224.25 523 1226.27 520.82 1228.03 518.74C1229.83 516.66 1231.35 514.58 1232.59 512.5C1233.87 510.42 1234.83 508.32 1235.47 506.2C1236.15 504.04 1236.49 501.78 1236.49 499.42C1236.49 497.14 1236.13 495.14 1235.41 493.42C1234.73 491.66 1233.77 490.22 1232.53 489.1C1231.33 487.94 1229.87 487.08 1228.15 486.52C1226.47 485.92 1224.61 485.62 1222.57 485.62C1220.61 485.62 1218.79 485.9 1217.11 486.46C1215.47 487.02 1213.99 487.8 1212.67 488.8C1211.39 489.8 1210.31 491 1209.43 492.4C1208.59 493.76 1207.97 495.26 1207.57 496.9C1206.97 498.54 1206.19 499.64 1205.23 500.2C1204.31 500.76 1202.95 500.88 1201.15 500.56L1194.37 499.36C1194.97 495.28 1196.09 491.7 1197.73 488.62C1199.41 485.54 1201.51 482.98 1204.03 480.94C1206.55 478.86 1209.43 477.3 1212.67 476.26C1215.95 475.18 1219.49 474.64 1223.29 474.64C1227.13 474.64 1230.65 475.22 1233.85 476.38C1237.09 477.5 1239.87 479.12 1242.19 481.24C1244.55 483.32 1246.39 485.86 1247.71 488.86C1249.03 491.86 1249.69 495.24 1249.69 499C1249.69 502.2 1249.21 505.16 1248.25 507.88C1247.33 510.6 1246.07 513.2 1244.47 515.68C1242.87 518.16 1240.99 520.58 1238.83 522.94C1236.71 525.26 1234.47 527.62 1232.11 530.02L1211.23 551.38C1212.95 550.9 1214.67 550.52 1216.39 550.24C1218.15 549.96 1219.81 549.82 1221.37 549.82H1246.75ZM1280.42 507.52C1282.5 507.08 1284.48 506.76 1286.36 506.56C1288.28 506.36 1290.12 506.26 1291.88 506.26C1296.4 506.26 1300.38 506.94 1303.82 508.3C1307.3 509.62 1310.2 511.46 1312.52 513.82C1314.88 516.18 1316.64 518.96 1317.8 522.16C1319 525.32 1319.6 528.76 1319.6 532.48C1319.6 537.08 1318.8 541.26 1317.2 545.02C1315.6 548.78 1313.38 552 1310.54 554.68C1307.7 557.32 1304.34 559.36 1300.46 560.8C1296.62 562.24 1292.46 562.96 1287.98 562.96C1285.34 562.96 1282.82 562.7 1280.42 562.18C1278.06 561.66 1275.84 560.96 1273.76 560.08C1271.68 559.16 1269.76 558.12 1268 556.96C1266.24 555.76 1264.66 554.52 1263.26 553.24L1267.22 547.72C1268.06 546.52 1269.18 545.92 1270.58 545.92C1271.46 545.92 1272.42 546.24 1273.46 546.88C1274.5 547.52 1275.7 548.22 1277.06 548.98C1278.46 549.7 1280.1 550.38 1281.98 551.02C1283.86 551.66 1286.1 551.98 1288.7 551.98C1291.54 551.98 1294.08 551.52 1296.32 550.6C1298.56 549.68 1300.44 548.4 1301.96 546.76C1303.52 545.08 1304.7 543.08 1305.5 540.76C1306.3 538.44 1306.7 535.9 1306.7 533.14C1306.7 530.62 1306.32 528.36 1305.56 526.36C1304.84 524.36 1303.74 522.66 1302.26 521.26C1300.82 519.86 1299 518.8 1296.8 518.08C1294.6 517.32 1292.06 516.94 1289.18 516.94C1287.06 516.94 1284.88 517.12 1282.64 517.48C1280.44 517.84 1278.2 518.4 1275.92 519.16L1267.88 516.88L1274.96 475.6H1316.78V481.18C1316.78 483.02 1316.2 484.52 1315.04 485.68C1313.88 486.84 1311.94 487.42 1309.22 487.42H1283.9L1280.42 507.52Z" fill="white"></path></svg> 