<?xml version="1.0" encoding="UTF-8"?> <svg xmlns="http://www.w3.org/2000/svg" width="396" height="154" viewBox="0 0 396 154" fill="none"><path d="M165.556 20.7887C165.321 21.1698 165.075 21.4556 164.818 21.6461C164.562 21.8155 164.241 21.9002 163.856 21.9002C163.45 21.9002 162.99 21.7308 162.477 21.3921C161.985 21.0533 161.364 20.6828 160.616 20.2806C159.889 19.8571 159.022 19.476 158.017 19.1373C157.012 18.7773 155.814 18.5974 154.424 18.5974C153.141 18.5974 152.007 18.7562 151.024 19.0738C150.061 19.3913 149.248 19.8359 148.585 20.4076C147.922 20.9792 147.42 21.6567 147.078 22.4401C146.757 23.2023 146.596 24.0386 146.596 24.949C146.596 26.1134 146.907 27.0873 147.527 27.8707C148.147 28.6329 148.96 29.2892 149.965 29.8397C150.991 30.3901 152.157 30.8771 153.462 31.3005C154.766 31.7028 156.092 32.1368 157.44 32.6026C158.809 33.0684 160.145 33.5977 161.45 34.1905C162.755 34.7833 163.909 35.5349 164.915 36.4453C165.941 37.3557 166.765 38.4672 167.385 39.7799C168.005 41.0925 168.315 42.691 168.315 44.5753C168.315 46.6078 167.962 48.5133 167.257 50.2917C166.551 52.0702 165.524 53.6263 164.177 54.9601C162.851 56.2728 161.204 57.3102 159.236 58.0724C157.29 58.8346 155.066 59.2157 152.563 59.2157C151.088 59.2157 149.644 59.0675 148.233 58.7711C146.842 58.4958 145.506 58.1042 144.222 57.596C142.961 57.0667 141.774 56.4316 140.661 55.6906C139.549 54.9496 138.555 54.1238 137.678 53.2135L139.859 49.6566C140.052 49.3602 140.298 49.1273 140.597 48.9579C140.897 48.7885 141.228 48.7038 141.592 48.7038C142.084 48.7038 142.629 48.9367 143.228 49.4025C143.827 49.8471 144.543 50.3447 145.377 50.8951C146.233 51.4244 147.259 51.922 148.457 52.3878C149.655 52.8324 151.088 53.0547 152.756 53.0547C155.472 53.0547 157.568 52.3983 159.044 51.0857C160.541 49.773 161.29 47.9628 161.29 45.6551C161.29 44.3636 160.979 43.3156 160.359 42.5111C159.739 41.6854 158.916 40.9973 157.889 40.4468C156.884 39.8963 155.729 39.4305 154.424 39.0495C153.12 38.6684 151.794 38.2661 150.446 37.8427C149.099 37.398 147.773 36.8899 146.468 36.3183C145.163 35.7255 143.998 34.9633 142.971 34.0317C141.966 33.079 141.153 31.9145 140.533 30.5383C139.913 29.141 139.603 27.4049 139.603 25.3301C139.603 23.6786 139.924 22.0802 140.565 20.5346C141.228 18.9891 142.18 17.6235 143.42 16.4379C144.682 15.2311 146.233 14.2677 148.072 13.5479C149.911 12.828 152.007 12.4681 154.36 12.4681C157.012 12.4681 159.44 12.881 161.642 13.7067C163.867 14.5324 165.781 15.7074 167.385 17.2318L165.556 20.7887Z" fill="white"></path><path d="M174.641 58.7076V11.7059H181.538V30.1572C182.886 28.8446 184.361 27.7966 185.965 27.0132C187.569 26.2087 189.441 25.8064 191.58 25.8064C193.376 25.8064 194.948 26.1028 196.295 26.6956C197.664 27.2885 198.808 28.1247 199.728 29.2045C200.669 30.2843 201.375 31.5864 201.845 33.1107C202.316 34.6139 202.551 36.2759 202.551 38.0967V58.7076H195.686V38.0967C195.686 35.916 195.173 34.2223 194.146 33.0155C193.141 31.8087 191.601 31.2053 189.526 31.2053C187.986 31.2053 186.554 31.5546 185.228 32.2533C183.923 32.9519 182.693 33.9047 181.538 35.1115V58.7076H174.641Z" fill="white"></path><path d="M231.716 58.7076C231.053 58.7076 230.55 58.6123 230.208 58.4217C229.866 58.21 229.577 57.7972 229.342 57.1832L228.668 54.5473C227.834 55.3095 227.011 55.9764 226.198 56.548C225.385 57.1197 224.541 57.6066 223.664 58.0089C222.808 58.4112 221.878 58.7076 220.873 58.8981C219.889 59.1098 218.798 59.2157 217.6 59.2157C216.274 59.2157 215.034 59.0357 213.879 58.6758C212.745 58.3159 211.762 57.776 210.927 57.0562C210.093 56.3151 209.43 55.4047 208.938 54.325C208.468 53.2452 208.233 51.9749 208.233 50.514C208.233 49.2649 208.564 48.0475 209.227 46.8619C209.912 45.6763 211.024 44.6177 212.564 43.6861C214.125 42.7334 216.167 41.95 218.691 41.336C221.236 40.722 224.369 40.3727 228.091 40.288V38.1285C228.091 35.7996 227.588 34.0635 226.583 32.9202C225.578 31.7769 224.102 31.2053 222.156 31.2053C220.83 31.2053 219.718 31.3746 218.819 31.7134C217.921 32.031 217.14 32.3803 216.477 32.7614C215.814 33.1425 215.226 33.5024 214.713 33.8412C214.2 34.1587 213.654 34.3175 213.077 34.3175C212.606 34.3175 212.2 34.2011 211.858 33.9682C211.537 33.7141 211.27 33.4071 211.056 33.0472L209.805 30.8242C213.505 27.4155 217.91 25.7111 223.022 25.7111C224.904 25.7111 226.572 26.0181 228.027 26.6321C229.502 27.2249 230.732 28.0718 231.716 29.1728C232.721 30.2737 233.48 31.5864 233.994 33.1107C234.528 34.6139 234.796 36.2865 234.796 38.1285V58.7076H231.716ZM219.686 54.452C221.482 54.452 223.022 54.1238 224.305 53.4675C225.61 52.79 226.872 51.8267 228.091 50.5776V44.5436C225.631 44.6494 223.557 44.8506 221.867 45.147C220.177 45.4434 218.809 45.835 217.761 46.322C216.713 46.809 215.953 47.3806 215.483 48.0369C215.034 48.6721 214.809 49.3813 214.809 50.1647C214.809 50.9269 214.927 51.5832 215.162 52.1337C215.419 52.663 215.761 53.1076 216.189 53.4675C216.638 53.8063 217.151 54.0603 217.729 54.2297C218.327 54.3779 218.98 54.452 219.686 54.452Z" fill="white"></path><path d="M242.876 58.7076V26.3145H247.046C247.987 26.3145 248.586 26.7486 248.843 27.6166L249.324 30.6336C250.008 29.9138 250.725 29.2574 251.473 28.6646C252.243 28.0718 253.056 27.5637 253.912 27.1403C254.767 26.7168 255.676 26.3886 256.638 26.1558C257.622 25.9229 258.681 25.8064 259.814 25.8064C261.611 25.8064 263.183 26.1028 264.53 26.6956C265.899 27.2885 267.043 28.1247 267.963 29.2045C268.904 30.2843 269.61 31.5864 270.08 33.1107C270.551 34.6139 270.786 36.2759 270.786 38.0967V58.7076H263.921V38.0967C263.921 35.916 263.408 34.2223 262.381 33.0155C261.376 31.8087 259.836 31.2053 257.761 31.2053C256.221 31.2053 254.788 31.5546 253.462 32.2533C252.158 32.9519 250.928 33.9047 249.773 35.1115V58.7076H242.876Z" fill="white"></path><path d="M302.453 58.7076C301.534 58.7076 300.945 58.2735 300.689 57.4055L300.079 53.9121C299.395 54.6955 298.668 55.4153 297.898 56.0717C297.128 56.7068 296.294 57.2573 295.395 57.7231C294.518 58.1889 293.577 58.5488 292.572 58.8028C291.567 59.0569 290.487 59.1839 289.332 59.1839C287.493 59.1839 285.825 58.824 284.327 58.1042C282.83 57.3632 281.547 56.294 280.478 54.8966C279.408 53.4993 278.574 51.7738 277.975 49.7201C277.398 47.6452 277.109 45.274 277.109 42.6063C277.109 40.1927 277.43 37.9591 278.072 35.9054C278.735 33.8517 279.676 32.0733 280.895 30.5701C282.114 29.0457 283.59 27.8601 285.322 27.0132C287.076 26.1452 289.033 25.7111 291.193 25.7111C293.118 25.7111 294.754 26.0181 296.101 26.6321C297.449 27.2249 298.657 28.0612 299.726 29.141V11.7059H306.624V58.7076H302.453ZM291.642 53.6898C293.396 53.6898 294.903 53.3193 296.165 52.5783C297.427 51.8373 298.614 50.7681 299.726 49.3708V34.2858C298.743 33.079 297.673 32.2321 296.518 31.7451C295.385 31.237 294.144 30.983 292.797 30.983C290.102 30.983 287.995 31.9674 286.477 33.9364C284.958 35.8843 284.199 38.7742 284.199 42.6063C284.199 44.5965 284.37 46.3008 284.712 47.7193C285.055 49.1167 285.546 50.26 286.188 51.1492C286.83 52.0384 287.61 52.6842 288.53 53.0864C289.45 53.4887 290.487 53.6898 291.642 53.6898Z" fill="white"></path><path d="M322.244 26.3145V58.7076H315.347V26.3145H322.244ZM323.399 16.5331C323.399 17.1471 323.271 17.7293 323.014 18.2798C322.779 18.8303 322.447 19.3172 322.02 19.7407C321.592 20.1429 321.089 20.4711 320.512 20.7252C319.956 20.9581 319.357 21.0745 318.715 21.0745C318.095 21.0745 317.507 20.9581 316.951 20.7252C316.416 20.4711 315.946 20.1429 315.539 19.7407C315.133 19.3172 314.801 18.8303 314.545 18.2798C314.309 17.7293 314.192 17.1471 314.192 16.5331C314.192 15.898 314.309 15.3052 314.545 14.7547C314.801 14.2042 315.133 13.7278 315.539 13.3256C315.946 12.9021 316.416 12.574 316.951 12.3411C317.507 12.087 318.095 11.96 318.715 11.96C319.357 11.96 319.956 12.087 320.512 12.3411C321.089 12.574 321.592 12.9021 322.02 13.3256C322.447 13.7278 322.779 14.2042 323.014 14.7547C323.271 15.3052 323.399 15.898 323.399 16.5331Z" fill="white"></path><path d="M330.911 58.7076V26.3145H335.081C336.022 26.3145 336.621 26.7486 336.878 27.6166L337.359 30.6336C338.043 29.9138 338.76 29.2574 339.508 28.6646C340.278 28.0718 341.091 27.5637 341.946 27.1403C342.802 26.7168 343.711 26.3886 344.673 26.1558C345.657 25.9229 346.716 25.8064 347.849 25.8064C349.646 25.8064 351.218 26.1028 352.565 26.6956C353.934 27.2885 355.078 28.1247 355.998 29.2045C356.939 30.2843 357.645 31.5864 358.115 33.1107C358.586 34.6139 358.821 36.2759 358.821 38.0967V58.7076H351.956V38.0967C351.956 35.916 351.443 34.2223 350.416 33.0155C349.411 31.8087 347.871 31.2053 345.796 31.2053C344.256 31.2053 342.823 31.5546 341.497 32.2533C340.193 32.9519 338.963 33.9047 337.808 35.1115V58.7076H330.911Z" fill="white"></path><path d="M378.554 25.7429C379.966 25.7429 381.281 25.9017 382.5 26.2193C383.74 26.5157 384.874 26.9391 385.901 27.4896H395.076V30.0302C395.076 30.8771 394.562 31.3958 393.536 31.5864L390.264 32.1262C390.82 33.3966 391.098 34.7621 391.098 36.223C391.098 37.8109 390.777 39.2506 390.135 40.5421C389.515 41.8336 388.649 42.9345 387.537 43.8449C386.425 44.7553 385.099 45.454 383.559 45.9409C382.019 46.4279 380.351 46.6713 378.554 46.6713C377.87 46.6713 377.196 46.6396 376.533 46.5761C375.891 46.4914 375.26 46.3855 374.64 46.2585C374.02 46.6184 373.56 46.9995 373.261 47.4018C372.961 47.804 372.811 48.2169 372.811 48.6403C372.811 49.339 373.122 49.8577 373.742 50.1965C374.362 50.5352 375.175 50.7787 376.18 50.9269C377.207 51.0751 378.372 51.1704 379.677 51.2127C380.981 51.2551 382.307 51.3292 383.655 51.435C385.002 51.5409 386.328 51.7208 387.633 51.9749C388.938 52.2078 390.092 52.6101 391.098 53.1817C392.124 53.7322 392.948 54.4838 393.568 55.4365C394.188 56.3892 394.498 57.6278 394.498 59.1522C394.498 60.5495 394.145 61.9151 393.44 63.2489C392.734 64.5828 391.707 65.7684 390.36 66.8058C389.034 67.8432 387.408 68.669 385.483 69.2829C383.559 69.9181 381.366 70.2357 378.907 70.2357C376.469 70.2357 374.341 70.0028 372.523 69.537C370.726 69.0712 369.218 68.4361 367.999 67.6315C366.802 66.8482 365.903 65.9378 365.305 64.9004C364.727 63.8629 364.438 62.7832 364.438 61.661C364.438 60.1367 364.92 58.8346 365.882 57.7548C366.866 56.6751 368.192 55.8282 369.86 55.2142C368.962 54.7908 368.235 54.2085 367.679 53.4675C367.144 52.7265 366.876 51.7526 366.876 50.5458C366.876 50.08 366.962 49.5931 367.133 49.0849C367.304 48.5768 367.561 48.0793 367.903 47.5923C368.267 47.0842 368.705 46.6078 369.218 46.1632C369.753 45.7186 370.373 45.3163 371.079 44.9564C369.454 44.0672 368.17 42.8816 367.229 41.3995C366.31 39.9175 365.85 38.192 365.85 36.223C365.85 34.6139 366.16 33.1637 366.78 31.8722C367.422 30.5807 368.309 29.4797 369.443 28.5694C370.576 27.659 371.913 26.9603 373.453 26.4733C375.014 25.9864 376.715 25.7429 378.554 25.7429ZM388.146 60.2955C388.146 59.5968 387.932 59.0357 387.505 58.6123C387.098 58.1677 386.542 57.8184 385.836 57.5643C385.131 57.3102 384.297 57.1303 383.334 57.0244C382.393 56.9185 381.399 56.8339 380.351 56.7703C379.303 56.7068 378.222 56.6539 377.11 56.6116C375.998 56.548 374.929 56.4422 373.902 56.294C372.876 56.8233 372.042 57.4584 371.4 58.1994C370.758 58.9405 370.437 59.7979 370.437 60.7718C370.437 61.407 370.598 61.9998 370.919 62.5503C371.261 63.1007 371.774 63.5771 372.459 63.9794C373.164 64.3816 374.052 64.6992 375.121 64.9321C376.212 65.165 377.517 65.2814 379.035 65.2814C382.072 65.2814 384.35 64.8157 385.868 63.8841C387.387 62.9525 388.146 61.7563 388.146 60.2955ZM378.554 42.2252C380.693 42.2252 382.297 41.6854 383.366 40.6056C384.436 39.5258 384.97 38.1179 384.97 36.3818C384.97 34.6034 384.436 33.1954 383.366 32.158C382.297 31.1206 380.693 30.6019 378.554 30.6019C376.437 30.6019 374.833 31.1206 373.742 32.158C372.672 33.1954 372.138 34.6034 372.138 36.3818C372.138 37.2287 372.277 38.012 372.555 38.7319C372.833 39.4517 373.239 40.0763 373.774 40.6056C374.309 41.1137 374.972 41.516 375.763 41.8124C376.576 42.0876 377.506 42.2252 378.554 42.2252Z" fill="white"></path><path d="M119.025 59.5838L73.1164 0L46.4402 34.6232L32.8341 16.9683L0 59.5838H27.2082L46.4402 34.6232L65.6681 59.5838H119.025Z" fill="white"></path><path d="M30.4887 103.918V106.232H25.1626V121H22.3987V106.232H17.0607V103.918H30.4887ZM37.5324 121C37.2873 121 37.1014 120.964 36.9749 120.893C36.8484 120.814 36.7416 120.66 36.6546 120.431L36.4055 119.446C36.0971 119.731 35.7926 119.98 35.4921 120.193C35.1916 120.407 34.8793 120.589 34.555 120.739C34.2387 120.889 33.8947 121 33.523 121.071C33.1592 121.15 32.7559 121.19 32.3131 121.19C31.8228 121.19 31.3641 121.123 30.937 120.988C30.5179 120.854 30.1541 120.652 29.8457 120.383C29.5373 120.106 29.2922 119.766 29.1103 119.363C28.9363 118.96 28.8493 118.485 28.8493 117.94C28.8493 117.473 28.9719 117.018 29.217 116.575C29.4701 116.133 29.8813 115.737 30.4507 115.389C31.028 115.033 31.7832 114.741 32.7164 114.511C33.6574 114.282 34.816 114.152 36.192 114.12V113.313C36.192 112.443 36.0062 111.795 35.6345 111.368C35.2628 110.941 34.7171 110.727 33.9975 110.727C33.5072 110.727 33.096 110.791 32.7638 110.917C32.4317 111.036 32.143 111.166 31.8979 111.309C31.6527 111.451 31.4353 111.585 31.2455 111.712C31.0557 111.831 30.854 111.89 30.6405 111.89C30.4665 111.89 30.3163 111.846 30.1897 111.759C30.0711 111.664 29.9723 111.55 29.8932 111.415L29.4305 110.585C30.7987 109.312 32.4277 108.675 34.3178 108.675C35.0137 108.675 35.6305 108.79 36.1683 109.019C36.7139 109.241 37.1687 109.557 37.5324 109.968C37.9041 110.379 38.1849 110.87 38.3747 111.439C38.5724 112.001 38.6712 112.625 38.6712 113.313V121H37.5324ZM33.0841 119.41C33.7484 119.41 34.3178 119.288 34.7923 119.043C35.2747 118.79 35.7412 118.43 36.192 117.963V115.709C35.2826 115.749 34.5155 115.824 33.8907 115.935C33.266 116.046 32.7599 116.192 32.3724 116.374C31.9849 116.556 31.7041 116.769 31.5302 117.014C31.3641 117.252 31.2811 117.516 31.2811 117.809C31.2811 118.094 31.3245 118.339 31.4115 118.545C31.5064 118.742 31.633 118.908 31.7911 119.043C31.9572 119.169 32.147 119.264 32.3605 119.327C32.5819 119.383 32.8231 119.41 33.0841 119.41ZM47.9932 115.069C48.104 115.275 48.2028 115.496 48.2898 115.733C48.3847 115.97 48.4756 116.208 48.5626 116.445C48.6496 116.208 48.7406 115.97 48.8355 115.733C48.9304 115.496 49.0332 115.275 49.1439 115.069L52.3823 109.446C52.5009 109.209 52.6472 109.055 52.8212 108.984C52.9951 108.904 53.1691 108.865 53.3431 108.865H55.419V121H53.1296V113.681C53.1296 113.428 53.1454 113.143 53.177 112.827C53.2087 112.503 53.2482 112.202 53.2957 111.925L49.4404 118.853C49.3614 118.995 49.2585 119.11 49.132 119.197C49.0055 119.276 48.8631 119.316 48.705 119.316H48.4321C48.274 119.316 48.1316 119.276 48.0051 119.197C47.8865 119.11 47.7876 118.995 47.7086 118.853L43.7822 111.902C43.8296 112.178 43.8691 112.483 43.9008 112.815C43.9403 113.139 43.9601 113.428 43.9601 113.681V121H41.6588V108.865H43.7466C43.9206 108.865 44.0906 108.904 44.2566 108.984C44.4306 109.063 44.5809 109.217 44.7074 109.446L47.9932 115.069ZM58.1334 119.351C58.1334 119.146 58.169 118.952 58.2402 118.77C58.3192 118.588 58.426 118.43 58.5604 118.295C58.7028 118.161 58.8689 118.058 59.0587 117.987C59.2564 117.908 59.4699 117.868 59.6992 117.868C59.9681 117.868 60.2053 117.92 60.4109 118.023C60.6166 118.117 60.7866 118.252 60.921 118.426C61.0634 118.592 61.1662 118.79 61.2294 119.019C61.3006 119.24 61.3362 119.478 61.3362 119.731C61.3362 120.095 61.2808 120.478 61.1701 120.881C61.0673 121.285 60.9092 121.684 60.6956 122.079C60.49 122.483 60.233 122.874 59.9246 123.254C59.6241 123.633 59.2801 123.981 58.8926 124.298L58.4537 123.894C58.3904 123.831 58.343 123.772 58.3113 123.716C58.2876 123.661 58.2757 123.59 58.2757 123.503C58.2757 123.368 58.343 123.242 58.4774 123.123C58.5565 123.028 58.6553 122.91 58.774 122.767C58.9005 122.633 59.027 122.471 59.1535 122.281C59.2801 122.099 59.3987 121.898 59.5094 121.676C59.6201 121.463 59.6992 121.233 59.7467 120.988H59.6873C59.458 120.988 59.2484 120.949 59.0587 120.87C58.8689 120.783 58.7028 120.668 58.5604 120.526C58.426 120.375 58.3192 120.201 58.2402 120.004C58.169 119.806 58.1334 119.588 58.1334 119.351ZM77.955 108.901V110.822H72.4746V121H69.9243V108.901H77.955ZM89.0448 108.901V119.078H91.2631V124.333C91.2631 124.571 91.1919 124.756 91.0496 124.891C90.9151 125.033 90.7411 125.104 90.5276 125.104H88.9499V121H79.3771V124.381C79.3771 124.563 79.3178 124.729 79.1992 124.879C79.0885 125.029 78.9145 125.104 78.6773 125.104H77.064V119.161H77.5504C77.8192 119.153 78.0842 119.102 78.3451 119.007C78.6061 118.904 78.8552 118.722 79.0924 118.461C79.3297 118.193 79.5551 117.825 79.7686 117.358C79.9821 116.884 80.1759 116.271 80.3498 115.52C80.5238 114.76 80.6741 113.839 80.8006 112.756C80.9271 111.672 81.0299 110.387 81.109 108.901H89.0448ZM83.1849 110.882C83.1058 111.997 83.003 112.993 82.8765 113.871C82.75 114.741 82.5997 115.516 82.4257 116.196C82.2597 116.868 82.0738 117.449 81.8682 117.94C81.6626 118.422 81.4491 118.829 81.2276 119.161H86.5775V110.882H83.1849ZM98.1115 108.711C98.8548 108.711 99.5428 108.833 100.175 109.078C100.808 109.316 101.354 109.668 101.812 110.134C102.271 110.601 102.627 111.174 102.88 111.854C103.141 112.526 103.272 113.294 103.272 114.156C103.272 114.551 103.228 114.816 103.141 114.95C103.054 115.085 102.896 115.152 102.667 115.152H94.8968C94.9284 115.84 95.0352 116.437 95.2171 116.943C95.399 117.441 95.6402 117.857 95.9407 118.189C96.2491 118.521 96.6129 118.77 97.032 118.936C97.459 119.094 97.9335 119.173 98.4555 119.173C98.9537 119.173 99.3847 119.118 99.7484 119.007C100.112 118.889 100.429 118.762 100.697 118.628C100.966 118.485 101.196 118.359 101.385 118.248C101.575 118.129 101.749 118.07 101.907 118.07C102.113 118.07 102.271 118.149 102.382 118.307L103.105 119.244C102.805 119.6 102.465 119.901 102.085 120.146C101.706 120.391 101.302 120.593 100.875 120.751C100.448 120.901 100.009 121.008 99.5587 121.071C99.1079 121.142 98.669 121.178 98.2419 121.178C97.4037 121.178 96.6247 121.04 95.9051 120.763C95.1934 120.478 94.5726 120.063 94.0427 119.517C93.5208 118.972 93.1096 118.295 92.8091 117.489C92.5165 116.682 92.3702 115.753 92.3702 114.701C92.3702 113.863 92.5006 113.08 92.7616 112.352C93.0305 111.625 93.4101 110.992 93.9004 110.454C94.3986 109.917 94.9996 109.494 95.7034 109.185C96.4152 108.869 97.2178 108.711 98.1115 108.711ZM98.1589 110.561C97.2337 110.561 96.5061 110.826 95.9763 111.356C95.4464 111.886 95.1103 112.629 94.968 113.586H100.982C100.982 113.159 100.919 112.764 100.792 112.4C100.674 112.028 100.496 111.708 100.259 111.439C100.021 111.162 99.7247 110.949 99.3689 110.798C99.0209 110.64 98.6176 110.561 98.1589 110.561ZM119.589 108.901V110.822H114.108V121H111.558V108.901H119.589ZM121.451 125.021V108.901H122.993C123.341 108.901 123.562 109.063 123.657 109.387L123.859 110.656C124.112 110.364 124.381 110.095 124.665 109.85C124.95 109.604 125.255 109.395 125.579 109.221C125.911 109.047 126.263 108.912 126.635 108.818C127.014 108.723 127.417 108.675 127.844 108.675C128.525 108.675 129.141 108.814 129.695 109.09C130.249 109.359 130.723 109.755 131.118 110.277C131.514 110.798 131.818 111.447 132.032 112.222C132.253 112.989 132.364 113.871 132.364 114.867C132.364 115.761 132.241 116.595 131.996 117.37C131.759 118.137 131.415 118.805 130.964 119.375C130.513 119.936 129.968 120.379 129.327 120.703C128.687 121.02 127.963 121.178 127.156 121.178C126.445 121.178 125.84 121.067 125.342 120.846C124.843 120.616 124.397 120.3 124.001 119.897V125.021H121.451ZM126.99 110.727C126.334 110.727 125.773 110.87 125.306 111.154C124.839 111.431 124.404 111.831 124.001 112.352V117.963C124.357 118.422 124.744 118.746 125.164 118.936C125.591 119.118 126.061 119.209 126.575 119.209C127.572 119.209 128.347 118.845 128.9 118.117C129.462 117.39 129.742 116.307 129.742 114.867C129.742 114.124 129.679 113.491 129.553 112.969C129.426 112.439 129.244 112.008 129.007 111.676C128.77 111.344 128.481 111.103 128.141 110.953C127.801 110.802 127.417 110.727 126.99 110.727ZM142.647 121C142.402 121 142.216 120.964 142.09 120.893C141.963 120.814 141.857 120.66 141.77 120.431L141.52 119.446C141.212 119.731 140.908 119.98 140.607 120.193C140.307 120.407 139.994 120.589 139.67 120.739C139.354 120.889 139.01 121 138.638 121.071C138.274 121.15 137.871 121.19 137.428 121.19C136.938 121.19 136.479 121.123 136.052 120.988C135.633 120.854 135.269 120.652 134.961 120.383C134.652 120.106 134.407 119.766 134.225 119.363C134.051 118.96 133.964 118.485 133.964 117.94C133.964 117.473 134.087 117.018 134.332 116.575C134.585 116.133 134.996 115.737 135.566 115.389C136.143 115.033 136.898 114.741 137.831 114.511C138.772 114.282 139.931 114.152 141.307 114.12V113.313C141.307 112.443 141.121 111.795 140.749 111.368C140.378 110.941 139.832 110.727 139.112 110.727C138.622 110.727 138.211 110.791 137.879 110.917C137.547 111.036 137.258 111.166 137.013 111.309C136.768 111.451 136.55 111.585 136.36 111.712C136.171 111.831 135.969 111.89 135.755 111.89C135.581 111.89 135.431 111.846 135.305 111.759C135.186 111.664 135.087 111.55 135.008 111.415L134.546 110.585C135.914 109.312 137.543 108.675 139.433 108.675C140.129 108.675 140.745 108.79 141.283 109.019C141.829 109.241 142.284 109.557 142.647 109.968C143.019 110.379 143.3 110.87 143.49 111.439C143.687 112.001 143.786 112.625 143.786 113.313V121H142.647ZM138.199 119.41C138.863 119.41 139.433 119.288 139.907 119.043C140.39 118.79 140.856 118.43 141.307 117.963V115.709C140.398 115.749 139.63 115.824 139.006 115.935C138.381 116.046 137.875 116.192 137.487 116.374C137.1 116.556 136.819 116.769 136.645 117.014C136.479 117.252 136.396 117.516 136.396 117.809C136.396 118.094 136.44 118.339 136.527 118.545C136.621 118.742 136.748 118.908 136.906 119.043C137.072 119.169 137.262 119.264 137.475 119.327C137.697 119.383 137.938 119.41 138.199 119.41ZM157.094 108.901V121H154.555V115.508H149.324V121H146.774V108.901H149.324V113.586H154.555V108.901H157.094ZM160.211 121.012V108.901H162.762V116.48C162.762 116.654 162.75 116.844 162.726 117.05C162.71 117.248 162.687 117.449 162.655 117.655C162.813 117.291 162.975 116.991 163.141 116.753C163.149 116.738 163.232 116.623 163.391 116.409C163.549 116.196 163.75 115.919 163.995 115.579C164.249 115.239 164.529 114.855 164.838 114.428C165.154 113.993 165.474 113.551 165.799 113.1C166.566 112.048 167.432 110.862 168.396 109.541C168.491 109.383 168.618 109.237 168.776 109.102C168.934 108.968 169.112 108.901 169.31 108.901H170.852V121H168.301V113.42C168.301 113.262 168.309 113.084 168.325 112.886C168.341 112.689 168.365 112.487 168.396 112.281C168.317 112.455 168.238 112.617 168.159 112.768C168.08 112.91 168.001 113.037 167.922 113.147C167.906 113.163 167.819 113.282 167.661 113.503C167.511 113.717 167.309 113.993 167.056 114.333C166.811 114.673 166.53 115.061 166.214 115.496C165.897 115.923 165.577 116.362 165.253 116.813C164.486 117.864 163.624 119.051 162.667 120.371C162.572 120.522 162.446 120.668 162.287 120.81C162.129 120.945 161.951 121.012 161.754 121.012H160.211ZM173.95 108.901H176.501V119.078H181.732V108.901H184.27V119.078H186.489V124.333C186.489 124.571 186.421 124.756 186.287 124.891C186.153 125.033 185.979 125.104 185.765 125.104H184.187V121H173.95V108.901ZM190.897 108.901V113.503H193.245C194.084 113.503 194.792 113.606 195.369 113.811C195.946 114.009 196.413 114.278 196.769 114.618C197.124 114.958 197.381 115.354 197.54 115.804C197.698 116.247 197.777 116.71 197.777 117.192C197.777 117.754 197.678 118.268 197.48 118.734C197.283 119.193 196.99 119.592 196.602 119.932C196.223 120.272 195.752 120.537 195.191 120.727C194.637 120.909 194.001 121 193.281 121H188.477V108.901H190.897ZM202.735 108.901V121H200.185V108.901H202.735ZM190.897 115.342V119.149H193.281C193.653 119.149 193.977 119.102 194.254 119.007C194.538 118.904 194.772 118.77 194.954 118.604C195.143 118.43 195.282 118.224 195.369 117.987C195.464 117.75 195.511 117.489 195.511 117.204C195.511 116.951 195.468 116.714 195.381 116.492C195.302 116.263 195.171 116.065 194.989 115.899C194.815 115.725 194.586 115.591 194.301 115.496C194.017 115.393 193.669 115.342 193.257 115.342H190.897ZM211.026 110.182C211.484 109.747 212.046 109.395 212.71 109.126C213.374 108.849 214.169 108.711 215.094 108.711C215.838 108.711 216.494 108.802 217.064 108.984C217.633 109.158 218.111 109.395 218.499 109.695C218.886 109.988 219.179 110.328 219.377 110.715C219.582 111.103 219.685 111.506 219.685 111.925C219.685 112.163 219.649 112.408 219.578 112.661C219.507 112.906 219.389 113.147 219.222 113.384C219.064 113.622 218.851 113.843 218.582 114.049C218.321 114.254 217.997 114.424 217.609 114.559C218.329 114.796 218.898 115.164 219.317 115.662C219.736 116.16 219.946 116.773 219.946 117.501C219.946 118.078 219.812 118.596 219.543 119.055C219.282 119.505 218.93 119.889 218.487 120.205C218.052 120.522 217.546 120.763 216.969 120.929C216.399 121.095 215.806 121.178 215.189 121.178C214.818 121.178 214.43 121.142 214.027 121.071C213.631 121.008 213.236 120.901 212.841 120.751C212.453 120.593 212.077 120.391 211.714 120.146C211.35 119.901 211.022 119.6 210.729 119.244L211.465 118.307C211.559 118.149 211.718 118.07 211.939 118.07C212.097 118.07 212.259 118.129 212.425 118.248C212.591 118.367 212.785 118.497 213.007 118.639C213.236 118.782 213.509 118.912 213.825 119.031C214.149 119.149 214.549 119.209 215.023 119.209C215.419 119.209 215.771 119.161 216.079 119.066C216.387 118.972 216.648 118.837 216.862 118.663C217.075 118.489 217.237 118.288 217.348 118.058C217.459 117.821 217.514 117.564 217.514 117.287C217.514 116.749 217.293 116.326 216.85 116.018C216.415 115.702 215.727 115.543 214.786 115.543H213.422V113.859H214.786C215.608 113.859 216.245 113.709 216.696 113.408C217.147 113.108 217.372 112.716 217.372 112.234C217.372 111.799 217.174 111.431 216.779 111.131C216.391 110.83 215.806 110.68 215.023 110.68C214.58 110.68 214.201 110.727 213.884 110.822C213.576 110.909 213.315 111.008 213.102 111.119C212.888 111.222 212.706 111.316 212.556 111.403C212.414 111.49 212.287 111.534 212.176 111.534C212.058 111.534 211.955 111.51 211.868 111.463C211.789 111.415 211.702 111.316 211.607 111.166L211.026 110.182ZM230.224 121C229.979 121 229.793 120.964 229.666 120.893C229.54 120.814 229.433 120.66 229.346 120.431L229.097 119.446C228.789 119.731 228.484 119.98 228.184 120.193C227.883 120.407 227.571 120.589 227.246 120.739C226.93 120.889 226.586 121 226.214 121.071C225.851 121.15 225.447 121.19 225.005 121.19C224.514 121.19 224.056 121.123 223.629 120.988C223.209 120.854 222.846 120.652 222.537 120.383C222.229 120.106 221.984 119.766 221.802 119.363C221.628 118.96 221.541 118.485 221.541 117.94C221.541 117.473 221.663 117.018 221.908 116.575C222.162 116.133 222.573 115.737 223.142 115.389C223.719 115.033 224.475 114.741 225.408 114.511C226.349 114.282 227.507 114.152 228.883 114.12V113.313C228.883 112.443 228.698 111.795 228.326 111.368C227.954 110.941 227.409 110.727 226.689 110.727C226.199 110.727 225.787 110.791 225.455 110.917C225.123 111.036 224.834 111.166 224.589 111.309C224.344 111.451 224.127 111.585 223.937 111.712C223.747 111.831 223.545 111.89 223.332 111.89C223.158 111.89 223.008 111.846 222.881 111.759C222.763 111.664 222.664 111.55 222.585 111.415L222.122 110.585C223.49 109.312 225.119 108.675 227.009 108.675C227.705 108.675 228.322 108.79 228.86 109.019C229.405 109.241 229.86 109.557 230.224 109.968C230.596 110.379 230.876 110.87 231.066 111.439C231.264 112.001 231.363 112.625 231.363 113.313V121H230.224ZM225.776 119.41C226.44 119.41 227.009 119.288 227.484 119.043C227.966 118.79 228.433 118.43 228.883 117.963V115.709C227.974 115.749 227.207 115.824 226.582 115.935C225.957 116.046 225.451 116.192 225.064 116.374C224.676 116.556 224.396 116.769 224.222 117.014C224.056 117.252 223.973 117.516 223.973 117.809C223.973 118.094 224.016 118.339 224.103 118.545C224.198 118.742 224.324 118.908 224.483 119.043C224.649 119.169 224.838 119.264 225.052 119.327C225.273 119.383 225.515 119.41 225.776 119.41ZM241.634 109.589C241.76 109.383 241.93 109.217 242.144 109.09C242.365 108.964 242.595 108.901 242.832 108.901H244.825L241.847 113.444C241.657 113.752 241.46 114.001 241.254 114.191C241.048 114.381 240.795 114.527 240.495 114.63C240.882 114.741 241.203 114.911 241.456 115.14C241.717 115.361 241.95 115.65 242.156 116.006L245.157 121H243.401C242.95 121 242.598 120.925 242.345 120.775C242.1 120.624 241.891 120.403 241.717 120.11L239.665 116.575C239.498 116.275 239.281 116.053 239.012 115.911C238.743 115.769 238.439 115.698 238.099 115.698H236.901V121.012H234.35V108.901H236.901V113.989H237.933C238.265 113.989 238.542 113.926 238.763 113.8C238.984 113.673 239.174 113.479 239.332 113.218L241.634 109.589ZM254.759 121C254.514 121 254.328 120.964 254.202 120.893C254.075 120.814 253.968 120.66 253.881 120.431L253.632 119.446C253.324 119.731 253.019 119.98 252.719 120.193C252.418 120.407 252.106 120.589 251.782 120.739C251.465 120.889 251.121 121 250.75 121.071C250.386 121.15 249.983 121.19 249.54 121.19C249.05 121.19 248.591 121.123 248.164 120.988C247.745 120.854 247.381 120.652 247.073 120.383C246.764 120.106 246.519 119.766 246.337 119.363C246.163 118.96 246.076 118.485 246.076 117.94C246.076 117.473 246.199 117.018 246.444 116.575C246.697 116.133 247.108 115.737 247.677 115.389C248.255 115.033 249.01 114.741 249.943 114.511C250.884 114.282 252.043 114.152 253.419 114.12V113.313C253.419 112.443 253.233 111.795 252.861 111.368C252.49 110.941 251.944 110.727 251.224 110.727C250.734 110.727 250.323 110.791 249.991 110.917C249.658 111.036 249.37 111.166 249.125 111.309C248.88 111.451 248.662 111.585 248.472 111.712C248.282 111.831 248.081 111.89 247.867 111.89C247.693 111.89 247.543 111.846 247.417 111.759C247.298 111.664 247.199 111.55 247.12 111.415L246.657 110.585C248.025 109.312 249.655 108.675 251.545 108.675C252.24 108.675 252.857 108.79 253.395 109.019C253.941 109.241 254.395 109.557 254.759 109.968C255.131 110.379 255.412 110.87 255.601 111.439C255.799 112.001 255.898 112.625 255.898 113.313V121H254.759ZM250.311 119.41C250.975 119.41 251.545 119.288 252.019 119.043C252.501 118.79 252.968 118.43 253.419 117.963V115.709C252.509 115.749 251.742 115.824 251.118 115.935C250.493 116.046 249.987 116.192 249.599 116.374C249.212 116.556 248.931 116.769 248.757 117.014C248.591 117.252 248.508 117.516 248.508 117.809C248.508 118.094 248.551 118.339 248.638 118.545C248.733 118.742 248.86 118.908 249.018 119.043C249.184 119.169 249.374 119.264 249.587 119.327C249.809 119.383 250.05 119.41 250.311 119.41ZM269.206 108.901V121H266.667V115.508H261.436V121H258.886V108.901H261.436V113.586H266.667V108.901H269.206ZM281.576 121H279.037V116.077C277.993 116.338 277.021 116.496 276.119 116.552C275.226 116.599 274.447 116.508 273.782 116.279C273.126 116.05 272.608 115.662 272.228 115.116C271.849 114.571 271.659 113.835 271.659 112.91V108.901H274.197V112.519C274.197 113.048 274.296 113.475 274.494 113.8C274.692 114.116 274.988 114.341 275.384 114.476C275.787 114.602 276.289 114.65 276.89 114.618C277.499 114.579 278.215 114.468 279.037 114.286V108.901H281.576V121ZM284.695 121.012V108.901H287.246V116.48C287.246 116.654 287.234 116.844 287.21 117.05C287.194 117.248 287.17 117.449 287.139 117.655C287.297 117.291 287.459 116.991 287.625 116.753C287.633 116.738 287.716 116.623 287.874 116.409C288.032 116.196 288.234 115.919 288.479 115.579C288.732 115.239 289.013 114.855 289.321 114.428C289.638 113.993 289.958 113.551 290.282 113.1C291.049 112.048 291.915 110.862 292.88 109.541C292.975 109.383 293.102 109.237 293.26 109.102C293.418 108.968 293.596 108.901 293.794 108.901H295.336V121H292.785V113.42C292.785 113.262 292.793 113.084 292.809 112.886C292.825 112.689 292.848 112.487 292.88 112.281C292.801 112.455 292.722 112.617 292.643 112.768C292.564 112.91 292.485 113.037 292.406 113.147C292.39 113.163 292.303 113.282 292.145 113.503C291.994 113.717 291.793 113.993 291.54 114.333C291.295 114.673 291.014 115.061 290.697 115.496C290.381 115.923 290.061 116.362 289.737 116.813C288.97 117.864 288.108 119.051 287.151 120.371C287.056 120.522 286.929 120.668 286.771 120.81C286.613 120.945 286.435 121.012 286.237 121.012H284.695ZM298.434 108.901H303.048C303.8 108.901 304.448 108.976 304.994 109.126C305.54 109.268 305.986 109.47 306.334 109.731C306.69 109.992 306.951 110.3 307.117 110.656C307.283 111.012 307.366 111.396 307.366 111.807C307.366 112.068 307.331 112.341 307.26 112.625C307.188 112.91 307.066 113.183 306.892 113.444C306.718 113.697 306.481 113.93 306.18 114.144C305.887 114.357 305.512 114.523 305.053 114.642C305.907 114.8 306.587 115.116 307.093 115.591C307.6 116.065 307.853 116.69 307.853 117.465C307.853 118.066 307.73 118.588 307.485 119.031C307.24 119.474 306.904 119.841 306.477 120.134C306.057 120.427 305.567 120.644 305.006 120.786C304.452 120.929 303.867 121 303.25 121H298.434V108.901ZM300.866 115.638V119.233H303.238C303.934 119.233 304.484 119.066 304.887 118.734C305.298 118.394 305.504 117.94 305.504 117.37C305.504 117.125 305.468 116.896 305.397 116.682C305.326 116.469 305.203 116.287 305.029 116.136C304.855 115.978 304.622 115.856 304.33 115.769C304.045 115.682 303.685 115.638 303.25 115.638H300.866ZM300.866 114.037H302.965C303.282 114.037 303.57 113.993 303.831 113.906C304.1 113.811 304.33 113.685 304.519 113.527C304.717 113.361 304.867 113.167 304.97 112.946C305.081 112.716 305.136 112.463 305.136 112.186C305.136 111.989 305.101 111.795 305.029 111.605C304.958 111.407 304.836 111.233 304.662 111.083C304.496 110.933 304.274 110.814 303.997 110.727C303.721 110.632 303.377 110.585 302.965 110.585H300.866V114.037ZM318.078 121C317.833 121 317.647 120.964 317.521 120.893C317.394 120.814 317.288 120.66 317.201 120.431L316.951 119.446C316.643 119.731 316.339 119.98 316.038 120.193C315.738 120.407 315.425 120.589 315.101 120.739C314.785 120.889 314.441 121 314.069 121.071C313.705 121.15 313.302 121.19 312.859 121.19C312.369 121.19 311.91 121.123 311.483 120.988C311.064 120.854 310.7 120.652 310.392 120.383C310.083 120.106 309.838 119.766 309.656 119.363C309.482 118.96 309.395 118.485 309.395 117.94C309.395 117.473 309.518 117.018 309.763 116.575C310.016 116.133 310.427 115.737 310.997 115.389C311.574 115.033 312.329 114.741 313.262 114.511C314.203 114.282 315.362 114.152 316.738 114.12V113.313C316.738 112.443 316.552 111.795 316.18 111.368C315.809 110.941 315.263 110.727 314.543 110.727C314.053 110.727 313.642 110.791 313.31 110.917C312.978 111.036 312.689 111.166 312.444 111.309C312.199 111.451 311.981 111.585 311.791 111.712C311.602 111.831 311.4 111.89 311.186 111.89C311.012 111.89 310.862 111.846 310.736 111.759C310.617 111.664 310.518 111.55 310.439 111.415L309.977 110.585C311.345 109.312 312.974 108.675 314.864 108.675C315.56 108.675 316.176 108.79 316.714 109.019C317.26 109.241 317.715 109.557 318.078 109.968C318.45 110.379 318.731 110.87 318.921 111.439C319.118 112.001 319.217 112.625 319.217 113.313V121H318.078ZM313.63 119.41C314.294 119.41 314.864 119.288 315.338 119.043C315.821 118.79 316.287 118.43 316.738 117.963V115.709C315.829 115.749 315.061 115.824 314.437 115.935C313.812 116.046 313.306 116.192 312.918 116.374C312.531 116.556 312.25 116.769 312.076 117.014C311.91 117.252 311.827 117.516 311.827 117.809C311.827 118.094 311.871 118.339 311.958 118.545C312.052 118.742 312.179 118.908 312.337 119.043C312.503 119.169 312.693 119.264 312.906 119.327C313.128 119.383 313.369 119.41 313.63 119.41ZM324.755 108.901V113.954H327.4C327.487 113.147 327.677 112.42 327.97 111.771C328.262 111.123 328.646 110.573 329.12 110.122C329.595 109.664 330.152 109.316 330.793 109.078C331.434 108.833 332.145 108.711 332.928 108.711C333.79 108.711 334.569 108.857 335.265 109.15C335.961 109.442 336.554 109.857 337.044 110.395C337.535 110.933 337.91 111.585 338.171 112.352C338.44 113.12 338.575 113.982 338.575 114.938C338.575 115.895 338.436 116.757 338.159 117.524C337.891 118.291 337.507 118.948 337.009 119.493C336.511 120.031 335.914 120.446 335.218 120.739C334.53 121.032 333.767 121.178 332.928 121.178C332.114 121.178 331.378 121.055 330.722 120.81C330.073 120.557 329.512 120.197 329.037 119.731C328.571 119.264 328.195 118.699 327.911 118.034C327.634 117.37 327.46 116.623 327.389 115.792H324.755V121H322.205V108.901H324.755ZM332.928 119.185C333.948 119.185 334.704 118.821 335.194 118.094C335.692 117.358 335.941 116.31 335.941 114.95C335.941 113.59 335.692 112.542 335.194 111.807C334.704 111.063 333.948 110.692 332.928 110.692C331.9 110.692 331.137 111.063 330.639 111.807C330.149 112.542 329.903 113.59 329.903 114.95C329.903 116.31 330.149 117.358 330.639 118.094C331.137 118.821 331.9 119.185 332.928 119.185ZM339.343 108.901H350.826V110.822H346.366V121H343.815V110.822H339.343V108.901ZM360.83 111.273C360.751 111.376 360.676 111.455 360.605 111.51C360.533 111.566 360.431 111.593 360.296 111.593C360.162 111.593 360.019 111.546 359.869 111.451C359.727 111.356 359.553 111.253 359.347 111.143C359.15 111.024 358.908 110.917 358.624 110.822C358.339 110.727 357.983 110.68 357.556 110.68C357.002 110.68 356.516 110.779 356.097 110.976C355.686 111.174 355.338 111.459 355.053 111.831C354.776 112.194 354.567 112.641 354.424 113.171C354.29 113.693 354.223 114.282 354.223 114.938C354.223 115.619 354.298 116.223 354.448 116.753C354.598 117.283 354.812 117.73 355.089 118.094C355.373 118.458 355.713 118.734 356.109 118.924C356.512 119.114 356.963 119.209 357.461 119.209C357.951 119.209 358.351 119.149 358.659 119.031C358.968 118.912 359.225 118.782 359.43 118.639C359.636 118.497 359.81 118.367 359.952 118.248C360.102 118.129 360.261 118.07 360.427 118.07C360.632 118.07 360.79 118.149 360.901 118.307L361.625 119.244C361.332 119.6 361.008 119.901 360.652 120.146C360.296 120.391 359.921 120.593 359.525 120.751C359.13 120.901 358.719 121.008 358.292 121.071C357.864 121.142 357.433 121.178 356.999 121.178C356.247 121.178 355.543 121.04 354.887 120.763C354.239 120.478 353.669 120.071 353.179 119.541C352.697 119.003 352.313 118.351 352.028 117.584C351.751 116.809 351.613 115.927 351.613 114.938C351.613 114.045 351.74 113.218 351.993 112.459C352.246 111.692 352.613 111.032 353.096 110.478C353.586 109.925 354.191 109.494 354.911 109.185C355.63 108.869 356.461 108.711 357.402 108.711C358.28 108.711 359.051 108.853 359.715 109.138C360.387 109.422 360.984 109.826 361.506 110.348L360.83 111.273ZM372.442 121H370.011V116.042H369.311C369.081 116.042 368.892 116.061 368.741 116.101C368.591 116.14 368.461 116.196 368.35 116.267C368.247 116.338 368.152 116.425 368.065 116.528C367.986 116.631 367.907 116.745 367.828 116.872L365.562 120.11C365.396 120.411 365.199 120.636 364.969 120.786C364.748 120.929 364.412 121 363.961 121H362.205L365.467 116.599C365.768 116.077 366.187 115.721 366.725 115.532C366.14 115.445 365.641 115.294 365.23 115.081C364.819 114.867 364.487 114.618 364.234 114.333C363.981 114.049 363.795 113.74 363.676 113.408C363.565 113.068 363.51 112.732 363.51 112.4C363.51 111.965 363.593 111.538 363.759 111.119C363.933 110.7 364.206 110.328 364.578 110.004C364.949 109.672 365.428 109.407 366.013 109.209C366.606 109.003 367.318 108.901 368.148 108.901H372.442V121ZM366.061 112.519C366.061 113.112 366.27 113.578 366.689 113.918C367.116 114.258 367.69 114.428 368.409 114.428H370.011V110.585H368.219C367.808 110.585 367.464 110.644 367.187 110.763C366.911 110.882 366.689 111.036 366.523 111.226C366.357 111.407 366.238 111.613 366.167 111.842C366.096 112.072 366.061 112.297 366.061 112.519ZM375.146 119.351C375.146 119.146 375.182 118.952 375.253 118.77C375.332 118.588 375.439 118.43 375.573 118.295C375.716 118.161 375.882 118.058 376.072 117.987C376.269 117.908 376.483 117.868 376.712 117.868C376.981 117.868 377.218 117.92 377.424 118.023C377.63 118.117 377.8 118.252 377.934 118.426C378.076 118.592 378.179 118.79 378.242 119.019C378.314 119.24 378.349 119.478 378.349 119.731C378.349 120.095 378.294 120.478 378.183 120.881C378.08 121.285 377.922 121.684 377.709 122.079C377.503 122.483 377.246 122.874 376.938 123.254C376.637 123.633 376.293 123.981 375.906 124.298L375.467 123.894C375.403 123.831 375.356 123.772 375.324 123.716C375.301 123.661 375.289 123.59 375.289 123.503C375.289 123.368 375.356 123.242 375.49 123.123C375.569 123.028 375.668 122.91 375.787 122.767C375.913 122.633 376.04 122.471 376.167 122.281C376.293 122.099 376.412 121.898 376.522 121.676C376.633 121.463 376.712 121.233 376.76 120.988H376.7C376.471 120.988 376.261 120.949 376.072 120.87C375.882 120.783 375.716 120.668 375.573 120.526C375.439 120.375 375.332 120.201 375.253 120.004C375.182 119.806 375.146 119.588 375.146 119.351ZM96.7634 136.901V149H94.2249V143.508H88.9937V149H86.4433V136.901H88.9937V141.586H94.2249V136.901H96.7634ZM107.686 149C107.441 149 107.255 148.964 107.129 148.893C107.002 148.814 106.895 148.66 106.809 148.431L106.559 147.446C106.251 147.731 105.947 147.98 105.646 148.193C105.345 148.407 105.033 148.589 104.709 148.739C104.393 148.889 104.049 149 103.677 149.071C103.313 149.15 102.91 149.19 102.467 149.19C101.977 149.19 101.518 149.123 101.091 148.988C100.672 148.854 100.308 148.652 99.9996 148.383C99.6912 148.106 99.446 147.766 99.2641 147.363C99.0902 146.96 99.0032 146.485 99.0032 145.94C99.0032 145.473 99.1257 145.018 99.3709 144.575C99.624 144.133 100.035 143.737 100.605 143.389C101.182 143.033 101.937 142.741 102.87 142.511C103.811 142.282 104.97 142.152 106.346 142.12V141.313C106.346 140.443 106.16 139.795 105.788 139.368C105.417 138.941 104.871 138.727 104.151 138.727C103.661 138.727 103.25 138.791 102.918 138.917C102.586 139.036 102.297 139.166 102.052 139.309C101.807 139.451 101.589 139.585 101.399 139.712C101.21 139.831 101.008 139.89 100.794 139.89C100.62 139.89 100.47 139.846 100.344 139.759C100.225 139.664 100.126 139.55 100.047 139.415L99.5844 138.585C100.953 137.312 102.582 136.675 104.472 136.675C105.168 136.675 105.784 136.79 106.322 137.019C106.868 137.241 107.323 137.557 107.686 137.968C108.058 138.379 108.339 138.87 108.529 139.439C108.726 140.001 108.825 140.625 108.825 141.313V149H107.686ZM103.238 147.41C103.902 147.41 104.472 147.288 104.946 147.043C105.429 146.79 105.895 146.43 106.346 145.963V143.709C105.436 143.749 104.669 143.824 104.045 143.935C103.42 144.046 102.914 144.192 102.526 144.374C102.139 144.556 101.858 144.769 101.684 145.014C101.518 145.252 101.435 145.516 101.435 145.809C101.435 146.094 101.478 146.339 101.565 146.545C101.66 146.742 101.787 146.908 101.945 147.043C102.111 147.169 102.301 147.264 102.514 147.327C102.736 147.383 102.977 147.41 103.238 147.41ZM121.065 149H118.527V144.077C117.483 144.338 116.51 144.496 115.609 144.552C114.715 144.599 113.936 144.508 113.272 144.279C112.615 144.05 112.097 143.662 111.718 143.116C111.338 142.571 111.148 141.835 111.148 140.91V136.901H113.687V140.519C113.687 141.048 113.786 141.475 113.983 141.8C114.181 142.116 114.478 142.341 114.873 142.476C115.276 142.602 115.779 142.65 116.38 142.618C116.989 142.579 117.704 142.468 118.527 142.286V136.901H121.065V149ZM124.185 149.012V136.901H126.735V144.48C126.735 144.654 126.723 144.844 126.699 145.05C126.684 145.248 126.66 145.449 126.628 145.655C126.786 145.291 126.949 144.991 127.115 144.753C127.122 144.738 127.206 144.623 127.364 144.409C127.522 144.196 127.724 143.919 127.969 143.579C128.222 143.239 128.502 142.855 128.811 142.428C129.127 141.993 129.447 141.551 129.772 141.1C130.539 140.048 131.405 138.862 132.37 137.541C132.464 137.383 132.591 137.237 132.749 137.102C132.907 136.968 133.085 136.901 133.283 136.901H134.825V149H132.275V141.42C132.275 141.262 132.283 141.084 132.298 140.886C132.314 140.689 132.338 140.487 132.37 140.281C132.29 140.455 132.211 140.617 132.132 140.768C132.053 140.91 131.974 141.037 131.895 141.147C131.879 141.163 131.792 141.282 131.634 141.503C131.484 141.717 131.282 141.993 131.029 142.333C130.784 142.673 130.503 143.061 130.187 143.496C129.871 143.923 129.55 144.362 129.226 144.813C128.459 145.864 127.597 147.051 126.64 148.371C126.545 148.522 126.419 148.668 126.26 148.81C126.102 148.945 125.924 149.012 125.727 149.012H124.185ZM148.244 136.901V149H145.705V143.508H140.474V149H137.923V136.901H140.474V141.586H145.705V136.901H148.244ZM159.166 149C158.921 149 158.735 148.964 158.609 148.893C158.482 148.814 158.376 148.66 158.289 148.431L158.04 147.446C157.731 147.731 157.427 147.98 157.126 148.193C156.826 148.407 156.513 148.589 156.189 148.739C155.873 148.889 155.529 149 155.157 149.071C154.793 149.15 154.39 149.19 153.947 149.19C153.457 149.19 152.998 149.123 152.571 148.988C152.152 148.854 151.788 148.652 151.48 148.383C151.171 148.106 150.926 147.766 150.744 147.363C150.57 146.96 150.483 146.485 150.483 145.94C150.483 145.473 150.606 145.018 150.851 144.575C151.104 144.133 151.515 143.737 152.085 143.389C152.662 143.033 153.417 142.741 154.35 142.511C155.291 142.282 156.45 142.152 157.826 142.12V141.313C157.826 140.443 157.64 139.795 157.269 139.368C156.897 138.941 156.351 138.727 155.632 138.727C155.141 138.727 154.73 138.791 154.398 138.917C154.066 139.036 153.777 139.166 153.532 139.309C153.287 139.451 153.069 139.585 152.879 139.712C152.69 139.831 152.488 139.89 152.275 139.89C152.101 139.89 151.95 139.846 151.824 139.759C151.705 139.664 151.606 139.55 151.527 139.415L151.065 138.585C152.433 137.312 154.062 136.675 155.952 136.675C156.648 136.675 157.265 136.79 157.802 137.019C158.348 137.241 158.803 137.557 159.166 137.968C159.538 138.379 159.819 138.87 160.009 139.439C160.206 140.001 160.305 140.625 160.305 141.313V149H159.166ZM154.718 147.41C155.382 147.41 155.952 147.288 156.426 147.043C156.909 146.79 157.375 146.43 157.826 145.963V143.709C156.917 143.749 156.15 143.824 155.525 143.935C154.9 144.046 154.394 144.192 154.006 144.374C153.619 144.556 153.338 144.769 153.164 145.014C152.998 145.252 152.915 145.516 152.915 145.809C152.915 146.094 152.959 146.339 153.046 146.545C153.14 146.742 153.267 146.908 153.425 147.043C153.591 147.169 153.781 147.264 153.995 147.327C154.216 147.383 154.457 147.41 154.718 147.41ZM168.358 136.711C169.101 136.711 169.789 136.833 170.422 137.078C171.055 137.316 171.6 137.668 172.059 138.134C172.518 138.601 172.874 139.174 173.127 139.854C173.388 140.526 173.518 141.294 173.518 142.156C173.518 142.551 173.475 142.816 173.388 142.95C173.301 143.085 173.142 143.152 172.913 143.152H165.143C165.175 143.84 165.282 144.437 165.464 144.943C165.646 145.441 165.887 145.857 166.187 146.189C166.496 146.521 166.859 146.77 167.279 146.936C167.706 147.094 168.18 147.173 168.702 147.173C169.2 147.173 169.631 147.118 169.995 147.007C170.359 146.889 170.675 146.762 170.944 146.628C171.213 146.485 171.442 146.359 171.632 146.248C171.822 146.129 171.996 146.07 172.154 146.07C172.36 146.07 172.518 146.149 172.628 146.307L173.352 147.244C173.051 147.6 172.711 147.901 172.332 148.146C171.952 148.391 171.549 148.593 171.122 148.751C170.695 148.901 170.256 149.008 169.805 149.071C169.354 149.142 168.916 149.178 168.488 149.178C167.65 149.178 166.871 149.04 166.152 148.763C165.44 148.478 164.819 148.063 164.289 147.517C163.767 146.972 163.356 146.295 163.056 145.489C162.763 144.682 162.617 143.753 162.617 142.701C162.617 141.863 162.747 141.08 163.008 140.352C163.277 139.625 163.657 138.992 164.147 138.454C164.645 137.917 165.246 137.494 165.95 137.185C166.662 136.869 167.464 136.711 168.358 136.711ZM168.405 138.561C167.48 138.561 166.753 138.826 166.223 139.356C165.693 139.886 165.357 140.629 165.215 141.586H171.229C171.229 141.159 171.165 140.764 171.039 140.4C170.92 140.028 170.742 139.708 170.505 139.439C170.268 139.162 169.971 138.949 169.615 138.798C169.267 138.64 168.864 138.561 168.405 138.561ZM174.431 136.901H185.913V138.822H181.453V149H178.903V138.822H174.431V136.901ZM195.917 139.273C195.838 139.376 195.763 139.455 195.692 139.51C195.621 139.566 195.518 139.593 195.384 139.593C195.249 139.593 195.107 139.546 194.957 139.451C194.814 139.356 194.64 139.253 194.435 139.143C194.237 139.024 193.996 138.917 193.711 138.822C193.426 138.727 193.071 138.68 192.643 138.68C192.09 138.68 191.604 138.779 191.184 138.976C190.773 139.174 190.425 139.459 190.141 139.831C189.864 140.194 189.654 140.641 189.512 141.171C189.377 141.693 189.31 142.282 189.31 142.938C189.31 143.619 189.385 144.223 189.536 144.753C189.686 145.283 189.899 145.73 190.176 146.094C190.461 146.458 190.801 146.734 191.196 146.924C191.6 147.114 192.05 147.209 192.549 147.209C193.039 147.209 193.438 147.149 193.747 147.031C194.055 146.912 194.312 146.782 194.518 146.639C194.723 146.497 194.897 146.367 195.04 146.248C195.19 146.129 195.348 146.07 195.514 146.07C195.72 146.07 195.878 146.149 195.989 146.307L196.712 147.244C196.42 147.6 196.095 147.901 195.74 148.146C195.384 148.391 195.008 148.593 194.613 148.751C194.217 148.901 193.806 149.008 193.379 149.071C192.952 149.142 192.521 149.178 192.086 149.178C191.335 149.178 190.631 149.04 189.974 148.763C189.326 148.478 188.757 148.071 188.266 147.541C187.784 147.003 187.4 146.351 187.116 145.584C186.839 144.809 186.701 143.927 186.701 142.938C186.701 142.045 186.827 141.218 187.08 140.459C187.333 139.692 187.701 139.032 188.183 138.478C188.674 137.925 189.279 137.494 189.998 137.185C190.718 136.869 191.548 136.711 192.489 136.711C193.367 136.711 194.138 136.853 194.802 137.138C195.475 137.422 196.072 137.826 196.594 138.348L195.917 139.273ZM207.53 149H205.098V144.042H204.398C204.169 144.042 203.979 144.061 203.829 144.101C203.679 144.14 203.548 144.196 203.437 144.267C203.335 144.338 203.24 144.425 203.153 144.528C203.074 144.631 202.994 144.745 202.915 144.872L200.65 148.11C200.484 148.411 200.286 148.636 200.057 148.786C199.835 148.929 199.499 149 199.048 149H197.293L200.555 144.599C200.855 144.077 201.274 143.721 201.812 143.532C201.227 143.445 200.729 143.294 200.318 143.081C199.906 142.867 199.574 142.618 199.321 142.333C199.068 142.049 198.882 141.74 198.764 141.408C198.653 141.068 198.598 140.732 198.598 140.4C198.598 139.965 198.681 139.538 198.847 139.119C199.021 138.7 199.293 138.328 199.665 138.004C200.037 137.672 200.515 137.407 201.1 137.209C201.694 137.003 202.405 136.901 203.236 136.901H207.53V149ZM201.148 140.519C201.148 141.112 201.358 141.578 201.777 141.918C202.204 142.258 202.777 142.428 203.497 142.428H205.098V138.585H203.307C202.896 138.585 202.552 138.644 202.275 138.763C201.998 138.882 201.777 139.036 201.611 139.226C201.444 139.407 201.326 139.613 201.255 139.842C201.184 140.072 201.148 140.297 201.148 140.519ZM225.964 134.837C225.877 134.979 225.786 135.086 225.691 135.157C225.596 135.22 225.477 135.252 225.335 135.252C225.185 135.252 225.015 135.188 224.825 135.062C224.643 134.935 224.414 134.797 224.137 134.647C223.868 134.489 223.548 134.346 223.176 134.22C222.804 134.085 222.362 134.018 221.848 134.018C221.373 134.018 220.954 134.077 220.59 134.196C220.234 134.315 219.934 134.481 219.689 134.694C219.443 134.908 219.258 135.161 219.131 135.453C219.012 135.738 218.953 136.05 218.953 136.39C218.953 136.825 219.068 137.189 219.297 137.482C219.526 137.766 219.827 138.012 220.199 138.217C220.578 138.423 221.009 138.605 221.492 138.763C221.974 138.913 222.464 139.075 222.963 139.249C223.469 139.423 223.963 139.621 224.445 139.842C224.928 140.064 225.355 140.345 225.726 140.685C226.106 141.025 226.411 141.44 226.64 141.93C226.869 142.42 226.984 143.017 226.984 143.721C226.984 144.48 226.853 145.192 226.592 145.857C226.331 146.521 225.952 147.102 225.454 147.6C224.963 148.091 224.354 148.478 223.627 148.763C222.907 149.047 222.085 149.19 221.159 149.19C220.614 149.19 220.08 149.134 219.558 149.024C219.044 148.921 218.55 148.775 218.075 148.585C217.609 148.387 217.17 148.15 216.759 147.873C216.347 147.596 215.98 147.288 215.655 146.948L216.462 145.619C216.533 145.509 216.624 145.422 216.735 145.358C216.846 145.295 216.968 145.263 217.103 145.263C217.285 145.263 217.486 145.35 217.708 145.524C217.929 145.69 218.194 145.876 218.502 146.082C218.819 146.28 219.198 146.465 219.641 146.639C220.084 146.805 220.614 146.889 221.231 146.889C222.235 146.889 223.01 146.643 223.556 146.153C224.109 145.663 224.386 144.987 224.386 144.125C224.386 143.642 224.271 143.251 224.042 142.95C223.813 142.642 223.508 142.385 223.129 142.179C222.757 141.974 222.33 141.8 221.848 141.657C221.365 141.515 220.875 141.365 220.377 141.207C219.878 141.04 219.388 140.851 218.906 140.637C218.423 140.416 217.992 140.131 217.613 139.783C217.241 139.427 216.941 138.992 216.711 138.478C216.482 137.956 216.367 137.308 216.367 136.533C216.367 135.916 216.486 135.319 216.723 134.742C216.968 134.164 217.32 133.654 217.779 133.211C218.245 132.761 218.819 132.401 219.499 132.132C220.179 131.863 220.954 131.729 221.824 131.729C222.804 131.729 223.702 131.883 224.517 132.191C225.339 132.5 226.047 132.939 226.64 133.508L225.964 134.837ZM229.323 149V131.444H231.873V138.336C232.371 137.846 232.917 137.454 233.51 137.162C234.103 136.861 234.795 136.711 235.586 136.711C236.25 136.711 236.832 136.821 237.33 137.043C237.836 137.264 238.259 137.577 238.599 137.98C238.947 138.383 239.208 138.87 239.382 139.439C239.556 140.001 239.643 140.621 239.643 141.301V149H237.104V141.301C237.104 140.487 236.915 139.854 236.535 139.403C236.163 138.953 235.594 138.727 234.827 138.727C234.257 138.727 233.728 138.858 233.237 139.119C232.755 139.38 232.3 139.736 231.873 140.186V149H229.323ZM250.427 149C250.182 149 249.996 148.964 249.869 148.893C249.743 148.814 249.636 148.66 249.549 148.431L249.3 147.446C248.991 147.731 248.687 147.98 248.386 148.193C248.086 148.407 247.774 148.589 247.449 148.739C247.133 148.889 246.789 149 246.417 149.071C246.054 149.15 245.65 149.19 245.207 149.19C244.717 149.19 244.258 149.123 243.831 148.988C243.412 148.854 243.048 148.652 242.74 148.383C242.432 148.106 242.186 147.766 242.005 147.363C241.831 146.96 241.744 146.485 241.744 145.94C241.744 145.473 241.866 145.018 242.111 144.575C242.364 144.133 242.776 143.737 243.345 143.389C243.922 143.033 244.678 142.741 245.611 142.511C246.552 142.282 247.71 142.152 249.086 142.12V141.313C249.086 140.443 248.9 139.795 248.529 139.368C248.157 138.941 247.611 138.727 246.892 138.727C246.401 138.727 245.99 138.791 245.658 138.917C245.326 139.036 245.037 139.166 244.792 139.309C244.547 139.451 244.33 139.585 244.14 139.712C243.95 139.831 243.748 139.89 243.535 139.89C243.361 139.89 243.211 139.846 243.084 139.759C242.965 139.664 242.867 139.55 242.787 139.415L242.325 138.585C243.693 137.312 245.322 136.675 247.212 136.675C247.908 136.675 248.525 136.79 249.063 137.019C249.608 137.241 250.063 137.557 250.427 137.968C250.798 138.379 251.079 138.87 251.269 139.439C251.467 140.001 251.566 140.625 251.566 141.313V149H250.427ZM245.978 147.41C246.643 147.41 247.212 147.288 247.687 147.043C248.169 146.79 248.636 146.43 249.086 145.963V143.709C248.177 143.749 247.41 143.824 246.785 143.935C246.16 144.046 245.654 144.192 245.267 144.374C244.879 144.556 244.598 144.769 244.424 145.014C244.258 145.252 244.175 145.516 244.175 145.809C244.175 146.094 244.219 146.339 244.306 146.545C244.401 146.742 244.527 146.908 244.685 147.043C244.851 147.169 245.041 147.264 245.255 147.327C245.476 147.383 245.717 147.41 245.978 147.41ZM254.553 149V136.901H256.095C256.443 136.901 256.665 137.063 256.759 137.387L256.937 138.514C257.19 138.245 257.455 138 257.732 137.778C258.017 137.557 258.317 137.367 258.634 137.209C258.95 137.051 259.286 136.928 259.642 136.841C260.006 136.754 260.397 136.711 260.816 136.711C261.481 136.711 262.062 136.821 262.56 137.043C263.066 137.264 263.489 137.577 263.829 137.98C264.177 138.383 264.438 138.87 264.612 139.439C264.786 140.001 264.873 140.621 264.873 141.301V149H262.335V141.301C262.335 140.487 262.145 139.854 261.765 139.403C261.394 138.953 260.824 138.727 260.057 138.727C259.488 138.727 258.958 138.858 258.468 139.119C257.985 139.38 257.531 139.736 257.103 140.186V149H254.553ZM276.582 149C276.242 149 276.025 148.838 275.93 148.514L275.705 147.209C275.451 147.501 275.183 147.77 274.898 148.015C274.613 148.253 274.305 148.458 273.973 148.632C273.648 148.806 273.3 148.941 272.929 149.036C272.557 149.13 272.158 149.178 271.731 149.178C271.051 149.178 270.434 149.043 269.88 148.775C269.327 148.498 268.852 148.098 268.457 147.577C268.061 147.055 267.753 146.41 267.531 145.643C267.318 144.868 267.211 143.982 267.211 142.986C267.211 142.084 267.33 141.25 267.567 140.483C267.812 139.716 268.16 139.052 268.611 138.49C269.062 137.921 269.607 137.478 270.248 137.162C270.896 136.837 271.62 136.675 272.419 136.675C273.13 136.675 273.735 136.79 274.234 137.019C274.732 137.241 275.179 137.553 275.574 137.956V131.444H278.124V149H276.582ZM272.585 147.126C273.233 147.126 273.791 146.987 274.257 146.711C274.724 146.434 275.163 146.034 275.574 145.513V139.878C275.21 139.427 274.815 139.111 274.388 138.929C273.969 138.739 273.51 138.644 273.012 138.644C272.015 138.644 271.236 139.012 270.675 139.747C270.113 140.475 269.833 141.554 269.833 142.986C269.833 143.729 269.896 144.366 270.023 144.896C270.149 145.418 270.331 145.845 270.568 146.177C270.805 146.509 271.094 146.75 271.434 146.9C271.774 147.051 272.158 147.126 272.585 147.126ZM283.9 136.901V149H281.35V136.901H283.9ZM284.327 133.247C284.327 133.476 284.28 133.694 284.185 133.899C284.098 134.105 283.975 134.287 283.817 134.445C283.659 134.595 283.473 134.718 283.26 134.813C283.054 134.9 282.833 134.943 282.595 134.943C282.366 134.943 282.149 134.9 281.943 134.813C281.745 134.718 281.571 134.595 281.421 134.445C281.271 134.287 281.148 134.105 281.053 133.899C280.966 133.694 280.923 133.476 280.923 133.247C280.923 133.01 280.966 132.788 281.053 132.583C281.148 132.377 281.271 132.199 281.421 132.049C281.571 131.891 281.745 131.768 281.943 131.681C282.149 131.586 282.366 131.539 282.595 131.539C282.833 131.539 283.054 131.586 283.26 131.681C283.473 131.768 283.659 131.891 283.817 132.049C283.975 132.199 284.098 132.377 284.185 132.583C284.28 132.788 284.327 133.01 284.327 133.247ZM287.105 149V136.901H288.647C288.995 136.901 289.216 137.063 289.311 137.387L289.489 138.514C289.742 138.245 290.007 138 290.284 137.778C290.568 137.557 290.869 137.367 291.185 137.209C291.502 137.051 291.838 136.928 292.194 136.841C292.557 136.754 292.949 136.711 293.368 136.711C294.032 136.711 294.613 136.821 295.112 137.043C295.618 137.264 296.041 137.577 296.381 137.98C296.729 138.383 296.99 138.87 297.164 139.439C297.338 140.001 297.425 140.621 297.425 141.301V149H294.886V141.301C294.886 140.487 294.696 139.854 294.317 139.403C293.945 138.953 293.376 138.727 292.609 138.727C292.039 138.727 291.51 138.858 291.019 139.119C290.537 139.38 290.082 139.736 289.655 140.186V149H287.105ZM304.721 136.687C305.243 136.687 305.729 136.746 306.18 136.865C306.639 136.976 307.058 137.134 307.438 137.339H310.83V138.288C310.83 138.605 310.64 138.798 310.261 138.87L309.051 139.071C309.257 139.546 309.359 140.056 309.359 140.602C309.359 141.195 309.241 141.732 309.003 142.215C308.774 142.697 308.454 143.108 308.043 143.448C307.631 143.789 307.141 144.05 306.572 144.231C306.002 144.413 305.385 144.504 304.721 144.504C304.468 144.504 304.219 144.492 303.974 144.469C303.737 144.437 303.503 144.397 303.274 144.35C303.045 144.484 302.875 144.627 302.764 144.777C302.653 144.927 302.598 145.082 302.598 145.24C302.598 145.501 302.713 145.694 302.942 145.821C303.171 145.947 303.472 146.038 303.843 146.094C304.223 146.149 304.654 146.185 305.136 146.201C305.619 146.216 306.109 146.244 306.607 146.284C307.105 146.323 307.596 146.39 308.078 146.485C308.561 146.572 308.988 146.722 309.359 146.936C309.739 147.142 310.043 147.422 310.273 147.778C310.502 148.134 310.617 148.597 310.617 149.166C310.617 149.688 310.486 150.198 310.225 150.696C309.964 151.195 309.585 151.637 309.086 152.025C308.596 152.412 307.995 152.721 307.283 152.95C306.572 153.187 305.761 153.306 304.852 153.306C303.95 153.306 303.163 153.219 302.491 153.045C301.827 152.871 301.269 152.634 300.819 152.333C300.376 152.041 300.044 151.701 299.822 151.313C299.609 150.926 299.502 150.522 299.502 150.103C299.502 149.534 299.68 149.047 300.036 148.644C300.399 148.241 300.89 147.924 301.507 147.695C301.174 147.537 300.906 147.32 300.7 147.043C300.502 146.766 300.403 146.402 300.403 145.951C300.403 145.777 300.435 145.596 300.498 145.406C300.562 145.216 300.656 145.03 300.783 144.848C300.917 144.658 301.079 144.48 301.269 144.314C301.467 144.148 301.696 143.998 301.957 143.864C301.356 143.532 300.882 143.089 300.534 142.535C300.194 141.982 300.024 141.337 300.024 140.602C300.024 140.001 300.138 139.459 300.368 138.976C300.605 138.494 300.933 138.083 301.352 137.743C301.771 137.403 302.266 137.142 302.835 136.96C303.412 136.778 304.041 136.687 304.721 136.687ZM308.268 149.593C308.268 149.332 308.189 149.123 308.031 148.964C307.88 148.798 307.675 148.668 307.414 148.573C307.153 148.478 306.845 148.411 306.489 148.371C306.141 148.332 305.773 148.3 305.385 148.276C304.998 148.253 304.599 148.233 304.187 148.217C303.776 148.193 303.381 148.154 303.001 148.098C302.622 148.296 302.313 148.533 302.076 148.81C301.839 149.087 301.72 149.407 301.72 149.771C301.72 150.008 301.779 150.23 301.898 150.435C302.025 150.641 302.214 150.819 302.467 150.969C302.728 151.119 303.057 151.238 303.452 151.325C303.855 151.412 304.338 151.455 304.899 151.455C306.022 151.455 306.864 151.281 307.426 150.934C307.987 150.586 308.268 150.139 308.268 149.593ZM304.721 142.844C305.512 142.844 306.105 142.642 306.501 142.239C306.896 141.835 307.094 141.309 307.094 140.661C307.094 139.997 306.896 139.471 306.501 139.083C306.105 138.696 305.512 138.502 304.721 138.502C303.938 138.502 303.345 138.696 302.942 139.083C302.546 139.471 302.349 139.997 302.349 140.661C302.349 140.977 302.4 141.27 302.503 141.539C302.606 141.808 302.756 142.041 302.954 142.239C303.151 142.428 303.397 142.579 303.689 142.689C303.99 142.792 304.334 142.844 304.721 142.844Z" fill="white"></path></svg> 