<?xml version="1.0" encoding="UTF-8"?> <svg xmlns="http://www.w3.org/2000/svg" width="180" height="33" viewBox="0 0 180 33" fill="none"><path d="M75.429 9.76754C75.3218 9.94659 75.2097 10.0809 75.0928 10.1704C74.9759 10.25 74.8297 10.2898 74.6543 10.2898C74.4692 10.2898 74.2597 10.2102 74.0258 10.051C73.8017 9.89188 73.5191 9.7178 73.178 9.52879C72.8467 9.32984 72.4521 9.15078 71.9941 8.99162C71.5361 8.82251 70.9904 8.73796 70.3571 8.73796C69.7724 8.73796 69.256 8.81256 68.8077 8.96178C68.3692 9.11099 67.999 9.31989 67.6969 9.58848C67.3948 9.85706 67.1658 10.1754 67.0099 10.5435C66.8637 10.9016 66.7907 11.2945 66.7907 11.7222C66.7907 12.2694 66.932 12.727 67.2145 13.095C67.4971 13.4531 67.8674 13.7615 68.3254 14.0202C68.7931 14.2788 69.3242 14.5076 69.9186 14.7065C70.513 14.8955 71.1171 15.0995 71.731 15.3183C72.3546 15.5372 72.9637 15.7859 73.5581 16.0644C74.1525 16.3429 74.6787 16.6961 75.1366 17.1238C75.6044 17.5516 75.9795 18.0738 76.2621 18.6906C76.5447 19.3073 76.686 20.0584 76.686 20.9437C76.686 21.8987 76.5252 22.794 76.2036 23.6296C75.8821 24.4652 75.4143 25.1963 74.8005 25.823C74.1963 26.4398 73.446 26.9272 72.5495 27.2853C71.6628 27.6434 70.6494 27.8225 69.5093 27.8225C68.837 27.8225 68.1792 27.7529 67.5361 27.6136C66.9027 27.4843 66.2937 27.3002 65.709 27.0615C65.1341 26.8128 64.5933 26.5144 64.0866 26.1662C63.5799 25.818 63.1268 25.4301 62.7273 25.0023L63.7212 23.3311C63.8089 23.1919 63.921 23.0824 64.0574 23.0029C64.1938 22.9233 64.3448 22.8835 64.5105 22.8835C64.7346 22.8835 64.9831 22.9929 65.2559 23.2118C65.5288 23.4207 65.8552 23.6544 66.2352 23.9131C66.625 24.1618 67.0927 24.3955 67.6384 24.6144C68.1841 24.8233 68.837 24.9277 69.597 24.9277C70.8345 24.9277 71.7895 24.6194 72.4618 24.0026C73.1439 23.3859 73.485 22.5353 73.485 21.451C73.485 20.8442 73.3437 20.3518 73.0611 19.9738C72.7785 19.5859 72.4034 19.2626 71.9356 19.0039C71.4777 18.7453 70.9515 18.5264 70.3571 18.3474C69.7627 18.1683 69.1585 17.9793 68.5446 17.7804C67.9307 17.5715 67.3266 17.3327 66.7322 17.0641C66.1378 16.7856 65.6067 16.4275 65.139 15.9898C64.681 15.5421 64.3107 14.995 64.0282 14.3484C63.7456 13.6919 63.6043 12.8762 63.6043 11.9013C63.6043 11.1254 63.7504 10.3743 64.0428 9.64816C64.3448 8.92199 64.7785 8.28036 65.3436 7.7233C65.9185 7.15628 66.625 6.70366 67.463 6.36544C68.301 6.02722 69.256 5.85811 70.3278 5.85811C71.5361 5.85811 72.6421 6.05209 73.6458 6.44005C74.6592 6.82801 75.5313 7.3801 76.2621 8.09633L75.429 9.76754Z" fill="white"></path><path d="M79.5679 27.5838V5.5H82.7105V14.1694C83.3243 13.5526 83.9967 13.0602 84.7275 12.6921C85.4583 12.3141 86.311 12.1251 87.2854 12.1251C88.1039 12.1251 88.8201 12.2644 89.434 12.5429C90.0576 12.8215 90.579 13.2144 90.998 13.7217C91.4267 14.2291 91.7483 14.8408 91.9627 15.5571C92.177 16.2633 92.2842 17.0442 92.2842 17.8997V27.5838H89.1563V17.8997C89.1563 16.8751 88.9224 16.0793 88.4547 15.5123C87.9967 14.9453 87.2951 14.6618 86.3499 14.6618C85.6484 14.6618 84.9955 14.8259 84.3913 15.1542C83.7969 15.4825 83.2366 15.9301 82.7105 16.4971V27.5838H79.5679Z" fill="white"></path><path d="M105.572 27.5838C105.27 27.5838 105.041 27.539 104.885 27.4495C104.729 27.35 104.597 27.156 104.49 26.8675L104.183 25.629C103.803 25.9872 103.428 26.3005 103.058 26.5691C102.688 26.8377 102.303 27.0665 101.903 27.2555C101.513 27.4445 101.09 27.5838 100.632 27.6733C100.183 27.7728 99.6864 27.8225 99.1407 27.8225C98.5365 27.8225 97.9714 27.7379 97.4452 27.5688C96.9287 27.3997 96.4805 27.1461 96.1005 26.8078C95.7204 26.4597 95.4184 26.0319 95.1942 25.5246C94.9799 25.0173 94.8727 24.4204 94.8727 23.734C94.8727 23.1471 95.0237 22.5751 95.3258 22.0181C95.6376 21.461 96.1443 20.9636 96.8459 20.5259C97.5572 20.0783 98.4878 19.7102 99.6376 19.4217C100.797 19.1332 102.225 18.9691 103.92 18.9293V17.9147C103.92 16.8204 103.691 16.0047 103.233 15.4675C102.775 14.9304 102.103 14.6618 101.216 14.6618C100.612 14.6618 100.105 14.7414 99.6961 14.9005C99.2868 15.0497 98.9312 15.2139 98.6291 15.3929C98.327 15.572 98.0591 15.7411 97.8252 15.9003C97.5913 16.0495 97.3429 16.1241 97.0798 16.1241C96.8654 16.1241 96.6803 16.0694 96.5243 15.9599C96.3782 15.8406 96.2564 15.6963 96.1589 15.5272L95.5889 14.4827C97.2747 12.8811 99.282 12.0804 101.611 12.0804C102.468 12.0804 103.228 12.2246 103.891 12.5131C104.563 12.7916 105.124 13.1895 105.572 13.7068C106.03 14.2241 106.376 14.8408 106.61 15.5571C106.853 16.2633 106.975 17.0492 106.975 17.9147V27.5838H105.572ZM100.091 25.5843C100.909 25.5843 101.611 25.4301 102.196 25.1217C102.79 24.8034 103.365 24.3508 103.92 23.7639V20.9288C102.8 20.9785 101.854 21.073 101.085 21.2123C100.315 21.3516 99.6912 21.5356 99.2138 21.7644C98.7363 21.9932 98.3904 22.2618 98.176 22.5701C97.9714 22.8686 97.8691 23.2018 97.8691 23.5699C97.8691 23.928 97.9226 24.2364 98.0298 24.495C98.1468 24.7437 98.3027 24.9526 98.4976 25.1217C98.7022 25.2809 98.9361 25.4002 99.1991 25.4798C99.472 25.5495 99.7692 25.5843 100.091 25.5843Z" fill="white"></path><path d="M110.656 27.5838V12.3639H112.557C112.985 12.3639 113.258 12.5678 113.375 12.9756L113.594 14.3932C113.906 14.055 114.233 13.7466 114.574 13.4681C114.924 13.1895 115.295 12.9508 115.684 12.7518C116.074 12.5529 116.488 12.3987 116.927 12.2893C117.375 12.1798 117.857 12.1251 118.374 12.1251C119.192 12.1251 119.909 12.2644 120.522 12.5429C121.146 12.8215 121.667 13.2144 122.086 13.7217C122.515 14.2291 122.837 14.8408 123.051 15.5571C123.265 16.2633 123.373 17.0442 123.373 17.8997V27.5838H120.245V17.8997C120.245 16.8751 120.011 16.0793 119.543 15.5123C119.085 14.9453 118.384 14.6618 117.438 14.6618C116.737 14.6618 116.084 14.8259 115.48 15.1542C114.885 15.4825 114.325 15.9301 113.799 16.4971V27.5838H110.656Z" fill="white"></path><path d="M137.8 27.5838C137.381 27.5838 137.113 27.3798 136.997 26.972L136.719 25.3306C136.407 25.6987 136.076 26.0369 135.725 26.3453C135.374 26.6437 134.994 26.9023 134.585 27.1212C134.185 27.34 133.757 27.5091 133.299 27.6285C132.841 27.7479 132.349 27.8076 131.822 27.8076C130.984 27.8076 130.224 27.6385 129.542 27.3002C128.86 26.9521 128.275 26.4497 127.788 25.7932C127.301 25.1366 126.921 24.3259 126.648 23.361C126.385 22.3861 126.253 21.272 126.253 20.0186C126.253 18.8845 126.4 17.8351 126.692 16.8701C126.994 15.9052 127.423 15.0696 127.978 14.3633C128.534 13.6471 129.206 13.09 129.995 12.6921C130.794 12.2843 131.686 12.0804 132.67 12.0804C133.547 12.0804 134.292 12.2246 134.906 12.5131C135.52 12.7916 136.071 13.1845 136.558 13.6919V5.5H139.701V27.5838H137.8ZM132.875 25.2262C133.674 25.2262 134.361 25.0521 134.936 24.7039C135.511 24.3557 136.051 23.8534 136.558 23.1968V16.1092C136.11 15.5421 135.623 15.1442 135.096 14.9154C134.58 14.6767 134.015 14.5573 133.401 14.5573C132.173 14.5573 131.213 15.0199 130.521 15.945C129.83 16.8602 129.484 18.2181 129.484 20.0186C129.484 20.9537 129.562 21.7544 129.718 22.4209C129.873 23.0775 130.098 23.6146 130.39 24.0324C130.682 24.4502 131.038 24.7537 131.457 24.9427C131.876 25.1317 132.349 25.2262 132.875 25.2262Z" fill="white"></path><path d="M146.817 12.3639V27.5838H143.675V12.3639H146.817ZM147.344 7.76806C147.344 8.05654 147.285 8.3301 147.168 8.58874C147.061 8.84738 146.91 9.07617 146.715 9.27513C146.52 9.46413 146.291 9.61832 146.028 9.73769C145.775 9.84712 145.502 9.90183 145.21 9.90183C144.927 9.90183 144.659 9.84712 144.406 9.73769C144.162 9.61832 143.948 9.46413 143.763 9.27513C143.577 9.07617 143.426 8.84738 143.309 8.58874C143.202 8.3301 143.149 8.05654 143.149 7.76806C143.149 7.46963 143.202 7.1911 143.309 6.93246C143.426 6.67382 143.577 6.45 143.763 6.26099C143.948 6.06204 144.162 5.90785 144.406 5.79843C144.659 5.67906 144.927 5.61937 145.21 5.61937C145.502 5.61937 145.775 5.67906 146.028 5.79843C146.291 5.90785 146.52 6.06204 146.715 6.26099C146.91 6.45 147.061 6.67382 147.168 6.93246C147.285 7.1911 147.344 7.46963 147.344 7.76806Z" fill="white"></path><path d="M150.766 27.5838V12.3639H152.666C153.095 12.3639 153.368 12.5678 153.485 12.9756L153.704 14.3932C154.016 14.055 154.342 13.7466 154.683 13.4681C155.034 13.1895 155.404 12.9508 155.794 12.7518C156.184 12.5529 156.598 12.3987 157.036 12.2893C157.485 12.1798 157.967 12.1251 158.483 12.1251C159.302 12.1251 160.018 12.2644 160.632 12.5429C161.256 12.8215 161.777 13.2144 162.196 13.7217C162.625 14.2291 162.946 14.8408 163.161 15.5571C163.375 16.2633 163.482 17.0442 163.482 17.8997V27.5838H160.354V17.8997C160.354 16.8751 160.12 16.0793 159.653 15.5123C159.195 14.9453 158.493 14.6618 157.548 14.6618C156.846 14.6618 156.193 14.8259 155.589 15.1542C154.995 15.4825 154.435 15.9301 153.908 16.4971V27.5838H150.766Z" fill="white"></path><path d="M172.473 12.0953C173.116 12.0953 173.715 12.1699 174.27 12.3191C174.836 12.4584 175.352 12.6573 175.82 12.916H180V14.1097C180 14.5076 179.766 14.7513 179.299 14.8408L177.808 15.0945C178.061 15.6914 178.188 16.333 178.188 17.0194C178.188 17.7654 178.041 18.4419 177.749 19.0487C177.467 19.6555 177.072 20.1728 176.565 20.6005C176.059 21.0283 175.454 21.3565 174.753 21.5853C174.051 21.8141 173.291 21.9285 172.473 21.9285C172.161 21.9285 171.854 21.9136 171.552 21.8838C171.259 21.844 170.972 21.7942 170.689 21.7345C170.407 21.9037 170.197 22.0827 170.061 22.2717C169.925 22.4607 169.856 22.6547 169.856 22.8537C169.856 23.1819 169.998 23.4256 170.28 23.5848C170.563 23.744 170.933 23.8584 171.391 23.928C171.859 23.9976 172.39 24.0424 172.984 24.0623C173.579 24.0822 174.183 24.117 174.797 24.1667C175.411 24.2165 176.015 24.301 176.609 24.4204C177.203 24.5298 177.73 24.7188 178.188 24.9874C178.655 25.2461 179.031 25.5992 179.313 26.0468C179.596 26.4945 179.737 27.0764 179.737 27.7927C179.737 28.4492 179.576 29.0908 179.255 29.7175C178.933 30.3442 178.465 30.9013 177.851 31.3887C177.247 31.8762 176.507 32.2641 175.63 32.5526C174.753 32.851 173.754 33.0002 172.633 33.0002C171.523 33.0002 170.553 32.8908 169.725 32.672C168.906 32.4531 168.219 32.1547 167.664 31.7767C167.118 31.4086 166.709 30.9809 166.436 30.4934C166.173 30.006 166.041 29.4987 166.041 28.9714C166.041 28.2552 166.261 27.6434 166.699 27.1361C167.147 26.6288 167.752 26.2309 168.512 25.9424C168.102 25.7434 167.771 25.4699 167.518 25.1217C167.274 24.7735 167.152 24.316 167.152 23.7489C167.152 23.5301 167.191 23.3013 167.269 23.0626C167.347 22.8238 167.464 22.59 167.62 22.3612C167.786 22.1225 167.985 21.8987 168.219 21.6898C168.463 21.4809 168.745 21.2919 169.067 21.1228C168.326 20.705 167.742 20.1479 167.313 19.4516C166.894 18.7552 166.685 17.9445 166.685 17.0194C166.685 16.2633 166.826 15.5819 167.108 14.9751C167.401 14.3683 167.805 13.851 168.322 13.4233C168.838 12.9955 169.447 12.6673 170.149 12.4385C170.86 12.2097 171.635 12.0953 172.473 12.0953ZM176.843 28.3298C176.843 28.0016 176.746 27.7379 176.551 27.539C176.365 27.3301 176.112 27.166 175.791 27.0466C175.469 26.9272 175.089 26.8427 174.65 26.7929C174.222 26.7432 173.769 26.7034 173.291 26.6735C172.814 26.6437 172.322 26.6188 171.815 26.5989C171.308 26.5691 170.821 26.5194 170.353 26.4497C169.886 26.6984 169.506 26.9968 169.213 27.345C168.921 27.6932 168.775 28.0961 168.775 28.5536C168.775 28.8521 168.848 29.1306 168.994 29.3892C169.15 29.6479 169.384 29.8717 169.696 30.0607C170.017 30.2497 170.421 30.3989 170.909 30.5084C171.406 30.6178 172 30.6725 172.692 30.6725C174.076 30.6725 175.113 30.4536 175.805 30.016C176.497 29.5783 176.843 29.0162 176.843 28.3298ZM172.473 19.8395C173.447 19.8395 174.178 19.5859 174.665 19.0785C175.152 18.5712 175.396 17.9097 175.396 17.094C175.396 16.2584 175.152 15.5969 174.665 15.1094C174.178 14.622 173.447 14.3783 172.473 14.3783C171.508 14.3783 170.777 14.622 170.28 15.1094C169.793 15.5969 169.549 16.2584 169.549 17.094C169.549 17.4919 169.613 17.8599 169.739 18.1982C169.866 18.5364 170.051 18.8298 170.295 19.0785C170.538 19.3173 170.84 19.5063 171.201 19.6455C171.571 19.7749 171.995 19.8395 172.473 19.8395Z" fill="white"></path><path d="M54.2286 27.9955L33.3125 0L21.1586 16.2677L14.9595 7.97257L0 27.9955H12.3963L21.1586 16.2677L29.919 27.9955H54.2286Z" fill="white"></path></svg> 