<?xml version="1.0" encoding="UTF-8"?> <svg xmlns="http://www.w3.org/2000/svg" width="291" height="25" viewBox="0 0 291 25" fill="none"><rect x="0.5" y="0.5" width="108.788" height="24" rx="12" fill="white"></rect><rect x="0.5" y="0.5" width="108.788" height="24" rx="12" stroke="black"></rect><g clip-path="url(#clip0_116_5)"><path d="M21.6603 7.3981L21.6695 7.39861L21.6776 7.39912L21.72 7.40167L21.7256 7.40269H21.7312L21.7506 7.40728L21.7771 7.41137L21.7853 7.41443L21.7909 7.41494L21.8057 7.42055L21.8322 7.42769L21.8419 7.43228L21.8495 7.43432L21.8638 7.44147L21.8842 7.45014L21.895 7.45626L21.9062 7.46136L21.9179 7.46902L21.9337 7.47769L21.9511 7.48993L21.9603 7.49554L21.9669 7.50167L21.9791 7.51034L21.9985 7.52768L22.0097 7.53636L22.0138 7.54146L22.021 7.54758L22.0393 7.5685L22.0526 7.58227L22.0557 7.58686C22.1169 7.66186 22.1557 7.75114 22.1669 7.84858L22.1674 7.8547L22.1684 7.87562L22.1704 7.90827V10.9693H24.7213C24.8107 10.9693 24.8986 10.9927 24.976 11.0374C25.0535 11.082 25.1179 11.1462 25.1628 11.2235C25.2076 11.3009 25.2313 11.3887 25.2316 11.4781C25.2318 11.5675 25.2086 11.6554 25.1641 11.733L25.1335 11.7794L21.0522 17.3913C20.7624 17.7907 20.1298 17.5851 20.1298 17.0913V14.0303H17.5789C17.4895 14.0303 17.4017 14.0068 17.3242 13.9622C17.2467 13.9176 17.1823 13.8534 17.1375 13.776C17.0926 13.6987 17.0689 13.6109 17.0686 13.5215C17.0684 13.4321 17.0917 13.3442 17.1361 13.2666L17.1667 13.2201L21.2481 7.60829L21.2532 7.60166L21.2623 7.58941L21.2792 7.57003L21.2884 7.5588L21.293 7.55472L21.2996 7.54758L21.32 7.52922L21.3343 7.51595L21.3384 7.51289C21.3982 7.46395 21.4683 7.42924 21.5434 7.41137L21.5491 7.41086L21.5628 7.40831L21.6006 7.40167L21.6062 7.40116L21.6271 7.40014L21.6603 7.3981Z" fill="#094A8A"></path></g><path d="M33.6214 13.046L33.2554 16.022H34.6954C35.0074 16.022 35.2774 15.982 35.5054 15.902C35.7334 15.818 35.9214 15.7 36.0694 15.548C36.2214 15.396 36.3334 15.212 36.4054 14.996C36.4814 14.776 36.5194 14.528 36.5194 14.252C36.5194 14.064 36.4914 13.896 36.4354 13.748C36.3834 13.596 36.2974 13.468 36.1774 13.364C36.0614 13.26 35.9114 13.182 35.7274 13.13C35.5434 13.074 35.3234 13.046 35.0674 13.046H33.6214ZM34.0714 9.356L33.7414 12.068H35.1874C35.6354 12.068 36.0214 12.12 36.3454 12.224C36.6694 12.324 36.9354 12.464 37.1434 12.644C37.3554 12.824 37.5094 13.038 37.6054 13.286C37.7054 13.534 37.7554 13.802 37.7554 14.09C37.7554 14.53 37.6814 14.928 37.5334 15.284C37.3894 15.64 37.1794 15.946 36.9034 16.202C36.6314 16.458 36.2994 16.656 35.9074 16.796C35.5154 16.932 35.0714 17 34.5754 17H31.9054L32.9614 8.384H38.1934L38.0734 9.356H34.0714ZM45.6001 10.904L44.8681 17H43.7041L44.4361 10.904H45.6001ZM39.8401 15.602C39.8201 15.786 39.8781 15.942 40.0141 16.07C40.1541 16.198 40.3641 16.262 40.6441 16.262C40.8521 16.262 41.0501 16.208 41.2381 16.1C41.4261 15.992 41.5901 15.854 41.7301 15.686C41.8701 15.514 41.9821 15.322 42.0661 15.11C42.1501 14.894 42.1921 14.68 42.1921 14.468C42.1921 14.356 42.1801 14.25 42.1561 14.15C42.1321 14.05 42.0921 13.962 42.0361 13.886C41.9841 13.81 41.9121 13.75 41.8201 13.706C41.7321 13.658 41.6201 13.634 41.4841 13.634C41.3041 13.634 41.1221 13.684 40.9381 13.784C40.7581 13.884 40.5921 14.014 40.4401 14.174C40.2921 14.334 40.1661 14.516 40.0621 14.72C39.9581 14.92 39.8941 15.122 39.8701 15.326L39.8401 15.602ZM40.0501 13.826C40.1741 13.67 40.3101 13.53 40.4581 13.406C40.6061 13.278 40.7601 13.17 40.9201 13.082C41.0801 12.994 41.2401 12.926 41.4001 12.878C41.5641 12.83 41.7221 12.806 41.8741 12.806C42.0901 12.806 42.2841 12.842 42.4561 12.914C42.6321 12.986 42.7801 13.088 42.9001 13.22C43.0201 13.348 43.1121 13.504 43.1761 13.688C43.2441 13.872 43.2781 14.076 43.2781 14.3C43.2781 14.672 43.1981 15.028 43.0381 15.368C42.8781 15.704 42.6601 16 42.3841 16.256C42.1121 16.508 41.7961 16.71 41.4361 16.862C41.0761 17.01 40.6961 17.084 40.2961 17.084C39.7121 17.084 39.2881 16.944 39.0241 16.664C38.7601 16.38 38.6561 15.996 38.7121 15.512L39.2641 10.904H40.4101L40.0501 13.826ZM51.0099 15.908C50.8059 16.136 50.6099 16.326 50.4219 16.478C50.2339 16.63 50.0439 16.752 49.8519 16.844C49.6639 16.932 49.4679 16.994 49.2639 17.03C49.0639 17.066 48.8439 17.084 48.6039 17.084C48.2519 17.084 47.9379 17.024 47.6619 16.904C47.3899 16.784 47.1599 16.614 46.9719 16.394C46.7879 16.174 46.6479 15.91 46.5519 15.602C46.4559 15.294 46.4079 14.952 46.4079 14.576C46.4079 14.248 46.4419 13.928 46.5099 13.616C46.5819 13.3 46.6839 13.004 46.8159 12.728C46.9479 12.448 47.1079 12.192 47.2959 11.96C47.4839 11.724 47.6939 11.522 47.9259 11.354C48.1579 11.182 48.4099 11.05 48.6819 10.958C48.9579 10.862 49.2499 10.814 49.5579 10.814C49.9619 10.814 50.2999 10.886 50.5719 11.03C50.8479 11.174 51.0899 11.384 51.2979 11.66L50.9319 12.104C50.8999 12.136 50.8639 12.164 50.8239 12.188C50.7879 12.212 50.7479 12.224 50.7039 12.224C50.6479 12.224 50.5919 12.2 50.5359 12.152C50.4799 12.104 50.4099 12.052 50.3259 11.996C50.2419 11.936 50.1359 11.882 50.0079 11.834C49.8839 11.786 49.7239 11.762 49.5279 11.762C49.2639 11.762 49.0139 11.834 48.7779 11.978C48.5419 12.118 48.3359 12.314 48.1599 12.566C47.9839 12.818 47.8439 13.116 47.7399 13.46C47.6359 13.804 47.5839 14.178 47.5839 14.582C47.5839 14.822 47.6119 15.04 47.6679 15.236C47.7239 15.432 47.8039 15.598 47.9079 15.734C48.0159 15.87 48.1479 15.976 48.3039 16.052C48.4639 16.124 48.6459 16.16 48.8499 16.16C49.0219 16.16 49.1739 16.142 49.3059 16.106C49.4419 16.07 49.5599 16.026 49.6599 15.974C49.7639 15.922 49.8559 15.864 49.9359 15.8C50.0159 15.736 50.0879 15.678 50.1519 15.626C50.2159 15.574 50.2759 15.53 50.3319 15.494C50.3879 15.458 50.4439 15.44 50.4999 15.44C50.5799 15.44 50.6519 15.476 50.7159 15.548L51.0099 15.908ZM51.8571 17L52.5951 10.892H53.1831C53.3111 10.892 53.4091 10.924 53.4771 10.988C53.5451 11.052 53.5791 11.152 53.5791 11.288L53.5071 12.266C53.7991 11.786 54.1191 11.424 54.4671 11.18C54.8151 10.936 55.1831 10.814 55.5711 10.814C55.9711 10.814 56.2711 10.95 56.4711 11.222C56.6751 11.494 56.7811 11.888 56.7891 12.404C57.0891 11.86 57.4231 11.46 57.7911 11.204C58.1631 10.944 58.5591 10.814 58.9791 10.814C59.5031 10.814 59.8771 11.012 60.1011 11.408C60.3251 11.804 60.3911 12.374 60.2991 13.118L59.8431 17H58.6911L59.1471 13.118C59.2031 12.662 59.1891 12.326 59.1051 12.11C59.0211 11.894 58.8391 11.786 58.5591 11.786C58.3911 11.786 58.2251 11.828 58.0611 11.912C57.8971 11.996 57.7391 12.122 57.5871 12.29C57.4351 12.454 57.2931 12.656 57.1611 12.896C57.0291 13.136 56.9131 13.412 56.8131 13.724L56.4231 17H55.2711L55.7271 13.118C55.7551 12.89 55.7671 12.692 55.7631 12.524C55.7631 12.356 55.7411 12.218 55.6971 12.11C55.6571 12.002 55.5931 11.922 55.5051 11.87C55.4211 11.814 55.3091 11.786 55.1691 11.786C54.9851 11.786 54.8071 11.834 54.6351 11.93C54.4671 12.022 54.3071 12.156 54.1551 12.332C54.0071 12.508 53.8671 12.722 53.7351 12.974C53.6071 13.222 53.4911 13.504 53.3871 13.82L53.0031 17H51.8571ZM62.6222 15.638C62.7702 15.834 62.9462 15.974 63.1502 16.058C63.3542 16.138 63.5582 16.178 63.7622 16.178C63.9622 16.178 64.1502 16.136 64.3262 16.052C64.5062 15.968 64.6682 15.854 64.8122 15.71C64.9602 15.562 65.0922 15.39 65.2082 15.194C65.3242 14.998 65.4222 14.79 65.5022 14.57C65.5822 14.346 65.6422 14.114 65.6822 13.874C65.7262 13.634 65.7482 13.396 65.7482 13.16C65.7482 12.696 65.6662 12.346 65.5022 12.11C65.3382 11.87 65.1062 11.75 64.8062 11.75C64.6222 11.75 64.4342 11.81 64.2422 11.93C64.0542 12.046 63.8722 12.208 63.6962 12.416C63.5242 12.62 63.3622 12.864 63.2102 13.148C63.0582 13.432 62.9262 13.742 62.8142 14.078L62.6222 15.638ZM62.9522 12.464C63.1042 12.212 63.2682 11.986 63.4442 11.786C63.6202 11.582 63.8042 11.408 63.9962 11.264C64.1922 11.12 64.3962 11.01 64.6082 10.934C64.8202 10.854 65.0362 10.814 65.2562 10.814C65.7682 10.814 66.1702 11.002 66.4622 11.378C66.7582 11.754 66.9062 12.31 66.9062 13.046C66.9062 13.378 66.8702 13.71 66.7982 14.042C66.7302 14.37 66.6322 14.684 66.5042 14.984C66.3802 15.284 66.2282 15.562 66.0482 15.818C65.8682 16.074 65.6682 16.296 65.4482 16.484C65.2282 16.672 64.9902 16.82 64.7342 16.928C64.4822 17.032 64.2162 17.084 63.9362 17.084C63.6442 17.084 63.3782 17.028 63.1382 16.916C62.8982 16.8 62.6922 16.64 62.5202 16.436L62.2022 19.046H61.0622L62.0522 10.892H62.6402C62.7682 10.892 62.8662 10.924 62.9342 10.988C63.0022 11.052 63.0362 11.152 63.0362 11.288L62.9522 12.464ZM70.0952 16.172C70.3752 16.172 70.6292 16.096 70.8572 15.944C71.0892 15.788 71.2852 15.58 71.4452 15.32C71.6092 15.06 71.7352 14.76 71.8232 14.42C71.9112 14.08 71.9552 13.724 71.9552 13.352C71.9552 12.804 71.8512 12.396 71.6432 12.128C71.4352 11.86 71.1312 11.726 70.7312 11.726C70.4472 11.726 70.1912 11.804 69.9632 11.96C69.7352 12.112 69.5392 12.318 69.3752 12.578C69.2152 12.834 69.0912 13.132 69.0032 13.472C68.9152 13.812 68.8712 14.168 68.8712 14.54C68.8712 15.08 68.9752 15.488 69.1832 15.764C69.3912 16.036 69.6952 16.172 70.0952 16.172ZM69.9872 17.084C69.6552 17.084 69.3492 17.028 69.0692 16.916C68.7892 16.8 68.5472 16.634 68.3432 16.418C68.1432 16.202 67.9852 15.938 67.8692 15.626C67.7572 15.31 67.7012 14.95 67.7012 14.546C67.7012 14.03 67.7812 13.546 67.9412 13.094C68.1052 12.638 68.3272 12.242 68.6072 11.906C68.8912 11.566 69.2232 11.3 69.6032 11.108C69.9872 10.912 70.3992 10.814 70.8392 10.814C71.1712 10.814 71.4772 10.872 71.7572 10.988C72.0372 11.1 72.2772 11.264 72.4772 11.48C72.6812 11.696 72.8392 11.962 72.9512 12.278C73.0672 12.59 73.1252 12.946 73.1252 13.346C73.1252 13.858 73.0432 14.342 72.8792 14.798C72.7192 15.25 72.4972 15.646 72.2132 15.986C71.9332 16.326 71.6012 16.594 71.2172 16.79C70.8372 16.986 70.4272 17.084 69.9872 17.084Z" fill="black"></path><rect x="85.8002" y="0.5" width="138.174" height="24" rx="12" fill="white"></rect><rect x="85.8002" y="0.5" width="138.174" height="24" rx="12" stroke="black"></rect><g clip-path="url(#clip1_116_5)"><path d="M104.592 16.0712C104.592 15.8006 104.485 15.541 104.293 15.3497C104.102 15.1583 103.843 15.0508 103.572 15.0508C103.301 15.0508 103.042 15.1583 102.85 15.3497C102.659 15.541 102.552 15.8006 102.552 16.0712C102.552 16.3418 102.659 16.6013 102.85 16.7927C103.042 16.984 103.301 17.0915 103.572 17.0915C103.843 17.0915 104.102 16.984 104.293 16.7927C104.485 16.6013 104.592 16.3418 104.592 16.0712Z" stroke="#094A8A" stroke-width="1.02034" stroke-linecap="round" stroke-linejoin="round"></path><path d="M103.572 15.0508V10.2042C103.572 9.73067 103.76 9.2765 104.095 8.94163C104.43 8.60677 104.884 8.41865 105.357 8.41865C105.831 8.41865 106.285 8.60677 106.62 8.94163C106.955 9.2765 107.143 9.73067 107.143 10.2042V14.7958C107.143 15.2693 107.331 15.7235 107.666 16.0584C108.001 16.3932 108.455 16.5813 108.929 16.5813C109.402 16.5813 109.856 16.3932 110.191 16.0584C110.526 15.7235 110.714 15.2693 110.714 14.7958V7.90848" stroke="#094A8A" stroke-width="1.02034" stroke-linecap="round" stroke-linejoin="round"></path><path d="M109.184 9.43898L110.714 7.90848L112.245 9.43898" stroke="#094A8A" stroke-width="1.02034" stroke-linecap="round" stroke-linejoin="round"></path></g><path d="M118.258 9.368C118.638 9.032 119.058 8.768 119.518 8.576C119.982 8.384 120.502 8.288 121.078 8.288C121.598 8.288 122.066 8.382 122.482 8.57C122.902 8.758 123.256 9.02 123.544 9.356C123.836 9.688 124.06 10.086 124.216 10.55C124.372 11.014 124.45 11.522 124.45 12.074C124.45 12.806 124.344 13.48 124.132 14.096C123.92 14.708 123.622 15.236 123.238 15.68C122.854 16.124 122.396 16.472 121.864 16.724C121.332 16.972 120.746 17.096 120.106 17.096C119.778 17.096 119.478 17.066 119.206 17.006C118.934 16.946 118.684 16.86 118.456 16.748C118.232 16.636 118.028 16.5 117.844 16.34C117.664 16.18 117.5 16 117.352 15.8L117.904 15.266C117.96 15.214 118.022 15.188 118.09 15.188C118.166 15.188 118.232 15.22 118.288 15.284C118.408 15.416 118.53 15.53 118.654 15.626C118.778 15.722 118.912 15.8 119.056 15.86C119.204 15.92 119.364 15.966 119.536 15.998C119.712 16.026 119.908 16.04 120.124 16.04C120.476 16.04 120.814 15.974 121.138 15.842C121.466 15.71 121.762 15.518 122.026 15.266C122.294 15.014 122.522 14.704 122.71 14.336C122.898 13.968 123.032 13.55 123.112 13.082H119.206L119.32 12.146H123.19V12.122C123.19 11.698 123.138 11.316 123.034 10.976C122.93 10.632 122.78 10.34 122.584 10.1C122.388 9.856 122.152 9.67 121.876 9.542C121.6 9.41 121.29 9.344 120.946 9.344C120.618 9.344 120.336 9.382 120.1 9.458C119.868 9.534 119.668 9.618 119.5 9.71C119.336 9.798 119.2 9.88 119.092 9.956C118.984 10.032 118.894 10.07 118.822 10.07C118.754 10.07 118.702 10.056 118.666 10.028C118.634 10 118.606 9.966 118.582 9.926L118.258 9.368ZM129.485 15.98C129.589 16.052 129.699 16.104 129.815 16.136C129.935 16.168 130.059 16.184 130.187 16.184C130.475 16.184 130.731 16.096 130.955 15.92C131.179 15.744 131.367 15.514 131.519 15.23C131.671 14.942 131.787 14.62 131.867 14.264C131.947 13.904 131.987 13.54 131.987 13.172C131.987 12.916 131.965 12.698 131.921 12.518C131.877 12.334 131.813 12.186 131.729 12.074C131.649 11.962 131.549 11.88 131.429 11.828C131.313 11.776 131.179 11.75 131.027 11.75C130.819 11.75 130.615 11.798 130.415 11.894C130.219 11.986 130.057 12.118 129.929 12.29L129.485 15.98ZM128.825 11.918C128.721 11.846 128.611 11.794 128.495 11.762C128.379 11.73 128.257 11.714 128.129 11.714C127.937 11.714 127.759 11.754 127.595 11.834C127.431 11.914 127.281 12.026 127.145 12.17C127.013 12.31 126.895 12.478 126.791 12.674C126.691 12.866 126.605 13.074 126.533 13.298C126.465 13.518 126.413 13.75 126.377 13.994C126.341 14.238 126.323 14.482 126.323 14.726C126.323 14.986 126.345 15.206 126.389 15.386C126.433 15.566 126.495 15.712 126.575 15.824C126.659 15.936 126.759 16.018 126.875 16.07C126.995 16.122 127.131 16.148 127.283 16.148C127.491 16.148 127.695 16.102 127.895 16.01C128.095 15.914 128.259 15.78 128.387 15.608L128.825 11.918ZM130.043 11.36C130.227 11.18 130.435 11.044 130.667 10.952C130.899 10.86 131.159 10.814 131.447 10.814C131.703 10.814 131.935 10.858 132.143 10.946C132.355 11.03 132.535 11.164 132.683 11.348C132.831 11.528 132.945 11.762 133.025 12.05C133.109 12.334 133.151 12.674 133.151 13.07C133.151 13.41 133.119 13.746 133.055 14.078C132.995 14.41 132.907 14.726 132.791 15.026C132.679 15.322 132.541 15.596 132.377 15.848C132.217 16.1 132.035 16.318 131.831 16.502C131.627 16.682 131.403 16.824 131.159 16.928C130.919 17.032 130.665 17.084 130.397 17.084C130.185 17.084 129.995 17.046 129.827 16.97C129.659 16.89 129.517 16.792 129.401 16.676L129.179 18.548C129.159 18.7 129.091 18.828 128.975 18.932C128.863 19.036 128.717 19.088 128.537 19.088H127.967L128.273 16.532C128.085 16.712 127.875 16.85 127.643 16.946C127.411 17.038 127.151 17.084 126.863 17.084C126.607 17.084 126.373 17.042 126.161 16.958C125.953 16.87 125.775 16.736 125.627 16.556C125.479 16.372 125.363 16.138 125.279 15.854C125.199 15.566 125.159 15.224 125.159 14.828C125.159 14.488 125.189 14.152 125.249 13.82C125.313 13.488 125.401 13.174 125.513 12.878C125.629 12.578 125.767 12.302 125.927 12.05C126.091 11.798 126.275 11.582 126.479 11.402C126.683 11.218 126.905 11.074 127.145 10.97C127.389 10.866 127.647 10.814 127.919 10.814C128.131 10.814 128.319 10.854 128.483 10.934C128.651 11.01 128.793 11.106 128.909 11.222L129.215 8.684C129.235 8.532 129.301 8.404 129.413 8.3C129.529 8.196 129.677 8.144 129.857 8.144H130.427L130.043 11.36ZM138.274 15.98C138.378 16.052 138.488 16.104 138.604 16.136C138.724 16.168 138.848 16.184 138.976 16.184C139.264 16.184 139.52 16.096 139.744 15.92C139.968 15.744 140.156 15.514 140.308 15.23C140.46 14.942 140.576 14.62 140.656 14.264C140.736 13.904 140.776 13.54 140.776 13.172C140.776 12.916 140.754 12.698 140.71 12.518C140.666 12.334 140.602 12.186 140.518 12.074C140.438 11.962 140.338 11.88 140.218 11.828C140.102 11.776 139.968 11.75 139.816 11.75C139.608 11.75 139.404 11.798 139.204 11.894C139.008 11.986 138.846 12.118 138.718 12.29L138.274 15.98ZM137.614 11.918C137.51 11.846 137.4 11.794 137.284 11.762C137.168 11.73 137.046 11.714 136.918 11.714C136.726 11.714 136.548 11.754 136.384 11.834C136.22 11.914 136.07 12.026 135.934 12.17C135.802 12.31 135.684 12.478 135.58 12.674C135.48 12.866 135.394 13.074 135.322 13.298C135.254 13.518 135.202 13.75 135.166 13.994C135.13 14.238 135.112 14.482 135.112 14.726C135.112 14.986 135.134 15.206 135.178 15.386C135.222 15.566 135.284 15.712 135.364 15.824C135.448 15.936 135.548 16.018 135.664 16.07C135.784 16.122 135.92 16.148 136.072 16.148C136.28 16.148 136.484 16.102 136.684 16.01C136.884 15.914 137.048 15.78 137.176 15.608L137.614 11.918ZM138.832 11.36C139.016 11.18 139.224 11.044 139.456 10.952C139.688 10.86 139.948 10.814 140.236 10.814C140.492 10.814 140.724 10.858 140.932 10.946C141.144 11.03 141.324 11.164 141.472 11.348C141.62 11.528 141.734 11.762 141.814 12.05C141.898 12.334 141.94 12.674 141.94 13.07C141.94 13.41 141.908 13.746 141.844 14.078C141.784 14.41 141.696 14.726 141.58 15.026C141.468 15.322 141.33 15.596 141.166 15.848C141.006 16.1 140.824 16.318 140.62 16.502C140.416 16.682 140.192 16.824 139.948 16.928C139.708 17.032 139.454 17.084 139.186 17.084C138.974 17.084 138.784 17.046 138.616 16.97C138.448 16.89 138.306 16.792 138.19 16.676L137.968 18.548C137.948 18.7 137.88 18.828 137.764 18.932C137.652 19.036 137.506 19.088 137.326 19.088H136.756L137.062 16.532C136.874 16.712 136.664 16.85 136.432 16.946C136.2 17.038 135.94 17.084 135.652 17.084C135.396 17.084 135.162 17.042 134.95 16.958C134.742 16.87 134.564 16.736 134.416 16.556C134.268 16.372 134.152 16.138 134.068 15.854C133.988 15.566 133.948 15.224 133.948 14.828C133.948 14.488 133.978 14.152 134.038 13.82C134.102 13.488 134.19 13.174 134.302 12.878C134.418 12.578 134.556 12.302 134.716 12.05C134.88 11.798 135.064 11.582 135.268 11.402C135.472 11.218 135.694 11.074 135.934 10.97C136.178 10.866 136.436 10.814 136.708 10.814C136.92 10.814 137.108 10.854 137.272 10.934C137.44 11.01 137.582 11.106 137.698 11.222L138.004 8.684C138.024 8.532 138.09 8.404 138.202 8.3C138.318 8.196 138.466 8.144 138.646 8.144H139.216L138.832 11.36ZM145.857 11.654C145.617 11.654 145.397 11.704 145.197 11.804C144.997 11.9 144.817 12.036 144.657 12.212C144.497 12.384 144.361 12.588 144.249 12.824C144.137 13.056 144.049 13.31 143.985 13.586C144.573 13.51 145.043 13.426 145.395 13.334C145.751 13.242 146.025 13.142 146.217 13.034C146.409 12.922 146.535 12.804 146.595 12.68C146.659 12.556 146.691 12.424 146.691 12.284C146.691 12.216 146.675 12.146 146.643 12.074C146.615 11.998 146.567 11.93 146.499 11.87C146.435 11.806 146.349 11.754 146.241 11.714C146.137 11.674 146.009 11.654 145.857 11.654ZM147.597 15.872C147.389 16.084 147.187 16.266 146.991 16.418C146.795 16.57 146.593 16.696 146.385 16.796C146.181 16.896 145.967 16.968 145.743 17.012C145.519 17.06 145.275 17.084 145.011 17.084C144.663 17.084 144.347 17.026 144.063 16.91C143.783 16.79 143.545 16.622 143.349 16.406C143.153 16.19 143.001 15.93 142.893 15.626C142.789 15.318 142.737 14.974 142.737 14.594C142.737 14.278 142.769 13.966 142.833 13.658C142.901 13.346 142.999 13.052 143.127 12.776C143.255 12.496 143.411 12.236 143.595 11.996C143.779 11.756 143.989 11.55 144.225 11.378C144.461 11.202 144.721 11.066 145.005 10.97C145.289 10.87 145.595 10.82 145.923 10.82C146.235 10.82 146.505 10.864 146.733 10.952C146.961 11.04 147.149 11.154 147.297 11.294C147.449 11.43 147.561 11.582 147.633 11.75C147.705 11.918 147.741 12.082 147.741 12.242C147.741 12.506 147.687 12.75 147.579 12.974C147.471 13.194 147.273 13.394 146.985 13.574C146.701 13.75 146.309 13.904 145.809 14.036C145.309 14.168 144.667 14.274 143.883 14.354C143.879 14.39 143.877 14.426 143.877 14.462C143.877 14.498 143.877 14.534 143.877 14.57C143.877 15.094 143.989 15.49 144.213 15.758C144.441 16.026 144.783 16.16 145.239 16.16C145.427 16.16 145.595 16.142 145.743 16.106C145.891 16.066 146.021 16.018 146.133 15.962C146.249 15.906 146.351 15.846 146.439 15.782C146.527 15.714 146.607 15.652 146.679 15.596C146.755 15.54 146.825 15.494 146.889 15.458C146.953 15.418 147.019 15.398 147.087 15.398C147.131 15.398 147.169 15.41 147.201 15.434C147.237 15.454 147.271 15.48 147.303 15.512L147.597 15.872ZM152.042 11.948C152.174 11.76 152.29 11.6 152.39 11.468C152.49 11.332 152.59 11.222 152.69 11.138C152.794 11.054 152.908 10.992 153.032 10.952C153.16 10.912 153.314 10.892 153.494 10.892H153.992L153.872 11.504C153.852 11.596 153.816 11.656 153.764 11.684C153.716 11.712 153.656 11.736 153.584 11.756C153.516 11.772 153.44 11.8 153.356 11.84C153.276 11.88 153.196 11.956 153.116 12.068L152.276 13.178C152.156 13.346 152.038 13.476 151.922 13.568C151.81 13.656 151.664 13.722 151.484 13.766C151.72 13.81 151.91 13.896 152.054 14.024C152.202 14.148 152.324 14.328 152.42 14.564L153.5 17H152.828C152.628 17 152.478 16.966 152.378 16.898C152.278 16.83 152.196 16.732 152.132 16.604L151.298 14.75C151.238 14.594 151.146 14.466 151.022 14.366C150.898 14.266 150.756 14.216 150.596 14.216L149.984 14.33L149.66 17H148.538L149.276 10.904H150.404L150.08 13.562L150.554 13.46C150.63 13.444 150.698 13.428 150.758 13.412C150.818 13.392 150.872 13.368 150.92 13.34C150.968 13.308 151.012 13.272 151.052 13.232C151.096 13.188 151.142 13.136 151.19 13.076L152.042 11.948ZM154.385 17L155.123 10.892H155.711C155.839 10.892 155.937 10.924 156.005 10.988C156.073 11.052 156.107 11.152 156.107 11.288L156.035 12.266C156.327 11.786 156.647 11.424 156.995 11.18C157.343 10.936 157.711 10.814 158.099 10.814C158.499 10.814 158.799 10.95 158.999 11.222C159.203 11.494 159.309 11.888 159.317 12.404C159.617 11.86 159.951 11.46 160.319 11.204C160.691 10.944 161.087 10.814 161.507 10.814C162.031 10.814 162.405 11.012 162.629 11.408C162.853 11.804 162.919 12.374 162.827 13.118L162.371 17H161.219L161.675 13.118C161.731 12.662 161.717 12.326 161.633 12.11C161.549 11.894 161.367 11.786 161.087 11.786C160.919 11.786 160.753 11.828 160.589 11.912C160.425 11.996 160.267 12.122 160.115 12.29C159.963 12.454 159.821 12.656 159.689 12.896C159.557 13.136 159.441 13.412 159.341 13.724L158.951 17H157.799L158.255 13.118C158.283 12.89 158.295 12.692 158.291 12.524C158.291 12.356 158.269 12.218 158.225 12.11C158.185 12.002 158.121 11.922 158.033 11.87C157.949 11.814 157.837 11.786 157.697 11.786C157.513 11.786 157.335 11.834 157.163 11.93C156.995 12.022 156.835 12.156 156.683 12.332C156.535 12.508 156.395 12.722 156.263 12.974C156.135 13.222 156.019 13.504 155.915 13.82L155.531 17H154.385ZM169.434 10.904L168.696 17H168.114C167.83 17 167.688 16.86 167.688 16.58L167.76 15.584C167.444 16.08 167.088 16.454 166.692 16.706C166.3 16.958 165.896 17.084 165.48 17.084C165.224 17.084 164.996 17.034 164.796 16.934C164.6 16.83 164.44 16.68 164.316 16.484C164.192 16.288 164.106 16.048 164.058 15.764C164.014 15.476 164.014 15.148 164.058 14.78L164.52 10.904H165.684L165.228 14.78C165.172 15.236 165.198 15.572 165.306 15.788C165.414 16.004 165.618 16.112 165.918 16.112C166.098 16.112 166.282 16.064 166.47 15.968C166.658 15.868 166.84 15.728 167.016 15.548C167.192 15.368 167.354 15.15 167.502 14.894C167.654 14.638 167.784 14.354 167.892 14.042L168.264 10.904H169.434ZM171.375 14.378C171.375 14.406 171.373 14.434 171.369 14.462C171.369 14.486 171.369 14.512 171.369 14.54C171.361 14.792 171.381 15.022 171.429 15.23C171.477 15.434 171.551 15.61 171.651 15.758C171.751 15.906 171.877 16.02 172.029 16.1C172.185 16.176 172.367 16.21 172.575 16.202C172.767 16.198 172.945 16.162 173.109 16.094C173.273 16.022 173.415 15.928 173.535 15.812C173.655 15.692 173.749 15.556 173.817 15.404C173.889 15.252 173.925 15.092 173.925 14.924C173.925 14.784 173.901 14.656 173.853 14.54C173.805 14.42 173.727 14.322 173.619 14.246C173.511 14.17 173.369 14.12 173.193 14.096C173.021 14.072 172.807 14.084 172.551 14.132L171.375 14.378ZM172.491 13.43C172.827 13.366 173.097 13.29 173.301 13.202C173.505 13.114 173.661 13.02 173.769 12.92C173.881 12.816 173.955 12.71 173.991 12.602C174.031 12.49 174.051 12.38 174.051 12.272C174.051 12.188 174.039 12.108 174.015 12.032C173.991 11.952 173.951 11.882 173.895 11.822C173.839 11.762 173.765 11.714 173.673 11.678C173.585 11.642 173.473 11.624 173.337 11.624C173.113 11.624 172.903 11.676 172.707 11.78C172.511 11.88 172.331 12.022 172.167 12.206C172.007 12.386 171.867 12.6 171.747 12.848C171.627 13.096 171.535 13.366 171.471 13.658L172.491 13.43ZM173.577 13.64C173.789 13.648 173.983 13.682 174.159 13.742C174.335 13.798 174.485 13.88 174.609 13.988C174.737 14.092 174.835 14.222 174.903 14.378C174.975 14.53 175.011 14.708 175.011 14.912C175.011 15.188 174.949 15.456 174.825 15.716C174.701 15.976 174.527 16.208 174.303 16.412C174.079 16.616 173.809 16.78 173.493 16.904C173.181 17.028 172.833 17.09 172.449 17.09C172.085 17.09 171.763 17.032 171.483 16.916C171.207 16.8 170.975 16.638 170.787 16.43C170.599 16.218 170.457 15.966 170.361 15.674C170.265 15.378 170.217 15.052 170.217 14.696C170.217 14.36 170.253 14.032 170.325 13.712C170.401 13.388 170.507 13.084 170.643 12.8C170.779 12.512 170.943 12.248 171.135 12.008C171.331 11.764 171.549 11.554 171.789 11.378C172.033 11.202 172.297 11.066 172.581 10.97C172.865 10.87 173.165 10.82 173.481 10.82C173.749 10.82 173.981 10.854 174.177 10.922C174.377 10.99 174.541 11.082 174.669 11.198C174.801 11.31 174.899 11.442 174.963 11.594C175.027 11.742 175.059 11.896 175.059 12.056C175.059 12.212 175.029 12.366 174.969 12.518C174.913 12.67 174.825 12.816 174.705 12.956C174.585 13.092 174.431 13.218 174.243 13.334C174.059 13.45 173.837 13.552 173.577 13.64ZM181.534 10.904L180.802 17H179.632L179.962 14.24H177.46L177.13 17H175.96L176.692 10.904H177.862L177.568 13.376H180.07L180.364 10.904H181.534ZM184.741 16.172C185.021 16.172 185.275 16.096 185.503 15.944C185.735 15.788 185.931 15.58 186.091 15.32C186.255 15.06 186.381 14.76 186.469 14.42C186.557 14.08 186.601 13.724 186.601 13.352C186.601 12.804 186.497 12.396 186.289 12.128C186.081 11.86 185.777 11.726 185.377 11.726C185.093 11.726 184.837 11.804 184.609 11.96C184.381 12.112 184.185 12.318 184.021 12.578C183.861 12.834 183.737 13.132 183.649 13.472C183.561 13.812 183.517 14.168 183.517 14.54C183.517 15.08 183.621 15.488 183.829 15.764C184.037 16.036 184.341 16.172 184.741 16.172ZM184.633 17.084C184.301 17.084 183.995 17.028 183.715 16.916C183.435 16.8 183.193 16.634 182.989 16.418C182.789 16.202 182.631 15.938 182.515 15.626C182.403 15.31 182.347 14.95 182.347 14.546C182.347 14.03 182.427 13.546 182.587 13.094C182.751 12.638 182.973 12.242 183.253 11.906C183.537 11.566 183.869 11.3 184.249 11.108C184.633 10.912 185.045 10.814 185.485 10.814C185.817 10.814 186.123 10.872 186.403 10.988C186.683 11.1 186.923 11.264 187.123 11.48C187.327 11.696 187.485 11.962 187.597 12.278C187.713 12.59 187.771 12.946 187.771 13.346C187.771 13.858 187.689 14.342 187.525 14.798C187.365 15.25 187.143 15.646 186.859 15.986C186.579 16.326 186.247 16.594 185.863 16.79C185.483 16.986 185.073 17.084 184.633 17.084Z" fill="black"></path><rect x="199.67" y="0.5" width="90.8303" height="24" rx="12" fill="white"></rect><rect x="199.67" y="0.5" width="90.8303" height="24" rx="12" stroke="black"></rect><g clip-path="url(#clip2_116_5)"><path d="M218.043 7.39832L218.104 7.40189L218.134 7.40597L218.165 7.4126L218.221 7.42995C218.26 7.44436 218.298 7.46356 218.332 7.48708L218.385 7.52892L218.515 7.64014C219.544 8.49496 220.845 8.95397 222.183 8.93443L222.357 8.92933C222.471 8.92413 222.584 8.95734 222.677 9.02366C222.77 9.08998 222.838 9.18557 222.87 9.29512C223.121 10.1479 223.197 11.0424 223.096 11.9254C222.994 12.8084 222.715 13.662 222.277 14.4353C221.839 15.2087 221.25 15.886 220.545 16.4272C219.84 16.9683 219.033 17.3622 218.172 17.5854C218.088 17.6071 218 17.6071 217.916 17.5854C217.056 17.3622 216.249 16.9684 215.544 16.4273C214.839 15.8862 214.249 15.2088 213.811 14.4355C213.373 13.6621 213.094 12.8085 212.993 11.9255C212.891 11.0425 212.967 10.1479 213.218 9.29512C213.25 9.18557 213.318 9.08998 213.411 9.02366C213.504 8.95734 213.617 8.92413 213.731 8.92933C215.127 8.99317 216.498 8.53343 217.573 7.64014L217.707 7.52535L217.756 7.48708C217.791 7.46356 217.828 7.44436 217.867 7.42995L217.924 7.4126C217.944 7.40777 217.964 7.40419 217.985 7.40189L218.043 7.39832ZM218.044 10.9695C217.787 10.9694 217.539 11.0666 217.35 11.2417C217.161 11.4167 217.046 11.6566 217.027 11.9133L217.024 11.9898L217.027 12.0664C217.039 12.232 217.092 12.392 217.18 12.5326C217.269 12.6731 217.39 12.79 217.534 12.8729V13.7754L217.538 13.8351C217.553 13.9642 217.617 14.0826 217.717 14.1661C217.817 14.2495 217.944 14.2918 218.074 14.2841C218.204 14.2765 218.326 14.2196 218.415 14.1251C218.505 14.0305 218.554 13.9055 218.555 13.7754L218.555 12.8734C218.75 12.7611 218.902 12.5877 218.988 12.3802C219.073 12.1726 219.089 11.9425 219.03 11.7255C218.972 11.5085 218.844 11.3168 218.666 11.1801C218.487 11.0434 218.269 10.9694 218.044 10.9695Z" fill="#094A8A"></path></g><path d="M235.016 17H233.816L234.758 9.332H230.954L230.012 17H228.812L229.868 8.396H236.072L235.016 17ZM239.022 16.196C239.31 16.196 239.57 16.118 239.802 15.962C240.034 15.806 240.232 15.598 240.396 15.338C240.56 15.074 240.686 14.772 240.774 14.432C240.862 14.088 240.906 13.73 240.906 13.358C240.906 12.806 240.8 12.394 240.588 12.122C240.376 11.846 240.068 11.708 239.664 11.708C239.376 11.708 239.116 11.786 238.884 11.942C238.652 12.094 238.454 12.302 238.29 12.566C238.126 12.826 238 13.128 237.912 13.472C237.824 13.812 237.78 14.17 237.78 14.546C237.78 15.094 237.884 15.506 238.092 15.782C238.304 16.058 238.614 16.196 239.022 16.196ZM238.92 17.084C238.588 17.084 238.282 17.028 238.002 16.916C237.722 16.8 237.48 16.634 237.276 16.418C237.076 16.202 236.92 15.938 236.808 15.626C236.696 15.31 236.64 14.952 236.64 14.552C236.64 14.208 236.676 13.878 236.748 13.562C236.824 13.242 236.928 12.944 237.06 12.668C237.196 12.392 237.358 12.14 237.546 11.912C237.734 11.684 237.944 11.49 238.176 11.33C238.408 11.166 238.658 11.04 238.926 10.952C239.194 10.864 239.474 10.82 239.766 10.82C240.098 10.82 240.404 10.878 240.684 10.994C240.964 11.106 241.204 11.27 241.404 11.486C241.608 11.702 241.766 11.966 241.878 12.278C241.99 12.59 242.046 12.946 242.046 13.346C242.046 13.858 241.964 14.342 241.8 14.798C241.64 15.25 241.42 15.646 241.14 15.986C240.86 16.326 240.528 16.594 240.144 16.79C239.764 16.986 239.356 17.084 238.92 17.084ZM244.075 8.354C244.735 8.286 245.327 8.304 245.851 8.408C246.379 8.508 246.827 8.712 247.195 9.02C247.563 9.328 247.845 9.748 248.041 10.28C248.241 10.812 248.341 11.474 248.341 12.266C248.341 13.038 248.253 13.724 248.077 14.324C247.905 14.92 247.669 15.424 247.369 15.836C247.073 16.244 246.725 16.554 246.325 16.766C245.929 16.978 245.509 17.084 245.065 17.084C244.745 17.084 244.451 17.03 244.183 16.922C243.919 16.81 243.689 16.646 243.493 16.43C243.301 16.214 243.151 15.946 243.043 15.626C242.935 15.306 242.881 14.938 242.881 14.522C242.881 14.218 242.913 13.918 242.977 13.622C243.041 13.322 243.131 13.038 243.247 12.77C243.367 12.498 243.511 12.248 243.679 12.02C243.851 11.792 244.045 11.594 244.261 11.426C244.477 11.258 244.715 11.128 244.975 11.036C245.235 10.94 245.513 10.892 245.809 10.892C246.125 10.892 246.403 10.948 246.643 11.06C246.887 11.168 247.105 11.326 247.297 11.534C247.249 11.074 247.151 10.688 247.003 10.376C246.855 10.064 246.653 9.814 246.397 9.626C246.145 9.438 245.839 9.308 245.479 9.236C245.123 9.16 244.711 9.128 244.243 9.14C244.143 9.14 244.077 9.118 244.045 9.074C244.017 9.03 244.009 8.964 244.021 8.876L244.075 8.354ZM245.203 16.184C245.475 16.184 245.733 16.108 245.977 15.956C246.221 15.804 246.435 15.568 246.619 15.248C246.807 14.924 246.955 14.514 247.063 14.018C247.171 13.522 247.225 12.932 247.225 12.248H247.237C247.101 12.092 246.933 11.966 246.733 11.87C246.533 11.77 246.307 11.72 246.055 11.72C245.743 11.72 245.461 11.798 245.209 11.954C244.957 12.106 244.743 12.312 244.567 12.572C244.391 12.828 244.255 13.126 244.159 13.466C244.063 13.806 244.015 14.162 244.015 14.534C244.015 14.818 244.043 15.064 244.099 15.272C244.159 15.48 244.241 15.652 244.345 15.788C244.453 15.924 244.579 16.024 244.723 16.088C244.867 16.152 245.027 16.184 245.203 16.184ZM255.478 11.936C255.606 11.752 255.72 11.594 255.82 11.462C255.92 11.33 256.02 11.222 256.12 11.138C256.224 11.054 256.336 10.994 256.456 10.958C256.58 10.918 256.732 10.898 256.912 10.898H257.392L257.272 11.492C257.256 11.584 257.222 11.644 257.17 11.672C257.122 11.7 257.062 11.724 256.99 11.744C256.922 11.76 256.846 11.788 256.762 11.828C256.682 11.864 256.602 11.938 256.522 12.05L255.658 13.184C255.538 13.348 255.422 13.478 255.31 13.574C255.198 13.666 255.052 13.732 254.872 13.772C255.104 13.816 255.292 13.902 255.436 14.03C255.584 14.154 255.706 14.332 255.802 14.564L256.894 17H256.246C256.05 17 255.902 16.968 255.802 16.904C255.706 16.836 255.628 16.74 255.568 16.616L254.716 14.744C254.652 14.588 254.558 14.46 254.434 14.36C254.31 14.26 254.166 14.21 254.002 14.21L253.384 14.324L253.06 17H251.968L252.706 10.91H253.804L253.474 13.58L253.966 13.478C254.042 13.462 254.11 13.444 254.17 13.424C254.23 13.404 254.284 13.38 254.332 13.352C254.38 13.32 254.426 13.284 254.47 13.244C254.514 13.2 254.558 13.148 254.602 13.088L255.478 11.936ZM259.04 13.736C259.168 13.232 259.318 12.802 259.49 12.446C259.662 12.086 259.876 11.794 260.132 11.57C260.388 11.342 260.694 11.176 261.05 11.072C261.41 10.968 261.838 10.916 262.334 10.916H263.504L262.754 17H261.662L262.304 11.774H262.106C261.822 11.774 261.576 11.808 261.368 11.876C261.16 11.944 260.978 12.056 260.822 12.212C260.67 12.368 260.538 12.576 260.426 12.836C260.314 13.092 260.212 13.412 260.12 13.796C259.976 14.42 259.824 14.942 259.664 15.362C259.504 15.782 259.33 16.12 259.142 16.376C258.954 16.628 258.748 16.81 258.524 16.922C258.3 17.03 258.052 17.084 257.78 17.084C257.592 17.084 257.464 17.068 257.396 17.036C257.324 17.004 257.292 16.948 257.3 16.868L257.378 16.214H257.57C257.754 16.214 257.912 16.172 258.044 16.088C258.18 16 258.302 15.86 258.41 15.668C258.518 15.472 258.62 15.216 258.716 14.9C258.816 14.584 258.924 14.196 259.04 13.736ZM271.934 13.31C271.934 13.826 271.858 14.314 271.706 14.774C271.554 15.23 271.344 15.63 271.076 15.974C270.808 16.314 270.494 16.584 270.134 16.784C269.778 16.984 269.394 17.084 268.982 17.084C268.682 17.084 268.408 17.028 268.16 16.916C267.912 16.804 267.698 16.642 267.518 16.43C267.342 16.214 267.206 15.952 267.11 15.644C267.014 15.336 266.966 14.984 266.966 14.588C266.966 14.544 266.966 14.502 266.966 14.462C266.966 14.418 266.968 14.374 266.972 14.33H265.73L265.4 17H264.302L265.052 10.916H266.15L265.826 13.526H267.074C267.158 13.138 267.286 12.778 267.458 12.446C267.63 12.114 267.836 11.828 268.076 11.588C268.316 11.348 268.586 11.16 268.886 11.024C269.186 10.888 269.504 10.82 269.84 10.82C270.144 10.82 270.424 10.876 270.68 10.988C270.936 11.1 271.156 11.264 271.34 11.48C271.528 11.692 271.674 11.952 271.778 12.26C271.882 12.568 271.934 12.918 271.934 13.31ZM269.108 16.196C269.364 16.196 269.596 16.118 269.804 15.962C270.012 15.802 270.19 15.588 270.338 15.32C270.486 15.052 270.598 14.746 270.674 14.402C270.754 14.054 270.794 13.69 270.794 13.31C270.794 12.774 270.702 12.374 270.518 12.11C270.338 11.842 270.072 11.708 269.72 11.708C269.464 11.708 269.232 11.788 269.024 11.948C268.816 12.104 268.638 12.314 268.49 12.578C268.346 12.842 268.234 13.148 268.154 13.496C268.074 13.844 268.034 14.208 268.034 14.588C268.038 15.12 268.13 15.522 268.31 15.794C268.49 16.062 268.756 16.196 269.108 16.196ZM273.148 10.91H274.282L274.012 13.154C273.992 13.306 273.99 13.448 274.006 13.58C274.022 13.708 274.056 13.82 274.108 13.916C274.164 14.008 274.242 14.082 274.342 14.138C274.442 14.19 274.566 14.216 274.714 14.216C274.882 14.216 275.046 14.186 275.206 14.126C275.37 14.066 275.522 13.982 275.662 13.874C275.802 13.762 275.928 13.628 276.04 13.472C276.156 13.316 276.252 13.14 276.328 12.944L276.574 10.91H277.708L276.982 17H275.848L276.184 14.186C275.932 14.49 275.642 14.73 275.314 14.906C274.986 15.078 274.628 15.164 274.24 15.164C273.972 15.164 273.744 15.116 273.556 15.02C273.368 14.92 273.218 14.782 273.106 14.606C272.994 14.426 272.918 14.214 272.878 13.97C272.842 13.722 272.842 13.45 272.878 13.154L273.148 10.91Z" fill="black"></path><defs><clipPath id="clip0_116_5"><rect width="12.244" height="12.244" fill="white" transform="translate(15.028 6.37799)"></rect></clipPath><clipPath id="clip1_116_5"><rect width="12.244" height="12.244" fill="white" transform="translate(101.021 6.37799)"></rect></clipPath><clipPath id="clip2_116_5"><rect width="12.244" height="12.244" fill="white" transform="translate(211.922 6.37799)"></rect></clipPath></defs></svg> 