<?xml version="1.0" encoding="UTF-8"?> <svg xmlns="http://www.w3.org/2000/svg" width="199" height="55" fill="none"><path fill="#000" d="M67.048 8.42a1.2 1.2 0 0 1-.299.346.7.7 0 0 1-.39.103q-.246 0-.558-.206-.299-.206-.754-.45a5.7 5.7 0 0 0-1.052-.463q-.61-.218-1.455-.218-.78 0-1.378.193-.584.192-.987.54a2.3 2.3 0 0 0-.61.823q-.195.463-.195 1.016 0 .708.376 1.183.376.463.988.798.623.335 1.416.591.792.245 1.61.528a18 18 0 0 1 1.625.643q.792.36 1.403.913.625.554 1 1.35.377.798.377 1.942 0 1.235-.428 2.315a5.5 5.5 0 0 1-1.248 1.891q-.806.798-2 1.26-1.183.464-2.703.463-.896 0-1.754-.18a9.3 9.3 0 0 1-1.624-.475 8.6 8.6 0 0 1-1.442-.772q-.675-.45-1.208-1.003l.883-1.44a.85.85 0 0 1 .299-.284.8.8 0 0 1 .403-.103q.299 0 .662.283.364.27.87.605.52.321 1.248.604.727.27 1.741.27 1.65 0 2.547-.797.909-.798.909-2.2 0-.784-.377-1.273a3 3 0 0 0-1-.836 7 7 0 0 0-1.403-.565 83 83 0 0 1-1.611-.49 18 18 0 0 1-1.611-.617q-.792-.36-1.417-.926a4.4 4.4 0 0 1-.987-1.414q-.377-.85-.377-2.11 0-1.002.39-1.942a5 5 0 0 1 1.156-1.659q.767-.734 1.884-1.17 1.117-.438 2.547-.438 1.611 0 2.949.502 1.35.501 2.326 1.428zM70.727 23.776V4.74h2.793v7.472a6.9 6.9 0 0 1 1.793-1.273q.975-.489 2.274-.489 1.091 0 1.91.36.831.361 1.39 1.016.572.657.858 1.582.285.914.285 2.02v8.347h-2.78v-8.347q0-1.325-.624-2.058-.61-.733-1.87-.733-.935 0-1.742.424a6 6 0 0 0-1.494 1.158v9.556zM93.842 23.776q-.403 0-.611-.116-.207-.129-.35-.502l-.274-1.067q-.505.463-1 .81-.494.348-1.026.592a4.7 4.7 0 0 1-1.13.36q-.599.128-1.326.128-.806 0-1.507-.218a3.4 3.4 0 0 1-1.195-.656A3.3 3.3 0 0 1 84.617 22q-.285-.656-.286-1.544 0-.758.403-1.479.416-.72 1.351-1.286.95-.579 2.482-.951 1.546-.374 3.807-.425v-.874q0-1.416-.611-2.11-.61-.694-1.793-.694-.805 0-1.351.206-.546.193-.949.424t-.714.437a1.24 1.24 0 0 1-.663.193.86.86 0 0 1-.494-.141 1.4 1.4 0 0 1-.324-.373l-.507-.9q2.248-2.071 5.353-2.071 1.143 0 2.027.373.895.36 1.494 1.029.61.668.922 1.594.325.914.325 2.032v8.335zm-4.873-1.724q1.092 0 1.871-.398.793-.412 1.534-1.17v-2.445q-1.494.065-2.521.245t-1.663.476q-.636.295-.922.694a1.46 1.46 0 0 0-.273.862q0 .464.143.797.156.322.415.54.273.206.624.31.364.09.792.09M98.361 23.776V10.657h1.689q.572 0 .728.527l.195 1.222q.415-.437.87-.797.468-.36.988-.618a5.3 5.3 0 0 1 1.104-.398 5.6 5.6 0 0 1 1.286-.142q1.091 0 1.91.36.832.361 1.39 1.016.572.657.858 1.582.285.914.286 2.02v8.347h-2.781v-8.347q0-1.325-.623-2.058-.612-.733-1.871-.733-.936 0-1.741.424a6 6 0 0 0-1.494 1.158v9.556zM122.489 23.776q-.558 0-.714-.528l-.247-1.414a8.4 8.4 0 0 1-.884.874q-.467.386-1.013.669a5 5 0 0 1-1.143.437 5.4 5.4 0 0 1-1.313.155q-1.117 0-2.026-.438a4.4 4.4 0 0 1-1.56-1.299q-.649-.848-1.013-2.096-.351-1.26-.351-2.881 0-1.466.39-2.714.404-1.248 1.143-2.16a5.2 5.2 0 0 1 1.793-1.441q1.066-.527 2.378-.527 1.169 0 1.988.373.818.36 1.468 1.016V4.74h2.793v19.035zm-4.378-2.032q1.065 0 1.832-.45.766-.45 1.442-1.3v-6.109q-.598-.734-1.299-1.029a3.64 3.64 0 0 0-1.507-.308q-1.638 0-2.56 1.196-.922 1.184-.922 3.51 0 1.21.207 2.072.208.849.598 1.389t.949.784a3.1 3.1 0 0 0 1.26.245M130.504 10.657v13.119h-2.793V10.657zm.468-3.961q0 .372-.156.707a1.8 1.8 0 0 1-.403.592 2.1 2.1 0 0 1-.61.398 1.9 1.9 0 0 1-.728.142q-.377 0-.714-.142a2 2 0 0 1-.572-.398 2.2 2.2 0 0 1-.403-.592 1.8 1.8 0 0 1-.143-.707q0-.387.143-.72a2 2 0 0 1 .403-.58q.246-.256.572-.398.337-.154.714-.154.39 0 .728.154.35.141.61.399.26.244.403.578.156.335.156.72M134.014 23.776V10.657h1.689q.572 0 .728.527l.195 1.222q.416-.437.87-.797.468-.36.987-.618a5.3 5.3 0 0 1 1.105-.398 5.6 5.6 0 0 1 1.286-.142q1.092 0 1.91.36.832.361 1.39 1.016.571.657.858 1.582.285.914.285 2.02v8.347h-2.78v-8.347q0-1.325-.624-2.058-.61-.733-1.87-.733-.936 0-1.741.424a6 6 0 0 0-1.495 1.158v9.556zM153.309 10.426q.858 0 1.598.192.753.18 1.377.515H160v1.029q0 .515-.624.63l-1.325.219q.338.771.338 1.659 0 .964-.39 1.749a3.9 3.9 0 0 1-1.052 1.337 4.8 4.8 0 0 1-1.611.85 6.7 6.7 0 0 1-2.027.295q-.416 0-.819-.038a11 11 0 0 1-.766-.129q-.377.219-.559.463a.83.83 0 0 0-.182.502q0 .425.377.63.376.206.988.296.623.09 1.416.115.792.027 1.611.09.817.064 1.611.22a4.4 4.4 0 0 1 1.403.488q.624.334 1 .913.377.578.377 1.505 0 .849-.429 1.659-.428.81-1.247 1.44-.805.63-1.975 1.004-1.169.385-2.663.385-1.481 0-2.586-.282-1.09-.284-1.832-.772-.727-.476-1.091-1.106a2.66 2.66 0 0 1-.351-1.312q0-.926.585-1.582.597-.655 1.611-1.03a2.3 2.3 0 0 1-.883-.706q-.325-.45-.325-1.184 0-.283.104-.591a2.4 2.4 0 0 1 .311-.605q.221-.309.533-.579.325-.27.754-.488a4.2 4.2 0 0 1-1.559-1.44q-.56-.901-.559-2.097 0-.979.377-1.762.39-.785 1.078-1.338a5 5 0 0 1 1.624-.849 6.9 6.9 0 0 1 2.066-.296m3.885 13.993q0-.424-.26-.682a1.66 1.66 0 0 0-.676-.424 4.4 4.4 0 0 0-1.013-.219 24 24 0 0 0-1.208-.103 58 58 0 0 0-1.313-.064q-.675-.039-1.299-.129a3.4 3.4 0 0 0-1.013.772q-.39.45-.39 1.042 0 .386.195.72.207.334.623.579.43.244 1.079.386.663.141 1.585.141 1.845 0 2.767-.566.923-.566.923-1.453m-3.885-7.318q1.3 0 1.949-.656.65-.657.649-1.71 0-1.081-.649-1.711-.65-.63-1.949-.63-1.287 0-1.949.63-.65.63-.65 1.71 0 .514.169.952.17.437.494.759.325.308.806.488.494.168 1.13.168"></path><path fill="#1900D4" d="M48.203 24.13 29.611 0 18.808 14.022l-5.51-7.15L0 24.13h11.019l7.789-10.11 7.787 10.11z"></path><path fill="#000" d="M6.972 31.582v1.17H4.278v7.47H2.88v-7.47H.18v-1.17zm3.563 8.64a.6.6 0 0 1-.282-.054q-.096-.06-.162-.234l-.126-.498q-.234.216-.462.378t-.474.276q-.24.114-.522.168-.276.06-.612.06-.372 0-.696-.102a1.55 1.55 0 0 1-.552-.306 1.5 1.5 0 0 1-.372-.516 1.8 1.8 0 0 1-.132-.72q0-.354.186-.69.192-.336.624-.6.438-.27 1.146-.444.714-.174 1.758-.198v-.408q0-.66-.282-.984t-.828-.324q-.372 0-.624.096-.252.09-.438.198a6 6 0 0 0-.33.204.57.57 0 0 1-.306.09.4.4 0 0 1-.228-.066.6.6 0 0 1-.15-.174l-.234-.42a3.5 3.5 0 0 1 2.472-.966q.528 0 .936.174.414.168.69.48.282.312.426.744.15.426.15.948v3.888zm-2.25-.804q.504 0 .864-.186.366-.192.708-.546v-1.14a9 9 0 0 0-1.164.114 3.1 3.1 0 0 0-.768.222q-.294.138-.426.324a.7.7 0 0 0-.126.402q0 .216.066.372.072.15.192.252.126.096.288.144.168.042.366.042m7.54-2.196q.085.156.15.336.073.18.139.36.066-.18.138-.36t.156-.336l1.638-2.844q.09-.18.222-.234a.6.6 0 0 1 .264-.06h1.05v6.138h-1.158V36.52q0-.192.024-.432.024-.246.06-.456l-1.95 3.504a.5.5 0 0 1-.156.174.4.4 0 0 1-.216.06h-.138a.4.4 0 0 1-.216-.06.5.5 0 0 1-.15-.174l-1.986-3.516q.036.21.06.462.03.246.03.438v3.702h-1.164v-6.138h1.056q.132 0 .258.06.132.06.228.234zm5.13 2.166a.8.8 0 0 1 .054-.294.8.8 0 0 1 .162-.24.864.864 0 0 1 .576-.216q.204 0 .36.078.156.072.258.204a.8.8 0 0 1 .156.3q.054.168.054.36a2.2 2.2 0 0 1-.084.582 2.7 2.7 0 0 1-.24.606 3.4 3.4 0 0 1-.39.594 3.4 3.4 0 0 1-.522.528l-.222-.204a.4.4 0 0 1-.072-.09.3.3 0 0 1-.018-.108q0-.102.102-.192l.15-.18q.096-.102.192-.246.096-.138.18-.306a1.3 1.3 0 0 0 .12-.348h-.03a.8.8 0 0 1-.318-.06.9.9 0 0 1-.252-.174.9.9 0 0 1-.162-.264 1 1 0 0 1-.054-.33m10.026-5.286v.972h-2.772v5.148h-1.29v-6.12zm5.61 0v5.148h1.121v2.658a.37.37 0 0 1-.108.282.35.35 0 0 1-.264.108h-.798v-2.076H31.7v1.71q0 .138-.09.252-.084.114-.264.114h-.816v-3.006h.246q.204-.006.402-.078.198-.078.378-.276.18-.204.342-.558.162-.36.294-.93.132-.576.228-1.398t.156-1.95zm-2.965 1.002q-.06.846-.156 1.512-.096.66-.228 1.176-.126.51-.282.882a4 4 0 0 1-.324.618h2.706v-4.188zm7.55-1.098q.564 0 1.044.186.48.18.828.534t.54.87q.198.51.198 1.164 0 .3-.066.402t-.24.102h-3.93q.024.522.162.906.138.378.366.63.234.252.552.378.324.12.72.12.378 0 .654-.084a3.5 3.5 0 0 0 .48-.192q.204-.108.348-.192a.5.5 0 0 1 .264-.09q.156 0 .24.12l.366.474q-.228.27-.516.456a3 3 0 0 1-.612.306q-.324.114-.666.162-.342.054-.666.054-.636 0-1.182-.21a2.7 2.7 0 0 1-.942-.63 3 3 0 0 1-.624-1.026q-.222-.612-.222-1.41 0-.636.198-1.188a2.9 2.9 0 0 1 .576-.96q.378-.408.912-.642.54-.24 1.218-.24m.024.936q-.702 0-1.104.402t-.51 1.128h3.042q0-.324-.096-.6a1.3 1.3 0 0 0-.27-.486q-.18-.21-.45-.324-.264-.12-.612-.12m10.84-.84v.972h-2.773v5.148h-1.29v-6.12zm.941 8.154v-8.154h.78q.264 0 .336.246l.102.642q.192-.222.408-.408t.462-.318q.252-.132.534-.204.288-.072.612-.072.516 0 .936.21.42.204.72.6t.462.984q.168.582.168 1.338 0 .678-.186 1.266-.18.582-.522 1.014a2.5 2.5 0 0 1-.828.672q-.486.24-1.098.24-.54 0-.918-.168a2.3 2.3 0 0 1-.678-.48v2.592zm2.802-7.23q-.498 0-.852.216-.354.21-.66.606v2.838q.27.348.588.492.324.138.714.138.756 0 1.176-.552.426-.552.426-1.644 0-.564-.096-.96a1.9 1.9 0 0 0-.276-.654 1.06 1.06 0 0 0-.438-.366 1.4 1.4 0 0 0-.582-.114m7.92 5.196a.6.6 0 0 1-.282-.054q-.096-.06-.162-.234l-.126-.498q-.234.216-.462.378t-.474.276q-.24.114-.522.168-.276.06-.612.06-.372 0-.696-.102a1.55 1.55 0 0 1-.552-.306 1.5 1.5 0 0 1-.372-.516 1.8 1.8 0 0 1-.132-.72q0-.354.186-.69.192-.336.624-.6.438-.27 1.146-.444.714-.174 1.758-.198v-.408q0-.66-.282-.984t-.828-.324q-.372 0-.624.096-.252.09-.438.198a6 6 0 0 0-.33.204.57.57 0 0 1-.306.09.4.4 0 0 1-.228-.066.6.6 0 0 1-.15-.174l-.234-.42a3.5 3.5 0 0 1 2.472-.966q.528 0 .936.174.414.168.69.48.282.312.426.744.15.426.15.948v3.888zm-2.25-.804q.504 0 .864-.186.366-.192.708-.546v-1.14a9 9 0 0 0-1.164.114 3.1 3.1 0 0 0-.768.222q-.294.138-.426.324a.7.7 0 0 0-.126.402q0 .216.066.372.072.15.192.252.126.096.288.144.168.042.366.042m9.557-5.316v6.12h-1.284v-2.778H67.08v2.778h-1.29v-6.12h1.29v2.37h2.646v-2.37zm1.577 6.126v-6.126h1.29v3.834q0 .132-.018.288-.012.15-.036.306a2.6 2.6 0 0 1 .372-.63q.12-.162.306-.42.192-.258.426-.582l.486-.672 1.314-1.8a.9.9 0 0 1 .192-.222.4.4 0 0 1 .27-.102h.78v6.12h-1.29v-3.834q0-.12.012-.27t.036-.306q-.06.132-.12.246-.06.108-.12.192a4 4 0 0 0-.132.18q-.114.162-.306.42a177 177 0 0 1-.912 1.254q-.582.798-1.308 1.8-.072.114-.192.222a.4.4 0 0 1-.27.102zm6.949-6.126h1.29v5.148h2.646v-5.148h1.284v5.148h1.122v2.658q0 .18-.102.282a.35.35 0 0 1-.264.108h-.798v-2.076h-5.178zm8.572 0v2.328h1.188q.636 0 1.074.156.438.15.708.408t.39.6q.12.336.12.702 0 .426-.15.78-.15.348-.444.606-.288.258-.714.402-.42.138-.966.138h-2.43v-6.12zm5.988 0v6.12h-1.29v-6.12zm-5.988 3.258v1.926h1.206q.282 0 .492-.072.216-.078.354-.204a.8.8 0 0 0 .21-.312 1.06 1.06 0 0 0 .006-.756.7.7 0 0 0-.198-.3.9.9 0 0 0-.348-.204 1.6 1.6 0 0 0-.528-.078zm10.181-2.61q.348-.33.852-.534.504-.21 1.206-.21.564 0 .996.138.432.132.726.36.294.222.444.516a1.3 1.3 0 0 1 .102.984 1.42 1.42 0 0 1-.504.702q-.198.156-.492.258.546.18.864.558t.318.93q0 .438-.204.786a1.85 1.85 0 0 1-.534.582 2.4 2.4 0 0 1-.768.366 3.2 3.2 0 0 1-.9.126q-.282 0-.588-.054-.3-.048-.6-.162a3 3 0 0 1-.57-.306 2.3 2.3 0 0 1-.498-.456l.372-.474q.072-.12.24-.12.12 0 .246.09t.294.198q.174.108.414.198.246.09.606.09.3 0 .534-.072t.396-.204a.9.9 0 0 0 .246-.306.9.9 0 0 0 .084-.39.74.74 0 0 0-.336-.642q-.33-.24-1.044-.24h-.69v-.852h.69q.624 0 .966-.228t.342-.594q0-.33-.3-.558-.294-.228-.888-.228a2.112 2.112 0 0 0-.972.222q-.162.078-.276.144a.4.4 0 0 1-.192.066.3.3 0 0 1-.156-.036.5.5 0 0 1-.132-.15zM108 40.222a.6.6 0 0 1-.282-.054q-.096-.06-.162-.234l-.126-.498q-.234.216-.462.378t-.474.276q-.24.114-.522.168-.276.06-.612.06-.372 0-.696-.102a1.55 1.55 0 0 1-.552-.306 1.5 1.5 0 0 1-.372-.516 1.8 1.8 0 0 1-.132-.72q0-.354.186-.69.192-.336.624-.6.438-.27 1.146-.444.714-.174 1.758-.198v-.408q0-.66-.282-.984t-.828-.324q-.372 0-.624.096-.252.09-.438.198a6 6 0 0 0-.33.204.57.57 0 0 1-.306.09.4.4 0 0 1-.228-.066.6.6 0 0 1-.15-.174l-.234-.42a3.5 3.5 0 0 1 2.472-.966q.528 0 .936.174.414.168.69.48.282.312.426.744.15.426.15.948v3.888zm-2.25-.804q.504 0 .864-.186.366-.192.708-.546v-1.14a9 9 0 0 0-1.164.114 3.1 3.1 0 0 0-.768.222q-.294.138-.426.324a.7.7 0 0 0-.126.402q0 .216.066.372.072.15.192.252.126.096.288.144.168.042.366.042m8.021-4.968a.74.74 0 0 1 .258-.252.7.7 0 0 1 .348-.096h1.008l-1.506 2.298a1.8 1.8 0 0 1-.3.378q-.156.144-.384.222.294.084.486.258.198.168.354.438l1.518 2.526h-.888q-.342 0-.534-.114a.96.96 0 0 1-.318-.336l-1.038-1.788a.8.8 0 0 0-.33-.336 1 1 0 0 0-.462-.108h-.606v2.688h-1.29v-6.126h1.29v2.574h.522a.84.84 0 0 0 .42-.096.8.8 0 0 0 .288-.294zm6.639 5.772a.6.6 0 0 1-.282-.054q-.096-.06-.162-.234l-.126-.498q-.234.216-.462.378t-.474.276q-.24.114-.522.168-.276.06-.612.06-.372 0-.696-.102a1.55 1.55 0 0 1-.552-.306 1.5 1.5 0 0 1-.372-.516 1.8 1.8 0 0 1-.132-.72q0-.354.186-.69.192-.336.624-.6.438-.27 1.146-.444.714-.174 1.758-.198v-.408q0-.66-.282-.984t-.828-.324q-.372 0-.624.096-.252.09-.438.198a6 6 0 0 0-.33.204.57.57 0 0 1-.306.09.4.4 0 0 1-.228-.066.6.6 0 0 1-.15-.174l-.234-.42a3.5 3.5 0 0 1 2.472-.966q.528 0 .936.174.414.168.69.48.282.312.426.744.15.426.15.948v3.888zm-2.25-.804q.504 0 .864-.186.366-.192.708-.546v-1.14a9 9 0 0 0-1.164.114 3.1 3.1 0 0 0-.768.222q-.294.138-.426.324a.7.7 0 0 0-.126.402q0 .216.066.372.072.15.192.252.126.096.288.144.168.042.366.042m9.557-5.316v6.12h-1.284v-2.778h-2.646v2.778h-1.29v-6.12h1.29v2.37h2.646v-2.37zm6.257 6.12h-1.284v-2.49a8 8 0 0 1-1.476.24q-.678.036-1.182-.138a1.56 1.56 0 0 1-.786-.588q-.288-.414-.288-1.116v-2.028h1.284v1.83q0 .402.15.648.15.24.45.342.306.096.762.072a7 7 0 0 0 1.086-.168v-2.724h1.284zm1.578.006v-6.126h1.29v3.834q0 .132-.018.288-.012.15-.036.306a2.6 2.6 0 0 1 .372-.63q.12-.162.306-.42.192-.258.426-.582l.486-.672 1.314-1.8a.9.9 0 0 1 .192-.222.4.4 0 0 1 .27-.102h.78v6.12h-1.29v-3.834q0-.12.012-.27t.036-.306q-.06.132-.12.246-.06.108-.12.192a4 4 0 0 0-.132.18q-.114.162-.306.42a177 177 0 0 1-.912 1.254q-.582.798-1.308 1.8-.072.114-.192.222a.4.4 0 0 1-.27.102zm6.949-6.126h2.334q.57 0 .984.114.414.108.678.306.27.198.396.468t.126.582q0 .198-.054.414a1.3 1.3 0 0 1-.186.414 1.5 1.5 0 0 1-.36.354 1.7 1.7 0 0 1-.57.252q.648.12 1.032.48t.384.948q0 .456-.186.792a1.6 1.6 0 0 1-.51.558q-.318.222-.744.33-.42.108-.888.108h-2.436zm1.23 3.408v1.818h1.2q.528 0 .834-.252a.85.85 0 0 0 .312-.69q0-.186-.054-.348a.6.6 0 0 0-.186-.276.9.9 0 0 0-.354-.186 2 2 0 0 0-.546-.066zm0-.81h1.062q.24 0 .438-.066a1.1 1.1 0 0 0 .348-.192.872.872 0 0 0 .258-.972.6.6 0 0 0-.186-.264.9.9 0 0 0-.336-.18 1.6 1.6 0 0 0-.522-.072h-1.062zm8.706 3.522a.6.6 0 0 1-.282-.054q-.096-.06-.162-.234l-.126-.498q-.234.216-.462.378t-.474.276q-.24.114-.522.168-.276.06-.612.06-.372 0-.696-.102a1.55 1.55 0 0 1-.552-.306 1.5 1.5 0 0 1-.372-.516 1.8 1.8 0 0 1-.132-.72q0-.354.186-.69.192-.336.624-.6.438-.27 1.146-.444.714-.174 1.758-.198v-.408q0-.66-.282-.984t-.828-.324q-.372 0-.624.096-.252.09-.438.198a6 6 0 0 0-.33.204.57.57 0 0 1-.306.09.4.4 0 0 1-.228-.066.6.6 0 0 1-.15-.174l-.234-.42a3.5 3.5 0 0 1 2.472-.966q.528 0 .936.174.414.168.69.48.282.312.426.744.15.426.15.948v3.888zm-2.25-.804q.504 0 .864-.186.366-.192.708-.546v-1.14a9 9 0 0 0-1.164.114 3.1 3.1 0 0 0-.768.222q-.294.138-.426.324a.7.7 0 0 0-.126.402q0 .216.066.372.072.15.192.252.126.096.288.144.168.042.366.042m5.627-5.316v2.556h1.338a3.6 3.6 0 0 1 .288-1.104q.222-.492.582-.834.36-.348.846-.528a3 3 0 0 1 1.08-.186q.654 0 1.182.222t.9.63.57.99q.204.582.204 1.308t-.21 1.308a2.9 2.9 0 0 1-.582.996 2.6 2.6 0 0 1-.906.63 2.9 2.9 0 0 1-1.158.222 3.2 3.2 0 0 1-1.116-.186 2.5 2.5 0 0 1-.852-.546 2.7 2.7 0 0 1-.57-.858 3.8 3.8 0 0 1-.264-1.134h-1.332v2.634h-1.29v-6.12zm4.134 5.202q.774 0 1.146-.552.378-.558.378-1.59t-.378-1.59q-.372-.564-1.146-.564-.78 0-1.158.564-.372.558-.372 1.59t.372 1.59q.378.552 1.158.552m3.245-5.202h5.808v.972h-2.256v5.148h-1.29v-5.148h-2.262zm10.868 1.2a.7.7 0 0 1-.114.12.25.25 0 0 1-.156.042.4.4 0 0 1-.216-.072 3 3 0 0 0-.264-.156q-.15-.09-.366-.162a1.7 1.7 0 0 0-.54-.072q-.42 0-.738.15-.312.15-.528.432-.21.276-.318.678a3.6 3.6 0 0 0-.102.894q0 .516.114.918t.324.678q.216.276.516.42.306.144.684.144.372 0 .606-.09a2 2 0 0 0 .39-.198q.156-.108.264-.198a.38.38 0 0 1 .24-.09q.156 0 .24.12l.366.474q-.222.27-.492.456t-.57.306q-.3.114-.624.162a4 4 0 0 1-.654.054q-.57 0-1.068-.21a2.6 2.6 0 0 1-.864-.618 3.1 3.1 0 0 1-.582-.99 4 4 0 0 1-.21-1.338q0-.678.192-1.254.192-.582.558-1.002.372-.42.918-.654.546-.24 1.26-.24.666 0 1.17.216.51.216.906.612zm5.874 4.92h-1.23v-2.508h-.354q-.174 0-.288.03a.7.7 0 0 0-.198.084.7.7 0 0 0-.144.132q-.06.078-.12.174l-1.146 1.638a.94.94 0 0 1-.3.342q-.168.108-.51.108h-.888l1.65-2.226q.228-.396.636-.54a2.4 2.4 0 0 1-.756-.228 1.7 1.7 0 0 1-.504-.378 1.4 1.4 0 0 1-.282-.468 1.6 1.6 0 0 1-.084-.51q0-.33.126-.648.132-.318.414-.564.282-.252.726-.402.45-.156 1.08-.156h2.172zm-3.228-4.29q0 .45.318.708.324.258.87.258h.81v-1.944h-.906q-.312 0-.522.09a.9.9 0 0 0-.336.234.8.8 0 0 0-.18.312 1.2 1.2 0 0 0-.054.342m4.596 3.456a.8.8 0 0 1 .054-.294.8.8 0 0 1 .162-.24.864.864 0 0 1 .576-.216q.204 0 .36.078.156.072.258.204a.8.8 0 0 1 .156.3q.054.168.054.36a2.2 2.2 0 0 1-.084.582 2.7 2.7 0 0 1-.24.606 3.4 3.4 0 0 1-.39.594 3.4 3.4 0 0 1-.522.528l-.222-.204a.4.4 0 0 1-.072-.09.3.3 0 0 1-.018-.108q0-.102.102-.192l.15-.18q.096-.102.192-.246.096-.138.18-.306a1.3 1.3 0 0 0 .12-.348h-.03a.8.8 0 0 1-.318-.06.9.9 0 0 1-.252-.174.9.9 0 0 1-.162-.264 1 1 0 0 1-.054-.33M6.006 46.102v6.12H4.722v-2.778H2.076v2.778H.786v-6.12h1.29v2.37h2.646v-2.37zm5.525 6.12a.6.6 0 0 1-.282-.054q-.096-.06-.162-.234l-.126-.498q-.234.216-.462.378t-.474.276q-.24.114-.522.168-.276.06-.612.06-.372 0-.696-.102a1.55 1.55 0 0 1-.552-.306 1.5 1.5 0 0 1-.372-.516 1.8 1.8 0 0 1-.132-.72q0-.354.186-.69.192-.336.624-.6.438-.27 1.146-.444.714-.174 1.758-.198v-.408q0-.66-.282-.984t-.828-.324q-.372 0-.624.096-.252.09-.438.198a6 6 0 0 0-.33.204.57.57 0 0 1-.306.09.4.4 0 0 1-.228-.066.6.6 0 0 1-.15-.174l-.234-.42a3.5 3.5 0 0 1 2.472-.966q.528 0 .936.174.414.168.69.48.282.312.426.744.15.426.15.948v3.888zm-2.25-.804q.504 0 .864-.186.366-.192.708-.546v-1.14a9 9 0 0 0-1.164.114 3.1 3.1 0 0 0-.768.222q-.294.138-.426.324a.7.7 0 0 0-.126.402q0 .216.066.372.072.15.192.252.126.096.288.144.168.042.366.042m9.017.804h-1.284v-2.49a8 8 0 0 1-1.476.24q-.678.036-1.182-.138a1.56 1.56 0 0 1-.786-.588q-.288-.414-.288-1.116v-2.028h1.284v1.83q0 .402.15.648.15.24.45.342.306.096.762.072a7 7 0 0 0 1.086-.168v-2.724h1.284zm1.578.006v-6.126h1.29v3.834q0 .132-.018.288-.012.15-.036.306a2.6 2.6 0 0 1 .372-.63q.12-.162.306-.42.192-.258.426-.582l.486-.672 1.314-1.8a.9.9 0 0 1 .192-.222.4.4 0 0 1 .27-.102h.78v6.12h-1.29v-3.834q0-.12.012-.27t.036-.306q-.06.132-.12.246-.06.108-.12.192a4 4 0 0 0-.132.18q-.114.162-.306.42a177 177 0 0 1-.912 1.254q-.582.798-1.308 1.8-.072.114-.192.222a.4.4 0 0 1-.27.102zm12.17-6.126v6.12H30.76v-2.778h-2.646v2.778h-1.29v-6.12h1.29v2.37h2.646v-2.37zm5.524 6.12a.6.6 0 0 1-.282-.054q-.096-.06-.162-.234L37 51.436q-.234.216-.462.378t-.474.276q-.24.114-.522.168-.276.06-.612.06-.372 0-.696-.102a1.55 1.55 0 0 1-.552-.306 1.5 1.5 0 0 1-.372-.516 1.8 1.8 0 0 1-.132-.72q0-.354.186-.69.192-.336.624-.6.438-.27 1.146-.444.714-.174 1.758-.198v-.408q0-.66-.282-.984t-.828-.324q-.372 0-.624.096-.252.09-.438.198a6 6 0 0 0-.33.204.57.57 0 0 1-.306.09.4.4 0 0 1-.228-.066.6.6 0 0 1-.15-.174l-.234-.42a3.5 3.5 0 0 1 2.472-.966q.528 0 .936.174.414.168.69.48.282.312.426.744.15.426.15.948v3.888zm-2.25-.804q.504 0 .864-.186.366-.192.708-.546v-1.14a9 9 0 0 0-1.164.114 3.1 3.1 0 0 0-.768.222q-.294.138-.426.324a.7.7 0 0 0-.126.402q0 .216.066.372.072.15.192.252.126.096.288.144.168.042.366.042m6.9-5.412q.563 0 1.043.186.48.18.828.534t.54.87q.198.51.198 1.164 0 .3-.066.402t-.24.102h-3.93q.024.522.162.906.138.378.366.63.234.252.552.378.324.12.72.12.378 0 .654-.084a3.5 3.5 0 0 0 .48-.192q.204-.108.348-.192a.5.5 0 0 1 .264-.09q.156 0 .24.12l.366.474q-.228.27-.516.456a3 3 0 0 1-.612.306q-.324.114-.666.162-.342.054-.666.054-.636 0-1.182-.21a2.7 2.7 0 0 1-.942-.63 3 3 0 0 1-.624-1.026q-.222-.612-.222-1.41 0-.636.198-1.188a2.9 2.9 0 0 1 .576-.96q.378-.408.912-.642.54-.24 1.218-.24m.023.936q-.702 0-1.104.402t-.51 1.128h3.042q0-.324-.096-.6a1.3 1.3 0 0 0-.27-.486q-.18-.21-.45-.324-.264-.12-.612-.12m3.048-.84h5.808v.972h-2.256v5.148h-1.29v-5.148H45.29zm10.868 1.2a.7.7 0 0 1-.114.12.25.25 0 0 1-.156.042.4.4 0 0 1-.216-.072 3 3 0 0 0-.264-.156q-.15-.09-.366-.162a1.7 1.7 0 0 0-.54-.072q-.42 0-.738.15-.312.15-.528.432-.21.276-.318.678a3.6 3.6 0 0 0-.102.894q0 .516.114.918t.324.678q.216.276.516.42.306.144.684.144.372 0 .606-.09a2 2 0 0 0 .39-.198q.156-.108.264-.198a.38.38 0 0 1 .24-.09q.156 0 .24.12l.366.474q-.222.27-.492.456t-.57.306q-.3.114-.624.162a4 4 0 0 1-.654.054q-.57 0-1.068-.21a2.6 2.6 0 0 1-.864-.618 3.1 3.1 0 0 1-.582-.99 4 4 0 0 1-.21-1.338q0-.678.192-1.254.192-.582.558-1.002.372-.42.918-.654.546-.24 1.26-.24.666 0 1.17.216.51.216.906.612zm5.874 4.92h-1.23v-2.508h-.354q-.174 0-.288.03a.7.7 0 0 0-.199.084.7.7 0 0 0-.144.132q-.06.078-.12.174l-1.145 1.638a.94.94 0 0 1-.3.342q-.168.108-.51.108h-.889l1.65-2.226q.228-.396.637-.54a2.4 2.4 0 0 1-.756-.228 1.7 1.7 0 0 1-.505-.378 1.4 1.4 0 0 1-.282-.468 1.6 1.6 0 0 1-.084-.51q0-.33.127-.648.132-.318.413-.564.282-.252.727-.402.45-.156 1.08-.156h2.172zm-3.229-4.29q0 .45.319.708.324.258.87.258h.81v-1.944h-.906q-.313 0-.523.09a.9.9 0 0 0-.336.234.8.8 0 0 0-.18.312 1.2 1.2 0 0 0-.053.342m12.552-2.874a.6.6 0 0 1-.137.162.3.3 0 0 1-.18.048.5.5 0 0 1-.258-.096 4 4 0 0 0-.349-.21 2.6 2.6 0 0 0-.486-.216 2 2 0 0 0-.671-.102q-.36 0-.637.09a1.3 1.3 0 0 0-.456.252 1.1 1.1 0 0 0-.282.384 1.2 1.2 0 0 0-.09.474q0 .33.174.552.175.216.457.372.287.156.653.276.367.114.745.246.382.132.75.3.365.168.648.426.288.258.462.63.173.372.174.906 0 .576-.199 1.08-.198.504-.576.882a2.7 2.7 0 0 1-.924.588q-.546.216-1.248.216-.414 0-.81-.084a4.3 4.3 0 0 1-.75-.222q-.353-.15-.665-.36a3.4 3.4 0 0 1-.558-.468l.407-.672a.4.4 0 0 1 .139-.132.37.37 0 0 1 .186-.048q.138 0 .305.132.168.126.402.282.24.15.577.282.335.126.803.126.762 0 1.176-.372.42-.372.42-1.026 0-.366-.174-.594a1.4 1.4 0 0 0-.462-.39 3.2 3.2 0 0 0-.647-.264 38 38 0 0 1-.745-.228 8 8 0 0 1-.743-.288 2.5 2.5 0 0 1-.655-.432q-.281-.27-.456-.66-.173-.396-.174-.984 0-.468.18-.906.186-.438.534-.774.356-.342.87-.546a3.2 3.2 0 0 1 1.177-.204q.744 0 1.361.234.624.234 1.075.666zm1.7 7.164v-8.88h1.29v3.486q.377-.372.828-.594.45-.228 1.05-.228.503 0 .882.168.384.168.642.474.263.306.395.738.132.426.132.942v3.894h-1.284v-3.894q0-.618-.287-.96-.282-.342-.864-.342-.432 0-.805.198a2.8 2.8 0 0 0-.69.54v4.458zm10.674 0a.6.6 0 0 1-.282-.054q-.096-.06-.162-.234l-.126-.498q-.234.216-.462.378t-.474.276q-.24.114-.522.168-.276.06-.612.06-.372 0-.696-.102a1.55 1.55 0 0 1-.552-.306 1.5 1.5 0 0 1-.372-.516 1.8 1.8 0 0 1-.132-.72q0-.354.186-.69.192-.336.624-.6.438-.27 1.146-.444.714-.174 1.758-.198v-.408q0-.66-.282-.984t-.828-.324q-.372 0-.624.096-.252.09-.438.198a6 6 0 0 0-.33.204.57.57 0 0 1-.306.09.4.4 0 0 1-.228-.066.6.6 0 0 1-.15-.174l-.234-.42a3.5 3.5 0 0 1 2.472-.966q.528 0 .936.174.414.168.69.48.282.312.426.744.15.426.15.948v3.888zm-2.25-.804q.504 0 .864-.186.366-.192.708-.546v-1.14a9 9 0 0 0-1.164.114 3.1 3.1 0 0 0-.768.222q-.294.138-.426.324a.7.7 0 0 0-.126.402q0 .216.066.372.072.15.192.252.126.096.288.144.168.042.366.042m4.337.804v-6.12h.78q.264 0 .336.246l.09.57q.192-.204.402-.372a2.7 2.7 0 0 1 .456-.288 2.4 2.4 0 0 1 1.104-.252q.504 0 .882.168.384.168.642.474.264.306.396.738.132.426.132.942v3.894h-1.284v-3.894q0-.618-.288-.96-.282-.342-.864-.342-.432 0-.804.198a2.8 2.8 0 0 0-.69.54v4.458zm11.143 0q-.258 0-.33-.246l-.114-.66a4 4 0 0 1-.408.408q-.216.18-.468.312a2.33 2.33 0 0 1-1.134.276q-.516 0-.936-.204-.42-.21-.72-.606t-.468-.978a5 5 0 0 1-.162-1.344q0-.684.18-1.266.186-.582.528-1.008a2.4 2.4 0 0 1 .828-.672 2.4 2.4 0 0 1 1.098-.246q.54 0 .918.174.378.168.678.474v-3.294h1.29v8.88zm-2.022-.948q.492 0 .846-.21t.666-.606v-2.85a1.58 1.58 0 0 0-1.296-.624q-.756 0-1.182.558-.426.552-.426 1.638 0 .564.096.966.096.396.276.648t.438.366.582.114m5.723-5.172v6.12h-1.29v-6.12zm.216-1.848a.8.8 0 0 1-.072.33.9.9 0 0 1-.186.276 1 1 0 0 1-.282.186.9.9 0 0 1-.336.066.8.8 0 0 1-.33-.066 1 1 0 0 1-.264-.186.838.838 0 0 1-.252-.606q0-.18.066-.336a.93.93 0 0 1 .45-.456.792.792 0 0 1 .666 0 .85.85 0 0 1 .282.186q.12.114.186.27a.8.8 0 0 1 .072.336m1.405 7.968v-6.12h.78q.264 0 .336.246l.09.57q.192-.204.402-.372a2.7 2.7 0 0 1 .456-.288 2.4 2.4 0 0 1 1.104-.252q.504 0 .882.168.384.168.642.474.264.306.396.738.132.426.132.942v3.894h-1.284v-3.894q0-.618-.288-.96-.282-.342-.864-.342-.432 0-.804.198a2.8 2.8 0 0 0-.69.54v4.458zm8.911-6.228q.396 0 .738.09.348.084.636.24h1.716v.48q0 .24-.288.294l-.612.102q.156.36.156.774 0 .45-.18.816a1.8 1.8 0 0 1-.486.624 2.2 2.2 0 0 1-.744.396 3 3 0 0 1-.936.138q-.192 0-.378-.018a5 5 0 0 1-.354-.06.85.85 0 0 0-.258.216.4.4 0 0 0-.084.234q0 .198.174.294t.456.138q.288.042.654.054t.744.042.744.102q.366.066.648.228.288.156.462.426t.174.702q0 .396-.198.774a2.1 2.1 0 0 1-.576.672 2.9 2.9 0 0 1-.912.468q-.54.18-1.23.18-.684 0-1.194-.132a2.8 2.8 0 0 1-.846-.36 1.54 1.54 0 0 1-.504-.516 1.25 1.25 0 0 1-.162-.612q0-.432.27-.738.276-.306.744-.48a1.1 1.1 0 0 1-.408-.33q-.15-.21-.15-.552 0-.132.048-.276t.144-.282a1.55 1.55 0 0 1 .594-.498 1.94 1.94 0 0 1-.72-.672 1.83 1.83 0 0 1-.258-.978q0-.456.174-.822a1.8 1.8 0 0 1 .498-.624q.318-.258.75-.396a3.2 3.2 0 0 1 .954-.138m1.794 6.528a.43.43 0 0 0-.12-.318.76.76 0 0 0-.312-.198 2 2 0 0 0-.468-.102 11 11 0 0 0-.558-.048 27 27 0 0 0-.606-.03 7 7 0 0 1-.6-.06q-.288.15-.468.36a.72.72 0 0 0-.18.486q0 .18.09.336a.8.8 0 0 0 .288.27q.198.114.498.18.306.066.732.066.852 0 1.278-.264t.426-.678m-1.794-3.414q.6 0 .9-.306t.3-.798q0-.504-.3-.798t-.9-.294q-.594 0-.9.294-.3.294-.3.798 0 .24.078.444a1 1 0 0 0 .228.354q.15.144.372.228.228.078.522.078"></path></svg> 