<?xml version="1.0" encoding="UTF-8"?> <svg xmlns="http://www.w3.org/2000/svg" width="96" height="24" fill="none"><path fill="#D5D9EF" d="M1.152 15.384h21.696v2.28H1.152zM5.76 6.432h14.544v1.872H5.76zm0 2.88h14.592v1.896H5.76zm-.576-6.096h16.32v2.232H5.184zm6 1.416h2.76v8.424h-2.76zm-.672 9.216h2.856v9.288h-2.856zm-.24 2.472 2.16 1.08a18.6 18.6 0 0 1-2.112 1.752 25 25 0 0 1-2.544 1.584q-1.368.72-2.784 1.296t-2.784.96a24 24 0 0 0-.864-1.248 9.3 9.3 0 0 0-.984-1.128q1.368-.288 2.784-.72 1.416-.456 2.736-1.008 1.344-.576 2.472-1.224t1.92-1.344m3.432-.072q.792.696 1.872 1.344 1.104.648 2.4 1.224 1.32.552 2.712 1.008 1.392.432 2.736.744-.312.264-.648.672-.336.432-.648.864a9 9 0 0 0-.504.768 26 26 0 0 1-2.784-.96 30 30 0 0 1-2.736-1.296 27 27 0 0 1-2.496-1.536 20 20 0 0 1-2.112-1.728zM12.36.6l3.24.408q-.552 1.056-1.176 2.04-.6.984-1.104 1.656l-2.544-.48q.432-.792.888-1.8T12.36.6M6.216.552l2.976.6a35 35 0 0 1-1.8 2.76A30 30 0 0 1 5.208 6.6q-1.2 1.296-2.688 2.472a5 5 0 0 0-.576-.672 8 8 0 0 0-.768-.72 4.5 4.5 0 0 0-.696-.552 18 18 0 0 0 2.424-2.064 21 21 0 0 0 1.944-2.28A17 17 0 0 0 6.216.552M3.912 4.68h2.712v7.56H22.2v2.16H3.912zm20.592 8.112a96 96 0 0 0 3.36-.816q1.968-.528 3.984-1.104l.36 2.592q-1.8.552-3.672 1.104-1.848.528-3.408.984zm.384-7.632h7.248V7.8h-7.248zM27.384.624h2.784v19.08q0 1.032-.216 1.656t-.768.96q-.576.36-1.416.456-.816.12-1.968.12a11 11 0 0 0-.288-1.392 8 8 0 0 0-.504-1.416q.624.024 1.2.024H27q.216 0 .288-.072.096-.096.096-.336zm5.952 4.824h13.08V8.16h-13.08zm-.744 6.432h14.376v2.76H32.592zm8.616-5.664h2.856v16.848h-2.856zm-6.696-4.584 2.472-.96q.408.6.816 1.344.408.72.744 1.416t.504 1.248l-2.64 1.104a8 8 0 0 0-.456-1.248q-.312-.72-.696-1.488-.36-.768-.744-1.416m8.64-1.08 3.024 1.008-.984 1.872a156 156 0 0 1-.984 1.8q-.48.84-.912 1.488l-2.328-.936q.408-.72.816-1.608A33 33 0 0 0 43.152.552m-7.32 5.688h2.808v6q0 1.392-.192 2.88a13.8 13.8 0 0 1-.672 2.928q-.48 1.464-1.416 2.808-.912 1.32-2.376 2.4a7 7 0 0 0-.528-.672 16 16 0 0 0-.72-.768q-.36-.36-.696-.6 1.32-.84 2.088-1.944a8 8 0 0 0 1.128-2.328q.36-1.248.456-2.448.12-1.2.12-2.256zm13.392 12.912h21.6v2.88h-21.6zm6.24-18.24h2.952v19.32h-2.952zm6.144 0h2.952V20.4h-2.952zm6.384 4.8 2.64 1.248a73 73 0 0 1-1.224 3.12 60 60 0 0 1-1.344 3.048q-.672 1.464-1.296 2.64l-2.376-1.248q.624-1.128 1.296-2.616a50 50 0 0 0 1.272-3.096q.624-1.632 1.032-3.096m-18.456.744 2.64-.792q.576 1.416 1.176 3.048t1.128 3.168a33 33 0 0 1 .816 2.688l-2.88 1.056q-.24-1.176-.72-2.736a95 95 0 0 0-1.056-3.264 71 71 0 0 0-1.104-3.168m25.272 7.512h16.584v2.472H74.808zm15.672 0h2.856l-.024.216q-.024.192-.048.48-.024.264-.072.456-.264 2.064-.552 3.432t-.648 2.184-.84 1.224q-.504.504-1.104.672t-1.44.216a20 20 0 0 1-1.752.024q-1.08 0-2.256-.048-.024-.552-.288-1.272a5.3 5.3 0 0 0-.624-1.2q.792.072 1.584.12.792.024 1.44.048h1.008q.384 0 .648-.048.288-.048.504-.216.336-.24.624-.936.288-.72.528-1.944t.432-3.024zm-8.448-2.04 2.976.24q-.552 3.144-1.824 5.304a10.6 10.6 0 0 1-3.288 3.504q-2.04 1.344-4.992 2.136a5.6 5.6 0 0 0-.456-.768q-.288-.432-.624-.888a4.2 4.2 0 0 0-.6-.72q2.712-.552 4.536-1.608 1.848-1.08 2.88-2.832 1.056-1.776 1.392-4.368M79.56 2.904h12v2.4h-12zm11.304 0h.528l.456-.12 1.776 1.128q-1.368 2.016-3.456 3.504-2.064 1.488-4.68 2.544a38 38 0 0 1-5.496 1.704q-2.88.648-5.856 1.008-.12-.552-.456-1.296a6.6 6.6 0 0 0-.648-1.224q2.808-.24 5.544-.768a36.4 36.4 0 0 0 5.136-1.368q2.424-.864 4.248-2.04 1.848-1.2 2.904-2.736zM79.968 5.352q1.368 1.464 3.648 2.424 2.28.936 5.256 1.44 3 .48 6.456.648-.288.288-.6.744-.288.456-.552.936-.264.456-.456.84-3.552-.264-6.6-.936-3.024-.696-5.424-1.944a14.1 14.1 0 0 1-4.08-3.192zM80.64.576l2.928.6q-1.296 2.136-3.264 4.008-1.944 1.872-4.872 3.384a3.3 3.3 0 0 0-.456-.768 8 8 0 0 0-.624-.816 4 4 0 0 0-.6-.648q1.728-.768 3.048-1.704a15.8 15.8 0 0 0 2.28-1.992q.96-1.032 1.56-2.064"></path></svg> 