<?xml version="1.0" encoding="UTF-8"?> <svg xmlns="http://www.w3.org/2000/svg" width="96" height="24" fill="none"><path fill="#D5D9EF" d="M11.904 1.488h9.384v2.4h-9.384zm2.76.96 2.688.168q-.288 2.808-1.344 4.704a8.7 8.7 0 0 1-2.904 3.096 4.7 4.7 0 0 0-.624-.552q-.408-.336-.84-.648a9 9 0 0 0-.72-.48q1.824-.888 2.688-2.448.888-1.584 1.056-3.84m5.136-.96h2.736v.384q0 .384-.024.6a63 63 0 0 1-.192 3.336q-.12 1.296-.312 2.04-.168.744-.456 1.08a1.9 1.9 0 0 1-.744.576 3.4 3.4 0 0 1-.864.24 10 10 0 0 1-1.176.096q-.696 0-1.512-.024a5.4 5.4 0 0 0-.216-1.248 4.7 4.7 0 0 0-.48-1.176q.624.048 1.152.072h.792q.48.024.696-.216.168-.216.264-.768.096-.576.168-1.68.096-1.128.168-2.928zM1.608 3.072h9.576v2.496H1.608zm-.552 4.704h10.56v2.52H1.056zm5.616 5.136h4.632v2.496H6.672zM5.136.624h2.64v8.472h-2.64zm.432 8.64h2.568V19.92H5.568zM3.96 13.992q.48 1.896 1.224 3.048.768 1.152 1.872 1.752 1.128.576 2.616.792 1.488.192 3.384.192.456 0 1.248.024h1.8a84 84 0 0 1 2.04-.024h2.112q1.032 0 1.872-.024.84-.048 1.392-.048-.216.312-.432.816t-.408 1.032q-.168.552-.264.984h-9.36q-2.4 0-4.224-.312-1.824-.288-3.144-1.128t-2.256-2.4q-.912-1.56-1.536-4.08zM1.824 11.52l2.52.168a76 76 0 0 1-.168 4.392 31 31 0 0 1-.504 3.912q-.36 1.776-.984 3.144a5 5 0 0 0-.672-.432q-.432-.24-.888-.48a9 9 0 0 0-.744-.336q.6-1.2.912-2.832t.408-3.552.12-3.984m13.368 1.536v2.976h3.912v-2.976zm-2.688-2.328h9.48v7.584h-9.48zm23.64-4.656H44.4v2.352h-8.256zm-4.128 13.92q1.08-.168 2.496-.408 1.44-.24 3.048-.504 1.608-.288 3.192-.576l.24 2.496q-2.088.48-4.2.936-2.112.48-3.84.84zM34.512 1.68h2.784v18.96h-2.784zm1.632 0h9.576v11.232h-9.576V10.44h6.72V4.152h-6.72zm4.992 9.576q.456 2.16 1.248 4.008A12.2 12.2 0 0 0 44.4 18.48a8.35 8.35 0 0 0 3 2.16 10 10 0 0 0-.672.696q-.36.432-.696.888a9 9 0 0 0-.504.864 10.3 10.3 0 0 1-3.264-2.688q-1.296-1.68-2.136-3.888t-1.368-4.848zm3.48 1.824 2.256 1.56a40 40 0 0 1-2.088 1.896 31 31 0 0 1-1.992 1.56l-1.776-1.368a23 23 0 0 0 1.224-1.104q.672-.624 1.296-1.296t1.08-1.248M25.776 1.632h5.976v2.592h-3.288V23.16h-2.688zm5.184 0h.504l.408-.096 1.968 1.128q-.336 1.056-.72 2.232t-.768 2.328a33 33 0 0 1-.768 2.088q1.176 1.392 1.512 2.64.36 1.224.36 2.28 0 1.2-.264 1.968t-.864 1.2a2.2 2.2 0 0 1-.672.336q-.36.12-.744.192a6 6 0 0 1-.792.048h-.888q-.024-.552-.192-1.296a4.4 4.4 0 0 0-.432-1.272q.336.024.6.024h.504q.192 0 .36-.048.192-.072.36-.168.216-.168.312-.504.12-.36.096-.864 0-.84-.36-1.92-.336-1.104-1.416-2.304.264-.816.528-1.8.288-.984.528-1.968.264-1.008.48-1.872.24-.888.36-1.464zm23.592 9.888v7.608h-2.808V14.16h-2.712v-2.64zm0 6.072a4.45 4.45 0 0 0 2.112 1.752q1.344.552 3.216.648a89 89 0 0 0 2.52.072q1.464 0 3.096-.024l3.168-.096a89 89 0 0 0 2.76-.168q-.144.312-.336.84-.192.504-.336 1.032-.144.552-.24.984-1.08.048-2.472.072-1.368.048-2.856.048-1.488.024-2.88 0a56 56 0 0 1-2.448-.048q-2.232-.096-3.816-.696-1.56-.6-2.712-1.992-.768.696-1.608 1.392-.84.72-1.8 1.512l-1.392-2.928a50 50 0 0 0 1.704-1.104 29 29 0 0 0 1.752-1.296zM50.016 2.52l1.92-1.776q.672.36 1.416.864t1.392 1.032q.672.504 1.08.984L53.76 5.568a8 8 0 0 0-.984-1.008 16 16 0 0 0-1.368-1.08q-.72-.552-1.392-.96m-.96 4.848 1.872-1.848q.72.336 1.464.816.768.48 1.464.984.696.48 1.128.936l-2.016 2.04q-.36-.456-1.032-.984a21 21 0 0 0-1.44-1.032 15 15 0 0 0-1.44-.912m8.328-5.592h12.312v2.688H57.384zm-1.608 5.352H71.28v2.688H55.776zm4.464 1.416 3.168.888Q62.88 10.68 62.304 12a61 61 0 0 1-1.128 2.496q-.552 1.2-1.056 2.136l-2.352-.816q.48-1.008.936-2.256.48-1.272.864-2.592.408-1.32.672-2.424m-4.296 6.864a406 406 0 0 0 8.064-.576q2.328-.192 4.608-.36l.024 2.568q-2.16.216-4.368.432t-4.224.432q-2.016.192-3.672.36zm8.736-3.816 2.328-1.128q.864 1.08 1.68 2.352.84 1.248 1.512 2.472.696 1.2 1.008 2.208l-2.544 1.296q-.288-.984-.912-2.232a30 30 0 0 0-1.44-2.544 32 32 0 0 0-1.632-2.424m8.16-8.328h8.04v2.592h-8.04zm4.008 4.104h2.424v15.72h-2.424zm-4.08 9.192q1.536-.24 3.696-.648 2.16-.432 4.368-.84l.216 2.376q-1.992.48-4.008.96-2.016.456-3.696.816zm.744-2.928q-.072-.24-.216-.648-.144-.432-.312-.864a7 7 0 0 0-.288-.768q.36-.096.6-.6.24-.528.504-1.344.12-.384.336-1.272.24-.912.48-2.136a46 46 0 0 0 .48-2.616q.24-1.392.312-2.76l2.616.384a42 42 0 0 1-.744 4.008 62 62 0 0 1-1.056 3.888 38 38 0 0 1-1.2 3.336v.048l-.24.144q-.216.144-.528.36a3.5 3.5 0 0 0-.528.432q-.216.24-.216.408m0 0v-2.304l1.2-.648h6.072v2.592h-5.496q-.552 0-1.104.096-.528.096-.672.264m9.576-7.32h9.648v2.256h-9.648zm-1.392 3.384h5.16v2.184h-2.904v11.184h-2.256zm4.584 0h2.256V20.52q0 .792-.144 1.296t-.624.792q-.48.264-1.128.336a13 13 0 0 1-1.464.072 5 5 0 0 0-.216-1.128 5.8 5.8 0 0 0-.408-1.128q.48.024.888.024h.576q.264 0 .264-.288zm-2.856 3.408h4.56v2.04h-4.56zm-.024 3.264h4.56v2.04H83.4zm5.952-6.024h2.112v8.808h-2.112zm3.072-.912h2.184v10.872q0 .864-.192 1.368-.168.528-.744.816-.552.264-1.392.336-.816.072-1.968.072a8.5 8.5 0 0 0-.264-1.128 7 7 0 0 0-.432-1.128 49 49 0 0 0 1.488.024h.912q.408-.024.408-.36zm-4.68-9 2.328 1.056A17.4 17.4 0 0 1 87.768 4.2a23 23 0 0 1-2.832 2.328 22 22 0 0 1-3.048 1.824 9 9 0 0 0-.792-1.128 7.2 7.2 0 0 0-1.032-1.056q1.464-.6 2.904-1.488a20 20 0 0 0 2.712-1.968q1.248-1.08 2.064-2.28m1.2 1.08a14.5 14.5 0 0 0 3.12 2.688 24 24 0 0 0 3.672 1.824q-.48.456-.984 1.08-.48.6-.72 1.152a24.5 24.5 0 0 1-3.912-2.448Q88.368 4.416 86.76 2.4z"></path></svg> 