<?xml version="1.0" encoding="UTF-8"?> <svg xmlns="http://www.w3.org/2000/svg" width="96" height="24" fill="none"><path fill="#D5D9EF" d="M10.8 3.096h12.456v2.472H10.8zm-.264 3.72h10.512v2.328H10.536zm-2.352 3.648H19.44v2.52H8.184zM10.752.576l2.736.744q-.552 1.44-1.296 2.856a30 30 0 0 1-1.584 2.64 17.5 17.5 0 0 1-1.704 2.136q-.264-.24-.696-.576-.408-.336-.84-.648a11 11 0 0 0-.768-.552Q7.92 6 9 4.248A18 18 0 0 0 10.752.576m7.104 9.888h2.784v4.056a80 80 0 0 0 .096 3.192q.072 1.32.24 2.064.192.72.48.72.216 0 .288-.864.096-.888.12-2.232.36.48.84.984.48.48.864.792-.072 1.392-.312 2.256-.216.888-.696 1.32-.456.432-1.32.456-1.224 0-1.92-.912-.672-.912-.984-2.592-.288-1.704-.384-4.032-.072-2.352-.096-5.208M2.016 3.096l1.632-2.088q.648.288 1.416.696.792.408 1.512.84.744.408 1.2.768L6.096 5.64a9 9 0 0 0-1.152-.84 39 39 0 0 0-1.464-.912q-.768-.456-1.464-.792M.624 9.624l1.512-2.16q.672.288 1.464.672t1.536.768q.768.384 1.272.696L4.8 12q-.456-.336-1.2-.768a23 23 0 0 0-1.536-.84 78 78 0 0 0-1.44-.768m.792 11.208q.6-.912 1.32-2.112.72-1.224 1.464-2.592.744-1.392 1.392-2.736l2.184 1.848a60 60 0 0 1-1.2 2.544 95 95 0 0 1-1.32 2.544q-.672 1.224-1.344 2.376zm24.24-16.824h20.76v2.76h-20.76zM25.152 16.2h21.72v2.808h-21.72zm10.68-8.52h3.096v15.48h-3.096zm-7.872 6.24q-.096-.312-.288-.84-.168-.528-.384-1.104-.216-.6-.408-1.008.504-.168.912-.6.408-.456.912-1.248.288-.36.768-1.224.504-.888 1.104-2.088.6-1.224 1.176-2.616T32.784.384l3.36.864a40 40 0 0 1-1.872 4.056 50 50 0 0 1-2.16 3.768 49 49 0 0 1-2.16 3.168v.072l-.312.168q-.288.168-.696.432a9 9 0 0 0-.696.528q-.288.264-.288.48m0 0v-2.184l1.584-.912h15.288v2.736H30.72q-.624 0-1.224.048-.6.024-1.008.12-.408.072-.528.192m26.592-2.4v7.608h-2.808V14.16h-2.712v-2.64zm0 6.072a4.45 4.45 0 0 0 2.112 1.752q1.344.552 3.216.648a89 89 0 0 0 2.52.072q1.464 0 3.096-.024l3.168-.096a89 89 0 0 0 2.76-.168q-.144.312-.336.84-.192.504-.336 1.032-.144.552-.24.984-1.08.048-2.472.072-1.368.048-2.856.048-1.488.024-2.88 0a56 56 0 0 1-2.448-.048q-2.232-.096-3.816-.696-1.56-.6-2.712-1.992-.768.696-1.608 1.392-.84.72-1.8 1.512l-1.392-2.928a50 50 0 0 0 1.704-1.104 29 29 0 0 0 1.752-1.296zM50.016 2.52l1.92-1.776q.672.36 1.416.864t1.392 1.032q.672.504 1.08.984L53.76 5.568a8 8 0 0 0-.984-1.008 16 16 0 0 0-1.368-1.08q-.72-.552-1.392-.96m-.96 4.848 1.872-1.848q.72.336 1.464.816.768.48 1.464.984.696.48 1.128.936l-2.016 2.04q-.36-.456-1.032-.984a21 21 0 0 0-1.44-1.032 15 15 0 0 0-1.44-.912m8.328-5.592h12.312v2.688H57.384zm-1.608 5.352H71.28v2.688H55.776zm4.464 1.416 3.168.888Q62.88 10.68 62.304 12a61 61 0 0 1-1.128 2.496q-.552 1.2-1.056 2.136l-2.352-.816q.48-1.008.936-2.256.48-1.272.864-2.592.408-1.32.672-2.424m-4.296 6.864a406 406 0 0 0 8.064-.576q2.328-.192 4.608-.36l.024 2.568q-2.16.216-4.368.432t-4.224.432q-2.016.192-3.672.36zm8.736-3.816 2.328-1.128q.864 1.08 1.68 2.352.84 1.248 1.512 2.472.696 1.2 1.008 2.208l-2.544 1.296q-.288-.984-.912-2.232a30 30 0 0 0-1.44-2.544 32 32 0 0 0-1.632-2.424m8.16-8.328h8.04v2.592h-8.04zm4.008 4.104h2.424v15.72h-2.424zm-4.08 9.192q1.536-.24 3.696-.648 2.16-.432 4.368-.84l.216 2.376q-1.992.48-4.008.96-2.016.456-3.696.816zm.744-2.928q-.072-.24-.216-.648-.144-.432-.312-.864a7 7 0 0 0-.288-.768q.36-.096.6-.6.24-.528.504-1.344.12-.384.336-1.272.24-.912.48-2.136a46 46 0 0 0 .48-2.616q.24-1.392.312-2.76l2.616.384a42 42 0 0 1-.744 4.008 62 62 0 0 1-1.056 3.888 38 38 0 0 1-1.2 3.336v.048l-.24.144q-.216.144-.528.36a3.5 3.5 0 0 0-.528.432q-.216.24-.216.408m0 0v-2.304l1.2-.648h6.072v2.592h-5.496q-.552 0-1.104.096-.528.096-.672.264m9.576-7.32h9.648v2.256h-9.648zm-1.392 3.384h5.16v2.184h-2.904v11.184h-2.256zm4.584 0h2.256V20.52q0 .792-.144 1.296t-.624.792q-.48.264-1.128.336a13 13 0 0 1-1.464.072 5 5 0 0 0-.216-1.128 5.8 5.8 0 0 0-.408-1.128q.48.024.888.024h.576q.264 0 .264-.288zm-2.856 3.408h4.56v2.04h-4.56zm-.024 3.264h4.56v2.04H83.4zm5.952-6.024h2.112v8.808h-2.112zm3.072-.912h2.184v10.872q0 .864-.192 1.368-.168.528-.744.816-.552.264-1.392.336-.816.072-1.968.072a8.5 8.5 0 0 0-.264-1.128 7 7 0 0 0-.432-1.128 49 49 0 0 0 1.488.024h.912q.408-.024.408-.36zm-4.68-9 2.328 1.056A17.4 17.4 0 0 1 87.768 4.2a23 23 0 0 1-2.832 2.328 22 22 0 0 1-3.048 1.824 9 9 0 0 0-.792-1.128 7.2 7.2 0 0 0-1.032-1.056q1.464-.6 2.904-1.488a20 20 0 0 0 2.712-1.968q1.248-1.08 2.064-2.28m1.2 1.08a14.5 14.5 0 0 0 3.12 2.688 24 24 0 0 0 3.672 1.824q-.48.456-.984 1.08-.48.6-.72 1.152a24.5 24.5 0 0 1-3.912-2.448Q88.368 4.416 86.76 2.4z"></path></svg> 