<?xml version="1.0" encoding="UTF-8"?> <svg xmlns="http://www.w3.org/2000/svg" width="161" height="40" fill="none"><path fill="#F2F4FF" d="M4.796 1.77h9.45v4.662h-9.45zm0 9.534h9.618v4.662H4.796zm16.422 5.166h14.7v4.578h-14.7zM4.754 21.09h9.492v4.746H4.754zM2.822 1.77h4.536V17.1q0 2.52-.126 5.502a75 75 0 0 1-.42 6.048 51 51 0 0 1-1.008 5.964q-.672 2.898-1.722 5.208-.42-.378-1.176-.84a28 28 0 0 0-1.554-.882 12 12 0 0 0-1.344-.588q1.008-2.142 1.554-4.704a54 54 0 0 0 .84-5.334q.294-2.73.336-5.376.084-2.688.084-4.998zm8.61 0h4.662v32.508q0 1.722-.336 2.814t-1.344 1.722-2.436.798-3.486.168q-.042-.672-.252-1.596a21 21 0 0 0-.504-1.764 7.8 7.8 0 0 0-.588-1.512q1.176.042 2.184.042h1.428q.378 0 .504-.168.168-.168.168-.588zm21.588.042h4.83V9.96q0 1.68-.462 2.646-.42.924-1.722 1.428-1.26.462-3.108.588a92 92 0 0 1-4.2.084q-.126-1.008-.588-2.184a16 16 0 0 0-.882-2.058l2.142.084q1.092.042 1.932.042.882-.042 1.176-.042.504-.042.672-.168.21-.126.21-.504zm1.512 14.658h.84l.798-.168 2.982.966q-.924 5.46-2.772 9.786-1.806 4.284-4.494 7.434a24.7 24.7 0 0 1-6.132 5.208q-.462-.84-1.344-1.974-.84-1.092-1.554-1.722 2.94-1.554 5.334-4.326t3.99-6.468q1.638-3.696 2.352-7.896zm-7.266 3.066a32.3 32.3 0 0 0 2.94 6.762 29.3 29.3 0 0 0 4.41 5.67 20.7 20.7 0 0 0 5.754 3.948q-.798.63-1.722 1.806T37.22 39.78a22.7 22.7 0 0 1-6.048-4.662q-2.604-2.898-4.578-6.552-1.932-3.696-3.276-7.98zm-8.82-17.724h15.792v4.662H23.192V39.78h-4.746zm27.468 21.882h29.022v4.326H45.914zm27.426 0h4.998l-.042.378q-.042.336-.084.84-.042.462-.126.798-.462 3.612-.966 6.006t-1.134 3.822-1.47 2.142q-.882.882-1.932 1.176t-2.52.378q-1.176.084-3.066.042-1.89 0-3.948-.084-.042-.966-.504-2.226-.462-1.218-1.092-2.1a92 92 0 0 0 2.772.21q1.386.042 2.52.084h1.764q.672 0 1.134-.084.504-.084.882-.378.588-.42 1.092-1.638.504-1.26.924-3.402t.756-5.292zm-14.784-3.57 5.208.42q-.966 5.502-3.192 9.282a18.56 18.56 0 0 1-5.754 6.132q-3.57 2.352-8.736 3.738-.252-.546-.798-1.344-.504-.756-1.092-1.554-.546-.798-1.05-1.26 4.746-.966 7.938-2.814 3.234-1.89 5.04-4.956 1.848-3.108 2.436-7.644M54.23 4.332h21v4.2h-21zm19.782 0h.924l.798-.21 3.108 1.974q-2.394 3.528-6.048 6.132-3.612 2.604-8.19 4.452a66.5 66.5 0 0 1-9.618 2.982 103 103 0 0 1-10.248 1.764q-.21-.966-.798-2.268-.546-1.302-1.134-2.142a93 93 0 0 0 9.702-1.344q4.788-.924 8.988-2.394 4.242-1.512 7.434-3.57 3.234-2.1 5.082-4.788zM54.944 8.616q2.394 2.562 6.384 4.242 3.99 1.638 9.198 2.52 5.25.84 11.298 1.134-.504.504-1.05 1.302a32 32 0 0 0-.966 1.638 28 28 0 0 0-.798 1.47q-6.216-.462-11.55-1.638-5.292-1.218-9.492-3.402-4.158-2.184-7.14-5.586zM56.12.258l5.124 1.05q-2.268 3.738-5.712 7.014-3.402 3.276-8.526 5.922-.252-.63-.798-1.344-.504-.756-1.092-1.428-.546-.714-1.05-1.134Q47.09 8.994 49.4 7.356q2.31-1.68 3.99-3.486T56.12.258m28.392 4.578H98.54v4.788H84.512zm4.872 2.016h4.998v21.042h-4.998zm-5.586 20.37q1.806-.42 4.2-1.05t5.166-1.344 5.544-1.47l.63 4.2a794 794 0 0 1-7.476 2.646q-3.738 1.26-6.846 2.352zM99.086 1.938h24.36v4.494h-24.36zm8.988 2.058 6.048.798a125 125 0 0 1-1.974 3.864q-1.008 1.89-1.764 3.234l-4.578-.966a29 29 0 0 0 1.302-3.444q.63-1.932.966-3.486m.126 11.718h5.082v8.652q0 2.184-.63 4.368t-2.226 4.2q-1.554 2.016-4.41 3.78t-7.266 3.15q-.294-.546-.882-1.26a26 26 0 0 0-1.176-1.428A7.8 7.8 0 0 0 95.516 36q4.242-1.05 6.762-2.394 2.52-1.386 3.78-2.94 1.302-1.596 1.722-3.192.42-1.638.42-3.192zm3.612 17.262 3.108-3.024a44 44 0 0 1 3.192 1.974q1.722 1.092 3.276 2.226 1.596 1.092 2.604 2.016l-3.36 3.402q-.924-.924-2.436-2.142a53 53 0 0 0-3.192-2.352 62 62 0 0 0-3.192-2.1m-11.55-23.268h21.084v19.698h-5.166V14.118h-11.004v15.414h-4.914zm34.272 2.604h22.806V17.1h-22.806zm0 9.744h22.806v4.788h-22.806zm0 9.702h22.806v4.914h-22.806zM130.922 2.61h29.946v36.708h-5.376V7.524h-19.488v31.794h-5.082z"></path></svg> 