<?xml version="1.0" encoding="UTF-8"?> <svg xmlns="http://www.w3.org/2000/svg" width="465" height="261" fill="none"><path fill="#F2F4FF" d="M5.992 110.981H69.99v31.509H5.992zm33.078-55.49h77.659v32.067h-77.66zm88.445 12.269q7.43 33.74 20.614 62.74 13.183 28.72 33.077 50.75 19.894 21.75 46.98 33.74-3.117 3.068-7.191 8.366a177 177 0 0 0-7.431 11.154q-3.355 5.577-5.512 10.317-28.524-15.336-48.658-39.875-20.133-24.817-33.796-57.721-13.423-33.183-22.291-73.058zm65.915 9.76 26.366 22.865a701 701 0 0 1-21.332 21.471 1001 1001 0 0 1-22.291 20.356q-11.026 9.76-20.853 17.288l-20.134-19.519q9.587-7.808 20.134-18.404a494 494 0 0 0 20.613-22.029Q186 88.115 193.43 77.52M99.472 55.49h30.92v166.472q0 13.385-2.877 20.913-2.876 7.808-10.546 11.99-7.431 3.904-18.456 4.741-11.026.836-26.366.836-.96-7.25-3.835-17.009-2.877-9.76-5.992-16.452 5.992.28 12.464.557 6.471.279 11.505.279 5.273-.279 7.43-.279 3.355-.278 4.554-1.394 1.2-1.393 1.199-4.74zM57.766 27.327 72.386 0q10.308 2.509 22.532 6.413a427 427 0 0 1 24.448 8.645q12.224 4.74 23.01 9.76 11.027 4.74 18.456 9.48l-15.34 30.952q-7.19-4.74-17.737-10.038-10.306-5.3-22.531-10.597a394 394 0 0 0-24.208-9.76q-12.225-4.46-23.25-7.528m1.438 83.654h5.752l5.034-1.394 19.175 9.48q-5.752 29.28-15.58 53.26t-22.77 42.106Q37.87 232.279 23.25 243.99q-2.397-3.625-6.472-8.365a113 113 0 0 0-8.629-9.481q-4.554-4.74-8.149-7.25 14.142-10.038 25.887-25.096Q37.87 178.741 46.5 159.221t12.704-41.827zM242.327 66.365H465v32.068H242.327zm49.377 144.443h164.907v32.346H291.704zm59.443-68.318h61.361v31.231h-61.361zM276.843 7.529h29.482V261h-29.482zm62.08-6.135h29.242v183.76h-29.242zm61.121 2.789h29.242v180.692h-29.242z"></path></svg> 