<?xml version="1.0" encoding="UTF-8"?> <svg xmlns="http://www.w3.org/2000/svg" width="262" height="168" fill="none"><path fill="#F2F4FF" d="M51.476.356h17.386V32.96H51.476zM2.852 16.568H118.98v42.223h-17.521V36.344H19.423V58.79H2.852zM46.587 40.62l17.25 4.632a1468 1468 0 0 1-8.422 22.626 2419 2419 0 0 1-8.828 23.16q-4.482 11.58-8.829 22.091a792 792 0 0 1-7.877 18.707l-17.25-6.058q3.94-8.194 8.285-18.528a830 830 0 0 0 8.965-21.913 958 958 0 0 0 8.828-22.982 951 951 0 0 0 7.878-21.735M80.95 81.417l18.336 3.028q-4.347 20.667-12.088 35.097-7.606 14.252-18.472 23.873-10.73 9.62-24.856 15.321-14.125 5.879-31.646 9.264-.679-2.672-2.309-6.414a130 130 0 0 0-3.531-7.126q-1.767-3.563-3.396-5.879 22.275-2.85 38.302-9.977 16.163-7.125 26.078-20.844 9.915-13.718 13.582-36.343M0 66.987h121.289v20.13H0zm22.818 55.049 11.817-14.965q9.915 3.563 21.052 8.551a335 335 0 0 1 22.275 10.868q11.138 5.701 20.916 11.758 9.915 6.057 16.978 11.937l-13.039 17.459q-6.384-5.701-15.755-12.115-9.373-6.235-20.374-12.293a420 420 0 0 0-22.274-11.758q-11.273-5.523-21.596-9.442M195.855 20.844q-4.21 7.839-10.051 16.212-5.841 8.196-12.903 16.39a197 197 0 0 1-15.076 15.322 170 170 0 0 1-16.299 13.361q-1.494-3.741-4.618-8.73-2.988-5.165-5.704-8.373 11.816-8.016 22.546-18.884 10.73-11.046 19.287-23.16T186.619 0h16.978a174.5 174.5 0 0 0 12.224 19.597q6.79 9.443 14.261 17.637 7.606 8.017 15.619 14.61 8.15 6.413 16.299 11.045-3.124 4.097-5.84 9.086a172 172 0 0 0-5.026 9.976q-7.742-5.7-15.755-12.827a239 239 0 0 1-15.348-15.321 241 241 0 0 1-13.582-16.569q-6.248-8.373-10.594-16.39m-46.044 83.733h92.902v18.528h-92.902zm6.927-39.55h79.728V83.91h-79.728zm-17.928 79.635h116.127v19.062H138.81zM187.434 73.4h17.113v81.773h-17.113z"></path></svg> 